<svg width="32" height="32" viewBox="0 0 32 32" fill="none" xmlns="http://www.w3.org/2000/svg">
<circle cx="16" cy="16" r="16" fill="url(#paint0_linear_32_5082)"/>
<path fill-rule="evenodd" clip-rule="evenodd" d="M13.778 25H18.222C21.343 25 22.904 25 24.025 24.265C24.5087 23.948 24.9253 23.5389 25.251 23.061C26 21.961 26 20.428 26 17.364C26 14.299 26 12.767 25.251 11.667C24.9253 11.1891 24.5087 10.78 24.025 10.463C23.305 9.99 22.403 9.821 21.022 9.761C20.363 9.761 19.796 9.271 19.667 8.636C19.5684 8.17087 19.3123 7.75404 18.9418 7.45595C18.5714 7.15787 18.1095 6.99681 17.634 7H14.366C13.378 7 12.527 7.685 12.333 8.636C12.204 9.271 11.637 9.761 10.978 9.761C9.598 9.821 8.696 9.991 7.975 10.463C7.49162 10.7801 7.07537 11.1892 6.75 11.667C6 12.767 6 14.299 6 17.364C6 20.428 6 21.96 6.749 23.061C7.073 23.537 7.489 23.946 7.975 24.265C9.096 25 10.657 25 13.778 25ZM16 13.273C13.699 13.273 11.833 15.104 11.833 17.363C11.833 19.623 13.699 21.454 16 21.454C18.301 21.454 20.167 19.623 20.167 17.364C20.167 15.104 18.301 13.273 16 13.273ZM16 14.909C14.62 14.909 13.5 16.008 13.5 17.364C13.5 18.719 14.62 19.818 16 19.818C17.38 19.818 18.5 18.719 18.5 17.364C18.5 16.008 17.38 14.909 16 14.909ZM20.722 14.091C20.722 13.639 21.095 13.273 21.556 13.273H22.666C23.126 13.273 23.5 13.639 23.5 14.091C23.4979 14.3099 23.409 14.519 23.2528 14.6724C23.0966 14.8258 22.8859 14.9109 22.667 14.909H21.556C21.4475 14.9101 21.3399 14.8897 21.2393 14.8492C21.1387 14.8087 21.047 14.7487 20.9696 14.6727C20.8921 14.5968 20.8304 14.5063 20.7879 14.4065C20.7454 14.3067 20.723 14.1995 20.722 14.091Z" fill="white"/>
<defs>
<linearGradient id="paint0_linear_32_5082" x1="16" y1="0" x2="16" y2="32" gradientUnits="userSpaceOnUse">
<stop stop-color="#450E8B"/>
<stop offset="1" stop-color="#EC8C34"/>
</linearGradient>
</defs>
</svg>
