<svg width="140" height="157" viewBox="0 0 140 157" fill="none" xmlns="http://www.w3.org/2000/svg">
<path d="M42.4514 140.594C41.0626 140.045 39.8901 139.123 38.9339 137.827C38.4558 137.18 38.1496 136.416 38.0152 135.537C37.9007 134.666 38.0276 133.765 38.3962 132.832C39.094 131.066 40.2477 129.859 41.8573 129.211C43.467 128.562 45.1304 128.474 46.8478 128.946C45.8543 128.21 45.1653 127.341 44.7809 126.34C44.4162 125.347 44.4574 124.286 44.9043 123.155C45.5786 121.448 46.7764 120.362 48.4977 119.895C50.2467 119.416 51.9843 119.518 53.7104 120.2C55.4365 120.882 56.7298 121.818 57.5905 123.007C58.4511 124.196 58.6345 125.415 58.1405 126.665C57.968 127.101 57.7201 127.497 57.3967 127.851C57.0932 128.212 56.8268 128.451 56.5975 128.567L56.2716 128.782C55.6367 128.531 54.9755 128.144 54.2879 127.62C53.6203 127.104 53.1745 126.606 52.9507 126.128L54.5191 123.204C54.3391 122.789 53.892 122.44 53.1778 122.158C52.4834 121.883 51.7828 122.031 51.076 122.6C50.397 123.158 49.8732 123.902 49.5047 124.835C49.1362 125.767 48.967 126.515 48.997 127.077C49.0271 127.64 49.1896 128.128 49.4845 128.543C49.9427 129.183 50.5571 129.747 51.3277 130.235L50.4428 131.778C49.0143 131.213 47.6057 131.15 46.217 131.587C44.8361 132.005 43.8713 132.908 43.3225 134.297C42.9775 135.17 42.9691 136.004 43.2972 136.799C43.6531 137.582 44.2774 138.15 45.1702 138.502C46.7971 139.145 48.7891 138.981 51.1461 138.008L51.9014 139.58C48.5179 141.408 45.3679 141.746 42.4514 140.594Z" fill="#450E8B"/>
<path d="M60.2646 146.275C59.5564 146.118 59.016 145.747 58.6432 145.162C58.2913 144.581 58.21 143.864 58.3994 143.01C58.5934 142.135 59.7158 139.489 61.7666 135.071C63.8427 130.637 65.1095 127.388 65.5669 125.327L65.6843 123.91C67.4336 123.708 69.0163 123.764 70.4326 124.079C70.5762 124.416 70.5671 124.95 70.4054 125.679C70.0358 127.345 68.7887 130.455 66.664 135.01C64.5647 139.548 63.4273 142.213 63.2517 143.005C63.0808 143.775 63.089 144.181 63.2765 144.223L65.6366 143.927L65.9564 145.145C65.1235 145.55 64.1437 145.879 63.0169 146.132C61.911 146.389 60.9935 146.437 60.2646 146.275Z" fill="#450E8B"/>
<path d="M72.2685 142.752C72.439 140.09 73.3717 138.044 75.0666 136.614C76.7842 135.163 78.6649 134.504 80.7087 134.635C81.9648 134.715 82.9776 135.09 83.7471 135.759C84.5165 136.428 84.8678 137.285 84.801 138.328C84.7355 139.35 84.4142 140.195 83.8369 140.863C83.2809 141.533 82.6181 142.036 81.8484 142.371C80.2891 143.02 78.8753 143.399 77.6069 143.51L76.8344 143.557C76.8552 145.568 77.6107 146.621 79.101 146.716C79.6119 146.749 80.163 146.656 80.7542 146.438C81.3454 146.219 81.8088 145.992 82.1446 145.757L82.6481 145.405L83.3491 146.476C83.1638 146.699 82.8034 146.986 82.2679 147.336C81.7323 147.687 81.2329 147.975 80.7694 148.202C79.491 148.804 78.1173 149.058 76.6483 148.964C75.1793 148.87 74.0524 148.274 73.2677 147.176C72.4829 146.079 72.1499 144.604 72.2685 142.752ZM76.9027 141.99C78.0007 141.868 78.8923 141.466 79.5773 140.783C80.2624 140.1 80.6418 139.184 80.7154 138.034C80.7891 136.884 80.4853 136.288 79.804 136.244C78.995 136.192 78.3226 136.844 77.7869 138.199C77.2738 139.534 76.979 140.798 76.9027 141.99Z" fill="#450E8B"/>
<path d="M98.886 152.044C98.2441 152.559 97.9498 153.018 98.0031 153.42C98.0563 153.822 98.305 153.993 98.7491 153.934C99.2144 153.873 99.7031 153.582 100.215 153.062C100.73 152.564 101.114 151.803 101.365 150.779C100.375 151.104 99.549 151.526 98.886 152.044ZM106.021 133.539C106.117 133.612 106.185 133.797 106.224 134.093C106.26 134.368 106.28 134.677 106.282 135.021C106.282 135.344 106.305 136.083 106.35 137.239C106.396 138.395 106.422 139.403 106.428 140.263C106.61 149.923 104.343 155.065 99.6273 155.69C98.866 155.791 98.1414 155.683 97.4538 155.365C96.7872 155.044 96.4119 154.567 96.3279 153.932C96.2158 153.086 96.6316 152.246 97.5755 151.411C98.5193 150.575 99.8436 149.851 101.549 149.238C101.546 149.217 101.57 148.912 101.621 148.325C101.672 147.737 101.695 147.26 101.69 146.895C100.544 147.994 99.4112 148.617 98.2903 148.766C97.1906 148.912 96.2237 148.599 95.3898 147.827C94.577 147.052 94.0446 145.713 93.7924 143.81C93.4618 141.314 93.7476 139.167 94.6499 137.369C95.5494 135.55 96.9192 134.519 98.7591 134.275C99.7954 134.137 100.855 134.255 101.937 134.628C102.965 134.105 104.103 133.76 105.351 133.595L106.021 133.539ZM100.435 135.957C99.5252 136.078 98.9042 136.913 98.5716 138.464C98.2363 139.993 98.1876 141.656 98.4258 143.454C98.6612 145.231 99.1807 146.066 99.9843 145.959C100.513 145.889 101.11 145.605 101.776 145.108C101.898 141.477 101.932 138.492 101.881 136.153C101.255 135.978 100.773 135.912 100.435 135.957Z" fill="#450E8B"/>
<path d="M121.054 131.483C121.306 132.343 121.466 133.908 121.534 136.178C121.595 138.428 121.722 139.881 121.915 140.536C122.101 141.17 122.287 141.46 122.471 141.406C122.594 141.37 123.007 141.037 123.712 140.408L124.026 140.115L124.864 141.036C124.728 141.254 124.542 141.531 124.307 141.867C124.073 142.203 123.599 142.709 122.886 143.385C122.167 144.042 121.45 144.475 120.734 144.686C120.017 144.896 119.391 144.847 118.855 144.537C118.314 144.208 117.935 143.674 117.718 142.937C117.495 142.18 117.36 140.775 117.312 138.721C117.258 136.646 117.146 135.323 116.978 134.75C116.725 133.89 116.221 133.16 115.466 132.559L115.082 132.272L114.995 131.864C115.989 131.238 117.704 130.567 120.14 129.85C120.496 130.079 120.801 130.623 121.054 131.483ZM116.055 127.416C115.525 127.127 115.161 126.645 114.963 125.969C114.764 125.294 114.866 124.619 115.268 123.945C115.69 123.265 116.27 122.816 117.007 122.6C117.744 122.383 118.377 122.419 118.907 122.708C119.436 122.997 119.801 123.479 119.999 124.155C120.192 124.81 120.067 125.48 119.624 126.166C119.201 126.847 118.631 127.292 117.915 127.503C117.199 127.713 116.579 127.684 116.055 127.416Z" fill="#450E8B"/>
<path d="M133.848 124.602C134.02 125.109 134.098 125.749 134.083 126.522C133.304 126.764 132.582 127.029 131.916 127.315L131.387 127.543C132.366 132.301 133.088 135.218 133.552 136.296C133.796 136.864 134.036 137.098 134.271 136.997C134.526 136.887 135.077 136.36 135.924 135.414L136.871 136.157C135.751 138.357 134.446 139.778 132.957 140.419C132.271 140.714 131.61 140.743 130.974 140.506C130.357 140.261 129.897 139.785 129.594 139.08C129.281 138.355 129.01 137.508 128.779 136.539C128.567 135.562 128.33 134.363 128.067 132.943C127.796 131.504 127.556 130.353 127.347 129.491C126.648 129.861 126.134 130.152 125.807 130.363C125.666 130.144 125.512 129.839 125.343 129.447C125.166 129.036 125.052 128.69 125.001 128.41L126.853 127.613C126.554 126.487 126.202 125.454 125.798 124.514L125.376 123.615L125.338 123.527C126.639 122.34 127.965 121.456 129.317 120.874C129.564 121.232 129.814 121.705 130.067 122.293C130.32 122.881 130.63 124.059 130.997 125.829L133.848 124.602Z" fill="#450E8B"/>
<path d="M56.1814 74.118C55.9299 73.2416 55.7578 72.1479 55.6651 70.8371C55.5725 69.5262 55.5641 68.1817 55.6401 66.8037C55.7599 65.3886 55.9149 64.0376 56.1053 62.7507C56.3361 61.4672 56.629 60.4129 56.9838 59.5878C57.6513 59.4 58.3121 59.0488 58.9665 58.5341C59.6243 57.979 60.2101 57.0716 60.7239 55.8121C61.2411 54.5121 61.6007 52.6694 61.8026 50.2841C62.0217 47.6965 61.9434 45.7353 61.5677 44.4005C61.2359 43.0287 60.7654 42.093 60.1562 41.5935C59.5908 41.057 59.0655 40.7682 58.5803 40.7272C58.2781 39.9686 58.0991 38.9558 58.0435 37.6888C57.9879 36.4218 58.0199 35.0808 58.1397 33.6657C58.3034 32.2136 58.5427 30.8291 58.8578 29.512C59.1763 28.1545 59.5788 27.0077 60.0652 26.0716C60.7087 26.1667 61.7547 26.3164 63.2034 26.5204C64.6959 26.6875 66.409 26.8936 68.3428 27.1387C70.3205 27.3468 72.379 27.5618 74.5184 27.7836C76.6578 28.0054 78.7567 28.2238 80.8152 28.4388C82.9176 28.6168 84.7976 28.7759 86.4552 28.9162C90.7004 29.2755 95.4156 29.6136 100.601 29.9304C105.827 30.2506 111.015 30.5269 116.167 30.7594C116.304 31.5447 116.392 32.6719 116.431 34.1411C116.469 35.6102 116.454 37.2377 116.384 39.0235C116.314 40.8093 116.202 42.6118 116.048 44.4312C115.894 46.2505 115.692 47.9233 115.44 49.4493C115.192 50.935 114.911 52.0921 114.597 52.9206C112.676 53.0023 110.56 52.9861 108.249 52.8718C105.937 52.7576 103.592 52.5591 101.214 52.2764C98.8756 51.997 96.6656 51.6471 94.5838 51.2265C94.2595 49.2852 94.4186 47.4052 95.0612 45.5865L88.0263 44.991L87.8107 47.5381L93.4507 48.0155L92.7372 56.4452L87.0365 55.9627L86.8158 58.5704L93.9113 59.171C93.587 57.2298 93.7478 55.3295 94.3938 53.4704C97.8071 53.5557 101.293 53.749 104.85 54.0501C108.408 54.3513 111.715 54.733 114.771 55.1952C114.83 55.9332 114.832 57.1143 114.776 58.7383C114.724 60.322 114.612 62.1245 114.441 64.146C114.273 66.1271 114.063 68.125 113.811 70.1396C113.599 72.1577 113.366 73.95 113.112 75.5165C112.857 77.083 112.599 78.2014 112.339 78.8716C108.101 78.4314 103.507 77.8593 98.558 77.1554C93.6056 76.4918 88.7441 75.9581 83.9733 75.5543C81.3858 75.3353 78.655 75.1245 75.7811 74.9219C72.9441 74.7632 70.188 74.6114 67.5128 74.4664C64.8746 74.3652 62.5413 74.2695 60.5129 74.1792C58.5216 74.1328 57.0778 74.1124 56.1814 74.118Z" fill="url(#paint0_linear_10_3909)"/>
<path d="M80.1331 4.39523C72.476 9.30008 68.8124 24.0625 67.4134 31.0836C71.6759 18.7518 77.9273 10.4692 79.7331 9.1211C88.3226 2.70858 95.9119 8.11073 98.9077 10.7442C104.1 15.9435 107.672 27.6163 108.159 34.5327C109.706 16.2593 102.04 8.26646 99.3077 6.01832C93.9343 1.59705 84.8533 1.37174 80.1331 4.39523Z" fill="url(#paint1_linear_10_3909)"/>
<ellipse cx="68.4412" cy="30.2163" rx="1.90194" ry="1.90194" transform="rotate(4.83842 68.4412 30.2163)" fill="white"/>
<ellipse cx="107.292" cy="33.5049" rx="1.90194" ry="1.90194" transform="rotate(4.83842 107.292 33.5049)" fill="white"/>
<path d="M40.5275 39.9069C29.8377 32.6383 8.9469 36.1514 1.69607 39.6539C1.35522 39.8186 1.13225 40.139 1.06779 40.512C0.904588 41.4563 1.84188 42.2197 2.74701 41.905C21.5085 35.3806 39.2933 41.1737 40.1288 45.7893L44.9669 81.5779C44.9965 81.7967 45.0058 82.0086 45.0095 82.2294C45.0921 87.0593 49.7587 104.731 67.5575 104.999C69.4018 105.026 71.2225 104.576 72.9504 103.93L125.503 84.2941C125.556 84.2745 125.606 84.2493 125.653 84.2191C126.417 83.7322 125.915 82.5511 125.034 82.7633L70.6272 95.8773C58.9329 98.3743 52.7665 86.2087 50.6242 79.6121L44.8878 47.9232C44.3238 44.8076 43.1457 41.6872 40.5275 39.9069Z" fill="#450E8B"/>
<circle cx="82.9351" cy="113.718" r="8.81538" fill="url(#paint2_linear_10_3909)"/>
<circle cx="114.67" cy="102.258" r="8.81538" fill="url(#paint3_linear_10_3909)"/>
<defs>
<linearGradient id="paint0_linear_10_3909" x1="88.0278" y1="28.3774" x2="83.957" y2="76.4691" gradientUnits="userSpaceOnUse">
<stop stop-color="#450E8B"/>
<stop offset="1" stop-color="#EC8C34"/>
</linearGradient>
<linearGradient id="paint1_linear_10_3909" x1="90.3531" y1="2.48555" x2="87.7864" y2="32.8082" gradientUnits="userSpaceOnUse">
<stop stop-color="#450E8B"/>
<stop offset="1" stop-color="#EC8C34"/>
</linearGradient>
<linearGradient id="paint2_linear_10_3909" x1="82.9351" y1="104.903" x2="82.9351" y2="122.534" gradientUnits="userSpaceOnUse">
<stop stop-color="#450E8B"/>
<stop offset="1" stop-color="#EC8C34"/>
</linearGradient>
<linearGradient id="paint3_linear_10_3909" x1="114.67" y1="93.443" x2="114.67" y2="111.074" gradientUnits="userSpaceOnUse">
<stop stop-color="#450E8B"/>
<stop offset="1" stop-color="#EC8C34"/>
</linearGradient>
</defs>
</svg>
