<svg width="172" height="184" viewBox="0 0 172 184" fill="none" xmlns="http://www.w3.org/2000/svg">
<path d="M50.5719 157.614C49.8192 159.519 48.4992 160.74 46.6118 161.279C44.7243 161.818 42.7489 161.679 40.6855 160.864C39.2967 160.315 38.2832 159.513 37.645 158.458C37.0344 157.391 36.7775 156.59 36.8743 156.055C37.3513 155.486 38.1077 154.936 39.1434 154.405C40.1791 153.874 41.0199 153.633 41.6658 153.681C42.419 154.736 42.7851 156.567 42.7643 159.174C44.0696 159.644 44.9927 159.194 45.5337 157.825C45.8316 157.071 45.8887 156.027 45.7049 154.693C45.5487 153.346 45.3017 152.056 44.9638 150.821C44.6337 149.567 44.3964 148.223 44.2518 146.79C44.1348 145.344 44.2606 144.155 44.6291 143.223C45.225 141.715 46.3006 140.763 47.8558 140.369C49.4309 139.982 50.9823 140.09 52.51 140.694C54.0377 141.298 55.0888 142.092 55.6634 143.076C56.2578 144.068 56.3903 144.98 56.061 145.813C55.7317 146.647 55.0771 147.374 54.0972 147.996C53.1174 148.619 52.2081 149.062 51.3693 149.327L50.1112 149.724C50.2238 150.136 50.3508 150.656 50.4921 151.286C50.6334 151.915 50.7565 152.939 50.8614 154.356C50.9663 155.774 50.8698 156.86 50.5719 157.614ZM52.1379 146.947C52.5176 146.799 52.8871 146.589 53.2465 146.318C53.6137 146.028 53.8757 145.684 54.0325 145.287C54.1971 144.87 54.0963 144.429 53.7299 143.963C53.3635 143.497 52.843 143.131 52.1684 142.864C51.5137 142.606 50.8954 142.545 50.3137 142.682C49.7596 142.807 49.3963 143.088 49.2238 143.524C49.0591 143.941 49.002 144.492 49.0524 145.177C49.1305 145.85 49.2339 146.43 49.3627 146.917L49.5856 147.659C49.8232 147.638 50.2131 147.551 50.7552 147.398C51.3171 147.253 51.778 147.103 52.1379 146.947Z" fill="#450E8B"/>
<path d="M56.6097 160.622C57.1871 158.019 58.4232 156.14 60.3179 154.987C62.238 153.818 64.1977 153.455 66.1971 153.899C67.4259 154.171 68.369 154.697 69.0265 155.477C69.684 156.256 69.8995 157.156 69.6731 158.177C69.4514 159.177 69.004 159.962 68.3308 160.534C67.6785 161.111 66.9463 161.505 66.1342 161.719C64.4938 162.12 63.0384 162.277 61.768 162.192L60.9975 162.12C60.709 164.11 61.2937 165.267 62.7516 165.59C63.2515 165.701 63.8103 165.694 64.428 165.568C65.0458 165.443 65.5386 165.29 65.9065 165.11L66.4582 164.839L66.9862 166.005C66.7688 166.197 66.3686 166.425 65.7856 166.689C65.2026 166.953 64.6647 167.162 64.1719 167.314C62.8161 167.713 61.4196 167.753 59.9826 167.434C58.5455 167.115 57.5236 166.353 56.9169 165.148C56.3102 163.943 56.2078 162.434 56.6097 160.622ZM61.3058 160.582C62.4095 160.63 63.3523 160.369 64.1342 159.8C64.9161 159.23 65.4318 158.383 65.6813 157.259C65.9307 156.134 65.7222 155.498 65.0558 155.35C64.2643 155.174 63.4998 155.715 62.7621 156.972C62.0499 158.212 61.5645 159.416 61.3058 160.582Z" fill="#450E8B"/>
<path d="M78.2239 171.058C77.5001 171.012 76.909 170.728 76.4507 170.207C76.0137 169.687 75.8232 168.991 75.8791 168.118C75.9364 167.224 76.6387 164.436 77.986 159.756C79.356 155.055 80.1086 151.651 80.2436 149.543L80.142 148.126C81.8394 147.657 83.412 147.469 84.8597 147.562C85.0535 147.874 85.1265 148.402 85.0788 149.147C84.9697 150.851 84.2154 154.116 82.8159 158.943C81.4391 163.75 80.7247 166.558 80.6729 167.367C80.6224 168.155 80.693 168.555 80.8846 168.567L83.1712 167.912L83.6744 169.066C82.9137 169.595 81.9961 170.071 80.9215 170.493C79.8683 170.918 78.969 171.106 78.2239 171.058Z" fill="#450E8B"/>
<path d="M95.6476 171.442C94.9286 171.537 94.2936 171.373 93.7428 170.952C93.2131 170.527 92.8908 169.881 92.7759 169.014C92.6582 168.125 92.8051 165.255 93.2166 160.401C93.6464 155.524 93.7226 152.038 93.4452 149.945L93.0699 148.574C94.6438 147.784 96.1499 147.294 97.588 147.104C97.8387 147.372 98.0131 147.876 98.1111 148.616C98.3353 150.308 98.2303 153.658 97.7961 158.665C97.3804 163.648 97.2257 166.541 97.3322 167.345C97.4358 168.127 97.5829 168.506 97.7732 168.481L99.8887 167.393L100.607 168.428C99.9634 169.094 99.1558 169.739 98.184 170.363C97.2333 170.984 96.3878 171.344 95.6476 171.442Z" fill="#450E8B"/>
<path d="M108.338 173.729C108.211 173.482 108.112 172.923 108.041 172.052C107.97 171.18 108.193 168.807 108.711 164.933C109.228 161.038 109.402 158.06 109.234 155.997C109.201 155.593 109.07 155.176 108.842 154.745C108.613 154.293 108.381 153.948 108.148 153.71L107.832 153.383L107.83 152.965C108.803 152.565 110.555 152.261 113.085 152.054C113.356 152.482 113.556 153.097 113.686 153.9C115.213 152.426 116.519 151.645 117.604 151.557C118.709 151.466 119.629 151.852 120.363 152.712C121.118 153.571 121.568 154.882 121.712 156.647C121.964 159.73 121.588 162.073 120.584 163.674C119.579 165.255 118.215 166.115 116.493 166.256C115.6 166.329 114.845 166.262 114.229 166.056L113.9 165.954L114.021 164.692C114.216 164.719 114.441 164.722 114.696 164.701C115.249 164.656 115.707 164.362 116.069 163.819C116.453 163.273 116.719 162.599 116.867 161.795C117.164 160.187 117.257 158.713 117.148 157.373C116.992 155.46 116.52 154.535 115.733 154.599C115.117 154.65 114.478 154.948 113.816 155.494C113.852 156.99 113.629 159.63 113.147 163.415C112.664 167.2 112.515 170.231 112.701 172.506C111.591 173.067 110.137 173.475 108.338 173.729Z" fill="#450E8B"/>
<path d="M135.446 151.127C135.474 151.073 135.502 150.773 135.531 150.227C136.487 149.925 137.858 149.804 139.645 149.865C139.671 151.714 139.824 153.613 140.104 155.56C140.378 157.487 140.641 158.847 140.892 159.641C141.136 160.414 141.34 160.774 141.503 160.723C141.625 160.684 142.011 160.349 142.662 159.718L142.97 159.419L143.857 160.314C143.725 160.534 143.546 160.815 143.318 161.155C143.11 161.49 142.667 161.999 141.989 162.683C141.304 163.348 140.636 163.783 139.985 163.989C138.724 164.388 137.812 164.05 137.248 162.975C136.306 164.526 135.307 165.469 134.249 165.803C133.212 166.131 132.199 166.005 131.209 165.423C130.24 164.834 129.478 163.666 128.925 161.916C128.063 159.191 127.943 156.868 128.566 154.948C129.183 153.008 130.285 151.786 131.871 151.284C133.01 150.924 134.202 150.871 135.446 151.127ZM135.259 162.631C135.748 162.476 136.236 162.109 136.724 161.53C135.959 158.617 135.539 155.628 135.464 152.564C134.771 152.493 134.21 152.525 133.783 152.66C133.051 152.891 132.649 153.813 132.577 155.424C132.519 157.009 132.763 158.666 133.31 160.395C133.857 162.124 134.507 162.869 135.259 162.631Z" fill="#450E8B"/>
<path d="M163.063 150.249C162.452 152.56 161.575 154.108 160.432 154.894C159.308 155.668 158.27 155.553 157.321 154.549C157.156 155.439 156.852 156.258 156.407 157.004C155.962 157.75 155.494 158.292 155.002 158.631C154.158 159.211 153.183 159.338 152.078 159.011C150.973 158.684 149.888 157.747 148.824 156.2C147.228 153.88 146.468 151.723 146.546 149.728C146.611 147.715 147.258 146.285 148.489 145.439C149.737 144.58 150.976 144.142 152.206 144.124C150.792 140.902 149.523 138.473 148.398 136.839L147.505 135.822C148.509 134.458 149.643 133.341 150.909 132.471C151.255 132.673 151.561 132.967 151.827 133.354C152.71 134.637 154.119 137.513 156.054 141.982C157.977 146.433 159.422 149.362 160.39 150.768C160.68 151.189 160.922 151.334 161.115 151.201C161.221 151.128 161.44 150.732 161.772 150.011L161.927 149.671L163.063 150.249ZM150.851 146.105C150.236 146.528 150.117 147.504 150.494 149.031C150.889 150.546 151.498 151.901 152.32 153.096C153.13 154.273 153.729 154.975 154.117 155.2C154.523 155.413 154.892 155.404 155.226 155.175C155.806 154.776 156.214 154.145 156.45 153.284C156.019 152.545 154.806 149.935 152.812 145.455C151.996 145.55 151.343 145.767 150.851 146.105Z" fill="#450E8B"/>
<path d="M63.7312 84.0781C63.4458 83.0839 63.2505 81.8433 63.1455 80.3562C63.0404 78.8692 63.0309 77.3441 63.117 75.7808C63.2529 74.1756 63.4288 72.6431 63.6448 71.1832C63.9066 69.7273 64.2388 68.5313 64.6414 67.5953C65.3985 67.3823 66.1482 66.9838 66.8905 66.4C67.6367 65.7703 68.3012 64.741 68.884 63.3122C69.4708 61.8375 69.8787 59.7472 70.1077 57.0413C70.3562 54.1061 70.2674 51.8813 69.8412 50.3671C69.4649 48.8109 68.9311 47.7495 68.24 47.1829C67.5986 46.5743 67.0028 46.2467 66.4524 46.2001C66.1095 45.3397 65.9065 44.1908 65.8434 42.7535C65.7803 41.3162 65.8167 39.795 65.9526 38.1897C66.1382 36.5425 66.4097 34.9719 66.7672 33.4778C67.1285 31.9379 67.585 30.637 68.1368 29.5751C68.8668 29.6831 70.0534 29.8528 71.6967 30.0843C73.3898 30.2738 75.3331 30.5076 77.5268 30.7857C79.7702 31.0217 82.1054 31.2656 84.5322 31.5172C86.9591 31.7688 89.3401 32.0166 91.6752 32.2604C94.0601 32.4623 96.1928 32.6428 98.0732 32.802C102.889 33.2096 108.238 33.5931 114.12 33.9525C120.048 34.3157 125.934 34.6291 131.778 34.8929C131.933 35.7837 132.033 37.0624 132.077 38.729C132.12 40.3956 132.103 42.2418 132.024 44.2675C131.945 46.2933 131.818 48.3381 131.643 50.4019C131.468 52.4658 131.238 54.3633 130.953 56.0944C130.672 57.7797 130.353 59.0923 129.996 60.0321C127.817 60.1248 125.417 60.1064 122.795 59.9768C120.173 59.8473 117.513 59.6221 114.815 59.3013C112.163 58.9844 109.656 58.5875 107.294 58.1104C106.926 55.9082 107.107 53.7756 107.836 51.7125L99.8554 51.037L99.6108 53.9264L106.009 54.4679L105.199 64.0304L98.7326 63.483L98.4822 66.4412L106.531 67.1225C106.163 64.9204 106.346 62.7648 107.079 60.6558C110.951 60.7526 114.904 60.9718 118.94 61.3135C122.976 61.6551 126.727 62.0881 130.194 62.6125C130.261 63.4496 130.263 64.7894 130.2 66.6317C130.14 68.4281 130.013 70.4729 129.819 72.7661C129.629 75.0134 129.391 77.2797 129.105 79.5651C128.865 81.8544 128.601 83.8875 128.312 85.6646C128.023 87.4416 127.73 88.7102 127.435 89.4705C122.627 88.9711 117.416 88.3222 111.802 87.5236C106.184 86.7709 100.67 86.1655 95.2577 85.7074C92.3225 85.459 89.2248 85.2198 85.9646 84.9901C82.7464 84.81 79.62 84.6378 76.5852 84.4733C73.5925 84.3585 70.9456 84.2499 68.6447 84.1476C66.3858 84.0949 64.7479 84.0718 63.7312 84.0781Z" fill="url(#paint0_linear_493_4252)"/>
<path d="M90.9015 4.9859C82.2154 10.5499 78.0594 27.296 76.4725 35.2607C81.3078 21.2718 88.3993 11.8761 90.4477 10.3468C100.191 3.07259 108.801 9.20069 112.199 12.188C118.089 18.086 122.141 31.3274 122.694 39.1733C124.449 18.4443 115.752 9.37735 112.653 6.8271C106.557 1.81169 96.256 1.5561 90.9015 4.9859Z" fill="url(#paint1_linear_493_4252)"/>
<circle cx="77.6383" cy="34.2768" r="2.15753" transform="rotate(4.83842 77.6383 34.2768)" fill="white"/>
<circle cx="121.71" cy="38.0074" r="2.15753" transform="rotate(4.83842 121.71 38.0074)" fill="white"/>
<path d="M46.5014 45.6417C34.5482 36.9071 10.2702 40.951 1.92399 44.9827C1.53734 45.1695 1.28441 45.5329 1.21128 45.956C1.02615 47.0272 2.08939 47.8933 3.11615 47.5362C24.3988 40.1351 44.5736 46.7067 45.5214 51.9426L51.0156 92.5846C51.0452 92.8035 51.0547 93.0127 51.0573 93.2335C51.1223 98.6785 56.4534 119.052 77.0112 119.112C78.8557 119.117 80.6758 118.673 82.4036 118.027L142.368 95.6217C142.428 95.5994 142.485 95.5708 142.539 95.5365C143.405 94.9843 142.835 93.6444 141.837 93.8851L80.1182 108.761C66.8524 111.594 59.8573 97.7936 57.4272 90.3105L50.8045 53.7262C50.2406 50.6107 49.0577 47.5097 46.5014 45.6417Z" fill="#450E8B"/>
<circle cx="94.0801" cy="129" r="10" fill="url(#paint2_linear_493_4252)"/>
<circle cx="130.08" cy="116" r="10" fill="url(#paint3_linear_493_4252)"/>
<defs>
<linearGradient id="paint0_linear_493_4252" x1="99.8571" y1="32.1908" x2="95.2392" y2="86.7452" gradientUnits="userSpaceOnUse">
<stop stop-color="#450E8B"/>
<stop offset="1" stop-color="#EC8C34"/>
</linearGradient>
<linearGradient id="paint1_linear_493_4252" x1="102.495" y1="2.81959" x2="99.5832" y2="37.217" gradientUnits="userSpaceOnUse">
<stop stop-color="#450E8B"/>
<stop offset="1" stop-color="#EC8C34"/>
</linearGradient>
<linearGradient id="paint2_linear_493_4252" x1="94.0801" y1="119" x2="94.0801" y2="139" gradientUnits="userSpaceOnUse">
<stop stop-color="#450E8B"/>
<stop offset="1" stop-color="#EC8C34"/>
</linearGradient>
<linearGradient id="paint3_linear_493_4252" x1="130.08" y1="106" x2="130.08" y2="126" gradientUnits="userSpaceOnUse">
<stop stop-color="#450E8B"/>
<stop offset="1" stop-color="#EC8C34"/>
</linearGradient>
</defs>
</svg>
