<svg width="97" height="170" viewBox="0 0 97 170" fill="none" xmlns="http://www.w3.org/2000/svg">
<path d="M46.7923 0.205482C47.4047 0.114683 48.075 0.032138 48.2819 0.015629C48.4888 -0.00913449 48.8612 -0.000880004 49.1094 0.015629C49.3577 0.0403924 49.6308 0.0899194 49.7053 0.131192C49.788 0.172464 49.9618 0.205482 50.1025 0.205482C50.2432 0.205482 50.5659 0.263264 50.8225 0.3293C51.0873 0.395336 51.6583 0.576934 52.0886 0.725515C52.5189 0.88235 53.1892 1.163 53.5782 1.3446C53.9671 1.53446 54.4885 1.80685 54.7368 1.94718C54.985 2.08751 55.4154 2.3599 55.6884 2.5415C55.9615 2.7231 56.4498 3.07804 56.7643 3.33393C57.0787 3.58157 57.7573 4.1924 58.2538 4.69592C58.7586 5.19945 59.3545 5.85155 59.5779 6.14872C59.8014 6.44588 60.0414 6.74304 60.1076 6.80907C60.1738 6.87511 60.5296 7.39514 60.9103 7.9647C61.291 8.53426 61.5971 9.02128 61.6054 9.0543C61.6054 9.09557 61.7627 9.39273 61.9613 9.71465C62.1599 10.0448 62.5157 10.7217 62.7557 11.2252C63.004 11.7205 63.3267 12.4469 63.484 12.8349C63.6412 13.2228 63.8812 13.8336 64.0136 14.1968C64.1543 14.56 64.3529 15.1379 64.4687 15.4763C64.5763 15.8147 64.6839 16.2027 64.7005 16.343C64.717 16.4833 64.7915 16.7392 64.866 16.9208C64.9487 17.1024 65.0811 17.5317 65.1804 17.8701C65.2715 18.2085 65.4287 18.8441 65.5363 19.2734C65.6439 19.7026 65.7514 20.2226 65.7928 20.429C65.8259 20.6353 65.8507 20.85 65.8425 20.8995C65.8342 20.9573 65.8673 21.0233 65.9087 21.0481C65.9501 21.0728 65.9914 21.1884 65.9914 21.3122C65.9914 21.4443 66.0411 21.8075 66.1073 22.1212C66.1735 22.4348 66.3059 23.2768 66.3969 23.9784C66.4962 24.68 66.6038 25.588 66.6369 26.0008C66.67 26.4052 66.6866 27.0326 66.6535 28.0231H62.5571L62.4992 27.5939C62.4578 27.3545 62.3916 26.7437 62.3502 26.2484C62.3006 25.7449 62.2261 25.1918 62.1764 25.0102C62.1268 24.8286 62.0523 24.4159 62.0192 24.1022C61.9861 23.7886 61.9116 23.3015 61.862 23.0291C61.804 22.7568 61.7047 22.2945 61.6302 21.9973C61.5558 21.7002 61.4482 21.2379 61.382 20.9655C61.3158 20.6931 61.2413 20.3052 61.2165 20.0988C61.1916 19.8924 61.142 19.6861 61.1006 19.6448C61.0675 19.5953 60.9599 19.2816 60.8689 18.9432C60.7779 18.6047 60.5379 17.8206 60.331 17.2097C60.1324 16.5989 59.851 15.8147 59.7103 15.4763C59.5696 15.1379 59.4538 14.8324 59.4538 14.7912C59.4538 14.7581 59.2138 14.2216 58.9159 13.5943C58.618 12.9752 58.378 12.4551 58.378 12.4386C58.378 12.4304 58.1297 12.0011 57.8318 11.4894C57.5339 10.9858 56.9794 10.1356 56.607 9.6156C56.2429 9.09557 55.5478 8.27012 55.0678 7.79136C54.5878 7.3126 54.0499 6.80907 53.8678 6.66875C53.6858 6.53668 53.3548 6.28904 53.123 6.13221C52.8996 5.97537 52.3534 5.66995 51.9231 5.46359C51.4928 5.25723 50.8969 5.0096 50.599 4.91054C50.3011 4.81974 49.9784 4.74545 49.879 4.74545C49.7715 4.74545 49.6722 4.72069 49.6556 4.67942C49.6391 4.6464 49.2336 4.59687 48.7701 4.5556C48.2571 4.52258 47.504 4.53084 46.9164 4.58036C45.9565 4.67116 45.9068 4.67942 45.3027 5.04261C44.9634 5.24898 44.351 5.6617 43.9372 5.96712C43.5317 6.27253 42.8366 6.87511 42.398 7.30434C41.9594 7.73358 41.3967 8.3279 41.1484 8.62506C40.9084 8.92222 40.4698 9.48353 40.1884 9.87974C39.9071 10.2842 39.6754 10.6226 39.6754 10.6474C39.6754 10.6722 39.5678 10.8455 39.4354 11.0354C39.303 11.2335 38.9389 11.8691 38.6244 12.4634C38.3182 13.0577 37.9127 13.8667 37.7389 14.2794C37.5568 14.6921 37.3251 15.2452 37.2175 15.5176C37.11 15.79 36.8203 16.6072 36.5803 17.3335C36.3403 18.0599 36.0424 18.9679 35.9266 19.3559C35.8024 19.7439 35.7031 20.1071 35.7031 20.1566C35.7031 20.2144 35.6535 20.4372 35.5873 20.6519C35.5211 20.8747 35.4218 21.3287 35.3721 21.6672C35.3142 22.0056 35.2149 22.4926 35.1487 22.7402C35.0825 22.9879 34.9418 23.7143 34.8342 24.3499C34.7349 24.9855 34.5859 26.0255 34.5115 26.6611C34.437 27.2967 34.3791 27.9406 34.3791 28.3533H30.0344L30.1006 27.2224C30.1337 26.5951 30.1999 25.8769 30.2496 25.6293C30.291 25.3817 30.3654 24.8616 30.4068 24.4737C30.4482 24.0857 30.5392 23.5822 30.6054 23.3593C30.6799 23.1282 30.7378 22.8393 30.7378 22.699C30.7378 22.5586 30.8123 22.1542 30.9034 21.791C30.9861 21.4278 31.1102 20.9077 31.1599 20.6353C31.2178 20.3629 31.3337 19.8594 31.4164 19.521C31.4992 19.1826 31.6233 18.712 31.6895 18.4892C31.7557 18.2581 31.9295 17.6885 32.0702 17.2097C32.2109 16.731 32.4178 16.0624 32.5336 15.7239C32.6495 15.3855 32.7736 15.0305 32.8067 14.9397C32.8398 14.8489 32.9308 14.6261 32.997 14.4445C33.0715 14.2629 33.2619 13.7594 33.4274 13.3301C33.6012 12.9009 34.0646 11.8773 34.4701 11.0601C34.8756 10.2429 35.3225 9.36797 35.4631 9.12033C35.6038 8.8727 35.8273 8.5095 35.9597 8.31139C36.0921 8.12154 36.1997 7.94819 36.1997 7.92343C36.1997 7.89867 36.39 7.60976 36.6217 7.27958C36.8617 6.95765 37.2838 6.3881 37.5651 6.0249C37.8465 5.6617 38.2106 5.26548 38.3761 5.13341C38.5499 5.0096 38.6823 4.86101 38.6823 4.80323C38.674 4.75371 38.9885 4.40702 39.3609 4.04382C39.7416 3.68062 40.3457 3.15234 40.7098 2.87994C41.0739 2.60754 41.5787 2.2526 41.827 2.09576C42.0753 1.93067 42.3401 1.77384 42.4063 1.74082C42.4725 1.71605 42.6959 1.59224 42.9028 1.47667C43.1097 1.36111 43.5731 1.14649 43.9372 0.997913C44.3014 0.849333 44.8393 0.64297 45.1372 0.543916C45.4351 0.453117 46.1799 0.296282 46.7923 0.205482Z" fill="#ED1383"/>
<path fill-rule="evenodd" clip-rule="evenodd" d="M83.6649 34.0444C83.6311 34.2119 83.4705 34.3793 83.1324 34.5996C82.862 34.7758 81.7717 35.6041 80.6984 36.4324C79.6335 37.2608 78.0699 38.4415 77.2332 39.0672C76.3965 39.6928 74.8752 40.7855 73.8526 41.4992C72.8299 42.213 71.2918 43.2616 70.4297 43.8167C69.5676 44.3719 68.2745 45.1914 67.5562 45.632C66.8378 46.0638 65.5024 46.848 64.5981 47.3591C63.6938 47.879 62.0457 48.7602 60.947 49.3329L59.5186 50.0651C59.5083 50.0142 59.4945 49.9844 59.4787 49.9884C59.4373 49.9884 59.1311 50.1204 58.7918 50.2773C58.4525 50.4424 57.5588 50.8386 56.8057 51.1688C56.0527 51.5072 54.77 52.0437 53.9507 52.3739C53.1314 52.7041 51.8818 53.1828 51.1784 53.447C50.475 53.7111 49.2254 54.1569 48.4061 54.4293C47.5868 54.7099 46.1138 55.1804 45.1373 55.4776C44.1608 55.7748 42.6712 56.204 41.8271 56.4269C40.983 56.6497 39.4934 57.0212 38.5169 57.2441C37.5404 57.4669 36.1749 57.7641 35.4963 57.8962C34.8095 58.0365 33.6923 58.2429 33.0137 58.3584C32.3268 58.474 31.16 58.6638 30.4069 58.7711C29.6538 58.8784 28.4042 59.0435 27.6346 59.1343C26.865 59.2334 25.6154 59.3572 24.8623 59.4232C24.1093 59.4975 22.8266 59.5966 22.0073 59.6544C21.0556 59.7204 18.8378 59.7617 15.842 59.7617C13.2684 59.7617 10.7278 59.7369 10.1899 59.7039L9.22165 59.6379V60.1331C18.8604 60.1331 27.1556 60.1335 34.2934 60.1345C16.7374 60.1406 9.05279 60.1669 9.03136 60.2239C9.01481 60.2651 8.9569 60.5127 8.89899 60.7603L8.89895 60.7604C8.8493 61.0081 8.76654 61.4208 8.72517 61.6849C8.67551 61.9408 8.63414 62.2875 8.63414 62.4443C8.63414 62.6012 8.55966 63.0469 8.46863 63.4349C8.3776 63.8228 8.27829 64.3759 8.25346 64.673C8.23691 64.9702 8.17899 65.3251 8.13761 65.4572C8.09623 65.5975 8.0052 66.0928 7.939 66.5716C7.88107 67.0503 7.79004 67.6034 7.74866 67.8098L7.73904 67.8585L7.73101 67.9004H7.64906V68.2186C7.64906 68.3913 7.60721 68.5368 7.56536 68.5368C7.52352 68.5368 7.48167 68.655 7.48167 68.8095C7.48167 68.9641 7.43982 69.3823 7.38961 69.7459C7.33939 70.1005 7.23896 70.7278 7.172 71.1278C7.09668 71.5278 7.01299 72.1188 6.97951 72.4461C6.94603 72.7733 6.86234 73.3643 6.78702 73.7643C6.71169 74.1643 6.59452 74.8825 6.52757 75.3553C6.46061 75.828 6.36018 76.5826 6.30996 77.0372C6.29799 77.1455 6.28555 77.2565 6.27331 77.3648H6.0344C5.87531 77.7328 5.82507 78.0088 5.82507 78.2204C5.82507 78.4412 5.74971 78.9472 5.6576 79.3521C5.56549 79.7569 5.49013 80.2261 5.49013 80.3825C5.49013 80.5481 5.43152 80.9621 5.35616 81.3025C5.2808 81.6521 5.18869 82.2226 5.1552 82.5722C5.11333 82.9218 5.0296 83.483 4.95424 83.8142C4.88725 84.1454 4.82863 84.6054 4.82026 84.8446C4.82026 85.0931 4.78677 85.3599 4.7449 85.4427C4.70303 85.5347 4.60255 86.1695 4.52719 86.8503C4.4796 87.2803 4.42533 87.7029 4.38125 87.9884L4.25564 87.9883L4.19761 88.5716C4.17274 88.8946 4.11472 89.2536 4.06498 89.3792C4.02353 89.5049 3.94893 89.8997 3.90748 90.2587C3.86604 90.6086 3.77485 91.2727 3.69196 91.7124L3.63525 92.0475L3.63521 92.0477L3.63514 92.0482C3.56082 92.4877 3.4646 93.0567 3.39354 93.4623C3.31065 93.9828 3.23605 94.5571 3.23605 94.7456C3.23605 94.925 3.20289 95.1494 3.16144 95.2301C3.12 95.3199 3.02052 95.9122 2.95421 96.5583C2.8796 97.2044 2.76355 97.9851 2.70553 98.3082C2.63921 98.6312 2.54803 99.1966 2.49829 99.5645C2.45891 99.8559 2.41432 100.175 2.38512 100.363C2.35332 100.366 2.33889 100.371 2.33703 100.375V100.383C2.32029 100.434 2.28683 100.654 2.2701 100.865C2.25336 101.076 2.17807 101.549 2.10277 101.921C2.02747 102.293 1.89361 103.053 1.80157 103.611C1.70118 104.168 1.62588 104.751 1.62588 104.895C1.62588 105.047 1.58405 105.258 1.54221 105.359C1.49202 105.469 1.39998 105.951 1.33305 106.441C1.26612 106.931 1.17409 107.556 1.12389 107.835C1.07369 108.114 0.998394 108.587 0.956561 108.891C0.914729 109.195 0.839431 109.651 0.789232 109.905C0.739033 110.158 0.663735 110.614 0.621903 110.919C0.588437 111.223 0.496406 111.772 0.429474 112.144C0.354176 112.515 0.262145 113.081 0.211946 113.411C0.161747 113.732 0.0864492 114.264 0.0446169 114.594C-0.0306813 115.092 -0.0139484 115.286 0.119915 115.861C0.211946 116.233 0.329077 116.647 0.379275 116.79C0.406049 116.852 0.4608 116.986 0.529938 117.156L0.530012 117.156C0.612095 117.357 0.714445 117.608 0.814331 117.846C1.00676 118.286 1.33305 118.953 1.54221 119.325C1.75974 119.696 2.0944 120.246 2.30356 120.55C2.50436 120.854 3.03144 121.462 3.4665 121.91C3.90156 122.358 4.52904 122.89 4.84697 123.101C5.16489 123.312 5.65851 123.583 5.93461 123.701C6.2107 123.819 6.57882 123.938 6.75452 123.963L7.06408 124.014C6.97205 123.169 6.98878 123.017 7.07245 122.949C7.13938 122.898 7.85053 122.561 8.65371 122.189C9.45689 121.826 11.264 120.947 12.6696 120.237C14.0752 119.536 15.7317 118.683 16.3509 118.345C16.97 118.015 18.158 117.356 18.9863 116.892C19.8146 116.427 21.1114 115.683 21.8727 115.244C22.6341 114.796 23.9643 114.002 24.8428 113.47C25.7213 112.938 27.0934 112.076 27.8966 111.569C28.6998 111.054 30.2225 110.057 31.285 109.356C32.3475 108.646 33.8535 107.615 34.6316 107.066C35.4097 106.525 36.7901 105.537 37.6853 104.878C38.5805 104.219 40.053 103.121 40.9483 102.436C41.5879 101.941 42.1934 101.468 42.5297 101.195L42.6104 101.27C43.1573 100.821 44.0023 100.086 44.8474 99.3501L44.848 99.3496L44.8483 99.3494L44.8485 99.3492L44.8486 99.3491C45.6941 98.6133 46.5479 97.8505 46.7551 97.6621C46.9623 97.4736 47.211 97.3121 47.3188 97.321C47.4929 97.321 47.5012 97.2941 47.4597 96.7557C47.4417 96.5902 47.4115 96.2874 47.3771 95.9418L47.3769 95.9395L47.3767 95.938C47.3478 95.6475 47.3158 95.3271 47.2856 95.0327C47.2229 94.4218 47.1009 93.3294 47.0107 92.5218L46.9955 92.3854C46.9146 91.6611 46.8076 90.6613 46.7382 90.0125L46.7137 89.783C46.6806 89.5082 46.6507 89.228 46.6263 88.9865C46.6464 88.9851 46.6504 88.9844 46.6504 88.9844V88.0713C46.6504 88.0713 46.6118 86.7031 46.5197 85.7923C46.4193 84.8814 46.2853 83.6762 46.2099 83.1242C46.1429 82.5722 46.0508 81.6981 46.0173 81.1921C45.9755 80.6861 45.9085 80.0881 45.8582 79.8581C45.8164 79.6281 45.741 79.0393 45.7075 78.5332C45.6918 78.3002 45.6706 78.0834 45.6481 77.917C45.6579 77.3172 45.7009 77.2293 45.8299 77.1281C45.9387 77.0554 46.1647 76.9917 46.3321 76.9917C46.5079 76.9917 46.7757 77.0554 46.918 77.1372C47.0686 77.219 47.462 77.4645 47.78 77.6736C48.098 77.8827 48.7927 78.3463 49.3032 78.71C49.7467 79.013 50.1351 79.2695 50.2544 79.3377C50.2802 79.3689 50.3273 79.3912 50.4168 79.4335C50.5885 79.5148 50.916 79.6697 51.5478 80.1025C52.2931 80.6086 53.208 81.0986 53.208 81.0986L54.2871 81.6797L54.9512 82.0947L55.5322 82.4268L55.8643 82.6758L56.6113 83.1702L57.3584 83.6719L57.9394 84.0869L59.2676 85.166L60.0146 85.7923C60.0146 85.7923 61.3574 84.2558 62.2617 83.1702C63.166 82.0846 64.489 80.4469 65.2008 79.5361C65.5007 79.1523 65.7827 78.7881 66.0112 78.4903C66.3875 78.5046 66.5672 78.5232 66.6162 78.5472C66.6415 78.5871 66.6645 78.5994 66.6277 78.5554C66.6254 78.5526 66.6216 78.5499 66.6162 78.5472C66.5839 78.4964 66.548 78.4006 66.6277 78.3191C66.6519 78.2949 66.7136 78.2524 66.7998 78.1928C67.0712 78.0053 67.586 77.6496 67.9417 77.1735C68.4104 76.5462 69.3561 75.2371 70.0508 74.2643C70.7454 73.2915 71.8 71.7551 72.3942 70.8551C72.9604 70.0094 73.5339 69.1237 73.7331 68.8161L73.7334 68.8156L73.7336 68.8153L73.7668 68.7641L74.043 68.3095L73.9762 68.2479C74.0662 68.1166 74.161 67.9778 74.2588 67.8345C74.7967 67.0256 75.6408 65.7131 76.1456 64.9207C76.6421 64.1282 77.3704 62.9396 77.7593 62.2792C78.0572 61.7735 78.3356 61.292 78.4757 61.0497L78.4762 61.049L78.4766 61.0482C78.519 60.9749 78.5486 60.9238 78.562 60.9007C78.6269 60.757 78.629 60.7008 78.5191 60.5906C78.5631 60.617 78.6065 60.6327 78.6365 60.6284C78.6861 60.6284 79.0089 60.1331 79.3482 59.5388C79.6792 58.9362 80.3247 57.7558 80.7715 56.9139C81.2184 56.0719 81.897 54.7347 82.2777 53.9423C82.6584 53.1498 83.1218 52.1841 83.2956 51.7961C83.3505 51.679 83.4017 51.5664 83.4464 51.4654H83.6142C84.3917 49.5885 84.8143 48.5487 85.0594 47.9407L85.4989 46.8392C85.4059 44.6539 85.3636 43.7198 85.3467 43.3585C85.3214 42.9972 85.2538 42.3804 85.1777 41.9927C85.1101 41.605 85.034 41.0675 85.0087 40.8031C84.9918 40.5387 84.9411 40.1598 84.8904 39.966C84.8481 39.7721 84.8312 39.5606 84.8481 39.5078C84.865 39.4461 84.8481 39.3403 84.8058 39.2875C84.7636 39.2258 84.7129 38.9526 84.6875 38.6883C84.6622 38.4239 84.5945 37.904 84.5438 37.5427C84.4931 37.1814 84.434 36.8642 84.4171 36.8378C84.4002 36.8113 84.3494 36.5558 84.2987 36.265C84.2654 36.0354 84.1793 35.5916 84.0988 35.1764C84.0774 35.0657 84.0563 34.9571 84.0367 34.8551C83.9353 34.3705 83.8255 33.9299 83.7832 33.8858C83.7409 33.833 83.6902 33.8946 83.6649 34.0444ZM78.0158 60.2404C78.138 60.2978 78.2915 60.3926 78.3731 60.4652C78.2658 60.3862 78.1201 60.2985 78.0076 60.2486C77.9705 60.2328 77.8217 60.2191 77.476 60.2072C77.8481 60.217 77.9841 60.228 78.0158 60.2404Z" fill="url(#paint0_linear_1435_5360)"/>
<path d="M66.0578 78.7469C66.2067 78.5653 66.6867 77.9792 67.1253 77.4427C67.8287 76.5842 67.9363 76.4852 68.0522 76.5842C68.1432 76.6668 68.4908 76.7246 69.0535 76.7576C69.5748 76.7823 69.9721 76.8484 70.0383 76.9062C70.0962 76.9639 70.179 77.0877 70.2121 77.1785C70.2617 77.2941 70.2121 77.4262 70.0631 77.6325C69.9472 77.7894 69.4011 78.4993 68.8549 79.2009C68.3087 79.9025 67.8453 80.4969 67.8204 80.5216C67.7873 80.5464 67.5474 80.8435 67.2743 81.182C67.0012 81.5204 66.4715 82.1725 66.0909 82.6265C65.7102 83.0805 65.2385 83.6336 65.0482 83.8647C64.8495 84.0876 64.4192 84.5911 64.0882 84.979C63.7572 85.367 63.4593 85.6972 63.4344 85.7219C63.4013 85.7467 63.1365 86.0356 62.8469 86.3741C62.549 86.7042 62.2262 87.0096 62.1269 87.0509C61.9697 87.1087 61.9035 87.0839 61.7711 86.9188C61.68 86.8033 61.5476 86.7125 61.4814 86.7125C61.4152 86.7125 61.3573 86.6877 61.3573 86.6464C61.3656 86.6134 61.1338 86.4401 60.8442 86.2585C60.5628 86.0769 60.2566 85.9035 60.1822 85.8623C60.0994 85.8293 60.0332 85.7467 60.0332 85.6807C60.0332 85.6146 60.7697 84.7479 61.6718 83.7574C62.5738 82.7751 63.8648 81.314 64.5433 80.5216C65.2302 79.7292 65.9088 78.9285 66.0578 78.7469Z" fill="#C6281C"/>
<path d="M44.3098 99.9527C45.0628 99.3501 45.9897 98.599 46.3787 98.277C46.7924 97.9303 47.1565 97.691 47.2724 97.691C47.4131 97.691 47.471 97.757 47.5289 97.9964C47.5703 98.1697 47.6614 98.8879 47.8848 100.869L47.5289 101.199C47.3303 101.381 46.9497 101.711 46.6766 101.942C46.4118 102.165 46.1304 102.396 46.0559 102.454C45.9814 102.512 45.8738 102.561 45.8242 102.561C45.7663 102.561 44.6656 103.329 43.3829 104.27C42.0919 105.203 40.652 106.259 40.172 106.606C39.6921 106.952 39.0466 107.423 38.7238 107.654C38.4094 107.885 37.5901 108.455 36.9032 108.934C36.2246 109.404 34.9998 110.238 34.1806 110.783C33.3696 111.319 32.1614 112.112 31.491 112.533C30.829 112.954 29.9932 113.474 29.6373 113.688C29.2815 113.903 28.876 114.142 28.727 114.233C28.5781 114.316 28.0898 114.613 27.6347 114.885C27.1795 115.157 26.7326 115.446 26.6416 115.521C26.5506 115.603 25.781 116.082 24.9286 116.585C24.0679 117.089 23.3562 117.502 23.3314 117.502C23.3066 117.502 22.7025 117.832 21.9908 118.236C21.2708 118.641 19.9964 119.342 19.1523 119.796C18.3082 120.242 17.0669 120.894 16.38 121.241C15.7014 121.579 14.3359 122.232 13.3594 122.686C12.3829 123.14 11.2823 123.635 10.9182 123.783C10.5541 123.932 10.2396 124.081 10.2148 124.105C10.1899 124.13 9.86719 124.254 8.80792 124.601L8.3776 124.353C8.03003 124.163 7.83969 124.105 6.98731 124.105L6.93766 123.627C6.90456 123.371 6.91284 123.107 6.95421 123.049C6.99559 122.983 7.60798 122.677 8.31139 122.364C9.01481 122.042 10.8271 121.175 12.325 120.432C13.8311 119.689 15.5607 118.814 16.1731 118.484C16.7855 118.162 17.9606 117.518 18.7799 117.064C19.5992 116.61 20.8819 115.884 21.6349 115.455C22.388 115.017 23.7121 114.241 24.5727 113.721C25.4417 113.201 26.7823 112.376 27.5519 111.889C28.3298 111.402 29.687 110.527 30.5725 109.949C31.4579 109.363 32.782 108.48 33.5103 107.976C34.2385 107.481 35.4881 106.606 36.2826 106.045C37.077 105.475 38.55 104.402 39.5514 103.651C40.5527 102.9 41.7278 102.008 42.1581 101.661C42.5885 101.323 43.5567 100.555 44.3098 99.9527Z" fill="#C6281C"/>
<path fill-rule="evenodd" clip-rule="evenodd" d="M85.6543 49.6664C85.5881 49.815 85.4309 50.2029 85.315 50.5166C85.2422 50.7006 85.1466 50.95 85.0566 51.1847C84.9932 51.3501 84.9326 51.5082 84.8847 51.631C84.7771 51.9282 84.5537 52.4812 84.3882 52.8692C84.2309 53.2572 84.0654 53.6369 84.024 53.7112C83.9826 53.7937 83.9495 53.9341 83.9495 54.0249C83.9495 54.1157 83.9247 54.2065 83.8916 54.223C83.8502 54.2395 83.8006 54.3468 83.7675 54.4706C83.7261 54.5862 83.4199 55.3044 83.0723 56.0638C82.7247 56.8315 81.9303 58.4742 81.3013 59.7207C80.6806 60.9671 79.7868 62.6759 79.3151 63.5178C78.8517 64.3598 78.2062 65.4907 77.8834 66.0355C77.5607 66.5804 76.9234 67.637 76.46 68.3881C75.9965 69.1393 75.2931 70.2455 74.8959 70.8398C74.5069 71.4424 74.2007 71.979 74.2255 72.0202C74.2324 72.0362 74.4433 72.0497 74.8531 72.0608H74.1018L73.7956 72.5148C73.7226 72.6188 73.5765 72.8277 73.3919 73.092C73.1369 73.4567 72.8082 73.9269 72.4963 74.3721C71.9501 75.1398 71.2963 76.0561 71.048 76.3945C70.7915 76.733 70.4439 77.1787 70.2784 77.3851C70.1129 77.5915 69.5005 78.3674 68.9212 79.1186C68.3419 79.8698 67.8453 80.4971 67.8205 80.5219C67.7957 80.5467 67.5474 80.8438 67.2743 81.1823C67.0012 81.5207 66.4715 82.1729 66.0909 82.6269C65.9135 82.8384 65.7308 83.0553 65.5744 83.2408L65.574 83.2413L65.5711 83.2448L65.5701 83.2459C65.3929 83.4563 65.2502 83.6256 65.1888 83.7C65.0729 83.8403 64.8743 84.0715 64.7419 84.22C64.6095 84.3604 64.5185 84.5255 64.5433 84.5667C64.5475 84.5765 64.6849 84.5854 64.9543 84.5933L64.411 84.6076L63.9889 85.1029C63.7572 85.3753 63.5255 85.6312 63.4758 85.6807C63.4262 85.7303 63.12 86.0605 62.7972 86.4237C62.3089 86.9685 62.2096 87.1253 62.2344 87.3152C62.251 87.439 62.3089 87.5381 62.3503 87.5381C62.3917 87.5381 62.6069 87.6619 62.8303 87.8105C63.0455 87.9591 63.6579 88.3553 64.1875 88.6937C64.4228 88.8418 64.6518 88.9851 64.8412 89.1036L64.8423 89.1043C65.0853 89.2564 65.2629 89.3676 65.3048 89.3954C65.3875 89.4449 65.6606 89.61 65.9089 89.7751C66.1572 89.9402 67.0013 90.4768 67.7709 90.9638C68.2841 91.2885 68.8304 91.6316 69.2111 91.8707L69.2164 91.874C69.4041 91.9919 69.551 92.0842 69.633 92.136C69.8812 92.3011 70.1874 92.4992 70.3199 92.5817C70.444 92.6725 70.5599 92.7386 70.5847 92.7386C70.6095 92.7386 70.8412 92.8789 71.1061 93.0605C71.3626 93.2338 72.0081 93.6466 72.5295 93.9768C72.8524 94.1813 73.2198 94.4111 73.5116 94.5937L73.5144 94.5955C73.6925 94.7069 73.8423 94.8006 73.9364 94.86C74.1846 95.0251 74.4908 95.2232 74.6232 95.3058C74.7474 95.3966 74.8632 95.4626 74.8881 95.4626C74.9129 95.4626 75.1032 95.5864 75.3267 95.735C75.4206 95.7963 75.5208 95.8622 75.6115 95.9219L75.6128 95.9228C75.7293 95.9995 75.83 96.0658 75.8812 96.0982C75.9464 96.1337 76.2371 96.3178 76.6039 96.5499L76.6046 96.5503C76.7492 96.6419 76.9056 96.7409 77.0646 96.8412L77.1087 96.8694C77.6541 97.2186 78.2964 97.6297 78.5542 97.7905C78.8108 97.9556 79.3073 98.2692 79.6466 98.4756C79.9859 98.682 80.6149 99.0699 81.037 99.3424C81.4507 99.6148 81.8149 99.8376 81.8397 99.8376C81.863 99.8376 81.9594 99.743 82.067 99.6152C81.9708 99.7898 81.9214 99.9154 81.9382 99.928C81.9713 99.9527 82.4844 100.275 83.0802 100.638C84.0236 101.224 84.1726 101.348 84.305 101.645C84.3878 101.843 84.4457 102.181 84.4457 102.462C84.4374 102.9 84.4209 102.957 84.1312 103.222C83.8995 103.444 83.7092 103.535 83.3285 103.609C83.1373 103.65 82.8893 103.698 82.6868 103.738L82.6857 103.738L82.6849 103.738L82.6837 103.739C82.5982 103.755 82.5209 103.771 82.4596 103.783C82.2527 103.832 81.7727 103.973 81.3838 104.097C80.9948 104.22 80.3079 104.443 79.8528 104.592C79.3976 104.74 78.446 105.071 77.7425 105.318L77.3504 105.456C76.7352 105.673 76.0757 105.905 75.7564 106.02C75.4129 106.136 74.9208 106.318 74.5939 106.438L74.5931 106.438L74.5925 106.438L74.5924 106.438L74.5907 106.439L74.5895 106.439L74.4737 106.482C74.1927 106.593 73.8324 106.723 73.629 106.797L73.5634 106.82C73.3814 106.895 73.1496 106.969 73.0421 106.986C72.9428 107.002 72.8352 107.101 72.8103 107.208C72.769 107.341 72.8931 107.596 73.2903 108.215C73.4537 108.464 73.7762 108.954 74.1515 109.524L74.1769 109.562L74.179 109.565C74.4811 110.024 74.8154 110.531 75.1275 111.006C75.4569 111.506 75.7298 111.937 75.9485 112.282L75.9486 112.282C76.3398 112.9 76.5577 113.244 76.6161 113.223C76.6194 113.221 76.6331 113.22 76.6568 113.219C76.7817 113.454 77.0034 113.821 77.2627 114.216C77.5995 114.747 78.4626 116.055 79.3389 117.382L79.3408 117.385L79.3424 117.387L79.3433 117.388L79.3447 117.391L79.9356 118.286C81.748 121.018 81.8804 121.191 82.3024 121.439C82.5507 121.588 83.0638 121.852 83.4527 122.033C83.8417 122.215 84.4541 122.454 84.8182 122.57C85.1823 122.686 85.7616 122.834 86.1009 122.9C86.5229 122.983 87.0774 123.016 87.8387 122.991C88.5422 122.974 89.1545 122.917 89.4938 122.826C89.7918 122.752 90.3131 122.562 90.6524 122.397C90.9917 122.24 91.4965 121.951 91.7696 121.753C92.0427 121.555 92.4399 121.233 92.6468 121.035C92.8537 120.837 93.2261 120.416 93.4826 120.102C93.7392 119.78 94.1033 119.26 94.2936 118.946C94.4922 118.624 94.7736 118.104 94.9308 117.791C95.0881 117.469 95.3446 116.874 95.5101 116.47C95.6673 116.065 95.866 115.521 95.9404 115.273C96.0232 115.025 96.1308 114.654 96.1722 114.448C96.2135 114.241 96.2301 113.812 96.2052 113.498L96.1816 113.223H96.2059C96.1382 112.149 96.0149 111.282 95.9621 110.911L95.9621 110.911L95.9486 110.816C95.9072 110.518 95.8162 109.8 95.7417 109.206C95.6673 108.612 95.5431 107.671 95.4521 107.101C95.4186 106.871 95.377 106.588 95.3344 106.298L95.3342 106.297L95.3333 106.29L95.3324 106.284C95.2703 105.862 95.2063 105.426 95.1625 105.12C95.1229 104.844 95.0716 104.497 95.0235 104.173C94.9812 103.887 94.9413 103.617 94.9142 103.428C94.848 103.023 94.7901 102.561 94.7901 102.421C94.7901 102.272 94.7569 102.132 94.7073 102.107C94.6576 102.082 94.6411 102.016 94.6576 101.967C94.6742 101.909 94.6494 101.579 94.5832 101.24C94.5252 100.902 94.459 100.564 94.4342 100.498C94.4094 100.432 94.368 100.167 94.3432 99.9197C94.3279 99.7678 94.2545 99.432 94.1981 99.1782L94.212 99.1773C94.154 98.3105 94.0961 97.9556 94.0547 97.8152C94.0133 97.6749 93.9554 97.3034 93.9306 96.9898C93.9057 96.6761 93.823 96.1973 93.7568 95.9331C93.6906 95.6772 93.6326 95.3223 93.6326 95.1572C93.6326 94.9838 93.583 94.5463 93.5168 94.1831C93.4506 93.8199 93.3347 93.1183 93.2602 92.6147C93.219 92.3359 93.1651 91.9913 93.1153 91.6733L93.1151 91.672C93.0751 91.4163 93.0378 91.1779 93.012 91.0051C92.9785 90.809 92.9303 90.5098 92.8779 90.1849C92.8267 89.8669 92.7714 89.5243 92.7223 89.2303C92.6824 88.97 92.633 88.6606 92.5846 88.3569L92.584 88.3536L92.584 88.3535C92.522 87.965 92.4615 87.5861 92.4244 87.3317C92.3582 86.8777 92.2423 86.209 92.1761 85.8458C92.1099 85.4826 92.0602 85.0864 92.0602 84.9626C92.0602 84.8829 92.0165 84.6501 91.971 84.4725C91.9555 84.3439 91.9136 84.0683 91.8615 83.7825C91.7953 83.4193 91.6795 82.7342 91.605 82.2554C91.5733 82.0519 91.5342 81.808 91.4952 81.5651L91.4952 81.5651C91.4425 81.2367 91.39 80.91 91.3567 80.687C91.2992 80.3017 91.1682 79.5177 91.0692 78.9247L91.0678 78.9168L91.0675 78.9147L91.0671 78.9122C90.976 78.3179 90.8436 77.5254 90.7774 77.1375C90.7441 76.9146 90.6917 76.5882 90.6391 76.26L90.6389 76.2589L90.6383 76.2553C90.5995 76.0137 90.5606 75.7715 90.5291 75.5691C90.4843 75.2811 90.4246 74.9184 90.3714 74.596L90.3712 74.5949C90.3361 74.3818 90.3039 74.1864 90.2809 74.0419C90.2147 73.6787 90.1236 73.0844 90.074 72.7212L89.9747 72.0608H89.3522C89.7864 72.0387 89.8569 72.0052 89.875 71.9542C89.9081 71.8799 89.8915 71.6653 89.8336 71.4837C89.7839 71.3021 89.726 70.9141 89.7012 70.6169C89.6681 70.3198 89.6267 70.0391 89.6019 69.9978C89.5688 69.9565 89.5191 69.6759 89.486 69.3787C89.4593 69.1385 89.4217 68.8282 89.3952 68.6091C89.3889 68.5571 89.3832 68.5103 89.3784 68.4707C89.3536 68.2643 89.2543 67.637 89.155 67.0674C89.0639 66.4978 88.9315 65.7384 88.8571 65.3752C88.7908 65.012 88.7246 64.6075 88.7164 64.4671C88.7081 64.3268 88.6502 63.9058 88.5922 63.5178C88.5343 63.1299 88.4515 62.7502 88.4102 62.6676C88.3688 62.5933 88.3357 62.3869 88.3357 62.2136C88.3357 62.0485 88.286 61.7018 88.2198 61.4542C88.1536 61.2065 88.0791 60.736 88.046 60.4223C88.0212 60.1086 87.9715 59.8032 87.9384 59.7619C87.9136 59.7207 87.864 59.4152 87.8309 59.1016C87.7978 58.7879 87.7067 58.111 87.6322 57.6157C87.5578 57.1204 87.4584 56.6251 87.4171 56.5178C87.3757 56.4188 87.3426 56.1959 87.3426 56.0225C87.3426 55.8574 87.2681 55.3291 87.1854 54.8504C87.0943 54.3716 86.9785 53.7112 86.9288 53.381C86.8874 53.0591 86.846 52.6794 86.846 52.539C86.846 52.3987 86.8129 52.2749 86.7633 52.2501C86.7136 52.2253 86.6805 52.085 86.6805 51.9364C86.6805 51.7961 86.6226 51.3173 86.5564 50.8881C86.4902 50.4588 86.3992 49.9553 86.366 49.7737C86.3164 49.4765 86.275 49.4435 86.0433 49.4187C85.8116 49.394 85.7619 49.427 85.6543 49.6664ZM46.6267 101.975C46.7998 101.825 47.0333 101.632 47.2289 101.469L47.3371 101.379C47.3799 101.344 47.4194 101.311 47.4542 101.282C47.7853 101.009 47.8266 100.993 47.8763 101.133C47.9094 101.216 47.9425 101.505 47.9591 101.777C47.9673 102.049 48.0087 102.363 48.0418 102.479C48.0749 102.594 48.1494 103.089 48.199 103.593C48.2247 103.853 48.2526 104.143 48.277 104.395C48.2998 104.631 48.3195 104.835 48.3314 104.955C48.348 105.203 48.4225 105.723 48.4887 106.111C48.5549 106.499 48.6873 107.423 48.7866 108.174C48.8776 108.925 48.9852 109.8 49.0266 110.114C49.068 110.428 49.1342 110.915 49.1756 111.187C49.2169 111.414 49.2639 111.777 49.3214 112.392H49.457V113.292C49.4984 113.54 49.5811 114.134 49.6473 114.613C49.7138 115.04 49.8265 115.797 49.9147 116.389L49.9453 116.594C50.0363 117.205 50.1687 118.022 50.2349 118.41C50.3011 118.798 50.417 119.45 50.4914 119.854C50.5659 120.259 50.7149 120.952 50.8225 121.381C50.9549 121.91 51.0873 122.256 51.2528 122.454C51.3769 122.611 51.6086 122.826 51.7659 122.933C51.9645 123.065 52.1631 123.115 52.8334 123.115L55.8374 120.077L56.4037 119.504C57.881 118.008 59.4071 116.463 60.6537 115.19H61.8951L62.3254 115.917C62.4559 116.14 62.66 116.481 62.871 116.834C63.0346 117.107 63.2024 117.388 63.3433 117.626C63.6743 118.17 64.0136 118.748 64.1046 118.905L64.1211 118.931L64.1492 118.976L64.1865 119.036L64.2186 119.089L64.2187 119.089C64.3028 119.225 64.3969 119.378 64.4687 119.483C64.5763 119.64 64.6674 119.805 64.6674 119.854C64.6674 119.904 64.7584 120.069 64.8577 120.226C64.9653 120.383 65.106 120.721 65.1639 120.969C65.2384 121.266 65.2549 121.662 65.2135 122.124C65.1804 122.595 65.0977 122.958 64.9736 123.239C64.866 123.461 64.6177 123.808 64.4356 123.998C64.2453 124.196 63.8895 124.444 63.6578 124.551C63.4178 124.667 63.0702 124.79 62.8881 124.832C62.7061 124.881 61.9613 124.956 61.233 125.005C60.5048 125.055 58.4359 125.137 56.6401 125.187C54.323 125.261 49.606 125.269 40.4202 125.228C33.295 125.203 26.6663 125.162 25.6898 125.145C24.7133 125.129 22.7768 125.071 21.3865 125.022C20.6196 124.999 19.7217 124.968 18.9291 124.942L18.9276 124.942H18.9273C18.2837 124.92 17.7097 124.901 17.3316 124.889C16.4875 124.865 14.7744 124.807 13.5248 124.757C12.2752 124.716 10.9015 124.642 10.4794 124.601C10.0657 124.551 9.6519 124.518 9.57742 124.518C9.45329 124.518 9.45329 124.502 9.55259 124.402C9.6188 124.336 9.97464 124.221 10.3388 124.147C10.7029 124.072 11.5387 123.816 12.2007 123.569C12.8628 123.329 14.1041 122.826 14.973 122.454C15.842 122.075 17.4971 121.291 18.6556 120.713C19.8142 120.127 21.2872 119.359 21.9245 119.004C22.5617 118.649 23.6623 118.022 24.3657 117.609L24.5822 117.482L24.5853 117.48L24.594 117.475C25.2872 117.068 26.2162 116.523 26.7656 116.198C27.378 115.834 28.4207 115.182 29.0828 114.761C29.7365 114.34 30.8206 113.63 31.4826 113.193C31.8653 112.94 32.4913 112.546 32.9515 112.258C33.0229 112.193 33.1281 112.116 33.2783 112.013C33.5431 111.831 33.8328 111.649 33.9238 111.616C34.0149 111.575 34.7017 111.113 35.4548 110.585C36.2079 110.056 37.4575 109.165 38.2271 108.603L38.4185 108.462C39.1997 107.884 40.3681 107.019 41.1152 106.449C41.9345 105.83 43.2751 104.79 44.0944 104.138C44.9219 103.486 45.7247 102.817 45.8819 102.652C46.0474 102.487 46.3784 102.181 46.6267 101.975Z" fill="url(#paint1_linear_1435_5360)"/>
<path d="M80.7714 34.8661C81.3093 34.4286 82.021 33.8425 82.3355 33.5701C82.8155 33.1491 82.9644 33.0666 83.221 33.0666C83.5106 33.0583 83.552 33.0831 83.701 33.405C83.792 33.6031 83.8665 33.892 83.8665 34.0489C83.8665 34.2057 83.8251 34.4616 83.7672 34.6184C83.6927 34.8165 83.5272 34.9899 83.2044 35.188C82.9562 35.3448 81.8969 36.1125 80.8459 36.8884C79.7949 37.6643 78.2722 38.7704 77.453 39.3565C76.6337 39.9426 75.202 40.9331 74.2669 41.5604C73.3318 42.1795 71.9167 43.104 71.1222 43.5993C70.3278 44.0946 69.1361 44.821 68.474 45.2089C67.812 45.5969 66.6038 46.2903 65.7845 46.736C64.9652 47.19 63.4922 47.9659 62.5157 48.4694C61.5392 48.9647 60.2151 49.6168 59.5779 49.914C58.9407 50.2194 57.749 50.7559 56.9297 51.1191C56.1105 51.4823 54.7698 52.0436 53.9506 52.3738C53.1313 52.704 51.8817 53.1828 51.1783 53.4469C50.4749 53.7111 49.2253 54.1568 48.406 54.4292C47.5867 54.7098 46.1137 55.1804 45.1372 55.4775C44.1607 55.7747 42.6711 56.2039 41.827 56.4268C40.9829 56.6497 39.4933 57.0211 38.5168 57.244C37.5403 57.4668 36.1748 57.764 35.4962 57.8961C34.8094 58.0364 33.6922 58.2428 33.0136 58.3583C32.3267 58.4739 31.1599 58.6637 30.4068 58.7711C29.6537 58.8784 28.4041 59.0435 27.6345 59.1343C26.8649 59.2333 25.6153 59.3571 24.8622 59.4232C24.1091 59.4974 22.8264 59.5965 22.0072 59.6543C21.0389 59.7203 18.8046 59.7616 15.635 59.7616C12.9455 59.7616 10.3801 59.7286 9.09741 59.6213L9.16362 59.2828C9.19672 59.093 9.24637 58.7298 9.26292 58.4821C9.28775 58.2345 9.32913 57.8218 9.42843 57.1202L9.80083 57.0954C10.0077 57.0789 10.587 57.1284 11.0835 57.1944C11.5801 57.2687 12.3662 57.3678 12.8214 57.4091C13.2765 57.4586 14.4848 57.5494 15.5109 57.6154C16.5371 57.6815 18.4156 57.7392 19.69 57.7392C20.9645 57.7392 22.7933 57.6815 23.745 57.6154C24.6967 57.5494 25.8718 57.4503 26.3518 57.4091C26.8318 57.3595 27.7007 57.2687 28.2965 57.2027L28.3819 57.1921C28.9844 57.117 29.9232 57 30.5309 56.9055C31.1681 56.8147 32.1364 56.6662 32.6826 56.5754C33.2287 56.4846 34.2301 56.303 34.9169 56.1709C35.5955 56.0388 36.7541 55.7994 37.4823 55.6426C38.2106 55.4858 39.6257 55.1391 40.627 54.8832C41.6284 54.6273 42.6131 54.3714 42.8118 54.3219C43.0517 54.2641 43.2586 54.132 43.689 53.6368L44.5993 53.5955C45.4765 53.5542 45.584 53.5295 47.7026 52.8113C48.9108 52.3986 50.6238 51.796 51.5093 51.4658C52.3948 51.1357 53.5368 50.6982 54.0333 50.5001C54.5299 50.2937 55.465 49.914 56.1022 49.6498C56.7394 49.3857 57.3187 49.105 57.3849 49.0308C57.4511 48.9565 57.567 48.8987 57.6332 48.9069C57.6994 48.9069 58.2786 48.6758 58.9159 48.3869C59.5531 48.0897 60.9103 47.4376 61.9364 46.9259C62.9626 46.4223 64.3363 45.7042 64.9983 45.341C65.6604 44.9861 66.2562 44.6559 66.3224 44.6146C66.3886 44.5733 66.8521 44.3092 67.3569 44.0285C67.8617 43.7479 68.8795 43.1453 69.6326 42.6913C70.3857 42.2373 71.4781 41.5522 72.0656 41.156C72.6532 40.768 73.1994 40.4048 73.2656 40.3635L74.4324 39.5876C75.0034 39.2079 75.9303 38.5558 76.5013 38.1431C77.0723 37.7304 78.0405 37.004 78.6612 36.5252C79.2818 36.0464 80.2335 35.3035 80.7714 34.8661Z" fill="#650E43"/>
<path fill-rule="evenodd" clip-rule="evenodd" d="M62.433 28.1387C62.3337 28.2377 59.7021 28.2625 44.2683 28.2872C34.346 28.3038 24.2168 28.2955 21.759 28.2707L17.2902 28.2295C16.264 28.6504 15.7592 28.9063 15.511 29.0714C15.2627 29.2365 14.8738 29.5419 14.6503 29.7483C14.4269 29.9547 14.0959 30.3509 13.9138 30.6233C13.7317 30.8957 13.4752 31.3414 13.3428 31.6138C13.2187 31.8862 13.0614 32.3485 12.9952 32.6456C12.9207 32.9428 12.8297 33.3885 12.7883 33.6362C12.7387 33.8838 12.689 34.2883 12.6807 34.5194L12.6559 34.9568L12.6227 34.9568L12.5731 35.2705C12.5482 35.4356 12.4903 35.7658 12.4489 35.9887C12.4076 36.2198 12.3331 36.7563 12.2834 37.1856C12.2338 37.6148 12.1345 38.3082 12.0683 38.7126C12.0425 38.8731 12.0155 39.0361 11.9912 39.1831C11.9529 39.4142 11.9212 39.6059 11.911 39.6867L11.8697 39.9095H11.8697V40.0994C11.8697 40.1984 11.7952 40.7845 11.7042 41.3953C11.65 41.729 11.5933 42.0921 11.5462 42.3934L11.5462 42.3935L11.5462 42.3936C11.5071 42.6438 11.4747 42.8513 11.4559 42.9637C11.4423 43.0318 11.4299 43.1042 11.4191 43.1762L11.4182 43.1793C11.3934 43.2699 11.3357 43.6727 11.2861 44.0554C11.2643 44.2581 11.2216 44.6275 11.1727 45.0499L11.1727 45.05L11.1727 45.05C11.1294 45.4249 11.0812 45.8416 11.0385 46.2204C10.9477 47.026 10.8569 47.8013 10.8322 47.9624L10.8016 48.1641H10.7277L10.6366 48.7254C10.6209 48.8413 10.5945 49.0296 10.5628 49.2557L10.5628 49.2558L10.5628 49.2559C10.5109 49.6258 10.4449 50.0966 10.3884 50.5166C10.2891 51.2017 10.1732 51.9777 10.1318 52.2501C10.0905 52.5225 10.0491 52.8279 10.0491 52.9352V53.1167H9.99948L9.76776 54.8337C9.75595 54.9176 9.74421 55.0011 9.73259 55.0838C9.61394 55.9278 9.50827 56.6794 9.47812 56.8148L9.42847 57.0789C10.0988 57.0789 10.6615 57.1367 11.1084 57.2027C11.547 57.2687 12.3001 57.3595 12.78 57.4091C13.26 57.4503 14.4848 57.5494 15.511 57.6154C16.5371 57.6815 18.4157 57.7393 19.6901 57.7393C20.9645 57.7393 22.7934 57.6815 23.7451 57.6154C24.705 57.5494 25.8719 57.4503 26.3518 57.4091C26.8318 57.3595 27.709 57.2687 28.2966 57.2027L28.3819 57.1921L28.382 57.1921C28.9845 57.117 29.9233 57 30.531 56.9055C31.1682 56.8148 32.1364 56.6662 32.6826 56.5754C33.2288 56.4846 34.2549 56.2947 34.9584 56.1626C35.6618 56.0306 36.6714 55.8242 37.1927 55.7086C37.4808 55.6448 37.8597 55.5583 38.2222 55.4755C38.5158 55.4085 38.7985 55.344 39.0133 55.2959C39.4933 55.1804 40.6105 54.8997 41.496 54.6686C42.8863 54.3054 43.1428 54.2146 43.3828 53.9917C43.5318 53.8514 43.6476 53.6533 43.6476 53.5542C43.6476 53.4504 43.5702 53.3156 43.4752 53.2472C43.5701 53.3141 43.6476 53.4243 43.6476 53.4882C43.6476 53.5955 43.7965 53.6038 44.5827 53.579C45.5013 53.5543 45.5261 53.546 47.7026 52.8114C48.9108 52.3986 50.6238 51.7961 51.5093 51.4659C52.3948 51.1357 53.603 50.6735 54.1988 50.4341C54.3904 50.3544 54.6128 50.2629 54.8429 50.1681L54.8436 50.1678C55.3288 49.968 55.8482 49.7542 56.1849 49.6086C56.6897 49.4023 57.178 49.1794 57.2856 49.1134C57.3387 49.0781 57.387 49.0239 57.4205 48.9672C57.4224 48.9756 57.4233 48.983 57.4233 48.9896C57.4233 49.0701 57.4893 49.1406 57.5719 49.1406C57.6461 49.1406 58.2321 48.8587 58.8677 48.5062C59.1144 48.3655 59.5099 48.184 59.9676 47.974C60.6886 47.6431 61.5641 47.2414 62.2558 46.8164C63.9191 46.2098 65.6686 45.0408 66.238 44.6582C66.2981 44.6186 66.3639 44.5735 66.4336 44.5244C66.5472 44.4823 66.9381 44.271 67.3817 44.0203C67.87 43.7479 68.8796 43.1453 69.6326 42.6913C70.3857 42.2373 71.4615 41.5687 72.0325 41.1972C72.6036 40.8258 73.1001 40.4708 73.1415 40.4048C73.1994 40.314 73.158 40.2314 73.0008 40.0994L72.7807 39.9124C73.167 40.232 73.2904 40.3223 73.3152 40.3223C73.34 40.3223 73.8283 40.0003 74.4158 39.6124C74.9951 39.2162 75.9302 38.5558 76.5012 38.1431C77.0722 37.7304 78.0736 36.9792 78.7356 36.4757C79.3977 35.9721 79.9852 35.5016 80.0431 35.4191C80.1259 35.3118 80.1093 35.2623 79.9107 35.1219L79.6874 34.9486C80.0432 35.2128 80.1674 35.2871 80.2088 35.2871C80.2419 35.2788 80.5315 35.0724 80.846 34.8165C80.9894 34.6961 81.1948 34.5275 81.4159 34.3461L81.417 34.3452C81.6803 34.1291 81.9656 33.895 82.1949 33.7022C82.8238 33.1656 83.0059 33.0583 83.2459 33.0583H83.5355C83.5272 32.2577 83.461 31.8367 83.3865 31.6138C83.3038 31.3827 83.1631 31.0525 83.0638 30.8709C82.9728 30.6893 82.7245 30.3591 82.5342 30.1363C82.3356 29.9134 81.9466 29.5749 81.6735 29.3851C81.4004 29.187 81.028 28.9559 80.846 28.8651C80.6639 28.7743 80.2501 28.5927 79.9357 28.4688L79.3564 28.2377C68.8382 28.1964 66.6535 28.1634 66.6535 28.1056C66.6535 28.0561 65.917 28.0231 64.6012 28.0231C62.9378 28.0231 62.524 28.0479 62.433 28.1387Z" fill="url(#paint2_linear_1435_5360)"/>
<path d="M84.794 48.4118C85.1333 47.6193 85.4395 46.8846 85.4726 46.7856C85.5057 46.6783 85.5719 46.5957 85.6133 46.5957C85.6547 46.5957 85.7126 46.7938 85.7457 47.0332C85.7705 47.2644 85.7871 47.7597 85.7871 48.1229C85.7871 48.6181 85.7457 48.8823 85.6133 49.1795C85.514 49.3941 85.4395 49.6582 85.4395 49.7738C85.4395 49.8894 85.3816 50.104 85.3154 50.2526C85.2492 50.3929 85.0588 50.8717 84.9016 51.3009C84.7361 51.7302 84.4712 52.3988 84.3057 52.7868C84.1402 53.1748 83.9581 53.6123 83.9002 53.7609C83.834 53.9012 83.7347 54.0498 83.6768 54.091C83.6106 54.1241 83.3871 54.5368 83.1637 55.0156C82.9485 55.4944 82.5513 56.3446 82.2782 56.9142C81.9968 57.4837 81.2603 59.0026 80.623 60.2986C79.9941 61.5946 79.1168 63.3033 78.6782 64.0958C78.2396 64.8883 77.8093 65.6477 77.71 65.788C77.6189 65.9284 77.5196 66.1265 77.4948 66.242C77.47 66.3576 77.1141 67.0015 76.7086 67.6701C76.3031 68.3387 75.9224 68.9496 75.881 69.0321C75.8314 69.1064 75.5914 69.4861 75.3431 69.8741C75.0948 70.2538 74.441 71.2444 73.8948 72.0616C73.3404 72.8789 72.7611 73.7373 72.6038 73.9602C72.4383 74.1914 71.9004 74.9343 71.4121 75.6112C70.9156 76.2963 70.4439 76.9567 70.3611 77.097C70.2783 77.2374 70.2121 77.2869 70.2121 77.2208C70.2204 77.1548 70.1542 77.031 70.0714 76.9484C69.9556 76.8329 69.7321 76.7916 69.0535 76.7503C68.5735 76.7256 68.1349 76.6595 68.077 76.61C68.0191 76.5605 67.986 76.4697 68.0108 76.4201C68.0356 76.3624 68.6149 75.5947 69.2852 74.7279C69.9639 73.8529 71.0066 72.4579 71.6025 71.6324C72.2066 70.7987 73.2659 69.2798 73.9693 68.2479C74.6645 67.2078 75.6493 65.7137 76.1458 64.9213C76.6424 64.1288 77.2962 63.0722 77.5941 62.5687C77.8837 62.0734 78.521 60.9755 79.001 60.1335C79.481 59.2915 80.2754 57.847 80.7637 56.9142C81.2603 55.9814 81.9802 54.5698 82.3609 53.7774C82.7416 52.9849 83.3126 51.7797 83.6188 51.0946C83.925 50.4177 84.4547 49.2042 84.794 48.4118Z" fill="#BA2A24"/>
<path d="M60.6538 115.191L61.0262 114.819C61.2248 114.613 61.4152 114.448 61.44 114.448C61.4648 114.448 61.5559 114.588 61.6469 114.753C61.7379 114.926 61.8207 115.092 61.829 115.125C61.8455 115.166 61.5807 115.191 60.6538 115.191Z" fill="#8F00B5" fill-opacity="0.9"/>
<path d="M85.8776 48.9896C85.9438 48.8327 86.0266 48.6264 86.0679 48.5438C86.1093 48.453 86.1673 48.42 86.1921 48.4613C86.2252 48.5025 86.2666 48.7419 86.3162 49.4436L86.0431 49.4271C85.8942 49.4106 85.77 49.3775 85.77 49.3445C85.77 49.3032 85.8197 49.1464 85.8776 48.9896Z" fill="#B300E3" fill-opacity="0.8"/>
<path d="M82.0624 57.4174C82.079 57.3761 82.4183 56.6085 82.8321 55.7252C83.2376 54.8337 83.61 54.1073 83.6514 54.1073C83.6927 54.1073 83.7341 54.1898 83.7507 54.2971C83.7672 54.3962 83.61 54.8502 83.4114 55.3042C83.2128 55.7582 82.8817 56.4846 82.6748 56.9139C82.4762 57.3431 82.3024 57.6486 82.3024 57.599C82.2941 57.5412 82.2362 57.4917 82.17 57.4917C82.1038 57.4917 82.0542 57.4587 82.0624 57.4174Z" fill="#B400E4" fill-opacity="0.2"/>
<path d="M34.3792 28.3533L34.3957 27.9241L34.4123 27.4866L34.4619 28.2707L46.5855 28.312L34.3792 28.3533Z" fill="#ED1383" fill-opacity="0.2"/>
<path d="M80.3247 60.9255C80.8378 59.8772 81.4253 58.6803 81.6156 58.2593C81.8887 57.6732 82.0046 57.4999 82.1287 57.4999C82.2198 57.4999 82.2942 57.5494 82.2942 57.6237C82.2942 57.6898 81.8143 58.6968 81.2267 59.8689C80.6391 61.0411 79.7785 62.6837 79.3151 63.5257C78.8516 64.3594 78.2061 65.4985 77.8834 66.0433C77.5607 66.5798 76.9069 67.6612 76.4352 68.4371C75.9552 69.2048 75.1111 70.5255 74.5567 71.3674C74.0022 72.2011 73.0836 73.5384 72.5292 74.3391C71.9664 75.1315 71.2465 76.122 70.9403 76.543C70.6258 76.964 70.361 77.3107 70.3362 77.3107C70.3113 77.3107 70.2948 77.2777 70.2865 77.2446C70.2865 77.2116 70.7417 76.5513 71.2961 75.7836C71.8506 75.0077 72.4381 74.1905 72.5954 73.9676C72.7609 73.7365 73.3402 72.878 73.8863 72.0608C74.4408 71.2436 75.0863 70.2613 75.3428 69.8734C75.5911 69.4937 75.8311 69.114 75.8807 69.0314C75.9221 68.9571 76.2945 68.3463 76.7083 67.6694C77.1138 67.0008 77.4696 66.357 77.4945 66.2497C77.5193 66.1341 77.6186 65.9277 77.7096 65.7957C77.8006 65.6553 78.2144 64.9289 78.6282 64.186C79.042 63.4349 79.8033 61.9656 80.3247 60.9255Z" fill="#ED1383" fill-opacity="0.2"/>
<path d="M87.7147 123.107C87.4912 123.107 87.2099 123.065 87.094 123.032C86.9699 122.991 87.1271 122.983 87.4664 123.008C87.7809 123.032 88.0622 123.074 88.0871 123.09C88.1119 123.107 87.9464 123.115 87.7147 123.107Z" fill="#9000B7" fill-opacity="0.2"/>
<path d="M16.5041 124.906C16.2558 124.923 15.8669 124.923 15.6352 124.906C15.4034 124.89 15.6103 124.881 16.0903 124.881C16.5703 124.881 16.7523 124.89 16.5041 124.906Z" fill="#9000B7" fill-opacity="0.2"/>
<path d="M58.916 125.154C58.7339 125.17 58.4525 125.17 58.2953 125.154C58.1381 125.137 58.287 125.121 58.6263 125.121C58.9656 125.121 59.098 125.137 58.916 125.154Z" fill="#9000B7" fill-opacity="0.2"/>
<path d="M32.7654 125.236C31.8965 125.253 30.5062 125.253 29.6621 125.236C28.818 125.228 29.5297 125.22 31.2345 125.22C32.9392 125.22 33.6343 125.228 32.7654 125.236Z" fill="#9000B7" fill-opacity="0.2"/>
<path d="M56.8471 125.236C56.6237 125.253 56.2099 125.253 55.9368 125.236C55.6637 125.22 55.854 125.212 56.3506 125.212C56.8471 125.212 57.0788 125.22 56.8471 125.236Z" fill="#9000B7" fill-opacity="0.2"/>
<path d="M42.2664 105.161C42.2664 105.112 43.0361 104.518 43.9712 103.824C44.9147 103.131 45.7505 102.569 45.8416 102.561C45.9905 102.561 45.9905 102.578 45.8002 102.759C45.6843 102.867 44.9147 103.494 44.0788 104.163C42.8871 105.12 42.5395 105.351 42.4154 105.302C42.3244 105.269 42.2582 105.211 42.2664 105.161Z" fill="#8F00B5" fill-opacity="0.5"/>
<path d="M18.6971 124.998C17.9274 124.998 17.224 124.981 17.1495 124.948C17.075 124.915 17.6295 124.899 18.3909 124.915C19.1523 124.932 19.8474 124.948 19.9385 124.965C20.0295 124.981 19.4667 124.998 18.6971 124.998Z" fill="#8F00B5" fill-opacity="0.5"/>
<path d="M22.5453 125.072C22.3384 125.088 21.966 125.088 21.7177 125.072C21.4695 125.055 21.635 125.047 22.0902 125.047C22.5453 125.047 22.7522 125.055 22.5453 125.072Z" fill="#8F00B5" fill-opacity="0.5"/>
<path d="M66.7116 27.858C66.695 28.0644 66.6785 27.9158 66.6785 27.5279C66.6785 27.1399 66.695 26.9748 66.7116 27.1564C66.7281 27.338 66.7281 27.6517 66.7116 27.858Z" fill="#D21376" fill-opacity="0.3"/>
<path d="M29.1243 28.3285C28.5781 28.3451 27.7009 28.3451 27.1795 28.3285C26.6582 28.3203 27.1051 28.3038 28.1726 28.3038C29.2401 28.3038 29.6705 28.3203 29.1243 28.3285Z" fill="#D21376" fill-opacity="0.3"/>
<path d="M45.1622 78.1279C45.1291 77.5748 45.1457 77.4923 45.3112 77.3685C45.4105 77.2859 45.6091 77.2281 45.7498 77.2281C45.9649 77.2447 45.9732 77.2447 45.7994 77.2777C45.6836 77.2942 45.5098 77.352 45.4022 77.4098C45.2367 77.5006 45.2119 77.5748 45.187 78.747L45.1622 78.1279Z" fill="#F06033" fill-opacity="0.2"/>
<path d="M39.1788 107.324C39.7498 106.911 40.6436 106.267 41.1649 105.888C41.8683 105.376 42.1497 105.219 42.2821 105.252C42.3732 105.285 42.4642 105.318 42.489 105.343C42.5138 105.359 42.489 105.401 42.4394 105.434C42.398 105.467 41.7442 105.962 40.9911 106.532C40.2464 107.101 38.9968 108.034 38.2271 108.603C37.4575 109.165 36.1831 110.073 34.0066 111.592L33.5515 111.567C33.3032 111.559 33.0881 111.542 33.0798 111.534C33.0632 111.526 33.626 111.146 34.3211 110.684C35.008 110.221 36.1583 109.445 36.8617 108.958C37.5651 108.463 38.6078 107.728 39.1788 107.324Z" fill="#8E00B4" fill-opacity="0.1"/>
<path d="M64.7335 119.912C64.7832 119.953 64.8411 119.937 64.8494 119.887C64.8659 119.821 64.9018 119.819 64.957 119.879C64.9983 119.92 65.0645 120.085 65.0977 120.234C65.1225 120.391 65.1721 120.581 65.197 120.655C65.2218 120.738 65.2052 120.804 65.1639 120.804C65.1225 120.804 65.0811 120.746 65.0811 120.68C65.0811 120.614 65.0149 120.457 64.9321 120.325C64.8494 120.201 64.7418 120.044 64.7004 119.978C64.6508 119.887 64.659 119.871 64.7335 119.912Z" fill="#8E00B4" fill-opacity="0.1"/>
<path d="M10.2146 124.122C10.2229 124.089 10.7111 123.849 11.3152 123.594C11.9194 123.338 12.4159 123.123 12.4242 123.123C12.4324 123.115 12.4324 123.206 12.4242 123.321C12.4076 123.503 12.3166 123.552 11.5387 123.808C11.0587 123.957 10.5704 124.114 10.438 124.138C10.3139 124.163 10.2146 124.163 10.2146 124.122Z" fill="#8E00B4" fill-opacity="0.1"/>
<path d="M85.4388 49.7902C85.4388 49.6911 85.4885 49.4848 85.5464 49.3362C85.5961 49.1793 85.654 49.0968 85.6623 49.1463C85.6788 49.1959 85.6457 49.3114 85.6043 49.4022C85.5547 49.493 85.5216 49.6746 85.5216 49.815C85.5216 49.9553 85.4636 50.1864 85.3974 50.3268C85.3312 50.4753 85.1409 50.9541 84.9837 51.3834C84.8181 51.8126 84.5533 52.4812 84.3878 52.8692C84.2306 53.2572 84.065 53.6452 84.0237 53.736C83.9823 53.8268 83.9078 54.0084 83.8581 54.1487C83.7975 54.3138 83.7533 54.3551 83.7257 54.2725C83.7009 54.2065 83.7588 54.0001 83.8499 53.8185C83.9409 53.6369 84.1478 53.1746 84.305 52.7867C84.4706 52.3987 84.7354 51.7301 84.9009 51.3008C85.0581 50.8716 85.2485 50.3928 85.3147 50.2442C85.3809 50.1039 85.4388 49.8975 85.4388 49.7902Z" fill="#C72A1E" fill-opacity="0.3"/>
<path d="M26.6668 115.504C26.6999 115.471 27.1717 115.166 27.7179 114.827C28.2641 114.489 28.7358 114.208 28.7606 114.208C28.7937 114.2 28.802 114.225 28.7937 114.266C28.7771 114.299 28.7523 114.481 28.7358 114.679C28.7109 115.009 28.6778 115.059 28.2972 115.29C27.9413 115.504 27.8006 115.537 27.2461 115.554C26.8986 115.554 26.6337 115.537 26.6668 115.504Z" fill="#B42132" fill-opacity="0.1"/>
<path d="M19.5249 119.59C20.6173 118.996 21.9 118.286 22.38 118.014C22.86 117.733 23.2738 117.51 23.3069 117.51C23.3483 117.502 23.3317 117.642 23.282 117.816C23.2407 117.981 23.191 118.171 23.1827 118.22C23.1745 118.278 22.7193 118.575 22.1731 118.88C21.6269 119.186 20.1373 119.962 18.8628 120.597C17.5883 121.241 15.8504 122.075 14.998 122.447C14.1373 122.81 13.3677 123.115 13.2767 123.115C13.1856 123.115 13.1112 123.14 13.1112 123.181C13.1112 123.214 12.9953 123.289 12.8463 123.338C12.6974 123.396 12.5236 123.445 12.4739 123.445C12.3994 123.445 12.3829 123.388 12.4243 123.264C12.4739 123.132 12.7718 122.958 13.4836 122.628C14.0298 122.372 15.1635 121.827 16.0077 121.415C16.8518 121.002 18.4325 120.176 19.5249 119.59Z" fill="#B42132" fill-opacity="0.1"/>
<path d="M8.93198 60.2983C8.95681 60.1827 8.99819 59.8855 9.03129 59.6379L9.08922 59.1839L9.18026 59.6131C9.24646 59.9846 9.24646 60.0671 9.1306 60.1497C9.05612 60.2075 8.96509 60.3148 8.94026 60.3808C8.91543 60.4468 8.90716 60.4138 8.93198 60.2983Z" fill="#F6873D" fill-opacity="0.8"/>
<path fill-rule="evenodd" clip-rule="evenodd" d="M7.73218 133.846L17.2904 133.887L17.3317 135.084L17.0173 135.125C16.8518 135.142 16.5042 135.183 16.2559 135.208C16.0077 135.241 15.6022 135.356 15.3622 135.464C15.0312 135.612 14.8905 135.736 14.7663 135.992C14.6753 136.182 14.5595 136.652 14.5098 137.09C14.4519 137.585 14.4353 139.541 14.4602 142.802C14.485 146.747 14.5181 147.903 14.6174 148.497C14.6919 148.902 14.7912 149.405 14.8408 149.612C14.8988 149.818 15.0312 150.223 15.147 150.52C15.2546 150.817 15.4698 151.271 15.6187 151.535C15.7594 151.799 16.049 152.212 16.2559 152.451C16.4628 152.691 16.8518 153.037 17.1249 153.219C17.398 153.401 17.8531 153.623 18.1427 153.723C18.4241 153.822 18.9289 153.945 19.2517 153.995C19.591 154.053 20.162 154.069 20.5592 154.036C20.9481 154.011 21.4695 153.929 21.7178 153.863C21.966 153.797 22.4129 153.623 22.7108 153.483C23.0667 153.31 23.4473 153.013 23.8363 152.633C24.159 152.311 24.5562 151.807 24.7135 151.51C24.879 151.213 25.1273 150.66 25.2597 150.272C25.4003 149.884 25.599 149.125 25.6983 148.58C25.8969 147.606 25.8969 147.49 25.8969 142.926C25.8886 138.873 25.8721 138.146 25.7479 137.395C25.6652 136.916 25.541 136.405 25.4583 136.248C25.3838 136.091 25.21 135.876 25.0693 135.769C24.9286 135.67 24.5976 135.513 24.3245 135.422C24.0514 135.34 23.6046 135.241 23.3315 135.208C23.0584 135.183 22.7356 135.142 22.6032 135.117C22.3798 135.084 22.3798 135.076 22.3798 133.846H30.8208V134.465C30.8208 134.803 30.796 135.084 30.7629 135.084C30.7215 135.084 30.3822 135.133 29.9932 135.199C29.6043 135.257 29.1409 135.381 28.9588 135.472C28.7767 135.563 28.5037 135.786 28.363 135.959C28.214 136.132 28.0568 136.446 28.0071 136.652C27.9658 136.859 27.8913 137.428 27.8416 137.932C27.792 138.435 27.734 140.639 27.7175 142.843C27.6927 145.047 27.6347 147.276 27.5851 147.796C27.5354 148.316 27.4196 149.117 27.3285 149.571C27.2375 150.025 27.072 150.66 26.9561 150.974C26.8403 151.287 26.5837 151.865 26.3851 152.253C26.1865 152.641 25.8224 153.202 25.5659 153.508C25.3176 153.822 24.8624 154.276 24.5562 154.523C24.2418 154.779 23.7535 155.109 23.4556 155.266C23.1577 155.415 22.6777 155.638 22.3798 155.745C22.0819 155.86 21.4447 156.034 20.9481 156.125C20.3523 156.24 19.7399 156.298 19.053 156.298C18.4076 156.298 17.6959 156.24 17.1249 156.141C16.6283 156.05 15.9746 155.902 15.6766 155.803C15.3787 155.704 14.8988 155.497 14.6008 155.349C14.3029 155.2 13.7981 154.878 13.4836 154.631C13.1692 154.383 12.772 154.011 12.6064 153.813C12.4409 153.615 12.1761 153.244 12.0106 152.996C11.8534 152.748 11.5968 152.245 11.4561 151.882C11.3072 151.519 11.1169 150.924 11.0258 150.561C10.9348 150.198 10.8107 149.471 10.7445 148.951C10.6534 148.225 10.6286 146.797 10.6286 142.843C10.6286 139.888 10.5955 137.387 10.5458 136.982C10.4879 136.537 10.3969 136.165 10.2728 135.959C10.1734 135.777 9.95828 135.563 9.80105 135.48C9.64382 135.398 9.23004 135.29 8.89075 135.241C8.55145 135.191 8.14595 135.142 7.73218 135.084V133.846ZM32.7242 140.037C33.08 140.037 33.1545 140.07 33.2786 140.259C33.3614 140.383 33.56 140.54 33.7172 140.606C33.9655 140.722 34.6192 140.746 43.1099 140.788L43.3995 141.275L41.4217 144.56C40.3376 146.36 38.608 149.282 37.5736 151.04C36.5474 152.798 35.7033 154.251 35.7033 154.276C35.7033 154.3 36.5309 154.317 37.5405 154.317C38.8811 154.317 39.5266 154.284 39.899 154.193C40.1887 154.127 40.561 154.003 40.7266 153.912C40.9003 153.83 41.19 153.64 41.372 153.491C41.5541 153.343 41.8851 152.996 42.1168 152.707C42.3403 152.418 42.6878 151.89 42.8782 151.519C43.0768 151.155 43.2754 150.85 43.3333 150.85C43.3913 150.85 43.6313 150.941 43.8712 151.056C44.1112 151.172 44.3098 151.312 44.3098 151.37C44.3098 151.428 44.103 152.08 43.8547 152.831C43.5982 153.582 43.2589 154.556 42.8203 155.803H31.1518L30.978 155.58C30.887 155.456 30.8125 155.316 30.8125 155.266C30.8208 155.225 30.9449 155.002 31.0939 154.771C31.2511 154.548 31.8801 153.557 32.4924 152.583C33.1048 151.609 34.2965 149.661 35.1406 148.25C35.9847 146.847 37.1184 144.931 38.6494 142.307L37.1598 142.282C36.3074 142.274 35.4302 142.298 35.1241 142.348C34.8261 142.406 34.4041 142.546 34.1806 142.662C33.9572 142.785 33.6262 143.074 33.4441 143.297C33.2621 143.528 32.8979 144.147 32.1449 145.65L31.6235 145.452C31.1518 145.27 31.1104 145.229 31.1187 145.022C31.1187 144.89 31.3504 143.891 31.6318 142.802C31.9049 141.712 32.1614 140.672 32.1945 140.491C32.2194 140.309 32.2607 140.136 32.2856 140.103C32.3021 140.07 32.5007 140.037 32.7242 140.037V140.037ZM53.0819 140.416C53.5039 140.441 54.0087 140.54 54.3646 140.664C54.679 140.771 55.1259 140.986 55.3494 141.134C55.5728 141.283 55.9369 141.605 56.1686 141.853C56.3921 142.1 56.6817 142.513 56.8058 142.761C56.93 143.008 57.1038 143.479 57.1865 143.792C57.3106 144.296 57.3355 144.898 57.3768 148.497C57.4265 152.575 57.4265 152.633 57.6086 152.98C57.7161 153.169 57.8816 153.384 57.981 153.45C58.0885 153.524 58.3037 153.574 58.4609 153.574C58.6182 153.582 58.9161 153.524 59.123 153.45C59.3299 153.384 59.5285 153.326 59.5781 153.326C59.6195 153.326 59.7271 153.557 59.8098 153.838C59.934 154.267 59.9422 154.375 59.8512 154.457C59.7933 154.507 59.0568 154.919 58.2127 155.382C57.0458 156.017 56.6072 156.215 56.3672 156.215C56.2017 156.215 55.8459 156.133 55.5811 156.034C55.3245 155.935 54.9604 155.72 54.7783 155.555C54.5963 155.382 54.3232 155.018 53.9094 154.234L52.8088 154.952C52.2047 155.349 51.435 155.803 51.0957 155.959C50.4999 156.232 50.442 156.24 49.7717 156.199C49.2751 156.166 48.8945 156.092 48.489 155.926C48.1662 155.803 47.6945 155.522 47.4297 155.316C47.1649 155.109 46.7925 154.73 46.6104 154.482C46.4284 154.234 46.1801 153.805 46.0642 153.533C45.8574 153.079 45.8408 152.947 45.8408 151.923C45.8408 150.858 45.8491 150.792 46.0725 150.355C46.2049 150.107 46.4863 149.736 46.7015 149.529C46.9166 149.323 47.347 149.026 47.6697 148.861C47.9842 148.696 48.4972 148.481 48.82 148.374C49.1345 148.275 49.9951 147.969 50.7233 147.697C51.4516 147.424 52.3453 147.053 52.7095 146.871C53.0736 146.69 53.4708 146.467 53.5949 146.384C53.8018 146.244 53.8267 146.186 53.8267 145.716C53.8267 145.427 53.7853 144.948 53.7439 144.643C53.6943 144.337 53.5784 143.867 53.4791 143.611C53.3798 143.347 53.1481 142.967 52.966 142.769C52.7757 142.571 52.4778 142.34 52.2957 142.257C52.0888 142.166 51.7661 142.108 51.4433 142.1C51.162 142.1 50.8227 142.15 50.6985 142.216C50.5744 142.282 50.3344 142.48 50.1606 142.67C49.9951 142.86 49.7551 143.223 49.6393 143.487C49.5234 143.743 49.3413 144.263 49.2255 144.643C49.1179 145.014 48.9358 145.435 48.82 145.567C48.6959 145.716 48.4807 145.848 48.2821 145.897C48.1 145.947 47.8104 145.955 47.6366 145.93C47.4711 145.906 47.1649 145.79 46.958 145.674C46.7511 145.567 46.4946 145.352 46.3787 145.212C46.2629 145.064 46.1222 144.808 46.0642 144.643C45.998 144.42 45.9898 144.238 46.0394 144.023C46.0946 143.814 46.2684 143.569 46.5608 143.289C46.8008 143.058 47.2559 142.703 47.5787 142.496C47.8931 142.29 48.6048 141.894 49.151 141.621C49.6972 141.341 50.4585 141.002 50.8475 140.862C51.2364 140.722 51.733 140.548 51.9647 140.482C52.246 140.408 52.5936 140.383 53.0819 140.416V140.416ZM50.2599 149.694C49.8793 150.074 49.7799 150.231 49.6889 150.602C49.631 150.858 49.5979 151.279 49.6227 151.552C49.6475 151.824 49.7386 152.212 49.8296 152.418C49.9124 152.625 50.1192 152.93 50.2765 153.103C50.4503 153.302 50.7234 153.483 50.9882 153.582C51.2282 153.665 51.584 153.739 51.7743 153.739C51.9729 153.739 52.2957 153.69 52.5026 153.632C52.7095 153.574 53.0901 153.384 53.3467 153.219L53.8267 152.914C53.8267 148.885 53.7936 147.713 53.7605 147.713C53.7274 147.722 53.0322 148.06 52.2129 148.481C51.0295 149.083 50.624 149.331 50.2599 149.694V149.694ZM68.5157 140.408C68.8798 140.433 69.3846 140.507 69.6328 140.581C69.8811 140.656 70.237 140.796 70.419 140.895C70.6011 140.986 70.9155 141.2 71.1224 141.357C71.3293 141.514 71.6107 141.778 71.7514 141.935C71.8921 142.092 72.0741 142.34 72.1651 142.472C72.2562 142.612 72.4134 142.942 72.5127 143.215C72.612 143.487 72.7279 143.949 72.7775 144.246C72.8189 144.552 72.8603 146.376 72.8603 148.398C72.8603 150.726 72.8934 152.162 72.9513 152.443C73.001 152.682 73.1086 152.988 73.1913 153.12C73.2741 153.26 73.4396 153.417 73.5554 153.475C73.6713 153.533 73.8699 153.574 73.994 153.574C74.1182 153.574 74.3913 153.524 74.5981 153.45C74.805 153.384 75.0119 153.326 75.0698 153.326C75.1278 153.326 75.2519 153.557 75.3429 153.846C75.434 154.127 75.4753 154.383 75.4422 154.416C75.4091 154.449 74.6561 154.87 73.7706 155.349C72.2396 156.182 72.132 156.224 71.7431 156.199C71.4948 156.182 71.1224 156.067 70.8411 155.926C70.5597 155.786 70.237 155.539 70.088 155.349C69.939 155.167 69.7404 154.862 69.6411 154.672C69.5418 154.474 69.426 154.317 69.3846 154.317C69.3349 154.317 68.8798 154.589 68.3667 154.928C67.8536 155.258 67.1585 155.679 66.8192 155.852C66.3309 156.108 66.0992 156.182 65.6606 156.207C65.3379 156.224 64.891 156.182 64.5434 156.1C64.2207 156.026 63.7407 155.836 63.4676 155.671C63.1945 155.514 62.789 155.208 62.5739 154.994C62.3504 154.779 62.069 154.441 61.9366 154.234C61.8042 154.028 61.6056 153.574 61.4898 153.227C61.3325 152.765 61.2746 152.41 61.2746 151.948C61.2663 151.527 61.3325 151.114 61.4401 150.767C61.5311 150.47 61.7215 150.082 61.8622 149.901C62.0028 149.719 62.309 149.43 62.5407 149.257C62.7807 149.083 63.1945 148.836 63.4676 148.712C63.7407 148.588 64.3365 148.357 64.7917 148.209C65.2468 148.06 66.1406 147.738 66.7778 147.49C67.415 147.234 68.1184 146.946 68.3501 146.83C68.5736 146.714 68.8798 146.533 69.0287 146.426C69.2936 146.236 69.3018 146.219 69.3018 145.592C69.3018 145.237 69.2604 144.717 69.2191 144.436C69.1694 144.147 69.0453 143.726 68.9377 143.487C68.8384 143.248 68.6398 142.926 68.5074 142.769C68.375 142.62 68.0771 142.397 67.8536 142.29C67.4978 142.117 67.3488 142.084 66.844 142.108C66.3144 142.141 66.2233 142.166 65.9751 142.406C65.8178 142.554 65.5613 142.851 65.4041 143.066C65.2468 143.289 65.0151 143.792 64.891 144.205C64.7586 144.618 64.5848 145.105 64.4938 145.303C64.3945 145.526 64.2372 145.699 64.0634 145.79C63.9145 145.864 63.6248 145.93 63.4262 145.93C63.2193 145.939 62.88 145.864 62.6814 145.782C62.4745 145.691 62.2015 145.526 62.069 145.41C61.9449 145.295 61.7629 145.055 61.6801 144.89C61.5891 144.717 61.5229 144.436 61.5229 144.271C61.5146 144.057 61.5891 143.85 61.7546 143.627C61.887 143.446 62.1518 143.165 62.3587 143C62.5573 142.843 63.0373 142.521 63.4262 142.29C63.8152 142.059 64.3862 141.745 64.7089 141.58C65.0234 141.423 65.611 141.159 66.0082 140.994C66.4054 140.829 66.9847 140.623 67.2909 140.532C67.7212 140.408 68.0026 140.375 68.5157 140.408V140.408ZM66.1158 149.364C65.9337 149.488 65.6854 149.719 65.5696 149.868C65.4454 150.025 65.2799 150.355 65.1972 150.602C65.0896 150.941 65.0648 151.18 65.1062 151.535C65.1393 151.791 65.2468 152.195 65.3461 152.435C65.462 152.682 65.6937 152.996 65.9089 153.194C66.1158 153.384 66.4551 153.582 66.6537 153.648C66.8606 153.706 67.233 153.747 67.4812 153.723C67.7791 153.706 68.1267 153.599 68.4743 153.425C68.7722 153.285 69.0701 153.112 69.1446 153.062C69.2604 152.971 69.2853 152.641 69.3101 150.338C69.3266 148.894 69.3267 147.713 69.3018 147.713C69.277 147.722 68.6232 148.035 67.8536 148.431C67.0757 148.819 66.2978 149.24 66.1158 149.364ZM82.3109 140.375C82.344 140.367 82.3854 141.167 82.4185 143.924L82.9233 143.157C83.2046 142.736 83.7095 142.1 84.0405 141.737C84.3798 141.374 84.8597 140.953 85.108 140.796C85.3563 140.639 85.7452 140.474 85.9769 140.425C86.2749 140.358 86.5066 140.367 86.821 140.433C87.061 140.491 87.4417 140.656 87.6734 140.804C87.9796 141.002 88.1368 141.184 88.3023 141.522C88.501 141.919 88.5258 142.051 88.4927 142.554C88.4596 142.975 88.3934 143.239 88.2361 143.503C88.1203 143.71 87.8803 144.007 87.7065 144.156C87.5245 144.312 87.2596 144.494 87.1107 144.552C86.9617 144.61 86.7631 144.659 86.6555 144.659C86.5562 144.667 86.308 144.544 86.1011 144.387C85.8942 144.23 85.5714 144.023 85.3728 143.933C85.1742 143.834 84.868 143.751 84.6694 143.751C84.4791 143.759 84.1729 143.825 83.9908 143.908C83.8088 143.99 83.4943 144.238 83.2957 144.461C83.0971 144.684 82.8074 145.121 82.3771 145.98L82.4185 153.533L82.6254 153.888C82.7412 154.077 82.9233 154.276 83.0391 154.317C83.155 154.358 83.4115 154.432 83.6184 154.482C83.8253 154.531 84.2474 154.597 85.1494 154.688L85.1908 155.803H76.5015L76.5429 154.688L76.9567 154.639C77.1801 154.606 77.5194 154.548 77.7014 154.498C77.8835 154.449 78.1235 154.342 78.2311 154.259C78.3469 154.177 78.5042 153.962 78.5869 153.78C78.7193 153.475 78.7276 153.079 78.7359 148.745C78.7359 146.161 78.7111 143.916 78.6697 143.759C78.6366 143.603 78.5207 143.371 78.4049 143.248C78.2807 143.124 78.0076 142.975 77.7428 142.901C77.4946 142.835 77.1801 142.752 77.056 142.728C76.8408 142.678 76.8325 142.662 76.8325 141.646L77.3456 141.58C77.6352 141.539 78.3138 141.423 78.86 141.316C79.4062 141.209 80.3 140.986 80.8461 140.829C81.3923 140.672 81.9302 140.507 82.0461 140.458C82.1619 140.416 82.2778 140.375 82.3109 140.375V140.375ZM20.1454 161.498C20.3854 161.498 20.5178 161.548 20.6419 161.688C20.733 161.787 20.8075 161.985 20.8075 162.117C20.8075 162.258 20.733 162.472 20.6419 162.596C20.5095 162.769 20.4102 162.819 20.162 162.819C19.9578 162.819 19.7923 162.756 19.6654 162.629C19.533 162.505 19.4751 162.357 19.4834 162.142C19.4834 161.944 19.5413 161.771 19.6489 161.663C19.7592 161.553 19.9247 161.498 20.1454 161.498V161.498ZM47.0904 161.498C47.3883 161.498 47.4794 161.54 47.62 161.729C47.7111 161.853 47.7856 162.06 47.7856 162.183C47.7856 162.307 47.6945 162.497 47.5787 162.613C47.4545 162.745 47.289 162.819 47.1235 162.819C46.9911 162.819 46.809 162.794 46.7346 162.761C46.6601 162.728 46.5442 162.588 46.478 162.448C46.4118 162.299 46.387 162.117 46.4201 161.994C46.4449 161.878 46.5277 161.721 46.6022 161.647C46.6849 161.548 46.8587 161.498 47.0904 161.498V161.498ZM71.3707 161.498C71.5914 161.498 71.7569 161.553 71.8672 161.663C71.9583 161.762 72.0327 161.944 72.0327 162.101C72.0327 162.249 71.9583 162.472 71.8672 162.596C71.7348 162.778 71.6355 162.819 71.3707 162.819C71.1059 162.819 71.0066 162.778 70.8659 162.596C70.7749 162.472 70.7004 162.249 70.7004 162.117C70.7004 161.969 70.7749 161.787 70.8742 161.68C70.99 161.556 71.139 161.498 71.3707 161.498ZM27.3451 161.663V163.067C27.3451 163.843 27.3699 164.486 27.403 164.511C27.4361 164.528 27.5768 164.437 27.7175 164.297C27.8499 164.164 28.1561 163.983 28.3961 163.892C28.6774 163.785 29.0416 163.727 29.4305 163.727C29.927 163.727 30.1174 163.768 30.5312 163.966C30.8622 164.123 31.1187 164.33 31.3008 164.569C31.4497 164.767 31.6235 165.114 31.6897 165.337C31.789 165.65 31.8139 166.236 31.8139 169.918H30.8208L30.796 167.838C30.7794 165.782 30.7711 165.741 30.5725 165.386C30.4236 165.114 30.2498 164.965 29.9519 164.808C29.6705 164.668 29.4057 164.602 29.1243 164.602C28.8595 164.61 28.5616 164.676 28.2968 164.808C28.0402 164.932 27.8168 165.13 27.6761 165.328C27.4692 165.65 27.4692 165.683 27.4196 167.763C27.3865 168.927 27.3616 169.885 27.3534 169.901C27.3451 169.91 27.1217 169.918 26.352 169.918L26.3355 165.848C26.3272 163.603 26.352 161.746 26.3934 161.721C26.4265 161.688 26.6582 161.663 27.3451 161.663V161.663ZM85.5218 161.663H86.5148V169.918H86.0349C85.5714 169.926 85.5632 169.918 85.497 169.654C85.4639 169.505 85.439 169.282 85.439 168.927L85.1659 169.224C85.017 169.39 84.6942 169.621 84.446 169.736C84.1398 169.885 83.8005 169.967 83.4115 169.992C82.9978 170.017 82.6998 169.984 82.3771 169.885C82.1288 169.802 81.773 169.637 81.5909 169.513C81.4089 169.39 81.1358 169.117 80.9868 168.919C80.8379 168.721 80.6392 168.349 80.5399 168.102C80.4075 167.763 80.3662 167.45 80.3579 166.864C80.3496 166.22 80.391 165.989 80.5565 165.551C80.6806 165.221 80.9041 164.858 81.1358 164.61C81.3427 164.387 81.7151 164.107 81.9633 163.991C82.3523 163.801 82.5261 163.768 83.2046 163.768C83.8253 163.768 84.0653 163.81 84.3632 163.942C84.5701 164.032 84.8846 164.247 85.3977 164.709L85.4556 164.445C85.497 164.305 85.5218 163.62 85.5218 162.926V161.663ZM82.0626 165.155C81.9054 165.295 81.7068 165.568 81.6075 165.749C81.4668 166.013 81.4337 166.228 81.4254 166.822C81.4254 167.45 81.4585 167.631 81.6323 167.978C81.7399 168.201 81.9054 168.457 82.0047 168.539C82.0957 168.622 82.3523 168.779 82.584 168.886C82.8736 169.026 83.1384 169.084 83.4529 169.084C83.7095 169.084 84.0487 169.018 84.2391 168.936C84.4211 168.853 84.7273 168.605 84.9259 168.382C85.1246 168.16 85.3149 167.846 85.3563 167.689C85.4059 167.524 85.439 167.153 85.439 166.864C85.439 166.567 85.3977 166.179 85.348 165.997C85.2983 165.815 85.1494 165.535 85.0253 165.378C84.9011 165.213 84.5949 164.982 84.3549 164.858C84.0074 164.684 83.7922 164.635 83.4115 164.635C83.1384 164.635 82.7826 164.693 82.6254 164.767C82.4681 164.833 82.2116 165.006 82.0626 165.155V165.155ZM22.5453 162.324H23.6211V163.81H25.1935V164.635H23.6211L23.6377 166.69C23.6542 168.242 23.6873 168.779 23.7701 168.861C23.828 168.919 24.159 168.985 25.1521 169.051L25.1935 169.918H24.548C24.2004 169.918 23.7618 169.877 23.5797 169.827C23.3977 169.778 23.1577 169.654 23.0584 169.555C22.9508 169.456 22.8018 169.266 22.7274 169.134C22.6115 168.927 22.5867 168.539 22.5453 164.635H21.8005V163.81H22.5453V162.324ZM52.3371 163.727C52.8833 163.719 53.0239 163.752 53.4874 163.991C53.7853 164.14 54.1246 164.387 54.2487 164.552C54.3811 164.709 54.5384 165.023 54.6128 165.254C54.7121 165.584 54.737 166.096 54.737 169.918H53.7439V167.953C53.7439 166.674 53.7108 165.898 53.6529 165.708C53.5949 165.543 53.4874 165.312 53.3963 165.188C53.3136 165.064 53.1232 164.899 52.9743 164.825C52.8336 164.751 52.5605 164.66 52.3784 164.627C52.1964 164.594 51.8654 164.602 51.6337 164.651C51.3275 164.718 51.1289 164.825 50.8806 165.072C50.6737 165.279 50.4999 165.551 50.442 165.749C50.3923 165.947 50.351 166.839 50.351 169.918H49.2751V163.81H50.351V164.594L50.6158 164.33C50.7647 164.189 50.9799 164.024 51.0957 163.966C51.2116 163.909 51.3937 163.834 51.5095 163.801C51.6254 163.768 51.9978 163.735 52.3371 163.727V163.727ZM62.367 163.727C62.7725 163.727 63.0621 163.776 63.3931 163.909C63.6828 164.024 63.9807 164.222 64.171 164.429C64.3365 164.61 64.4938 164.808 64.5269 164.883C64.5765 164.99 64.5931 164.99 64.6427 164.883C64.6758 164.808 64.8496 164.594 65.0317 164.404C65.2468 164.173 65.5282 163.983 65.8013 163.884C66.0661 163.785 66.4468 163.727 66.7778 163.727C67.1171 163.727 67.4729 163.785 67.746 163.892C67.986 163.983 68.3088 164.164 68.4495 164.305C68.5984 164.437 68.8218 164.742 69.1777 165.419L69.2191 169.918H68.226L68.2012 167.871C68.1846 166.013 68.1681 165.799 68.0109 165.46C67.9115 165.238 67.7295 165.015 67.5557 164.907C67.3985 164.808 67.1088 164.684 66.9019 164.643C66.6454 164.585 66.4054 164.585 66.1158 164.651C65.8344 164.709 65.5944 164.841 65.3875 165.039C65.1724 165.238 65.0317 165.469 64.9489 165.749C64.8662 166.055 64.8331 166.649 64.8331 169.918H63.84L63.8152 167.871C63.7986 166.212 63.7655 165.774 63.6579 165.543C63.5917 165.378 63.418 165.147 63.2938 165.023C63.1531 164.891 62.8635 164.742 62.5987 164.676C62.2346 164.577 62.0608 164.577 61.7298 164.651C61.4484 164.709 61.2084 164.841 61.0015 165.039C60.8194 165.213 60.6374 165.493 60.5629 165.708C60.4719 165.989 60.4471 166.533 60.4471 169.918H59.3712V163.81H60.4471V164.552L60.7946 164.255C60.9932 164.098 61.2994 163.917 61.4815 163.851C61.6635 163.793 62.0608 163.735 62.367 163.727V163.727ZM76.5429 163.727C76.8573 163.727 77.2877 163.776 77.4946 163.843C77.7014 163.909 78.0325 164.107 78.2394 164.288C78.4628 164.478 78.6945 164.784 78.8186 165.048C79.0173 165.485 79.0255 165.551 79.0669 169.918H78.0738V168.16C78.0738 167.103 78.0325 166.212 77.9745 165.914C77.8918 165.518 77.809 165.345 77.5359 165.072C77.2794 164.817 77.1056 164.709 76.7663 164.643C76.5346 164.594 76.2119 164.577 76.0629 164.602C75.9222 164.635 75.6822 164.709 75.5498 164.775C75.4091 164.841 75.2353 164.957 75.1443 165.031C75.0616 165.105 74.9126 165.32 74.8133 165.502C74.6478 165.807 74.6395 165.964 74.5981 169.918H73.6051V163.81H74.5981V164.552L74.9457 164.264C75.1443 164.107 75.4505 163.925 75.6326 163.859C75.8146 163.793 76.2201 163.735 76.5429 163.727ZM10.2976 163.81C10.7858 163.81 10.7941 163.81 10.8686 164.074C10.91 164.222 11.0424 164.718 11.1665 165.171C11.2906 165.625 11.4396 166.162 11.4975 166.368C11.5555 166.567 11.7292 167.177 11.8865 167.706C12.0354 168.242 12.1761 168.68 12.2009 168.68C12.2258 168.68 12.3002 168.482 12.3747 168.242C12.4492 168.003 12.6892 167.219 12.8961 166.492C13.1112 165.766 13.3761 164.866 13.6905 163.81H14.2284C14.5264 163.81 14.7663 163.826 14.7663 163.851C14.7663 163.867 15.0643 164.94 15.4367 166.22C15.8091 167.508 16.1401 168.605 16.1732 168.68C16.2146 168.762 16.2725 168.663 16.3635 168.349C16.438 168.094 16.6945 167.128 16.9428 166.203C17.1993 165.271 17.4393 164.354 17.58 163.81H18.0765C18.3496 163.81 18.5731 163.843 18.5731 163.892C18.5731 163.933 18.4241 164.429 18.2503 164.982C18.0683 165.543 17.7372 166.591 17.5138 167.318C17.2821 168.044 17.009 168.911 16.7111 169.877L16.1897 169.893C15.7263 169.91 15.6684 169.901 15.6022 169.728C15.5608 169.629 15.3953 169.117 15.2298 168.597C15.0725 168.069 14.7829 167.111 14.5843 166.467C14.3857 165.824 14.2119 165.287 14.1871 165.287C14.1622 165.287 13.9636 165.873 13.7402 166.591C13.5167 167.309 13.2023 168.341 12.7306 169.877L11.663 169.926L11.4396 169.2C11.3155 168.795 10.8934 167.466 10.5045 166.245C10.1155 165.015 9.80105 163.966 9.80105 163.909C9.80105 163.843 9.95828 163.81 10.2976 163.81V163.81ZM19.6489 163.81H20.6419V169.918H19.6489V163.81ZM36.4399 163.81H37.4412V165.791C37.4412 167.392 37.466 167.829 37.5653 168.077C37.6398 168.25 37.797 168.49 37.9212 168.622C38.0453 168.754 38.277 168.911 38.4342 168.977C38.5915 169.043 38.9059 169.092 39.1377 169.092C39.3611 169.084 39.7004 169.018 39.8825 168.936C40.0645 168.853 40.2962 168.696 40.3955 168.581C40.4948 168.473 40.6355 168.217 40.71 168.019C40.8093 167.722 40.8341 167.26 40.8341 163.81H41.91V169.918H40.8341V169.175L40.561 169.39C40.4204 169.505 40.1473 169.687 39.9652 169.778C39.7004 169.918 39.477 169.951 38.8894 169.951C38.2356 169.959 38.095 169.926 37.7308 169.736C37.4991 169.612 37.2177 169.414 37.0936 169.282C36.9778 169.15 36.7874 168.878 36.6798 168.68C36.4978 168.316 36.4895 168.226 36.4647 166.055L36.4399 163.81ZM46.5442 163.81H47.62V169.918H46.5442V163.81ZM70.8742 163.81H71.8672V169.918H70.8742V163.81Z" fill="black"/>
<defs>
<linearGradient id="paint0_linear_1435_5360" x1="42.7737" y1="34.4855" x2="42.7737" y2="124.023" gradientUnits="userSpaceOnUse">
<stop stop-color="#F99B43"/>
<stop offset="1" stop-color="#EF5630"/>
</linearGradient>
<linearGradient id="paint1_linear_1435_5360" x1="52.8489" y1="49.4118" x2="52.8489" y2="125.253" gradientUnits="userSpaceOnUse">
<stop stop-color="#C000F4"/>
<stop offset="1" stop-color="#8B00B1"/>
</linearGradient>
<linearGradient id="paint2_linear_1435_5360" x1="46.482" y1="28.0231" x2="46.482" y2="57.7393" gradientUnits="userSpaceOnUse">
<stop stop-color="#CE1472"/>
<stop offset="1" stop-color="#8B1056"/>
</linearGradient>
</defs>
</svg>
