<svg width="20" height="20" viewBox="0 0 20 20" fill="none" xmlns="http://www.w3.org/2000/svg">
<path d="M5 12.5V7.5C5 6.17392 5.52678 4.90215 6.46447 3.96447C7.40215 3.02678 8.67392 2.5 10 2.5C11.3261 2.5 12.5979 3.02678 13.5355 3.96447C14.4732 4.90215 15 6.17392 15 7.5V14.1667C15 15.0507 14.6488 15.8986 14.0237 16.5237C13.3986 17.1488 12.5507 17.5 11.6667 17.5C10.7826 17.5 9.93477 17.1488 9.30964 16.5237C8.68452 15.8986 8.33333 15.0507 8.33333 14.1667V7.5C8.33333 7.05797 8.50893 6.63405 8.82149 6.32149C9.13405 6.00893 9.55797 5.83333 10 5.83333C10.442 5.83333 10.866 6.00893 11.1785 6.32149C11.4911 6.63405 11.6667 7.05797 11.6667 7.5V14.1667" stroke="#A3A3A4" stroke-width="1.5" stroke-linecap="round" stroke-linejoin="round"/>
</svg>
