<svg width="78" height="78" viewBox="0 0 78 78" fill="none" xmlns="http://www.w3.org/2000/svg">
<g filter="url(#filter0_d_25_3044)">
<circle cx="39" cy="39" r="35" fill="#F5F5F5"/>
</g>
<path d="M48.781 20.664H41.83C40.574 20.668 40.621 22.54 41.83 22.529H48.781V23.486H41.83C40.581 23.475 40.627 25.346 41.83 25.351H48.781V26.329H41.83C40.581 26.329 40.627 28.199 41.83 28.194H48.781V29.126H41.83C40.607 29.135 40.627 31.007 41.83 31.013H48.781V31.947H41.83C40.607 31.943 40.602 33.812 41.83 33.812H48.781V34.744H41.83C40.607 34.748 40.602 36.619 41.83 36.61H48.781V37.565H41.83C40.607 37.554 40.602 39.423 41.83 39.43H48.781V40.36H41.83C40.607 40.359 40.627 42.232 41.83 42.226H48.781V60.385C48.785 63.152 52.988 63.102 53 60.385V17.89C52.988 16.626 51.95 15.028 50.242 15.023H41.83C40.574 15.024 40.621 16.896 41.83 16.888L48.781 16.911V17.841H41.83C40.576 17.835 40.623 19.706 41.83 19.707H48.781V20.664ZM41.352 52.858C41.348 49.628 38 46.154 34 48.404V36.05L31.413 15.675C31.359 15.136 30.902 15.009 30.595 15C30.278 15.009 29.643 15.136 29.574 15.675L27 36.05V48.404C23 46.154 19.76 49.65 19.759 52.833C19.76 55.665 21.94 57.991 24.89 57.984C27.862 57.991 30 55.384 30 52.833V40H31V52.833C31 55.689 33.212 57.803 35.67 57.937C35.629 59.503 36.14 61.737 37.102 62.623C38.23 63.663 39.573 62.333 39.022 61.25C38.49 60.242 37.968 59.645 38.392 57.444C40.164 56.624 41.348 54.898 41.352 52.858ZM25.004 55.399C24.3297 55.399 23.683 55.1311 23.2062 54.6543C22.7294 54.1775 22.4615 53.5308 22.4615 52.8565C22.4615 52.1822 22.7294 51.5355 23.2062 51.0587C23.683 50.5819 24.3297 50.314 25.004 50.314C26.39 50.322 27.519 51.459 27.529 52.858C27.5262 53.5283 27.2597 54.1705 26.7873 54.646C26.3148 55.1214 25.6743 55.3919 25.004 55.399ZM33.575 52.858C33.5774 52.1871 33.8437 51.5441 34.3164 51.068C34.7891 50.592 35.4302 50.3211 36.101 50.314C36.7721 50.3201 37.4137 50.5906 37.8865 51.067C38.3593 51.5433 38.625 52.1869 38.626 52.858C38.625 53.5288 38.3591 54.1721 37.8863 54.648C37.4134 55.1238 36.7718 55.3937 36.101 55.399C35.4304 55.3929 34.7891 55.1228 34.3163 54.6472C33.8434 54.1715 33.5771 53.5287 33.575 52.858Z" fill="#988FC4"/>
<defs>
<filter id="filter0_d_25_3044" x="0" y="0" width="78" height="78" filterUnits="userSpaceOnUse" color-interpolation-filters="sRGB">
<feFlood flood-opacity="0" result="BackgroundImageFix"/>
<feColorMatrix in="SourceAlpha" type="matrix" values="0 0 0 0 0 0 0 0 0 0 0 0 0 0 0 0 0 0 127 0" result="hardAlpha"/>
<feOffset/>
<feGaussianBlur stdDeviation="2"/>
<feComposite in2="hardAlpha" operator="out"/>
<feColorMatrix type="matrix" values="0 0 0 0 0 0 0 0 0 0 0 0 0 0 0 0 0 0 0.14 0"/>
<feBlend mode="normal" in2="BackgroundImageFix" result="effect1_dropShadow_25_3044"/>
<feBlend mode="normal" in="SourceGraphic" in2="effect1_dropShadow_25_3044" result="shape"/>
</filter>
</defs>
</svg>
