<svg width="78" height="78" viewBox="0 0 78 78" fill="none" xmlns="http://www.w3.org/2000/svg">
<g filter="url(#filter0_d_25_2607)">
<circle cx="39" cy="39" r="35" fill="#F5F5F5"/>
</g>
<g clip-path="url(#clip0_25_2607)">
<path d="M56.8906 45.0156L62.5937 50.9531L37.5156 63.5313C37.5156 63.5313 34.2343 65.1719 32.6718 62.5938C26.4218 52.4375 56.8906 45.0156 56.8906 45.0156Z" fill="#256382"/>
<path d="M36.8125 56.1094C36.8125 56.1094 32.0469 57.9062 32.9063 61.2656C33.8438 64.7812 37.6719 62.6719 37.6719 62.6719L61.5 50.9531C61.5 50.9531 60.1719 47.2031 62.5938 44.7031L36.8125 56.1094Z" fill="#D9E3E8"/>
<path d="M40.875 20.9531L63.6875 44.4688L36.7344 55.6406L19.4688 27.0469L40.875 20.9531Z" fill="#42ADE2"/>
<path d="M61.4219 47.2812L45.4844 54.1563L61.1094 46.5781L61.4219 47.2812ZM61.1875 49.3125L44.2344 56.7344L60.875 48.6094L61.1875 49.3125ZM61.3437 50.4844L39.7031 60.4063L61.0312 49.7812L61.3437 50.4844Z" fill="#94989B"/>
<path d="M32.5938 62.5156C29.9375 56.6562 36.7344 55.6406 36.7344 55.6406L19.4688 27.0468C19.4688 27.0468 15.5625 26.9687 15.5625 31.2656C15.5625 33.0625 16.3438 34.3906 16.3438 34.3906L32.5938 62.5156Z" fill="#428BC1"/>
<path d="M20.7969 39.1562L15.0938 45.0937L40.1719 57.6719C40.1719 57.6719 43.4531 59.3125 45.0156 56.7344C51.2656 46.5781 20.7969 39.1562 20.7969 39.1562Z" fill="#547725"/>
<path d="M40.7969 50.25C40.7969 50.25 45.5625 52.0469 44.7031 55.4062C43.7656 58.9219 40.0156 56.8125 40.0156 56.8125L16.1875 45.0937C16.1875 45.0937 17.5156 41.3437 15.0938 38.8438L40.7969 50.25Z" fill="#D9E3E8"/>
<path d="M36.8125 15.0938L14 38.6094L40.9531 49.7812L58.2187 21.1875L36.8125 15.0938Z" fill="#83BF4F"/>
<path d="M16.5 40.7188L32.125 48.2969L16.1875 41.4219L16.5 40.7188ZM16.8125 42.75L33.375 50.875L16.4219 43.4531L16.8125 42.75ZM16.6563 43.9219L37.9063 54.5469L16.2656 44.625L16.6563 43.9219Z" fill="#94989B"/>
<path d="M45.0937 56.6562C47.75 50.7969 40.9531 49.7812 40.9531 49.7812L58.2187 21.1875C58.2187 21.1875 62.125 21.1093 62.125 25.4062C62.125 27.2031 61.3437 28.5312 61.3437 28.5312L45.0937 56.6562Z" fill="#699635"/>
<path d="M58.2969 34.3125L63.0625 39.3125L41.8907 49.8594C41.8907 49.8594 39.0782 51.1875 37.75 49.0781C32.5938 40.5625 58.2969 34.3125 58.2969 34.3125Z" fill="#962C2C"/>
<path d="M41.3437 43.6875C41.3437 43.6875 37.2812 45.1719 38.0624 48.0625C38.8437 51.0312 42.0468 49.2344 42.0468 49.2344L62.1249 39.3125C62.1249 39.3125 61.0312 36.1875 63.0624 34.0781L41.3437 43.6875Z" fill="#D9E3E8"/>
<path d="M44.7812 14L64 33.8438L41.2656 43.2969L26.6562 19.1562L44.7812 14Z" fill="#ED4C5C"/>
<path d="M45.3281 18.5312L49.0781 22.6719L35.25 27.9062L31.9688 22.5938L45.3281 18.5312Z" fill="white"/>
<path d="M62.125 36.2656L48.6875 41.9687L61.8125 35.5625L62.125 36.2656ZM61.9688 37.9844L47.5937 44.1562L61.6562 37.2812L61.9688 37.9844ZM62.125 38.9219L43.8438 47.2812L61.7344 38.2187L62.125 38.9219Z" fill="#94989B"/>
<path d="M37.8281 49.0781C35.6406 44.1563 41.3438 43.2969 41.3438 43.2969L26.6563 19.1563C26.6563 19.1563 23.2969 19.0781 23.2969 22.6719C23.2969 24.1563 23.9219 25.3281 23.9219 25.3281L37.8281 49.0781Z" fill="#C94747"/>
</g>
<defs>
<filter id="filter0_d_25_2607" x="0" y="0" width="78" height="78" filterUnits="userSpaceOnUse" color-interpolation-filters="sRGB">
<feFlood flood-opacity="0" result="BackgroundImageFix"/>
<feColorMatrix in="SourceAlpha" type="matrix" values="0 0 0 0 0 0 0 0 0 0 0 0 0 0 0 0 0 0 127 0" result="hardAlpha"/>
<feOffset/>
<feGaussianBlur stdDeviation="2"/>
<feComposite in2="hardAlpha" operator="out"/>
<feColorMatrix type="matrix" values="0 0 0 0 0 0 0 0 0 0 0 0 0 0 0 0 0 0 0.14 0"/>
<feBlend mode="normal" in2="BackgroundImageFix" result="effect1_dropShadow_25_2607"/>
<feBlend mode="normal" in="SourceGraphic" in2="effect1_dropShadow_25_2607" result="shape"/>
</filter>
<clipPath id="clip0_25_2607">
<rect width="50" height="50" fill="white" transform="translate(14 14)"/>
</clipPath>
</defs>
</svg>
