<svg width="24" height="24" viewBox="0 0 24 24" fill="none" xmlns="http://www.w3.org/2000/svg">
<path d="M8.04999 14.72L7.04999 13.72L3.94999 14.71H3.84999C3.80126 14.713 3.75244 14.7057 3.70676 14.6884C3.66107 14.6712 3.61957 14.6444 3.58499 14.61L2.85999 13.895C2.80143 13.8393 2.76395 13.765 2.75392 13.6848C2.7439 13.6046 2.76194 13.5234 2.80499 13.455L3.64999 12C4.17338 11.1043 4.90355 10.3468 5.77949 9.79101C6.65543 9.23517 7.65168 8.89707 8.68499 8.80496L9.92999 8.69496M9.92999 8.69496C10.6533 7.83496 11.32 7.0983 11.93 6.48496C13.0874 5.25898 14.469 4.26609 16 3.55996C17.5605 2.97665 19.2198 2.70321 20.885 2.75496C20.9857 2.75586 21.0823 2.79521 21.155 2.86496C21.1896 2.89677 21.2173 2.9354 21.2362 2.97843C21.2551 3.02146 21.2649 3.06795 21.265 3.11496C21.2991 4.78513 21.0017 6.44548 20.39 7.99996C19.7021 9.53549 18.7203 10.9215 17.5 12.08C16.885 12.7 16.145 13.365 15.29 14.08L15.18 15.32C15.0903 16.3528 14.7548 17.3491 14.2016 18.2259C13.6484 19.1026 12.8936 19.8343 12 20.36L10.555 21.205C10.498 21.235 10.4344 21.2505 10.37 21.25C10.2743 21.248 10.1823 21.2126 10.11 21.15L9.38499 20.42C9.33818 20.3752 9.30491 20.3182 9.289 20.2554C9.27308 20.1926 9.27516 20.1266 9.29499 20.065L10.26 16.93M9.92999 8.69496L7.07499 13.745M10.26 16.93L9.28999 15.96M10.26 16.93L15.31 14.08M18.71 7.34996C18.7113 6.80713 18.4973 6.28593 18.1149 5.90069C17.7324 5.51545 17.2128 5.29761 16.67 5.29496C16.3919 5.28124 16.114 5.32415 15.853 5.4211C15.592 5.51805 15.3535 5.66702 15.1518 5.85896C14.9502 6.05091 14.7896 6.28182 14.6799 6.53769C14.5702 6.79357 14.5137 7.06906 14.5137 7.34746C14.5137 7.62586 14.5702 7.90136 14.6799 8.15723C14.7896 8.41311 14.9502 8.64402 15.1518 8.83596C15.3535 9.02791 15.592 9.17687 15.853 9.27383C16.114 9.37078 16.3919 9.41369 16.67 9.39996C17.209 9.40075 17.7265 9.18871 18.11 8.80996C18.3029 8.61962 18.4551 8.39204 18.5574 8.14107C18.6597 7.89009 18.7099 7.62094 18.705 7.34996H18.71Z" stroke="#A3A3A4" stroke-width="1.5" stroke-linecap="round" stroke-linejoin="round"/>
<path d="M6.5 17.4999C8.5 17.1299 12.05 13.7999 12.465 11.5349C10.185 11.9699 6.855 15.4999 6.5 17.4999Z" stroke="#A3A3A4" stroke-width="1.5" stroke-linecap="round" stroke-linejoin="round"/>
</svg>
