<svg width="20" height="20" viewBox="0 0 20 20" fill="none" xmlns="http://www.w3.org/2000/svg">
<path d="M6.70812 12.2666L5.87479 11.4333L3.29146 12.2583H3.20812C3.16751 12.2608 3.12683 12.2547 3.08876 12.2403C3.05069 12.226 3.01611 12.2037 2.98729 12.175L2.38312 11.5791C2.33432 11.5327 2.30309 11.4708 2.29473 11.404C2.28638 11.3371 2.30142 11.2695 2.33729 11.2125L3.04146 9.99997C3.47761 9.25355 4.08609 8.62237 4.81604 8.15917C5.54598 7.69598 6.3762 7.41423 7.23729 7.33747L8.27479 7.2458M8.27479 7.2458C8.87757 6.52914 9.43312 5.91525 9.94146 5.40414C10.906 4.38249 12.0573 3.55507 13.3331 2.96664C14.6336 2.48054 16.0163 2.25268 17.404 2.2958C17.4879 2.29655 17.5684 2.32934 17.629 2.38747C17.6578 2.41397 17.6809 2.44617 17.6966 2.48203C17.7124 2.51789 17.7206 2.55663 17.7206 2.5958C17.7491 3.98761 17.5012 5.37124 16.9915 6.66664C16.4182 7.94624 15.6 9.10128 14.5831 10.0666C14.0706 10.5833 13.454 11.1375 12.7415 11.7333L12.6498 12.7666C12.575 13.6273 12.2955 14.4576 11.8345 15.1882C11.3735 15.9189 10.7444 16.5286 9.99979 16.9666L8.79562 17.6708C8.74812 17.6958 8.69515 17.7087 8.64146 17.7083C8.56172 17.7067 8.48507 17.6772 8.42479 17.625L7.82062 17.0166C7.78161 16.9793 7.75389 16.9318 7.74063 16.8795C7.72737 16.8272 7.7291 16.7722 7.74562 16.7208L8.54979 14.1083M8.27479 7.2458L5.89562 11.4541M8.54979 14.1083L7.74146 13.3M8.54979 14.1083L12.7581 11.7333M15.5915 6.12497C15.5926 5.67261 15.4142 5.23828 15.0955 4.91724C14.7768 4.5962 14.3438 4.41467 13.8915 4.41247C13.6597 4.40103 13.4281 4.43679 13.2106 4.51758C12.9932 4.59838 12.7944 4.72252 12.6263 4.88247C12.4583 5.04242 12.3245 5.23485 12.2331 5.44808C12.1417 5.66131 12.0945 5.89089 12.0945 6.12289C12.0945 6.35489 12.1417 6.58447 12.2331 6.79769C12.3245 7.01092 12.4583 7.20335 12.6263 7.3633C12.7944 7.52326 12.9932 7.6474 13.2106 7.72819C13.4281 7.80898 13.6597 7.84474 13.8915 7.8333C14.3406 7.83396 14.7719 7.65726 15.0915 7.34164C15.2522 7.18301 15.3791 6.99337 15.4643 6.78422C15.5496 6.57507 15.5914 6.35078 15.5873 6.12497H15.5915Z" stroke="#450E8B" stroke-width="1.5" stroke-linecap="round" stroke-linejoin="round"/>
<path d="M5.4165 14.5833C7.08317 14.275 10.0415 11.5 10.3873 9.61249C8.48734 9.97499 5.71234 12.9167 5.4165 14.5833Z" stroke="#450E8B" stroke-width="1.5" stroke-linecap="round" stroke-linejoin="round"/>
</svg>
