<svg width="78" height="78" viewBox="0 0 78 78" fill="none" xmlns="http://www.w3.org/2000/svg">
<g filter="url(#filter0_d_25_3038)">
<circle cx="39" cy="39" r="35" fill="#F5F5F5"/>
</g>
<path d="M25.6145 18.3209C25.8798 18.4484 26.1036 18.6482 26.2603 18.8974C26.4169 19.1465 26.5 19.4349 26.5 19.7292C26.5 21.4584 27.15 22.4542 27.9645 23.6667L28.025 23.7542C28.7166 24.7834 29.625 26.1313 29.625 28.0625C29.625 30.0334 28.6312 31.7709 27.1166 32.8021C27.5145 33.1354 27.8666 33.5459 28.1708 34.0375C29.1625 35.6417 29.625 38.0938 29.625 41.6146C29.625 45.1813 29.1458 49.4646 28.3645 52.8854C27.977 54.5854 27.4958 56.1542 26.9229 57.3313C26.6524 57.9169 26.2941 58.4579 25.8604 58.9354C25.4312 59.375 24.7708 59.8438 23.8958 59.8438C23.0208 59.8438 22.3604 59.375 21.9333 58.9354C21.4983 58.4589 21.1399 57.9177 20.8708 57.3313C20.2958 56.1521 19.8145 54.5854 19.427 52.8834C18.6144 49.1807 18.192 45.4032 18.1666 41.6125C18.1666 38.0917 18.6291 35.6417 19.6208 34.0375C19.9037 33.5719 20.2596 33.1548 20.675 32.8021C19.9016 32.277 19.2686 31.5705 18.8313 30.7443C18.3941 29.9181 18.1658 28.9973 18.1666 28.0625C18.1666 27.2959 18.1666 25.9771 18.9645 24.275C19.7458 22.6084 21.2312 20.6938 23.9604 18.5084C24.1904 18.3244 24.4677 18.2091 24.7604 18.176C25.0531 18.1428 25.3492 18.193 25.6145 18.3209ZM34.8333 45.0771C33.7296 44.892 32.6559 44.5584 31.6416 44.0854C31.6854 43.2396 31.7083 42.4104 31.7083 41.6146C31.7083 40.7688 31.6833 39.9604 31.6291 39.1896C32.552 39.95 33.6416 40.5146 34.8333 40.8209V35.875C34.8333 35.0462 35.1625 34.2514 35.7486 33.6653C36.3346 33.0793 37.1295 32.75 37.9583 32.75H45.25C45.2502 31.1604 44.7957 29.6039 43.9402 28.2642C43.0848 26.9244 41.8639 25.8573 40.4218 25.1887C38.9797 24.5201 37.3764 24.2779 35.8011 24.4907C34.2258 24.7034 32.7443 25.3623 31.5312 26.3896C31.1708 24.6938 30.3333 23.4521 29.7979 22.6584L29.7145 22.5334C31.5863 21.2139 33.7846 20.434 36.0695 20.2787C38.3543 20.1235 40.6379 20.599 42.6709 21.6533C44.704 22.7075 46.4083 24.3 47.5979 26.2569C48.7875 28.2138 49.4166 30.4599 49.4166 32.75H56.7083C57.5371 32.75 58.332 33.0793 58.918 33.6653C59.5041 34.2514 59.8333 35.0462 59.8333 35.875V54.625C59.8333 55.4538 59.5041 56.2487 58.918 56.8347C58.332 57.4208 57.5371 57.75 56.7083 57.75H37.9583C37.1295 57.75 36.3346 57.4208 35.7486 56.8347C35.1625 56.2487 34.8333 55.4538 34.8333 54.625V45.0771ZM39 45.0771V53.5834H55.6666V36.9167H48.7062C47.9615 39.0183 46.6689 40.8829 44.9621 42.3175C43.2553 43.7522 41.1963 44.7049 38.9979 45.0771H39ZM44.1354 36.9167H39V40.8209C40.0721 40.5432 41.0783 40.055 41.9599 39.3847C42.8416 38.7145 43.5811 37.8755 44.1354 36.9167Z" fill="#EB996E"/>
<defs>
<filter id="filter0_d_25_3038" x="0" y="0" width="78" height="78" filterUnits="userSpaceOnUse" color-interpolation-filters="sRGB">
<feFlood flood-opacity="0" result="BackgroundImageFix"/>
<feColorMatrix in="SourceAlpha" type="matrix" values="0 0 0 0 0 0 0 0 0 0 0 0 0 0 0 0 0 0 127 0" result="hardAlpha"/>
<feOffset/>
<feGaussianBlur stdDeviation="2"/>
<feComposite in2="hardAlpha" operator="out"/>
<feColorMatrix type="matrix" values="0 0 0 0 0 0 0 0 0 0 0 0 0 0 0 0 0 0 0.14 0"/>
<feBlend mode="normal" in2="BackgroundImageFix" result="effect1_dropShadow_25_3038"/>
<feBlend mode="normal" in="SourceGraphic" in2="effect1_dropShadow_25_3038" result="shape"/>
</filter>
</defs>
</svg>
