<svg width="20" height="20" viewBox="0 0 20 20" fill="none" xmlns="http://www.w3.org/2000/svg">
<path d="M5.8335 5.83334H5.00016C4.55814 5.83334 4.13421 6.00894 3.82165 6.3215C3.50909 6.63406 3.3335 7.05798 3.3335 7.50001V15C3.3335 15.442 3.50909 15.866 3.82165 16.1785C4.13421 16.4911 4.55814 16.6667 5.00016 16.6667H12.5002C12.9422 16.6667 13.3661 16.4911 13.6787 16.1785C13.9912 15.866 14.1668 15.442 14.1668 15V14.1667" stroke="#450E8B" stroke-width="2" stroke-linecap="round" stroke-linejoin="round"/>
<path d="M13.3333 4.16666L15.8333 6.66666M16.9875 5.4875C17.3157 5.15929 17.5001 4.71415 17.5001 4.25C17.5001 3.78585 17.3157 3.3407 16.9875 3.0125C16.6593 2.68429 16.2142 2.49991 15.75 2.49991C15.2858 2.49991 14.8407 2.68429 14.5125 3.0125L7.5 10V12.5H10L16.9875 5.4875Z" stroke="#450E8B" stroke-width="2" stroke-linecap="round" stroke-linejoin="round"/>
</svg>
