<svg width="78" height="78" viewBox="0 0 78 78" fill="none" xmlns="http://www.w3.org/2000/svg">
<g filter="url(#filter0_d_211_211)">
<circle cx="39" cy="39" r="35" fill="#F5F5F5"/>
</g>
<path d="M34.0725 41.3839V30.7075C34.0725 29.3229 35.1989 28.1965 36.5836 28.1965H43.7055V27.2264C43.7055 25.8412 42.5772 24.7144 41.1906 24.7144H20.1472C18.7604 24.7144 17.6323 25.8412 17.6323 27.2264V41.3839H34.0725Z" fill="#8BDEC5"/>
<path d="M34.0726 44.4567V41.3839H17.6324H17.0097C16.489 41.3839 16.0304 41.6736 15.7512 42.1788C15.3669 42.8741 15.3878 43.82 15.802 44.4789C15.8357 44.5326 15.8745 44.5828 15.918 44.629C15.9231 44.6344 16.4265 45.1683 16.9408 45.6954C18.0485 46.8303 18.2724 47.044 18.7571 47.044H34.0726V44.4567Z" fill="#988FC4"/>
<path d="M36.5836 28.1965C35.199 28.1965 34.0725 29.323 34.0725 30.7075V41.3839V44.4567H44.4404V44.1668C44.4404 43.0458 45.3525 42.1338 46.4735 42.1338H51.3854V30.7075C51.3854 29.323 50.2589 28.1965 48.8743 28.1965H43.7055H36.5836Z" fill="#99F2D5"/>
<path d="M44.4404 44.4567H34.0725V47.0439V47.9264C34.0725 49.3599 35.2387 50.526 36.6721 50.526H44.4403V44.4567H44.4404Z" fill="#9D9ACC"/>
<path d="M56.9599 42.1338H51.3854H46.4735C45.3525 42.1338 44.4404 43.0458 44.4404 44.1668V44.4567V50.526V51.2524C44.4404 52.3734 45.3525 53.2854 46.4735 53.2854H56.9599V42.1338Z" fill="#8BDEC5"/>
<path d="M60.3685 42.1338H56.9597V53.2855H60.3685C61.5554 53.2855 62.5211 52.3199 62.5211 51.133V44.2863C62.5211 43.0994 61.5555 42.1338 60.3685 42.1338Z" fill="#988FC4"/>
<defs>
<filter id="filter0_d_211_211" x="0" y="0" width="78" height="78" filterUnits="userSpaceOnUse" color-interpolation-filters="sRGB">
<feFlood flood-opacity="0" result="BackgroundImageFix"/>
<feColorMatrix in="SourceAlpha" type="matrix" values="0 0 0 0 0 0 0 0 0 0 0 0 0 0 0 0 0 0 127 0" result="hardAlpha"/>
<feOffset/>
<feGaussianBlur stdDeviation="2"/>
<feComposite in2="hardAlpha" operator="out"/>
<feColorMatrix type="matrix" values="0 0 0 0 0 0 0 0 0 0 0 0 0 0 0 0 0 0 0.14 0"/>
<feBlend mode="normal" in2="BackgroundImageFix" result="effect1_dropShadow_211_211"/>
<feBlend mode="normal" in="SourceGraphic" in2="effect1_dropShadow_211_211" result="shape"/>
</filter>
</defs>
</svg>
