<svg width="47" height="30" viewBox="0 0 47 30" fill="none" xmlns="http://www.w3.org/2000/svg">
<rect x="0.666748" width="46" height="30" rx="15" fill="url(#paint0_linear_155_913)"/>
<path d="M32.6667 24L26.6667 18M14.6667 13C14.6667 13.9193 14.8478 14.8295 15.1996 15.6788C15.5514 16.5281 16.067 17.2997 16.717 17.9497C17.367 18.5998 18.1387 19.1154 18.988 19.4672C19.8372 19.8189 20.7475 20 21.6667 20C22.586 20 23.4963 19.8189 24.3455 19.4672C25.1948 19.1154 25.9665 18.5998 26.6165 17.9497C27.2665 17.2997 27.7821 16.5281 28.1339 15.6788C28.4857 14.8295 28.6667 13.9193 28.6667 13C28.6667 12.0807 28.4857 11.1705 28.1339 10.3212C27.7821 9.47194 27.2665 8.70026 26.6165 8.05025C25.9665 7.40024 25.1948 6.88463 24.3455 6.53284C23.4963 6.18106 22.586 6 21.6667 6C20.7475 6 19.8372 6.18106 18.988 6.53284C18.1387 6.88463 17.367 7.40024 16.717 8.05025C16.067 8.70026 15.5514 9.47194 15.1996 10.3212C14.8478 11.1705 14.6667 12.0807 14.6667 13Z" stroke="white" stroke-width="2" stroke-linecap="round" stroke-linejoin="round"/>
<defs>
<linearGradient id="paint0_linear_155_913" x1="23.6667" y1="0" x2="23.6667" y2="30" gradientUnits="userSpaceOnUse">
<stop stop-color="#450E8B"/>
<stop offset="1" stop-color="#EC8C34"/>
</linearGradient>
</defs>
</svg>
