<svg width="47" height="30" viewBox="0 0 47 30" fill="none" xmlns="http://www.w3.org/2000/svg">
<path d="M32.6665 24L26.6665 18M14.6665 13C14.6665 13.9193 14.8476 14.8295 15.1993 15.6788C15.5511 16.5281 16.0667 17.2997 16.7168 17.9497C17.3668 18.5998 18.1384 19.1154 18.9877 19.4672C19.837 19.8189 20.7473 20 21.6665 20C22.5858 20 23.496 19.8189 24.3453 19.4672C25.1946 19.1154 25.9662 18.5998 26.6163 17.9497C27.2663 17.2997 27.7819 16.5281 28.1337 15.6788C28.4854 14.8295 28.6665 13.9193 28.6665 13C28.6665 12.0807 28.4854 11.1705 28.1337 10.3212C27.7819 9.47194 27.2663 8.70026 26.6163 8.05025C25.9662 7.40024 25.1946 6.88463 24.3453 6.53284C23.496 6.18106 22.5858 6 21.6665 6C20.7473 6 19.837 6.18106 18.9877 6.53284C18.1384 6.88463 17.3668 7.40024 16.7168 8.05025C16.0667 8.70026 15.5511 9.47194 15.1993 10.3212C14.8476 11.1705 14.6665 12.0807 14.6665 13Z" stroke="#A3A3A4" stroke-width="2" stroke-linecap="round" stroke-linejoin="round"/>
</svg>
