<svg width="78" height="78" viewBox="0 0 78 78" fill="none" xmlns="http://www.w3.org/2000/svg">
<g filter="url(#filter0_d_211_231)">
<circle cx="39" cy="39" r="35" fill="#F5F5F5"/>
</g>
<g clip-path="url(#clip0_211_231)">
<path fill-rule="evenodd" clip-rule="evenodd" d="M58.1173 21.8203C56.5072 19.9875 55.6048 17.5961 53.1978 16.3938C51.9494 15.7656 50.572 15.3563 49.2416 14.868C48.5283 14.6078 47.7986 14.3938 47.0744 14.1516C46.4689 13.9453 45.9501 13.8789 45.4587 14.4359C44.0712 16.0141 42.2744 17.1664 40.1376 17.6547C39.6139 17.7716 39.0813 17.8442 38.5455 17.8719C38.0096 17.8443 37.477 17.7716 36.9533 17.6547C34.8158 17.1664 33.0158 16.0149 31.633 14.4359C31.1384 13.8789 30.6197 13.9461 30.0134 14.1516C29.2939 14.3945 28.5611 14.6086 27.8486 14.868C26.5166 15.3563 25.1369 15.7656 23.8892 16.3938C21.483 17.5961 20.5798 19.9875 18.9712 21.8203C18.8173 21.9914 18.9939 22.5039 19.1712 22.7781C19.3267 23.0078 19.6978 23.1234 19.9783 23.2906C21.6501 24.275 23.572 24.9016 25.0041 26.243C25.4134 26.6234 26.0791 26.768 26.5595 27.1055C26.8244 27.2922 27.0626 27.6367 27.1033 27.9359C27.2189 28.7367 31.2791 29.0555 31.4072 32.2078C31.5408 35.5 22.9931 49.0172 22.1001 52.2867C21.6306 54.0055 19.8908 55.7375 19.5517 57.4813C19.1994 59.2734 19.008 61.0906 18.7556 62.8289C19.4533 63.0828 19.8783 63.3461 20.3181 63.3773C22.3751 63.5242 25.7181 63.6859 27.7806 63.6859C29.665 63.6859 36.6564 63.6539 38.5423 63.6156C40.4244 63.6539 42.3103 63.6859 44.1923 63.6859C46.2556 63.6859 55.9814 63.5242 58.0431 63.3773C58.4869 63.3461 58.9103 63.0828 59.6056 62.8289C59.3533 61.0906 59.1619 59.2734 58.8103 57.4813C58.4697 55.7375 56.7314 54.0055 56.2619 52.2867C55.3712 49.018 44.2673 35.5016 44.3978 32.2094C44.4564 30.7805 48.5017 28.0797 48.7017 26.6609C48.7447 26.3609 50.2603 27.2938 50.5252 27.1063C51.0025 26.768 51.6736 26.6242 52.0806 26.2438C53.5126 24.9024 55.4361 24.2758 57.1064 23.2914C57.3853 23.125 57.7595 23.0094 57.9119 22.7789C58.09 22.5039 58.2634 21.9899 58.1134 21.8203" fill="#2780B2"/>
<path fill-rule="evenodd" clip-rule="evenodd" d="M38.6767 56.7961C38.3978 54.6359 38.5306 52.4609 38.172 50.3016L38.1337 50.0664C38.1244 50.025 38.1181 49.9813 38.1072 49.9266C38.0642 49.7141 38.0166 49.5016 37.9689 49.2891C37.8486 48.7508 38.6884 38.1086 38.5416 37.5727C38.3087 36.7289 38.1291 36.0375 37.9658 35.1781C37.7548 34.0328 37.747 33.0898 38.1384 31.9383C38.5853 30.6234 37.9337 29.0977 38.9041 28.0383C39.1798 27.7406 39.5001 27.4961 39.8173 27.2328L39.8447 27.2141C39.8278 27.0549 39.8064 26.8963 39.7806 26.7383C39.7189 26.3641 39.6392 25.993 39.5955 25.6188C39.3353 23.3891 38.8251 21.1625 39.258 18.9188C39.3353 18.5203 39.4431 18.1375 39.5783 17.7609C39.2376 17.8148 38.8916 17.8516 38.5416 17.8703C38.0057 17.8427 37.4731 17.77 36.9494 17.6531C34.8119 17.1648 33.0119 16.0133 31.6291 14.4344C31.1345 13.8773 30.6158 13.9445 30.0095 14.15C29.29 14.393 28.5572 14.607 27.8447 14.8664C26.5126 15.3547 25.133 15.7641 23.8853 16.3922C21.4791 17.5945 20.5759 19.9859 18.9673 21.8188C18.8134 21.9898 18.99 22.5023 19.1673 22.7766C19.3228 23.0063 19.6939 23.1219 19.9744 23.2891C21.6462 24.2734 23.5681 24.9 25.0001 26.2414C25.4095 26.6219 26.0751 26.7664 26.5556 27.1039C26.8205 27.2906 27.0587 27.6352 27.0994 27.9344C27.215 28.7352 31.2751 29.0539 31.4033 32.2063C31.5369 35.4984 22.9892 49.0156 22.0962 52.2852C21.6267 54.0039 19.8869 55.7359 19.5478 57.4797C19.1955 59.2719 19.0041 61.0891 18.7517 62.8273C19.4494 63.0813 19.8744 63.3445 20.3142 63.3758C22.3712 63.5227 25.7142 63.6844 27.7767 63.6844C29.6611 63.6844 36.6525 63.6523 38.5384 63.6141C39.4947 63.6328 40.4494 63.6492 41.4072 63.6617C40.0048 61.507 38.9806 59.1594 38.6744 56.7961" fill="#2E8ECD"/>
<path fill-rule="evenodd" clip-rule="evenodd" d="M20.229 20.0844C20.6985 19.5102 21.1157 18.8938 21.5375 18.2828C21.0672 18.857 20.6493 19.4719 20.229 20.0844ZM26.5547 27.0391C26.8196 27.2266 27.0579 27.5688 27.0985 27.8703C27.1219 28.0289 28.4243 26.9094 28.4469 27.068L28.5719 26.6875C28.7508 26.1453 27.7649 26.9281 28.1422 26.5125C28.1407 26.4984 28.1391 26.4836 28.136 26.4664C28.0946 26.168 27.854 25.8211 27.5907 25.6352C27.1133 25.2977 26.4422 25.1547 26.0352 24.7742C24.6047 23.4328 22.6821 22.8047 21.0094 21.818C20.7313 21.6539 20.3571 21.5399 20.2032 21.3086C20.0586 21.0867 19.9141 20.7008 19.954 20.4742C19.6446 20.9149 19.3211 21.35 18.9657 21.7539C18.8118 21.9266 18.9883 22.4375 19.1657 22.7102C19.3211 22.9414 19.6922 23.057 19.9727 23.2203C21.6446 24.207 23.5665 24.8313 24.9985 26.1781C25.4079 26.5578 26.0743 26.7031 26.5547 27.0391ZM56.8579 20.1219C56.3836 19.5477 55.9641 18.9328 55.5446 18.3203C56.0141 18.8914 56.4329 19.5086 56.8579 20.1219ZM50.5258 27.0773C50.261 27.2648 48.7454 26.332 48.7024 26.6305C48.6805 26.7891 48.6571 26.9461 48.6321 27.1031C48.5902 26.9778 48.5496 26.852 48.5102 26.7258C48.3297 26.182 49.3141 26.9672 48.9383 26.55C48.9399 26.5352 48.9454 26.5195 48.9454 26.5055C48.9852 26.2055 49.2258 25.8617 49.4922 25.6742C49.9688 25.3367 50.6391 25.1953 51.0477 24.8102C52.4766 23.4688 54.4001 22.8422 56.0719 21.857C56.3501 21.6922 56.7235 21.5781 56.8751 21.3445C57.0258 21.1227 57.1657 20.7391 57.129 20.5125C57.4368 20.9516 57.7602 21.3844 58.1141 21.7906C58.2641 21.9617 58.0907 22.4742 57.9126 22.7484C57.7602 22.9797 57.386 23.0961 57.1071 23.2594C55.4368 24.2461 53.5133 24.8719 52.0813 26.2156C51.6743 26.5977 51.0032 26.7399 50.5258 27.0773ZM30.3383 14.9274C31.986 17.0594 34.111 18.6164 36.6508 19.2789C37.2563 19.4375 37.8961 19.5289 38.543 19.5703C39.1883 19.5289 39.8258 19.4375 40.4313 19.2789C42.9704 18.6156 45.0985 17.0586 46.7516 14.9274C47.0461 14.5438 47.3508 14.3789 47.6727 14.3438C47.4735 14.2797 47.2751 14.2164 47.0751 14.15C46.4696 13.9438 45.9508 13.8774 45.4594 14.4344C44.0719 16.0125 42.2751 17.1649 40.1383 17.6531C39.6146 17.77 39.082 17.8426 38.5461 17.8703C38.0103 17.8427 37.4777 17.77 36.954 17.6531C34.8165 17.1649 33.0165 16.0133 31.6336 14.4344C31.1391 13.8774 30.6204 13.9445 30.0141 14.15C29.8165 14.2164 29.618 14.2805 29.418 14.3438C29.7422 14.3781 30.0446 14.543 30.343 14.9274M58.0391 61.3922C55.9805 61.532 46.2501 61.6969 44.1883 61.6969C42.3048 61.6928 40.4214 61.6697 38.5383 61.6274C36.6532 61.6688 29.661 61.6938 27.7774 61.6969C25.7141 61.6969 22.3719 61.532 20.3149 61.3922C19.9297 61.3641 19.5586 61.157 19.0063 60.9383C18.9243 61.5758 18.8399 62.2039 18.7493 62.8289C19.4469 63.0828 19.8719 63.3461 20.3118 63.3773C22.3688 63.5242 25.7118 63.6859 27.7743 63.6859C29.6586 63.6859 36.65 63.6539 38.536 63.6156C40.418 63.6539 42.304 63.6859 44.186 63.6859C46.2493 63.6859 55.9751 63.5242 58.0368 63.3773C58.4805 63.3461 58.904 63.0828 59.5993 62.8289C59.5086 62.2039 59.4243 61.5758 59.3422 60.9383C58.7922 61.157 58.4204 61.3641 58.0352 61.3922" fill="#1A698C"/>
<path d="M31.3203 31.5781L31.0632 33.8078L31.1007 33.8141C40.0515 35.2727 44.6179 33.3125 44.6179 33.3125V31.5781C35.6281 34.575 31.3203 31.5781 31.3203 31.5781Z" fill="#405967"/>
</g>
<defs>
<filter id="filter0_d_211_231" x="0" y="0" width="78" height="78" filterUnits="userSpaceOnUse" color-interpolation-filters="sRGB">
<feFlood flood-opacity="0" result="BackgroundImageFix"/>
<feColorMatrix in="SourceAlpha" type="matrix" values="0 0 0 0 0 0 0 0 0 0 0 0 0 0 0 0 0 0 127 0" result="hardAlpha"/>
<feOffset/>
<feGaussianBlur stdDeviation="2"/>
<feComposite in2="hardAlpha" operator="out"/>
<feColorMatrix type="matrix" values="0 0 0 0 0 0 0 0 0 0 0 0 0 0 0 0 0 0 0.14 0"/>
<feBlend mode="normal" in2="BackgroundImageFix" result="effect1_dropShadow_211_231"/>
<feBlend mode="normal" in="SourceGraphic" in2="effect1_dropShadow_211_231" result="shape"/>
</filter>
<clipPath id="clip0_211_231">
<rect width="50" height="50" fill="white" transform="translate(14 14)"/>
</clipPath>
</defs>
</svg>
