<svg width="78" height="78" viewBox="0 0 78 78" fill="none" xmlns="http://www.w3.org/2000/svg">
<g filter="url(#filter0_d_428_2200)">
<circle cx="39" cy="39" r="35" fill="#F5F5F5"/>
</g>
<g clip-path="url(#clip0_428_2200)">
<path d="M53.0625 64C55.9633 64 58.7453 62.8477 60.7965 60.7965C62.8477 58.7453 64 55.9633 64 53.0625C64 50.1617 62.8477 47.3797 60.7965 45.3285C58.7453 43.2773 55.9633 42.125 53.0625 42.125C50.1617 42.125 47.3797 43.2773 45.3285 45.3285C43.2773 47.3797 42.125 50.1617 42.125 53.0625C42.125 55.9633 43.2773 58.7453 45.3285 60.7965C47.3797 62.8477 50.1617 64 53.0625 64ZM54.1688 45.7062L58.8563 50.3937C59.1496 50.6871 59.3145 51.0851 59.3145 51.5C59.3145 51.9149 59.1496 52.3129 58.8563 52.6063C58.5629 52.8996 58.1649 53.0645 57.75 53.0645C57.3351 53.0645 56.9371 52.8996 56.6437 52.6063L54.625 50.5844V59.3125C54.625 59.7269 54.4604 60.1243 54.1674 60.4174C53.8743 60.7104 53.4769 60.875 53.0625 60.875C52.6481 60.875 52.2507 60.7104 51.9576 60.4174C51.6646 60.1243 51.5 59.7269 51.5 59.3125V50.5844L49.4813 52.6063C49.1883 52.8996 48.7907 53.0646 48.3761 53.0649C47.9615 53.0652 47.5637 52.9008 47.2703 52.6078C46.9769 52.3148 46.8119 51.9173 46.8116 51.5027C46.8113 51.088 46.9758 50.6903 47.2687 50.3969L51.9562 45.7094C52.1014 45.5639 52.2738 45.4484 52.4636 45.3696C52.6535 45.2909 52.857 45.2503 53.0625 45.2503C53.268 45.2503 53.4715 45.2909 53.6614 45.3696C53.8512 45.4484 54.0236 45.5639 54.1688 45.7094V45.7062Z" fill="#74382B"/>
<path d="M41.2094 18.6874C40.6234 18.1016 39.8287 17.7725 39 17.7725C38.1714 17.7725 37.3767 18.1016 36.7906 18.6874L16.0188 39.4562C15.8735 39.6014 15.7583 39.7739 15.6796 39.9637C15.601 40.1535 15.5605 40.357 15.5605 40.5624C15.5605 40.7679 15.601 40.9713 15.6796 41.1611C15.7583 41.3509 15.8735 41.5234 16.0188 41.6687C16.3122 41.9621 16.7101 42.1269 17.125 42.1269C17.3305 42.1269 17.5339 42.0864 17.7237 42.0078C17.9135 41.9292 18.086 41.8139 18.2313 41.6687L39 20.8968L59.7688 41.6687C60.0622 41.9621 60.4601 42.1269 60.875 42.1269C61.2899 42.1269 61.6879 41.9621 61.9813 41.6687C62.2747 41.3753 62.4395 40.9773 62.4395 40.5624C62.4395 40.1475 62.2747 39.7496 61.9813 39.4562L54.625 32.103V21.8124C54.625 21.398 54.4604 21.0006 54.1674 20.7076C53.8744 20.4145 53.4769 20.2499 53.0625 20.2499H49.9375C49.5231 20.2499 49.1257 20.4145 48.8327 20.7076C48.5396 21.0006 48.375 21.398 48.375 21.8124V25.853L41.2094 18.6874Z" fill="#74382B"/>
<path d="M39 24.2905L53.725 39.0155C51.125 38.8927 48.5419 39.4939 46.2634 40.7522C43.9848 42.0105 42.1002 43.8765 40.8193 46.1424C39.5385 48.4083 38.9117 50.9853 39.0087 53.5864C39.1057 56.1875 39.9227 58.7106 41.3688 60.8749H24.9375C23.6943 60.8749 22.502 60.381 21.6229 59.502C20.7439 58.6229 20.25 57.4306 20.25 56.1874V43.0405L39 24.2905Z" fill="#74382B"/>
</g>
<defs>
<filter id="filter0_d_428_2200" x="0" y="0" width="78" height="78" filterUnits="userSpaceOnUse" color-interpolation-filters="sRGB">
<feFlood flood-opacity="0" result="BackgroundImageFix"/>
<feColorMatrix in="SourceAlpha" type="matrix" values="0 0 0 0 0 0 0 0 0 0 0 0 0 0 0 0 0 0 127 0" result="hardAlpha"/>
<feOffset/>
<feGaussianBlur stdDeviation="2"/>
<feComposite in2="hardAlpha" operator="out"/>
<feColorMatrix type="matrix" values="0 0 0 0 0 0 0 0 0 0 0 0 0 0 0 0 0 0 0.14 0"/>
<feBlend mode="normal" in2="BackgroundImageFix" result="effect1_dropShadow_428_2200"/>
<feBlend mode="normal" in="SourceGraphic" in2="effect1_dropShadow_428_2200" result="shape"/>
</filter>
<clipPath id="clip0_428_2200">
<rect width="50" height="50" fill="white" transform="translate(14 14)"/>
</clipPath>
</defs>
</svg>
