<svg width="78" height="78" viewBox="0 0 78 78" fill="none" xmlns="http://www.w3.org/2000/svg">
<g filter="url(#filter0_d_428_2206)">
<circle cx="39" cy="39" r="35" fill="#F5F5F5"/>
</g>
<path d="M26.9778 34.4195H24.2001C24.0159 34.4195 23.8392 34.3463 23.709 34.2161C23.5788 34.0858 23.5056 33.9092 23.5056 33.725V24.0028C23.5056 23.8186 23.5788 23.642 23.709 23.5117C23.8392 23.3815 24.0159 23.3083 24.2001 23.3083H26.9778C27.162 23.3083 27.3387 23.3815 27.4689 23.5117C27.5991 23.642 27.6723 23.8186 27.6723 24.0028V33.725C27.6723 33.9092 27.5991 34.0858 27.4689 34.2161C27.3387 34.3463 27.162 34.4195 26.9778 34.4195Z" fill="#A0041E"/>
<path d="M20.9445 36.2223L39 18.1667L57.0556 36.2223V59.8334H20.9445V36.2223Z" fill="#FFE8B6"/>
<path d="M39 36.2222H40.3889V58.4444H39V36.2222Z" fill="#FFCC4D"/>
<path d="M57.0556 37.6112C56.8732 37.6114 56.6925 37.5755 56.524 37.5057C56.3555 37.4359 56.2024 37.3334 56.0736 37.2043L39 20.1306L21.9264 37.2043C21.7975 37.3332 21.6444 37.4355 21.4759 37.5053C21.3074 37.5751 21.1268 37.611 20.9445 37.611C20.7621 37.611 20.5815 37.5751 20.413 37.5053C20.2446 37.4355 20.0915 37.3332 19.9625 37.2043C19.8336 37.0753 19.7313 36.9222 19.6615 36.7537C19.5917 36.5853 19.5558 36.4047 19.5558 36.2223C19.5558 36.0399 19.5917 35.8594 19.6615 35.6909C19.7313 35.5224 19.8336 35.3693 19.9625 35.2404L38.0181 17.1848C38.1469 17.0557 38.3 16.9533 38.4685 16.8834C38.637 16.8136 38.8176 16.7776 39 16.7776C39.1824 16.7776 39.363 16.8136 39.5315 16.8834C39.7 16.9533 39.8531 17.0557 39.982 17.1848L58.0375 35.2404C58.2324 35.4343 58.3652 35.6818 58.4192 35.9515C58.4731 36.2211 58.4458 36.5006 58.3405 36.7546C58.2353 37.0087 58.057 37.2257 57.8282 37.3782C57.5995 37.5307 57.3305 37.6118 57.0556 37.6112Z" fill="#66757F"/>
<path d="M38.9999 37.611C38.725 37.6116 38.4561 37.5305 38.2273 37.378C37.9985 37.2255 37.8202 37.0085 37.715 36.7544C37.6098 36.5004 37.5824 36.2209 37.6363 35.9513C37.6903 35.6817 37.8231 35.4342 38.018 35.2402L47.0458 26.2124C47.1747 26.0834 47.3278 25.9812 47.4963 25.9114C47.6648 25.8416 47.8454 25.8057 48.0277 25.8057C48.2101 25.8057 48.3907 25.8416 48.5591 25.9114C48.7276 25.9812 48.8807 26.0834 49.0097 26.2124C49.1386 26.3414 49.2409 26.4944 49.3107 26.6629C49.3805 26.8314 49.4164 27.012 49.4164 27.1943C49.4164 27.3767 49.3805 27.5573 49.3107 27.7258C49.2409 27.8943 49.1386 28.0473 49.0097 28.1763L39.9819 37.2041C39.8531 37.3332 39.7 37.4357 39.5315 37.5055C39.363 37.5753 39.1824 37.6112 38.9999 37.611Z" fill="#66757F"/>
<path d="M27.8889 50.1111H33.4445V58.4444H27.8889V50.1111Z" fill="#C1694F"/>
<path d="M27.8889 37.6111H33.4445V43.1666H27.8889V37.6111ZM45.25 37.6111H50.8056V43.1666H45.25V37.6111ZM45.25 50.1111H50.8056V55.6666H45.25V50.1111Z" fill="#55ACEE"/>
<path d="M60.5277 60.5277C60.5277 61.0802 60.3082 61.6101 59.9175 62.0008C59.5268 62.3915 58.9969 62.611 58.4444 62.611H19.5555C19.003 62.611 18.4731 62.3915 18.0824 62.0008C17.6917 61.6101 17.4722 61.0802 17.4722 60.5277C17.4722 59.9751 17.6917 59.4452 18.0824 59.0545C18.4731 58.6638 19.003 58.4443 19.5555 58.4443H58.4444C58.9969 58.4443 59.5268 58.6638 59.9175 59.0545C60.3082 59.4452 60.5277 59.9751 60.5277 60.5277Z" fill="#5C913B"/>
<defs>
<filter id="filter0_d_428_2206" x="0" y="0" width="78" height="78" filterUnits="userSpaceOnUse" color-interpolation-filters="sRGB">
<feFlood flood-opacity="0" result="BackgroundImageFix"/>
<feColorMatrix in="SourceAlpha" type="matrix" values="0 0 0 0 0 0 0 0 0 0 0 0 0 0 0 0 0 0 127 0" result="hardAlpha"/>
<feOffset/>
<feGaussianBlur stdDeviation="2"/>
<feComposite in2="hardAlpha" operator="out"/>
<feColorMatrix type="matrix" values="0 0 0 0 0 0 0 0 0 0 0 0 0 0 0 0 0 0 0.14 0"/>
<feBlend mode="normal" in2="BackgroundImageFix" result="effect1_dropShadow_428_2206"/>
<feBlend mode="normal" in="SourceGraphic" in2="effect1_dropShadow_428_2206" result="shape"/>
</filter>
</defs>
</svg>
