<svg width="46" height="30" viewBox="0 0 46 30" fill="none" xmlns="http://www.w3.org/2000/svg">
<path d="M20.5999 8.40002C20.5999 8.24089 20.6631 8.08828 20.7756 7.97576C20.8882 7.86324 21.0408 7.80002 21.1999 7.80002H31.9999C32.159 7.80002 32.3116 7.86324 32.4242 7.97576C32.5367 8.08828 32.5999 8.24089 32.5999 8.40002C32.5999 8.55915 32.5367 8.71177 32.4242 8.82429C32.3116 8.93681 32.159 9.00002 31.9999 9.00002H21.1999C21.0408 9.00002 20.8882 8.93681 20.7756 8.82429C20.6631 8.71177 20.5999 8.55915 20.5999 8.40002ZM20.5999 15.6C20.5999 15.4409 20.6631 15.2883 20.7756 15.1758C20.8882 15.0632 21.0408 15 21.1999 15H31.9999C32.159 15 32.3116 15.0632 32.4242 15.1758C32.5367 15.2883 32.5999 15.4409 32.5999 15.6C32.5999 15.7592 32.5367 15.9118 32.4242 16.0243C32.3116 16.1368 32.159 16.2 31.9999 16.2H21.1999C21.0408 16.2 20.8882 16.1368 20.7756 16.0243C20.6631 15.9118 20.5999 15.7592 20.5999 15.6ZM20.5999 22.8C20.5999 22.6409 20.6631 22.4883 20.7756 22.3758C20.8882 22.2632 21.0408 22.2 21.1999 22.2H31.9999C32.159 22.2 32.3116 22.2632 32.4242 22.3758C32.5367 22.4883 32.5999 22.6409 32.5999 22.8C32.5999 22.9592 32.5367 23.1118 32.4242 23.2243C32.3116 23.3368 32.159 23.4 31.9999 23.4H21.1999C21.0408 23.4 20.8882 23.3368 20.7756 23.2243C20.6631 23.1118 20.5999 22.9592 20.5999 22.8ZM13.3999 21.6C13.3999 21.1226 13.5895 20.6648 13.9271 20.3272C14.2647 19.9897 14.7225 19.8 15.1999 19.8H16.3999C16.8773 19.8 17.3351 19.9897 17.6727 20.3272C18.0103 20.6648 18.1999 21.1226 18.1999 21.6V22.8C18.1999 23.2774 18.0103 23.7353 17.6727 24.0728C17.3351 24.4104 16.8773 24.6 16.3999 24.6H15.1999C14.7225 24.6 14.2647 24.4104 13.9271 24.0728C13.5895 23.7353 13.3999 23.2774 13.3999 22.8V21.6ZM13.3999 14.4C13.3999 13.9226 13.5895 13.4648 13.9271 13.1272C14.2647 12.7897 14.7225 12.6 15.1999 12.6H16.3999C16.8773 12.6 17.3351 12.7897 17.6727 13.1272C18.0103 13.4648 18.1999 13.9226 18.1999 14.4V15.6C18.1999 16.0774 18.0103 16.5353 17.6727 16.8728C17.3351 17.2104 16.8773 17.4 16.3999 17.4H15.1999C14.7225 17.4 14.2647 17.2104 13.9271 16.8728C13.5895 16.5353 13.3999 16.0774 13.3999 15.6V14.4ZM13.3999 7.20002C13.3999 6.72263 13.5895 6.2648 13.9271 5.92723C14.2647 5.58967 14.7225 5.40002 15.1999 5.40002H16.3999C16.8773 5.40002 17.3351 5.58967 17.6727 5.92723C18.0103 6.2648 18.1999 6.72263 18.1999 7.20002V8.40002C18.1999 8.87741 18.0103 9.33525 17.6727 9.67282C17.3351 10.0104 16.8773 10.2 16.3999 10.2H15.1999C14.7225 10.2 14.2647 10.0104 13.9271 9.67282C13.5895 9.33525 13.3999 8.87741 13.3999 8.40002V7.20002Z" fill="#A3A3A4"/>
</svg>
