<svg width="24" height="24" viewBox="0 0 24 24" fill="none" xmlns="http://www.w3.org/2000/svg">
<path d="M9.5999 5.3999C9.5999 5.24077 9.66312 5.08816 9.77564 4.97564C9.88816 4.86312 10.0408 4.7999 10.1999 4.7999H20.9999C21.159 4.7999 21.3116 4.86312 21.4242 4.97564C21.5367 5.08816 21.5999 5.24077 21.5999 5.3999C21.5999 5.55903 21.5367 5.71164 21.4242 5.82417C21.3116 5.93669 21.159 5.9999 20.9999 5.9999H10.1999C10.0408 5.9999 9.88816 5.93669 9.77564 5.82417C9.66312 5.71164 9.5999 5.55903 9.5999 5.3999ZM9.5999 12.5999C9.5999 12.4408 9.66312 12.2882 9.77564 12.1756C9.88816 12.0631 10.0408 11.9999 10.1999 11.9999H20.9999C21.159 11.9999 21.3116 12.0631 21.4242 12.1756C21.5367 12.2882 21.5999 12.4408 21.5999 12.5999C21.5999 12.759 21.5367 12.9116 21.4242 13.0242C21.3116 13.1367 21.159 13.1999 20.9999 13.1999H10.1999C10.0408 13.1999 9.88816 13.1367 9.77564 13.0242C9.66312 12.9116 9.5999 12.759 9.5999 12.5999ZM9.5999 19.7999C9.5999 19.6408 9.66312 19.4882 9.77564 19.3756C9.88816 19.2631 10.0408 19.1999 10.1999 19.1999H20.9999C21.159 19.1999 21.3116 19.2631 21.4242 19.3756C21.5367 19.4882 21.5999 19.6408 21.5999 19.7999C21.5999 19.959 21.5367 20.1116 21.4242 20.2242C21.3116 20.3367 21.159 20.3999 20.9999 20.3999H10.1999C10.0408 20.3999 9.88816 20.3367 9.77564 20.2242C9.66312 20.1116 9.5999 19.959 9.5999 19.7999ZM2.3999 18.5999C2.3999 18.1225 2.58954 17.6647 2.92711 17.3271C3.26468 16.9895 3.72251 16.7999 4.1999 16.7999H5.3999C5.87729 16.7999 6.33513 16.9895 6.6727 17.3271C7.01026 17.6647 7.1999 18.1225 7.1999 18.5999V19.7999C7.1999 20.2773 7.01026 20.7351 6.6727 21.0727C6.33513 21.4103 5.87729 21.5999 5.3999 21.5999H4.1999C3.72251 21.5999 3.26468 21.4103 2.92711 21.0727C2.58954 20.7351 2.3999 20.2773 2.3999 19.7999V18.5999ZM2.3999 11.3999C2.3999 10.9225 2.58954 10.4647 2.92711 10.1271C3.26468 9.78954 3.72251 9.5999 4.1999 9.5999H5.3999C5.87729 9.5999 6.33513 9.78954 6.6727 10.1271C7.01026 10.4647 7.1999 10.9225 7.1999 11.3999V12.5999C7.1999 13.0773 7.01026 13.5351 6.6727 13.8727C6.33513 14.2103 5.87729 14.3999 5.3999 14.3999H4.1999C3.72251 14.3999 3.26468 14.2103 2.92711 13.8727C2.58954 13.5351 2.3999 13.0773 2.3999 12.5999V11.3999ZM2.3999 4.1999C2.3999 3.72251 2.58954 3.26468 2.92711 2.92711C3.26468 2.58954 3.72251 2.3999 4.1999 2.3999H5.3999C5.87729 2.3999 6.33513 2.58954 6.6727 2.92711C7.01026 3.26468 7.1999 3.72251 7.1999 4.1999V5.3999C7.1999 5.87729 7.01026 6.33513 6.6727 6.6727C6.33513 7.01026 5.87729 7.1999 5.3999 7.1999H4.1999C3.72251 7.1999 3.26468 7.01026 2.92711 6.6727C2.58954 6.33513 2.3999 5.87729 2.3999 5.3999V4.1999Z" fill="#A3A3A4"/>
</svg>
