<svg width="60" height="60" viewBox="0 0 60 60" fill="none" xmlns="http://www.w3.org/2000/svg">
<circle cx="30" cy="30" r="30" fill="url(#paint0_linear_90_1909)"/>
<path d="M38.6286 33.9989C38.5508 33.9052 38.4744 33.8114 38.3994 33.7209C37.3682 32.4736 36.7443 31.7208 36.7443 28.1897C36.7443 26.3616 36.3069 24.8616 35.4449 23.7366C34.8093 22.9055 33.95 22.275 32.8175 21.8091C32.803 21.801 32.79 21.7903 32.7791 21.7777C32.3718 20.4136 31.2571 19.5 29.9999 19.5C28.7427 19.5 27.6285 20.4136 27.2211 21.7762C27.2103 21.7884 27.1974 21.7987 27.1832 21.8067C24.5404 22.8947 23.256 24.982 23.256 28.1883C23.256 31.7208 22.633 32.4736 21.6008 33.7195C21.5258 33.81 21.4494 33.9019 21.3716 33.9975C21.1706 34.2399 21.0433 34.5348 21.0046 34.8473C20.966 35.1598 21.0177 35.4769 21.1536 35.7609C21.4429 36.3703 22.0593 36.7486 22.7629 36.7486H37.2421C37.9424 36.7486 38.5546 36.3708 38.8447 35.7642C38.9813 35.4801 39.0335 35.1628 38.9952 34.8499C38.9569 34.537 38.8297 34.2417 38.6286 33.9989ZM29.9999 40.5C30.6773 40.4995 31.3418 40.3156 31.9232 39.9679C32.5045 39.6202 32.9809 39.1217 33.3018 38.5252C33.3169 38.4966 33.3244 38.4646 33.3234 38.4322C33.3225 38.3999 33.3133 38.3684 33.2966 38.3407C33.2799 38.313 33.2563 38.2901 33.2281 38.2742C33.2 38.2583 33.1682 38.25 33.1358 38.25H26.8649C26.8325 38.2499 26.8007 38.2582 26.7724 38.274C26.7442 38.2899 26.7206 38.3128 26.7038 38.3405C26.687 38.3682 26.6777 38.3997 26.6768 38.4321C26.6759 38.4645 26.6834 38.4965 26.6985 38.5252C27.0194 39.1216 27.4957 39.6201 28.0769 39.9678C28.6581 40.3155 29.3226 40.4994 29.9999 40.5Z" fill="white"/>
<defs>
<linearGradient id="paint0_linear_90_1909" x1="30" y1="0" x2="30" y2="60" gradientUnits="userSpaceOnUse">
<stop stop-color="#450E8B"/>
<stop offset="1" stop-color="#EC8C34"/>
</linearGradient>
</defs>
</svg>
