<svg width="390" height="189" viewBox="0 0 390 189" fill="none" xmlns="http://www.w3.org/2000/svg">
<g filter="url(#filter0_d_45_1908)">
<path d="M0 2H390V185H0V2Z" fill="url(#paint0_linear_45_1908)"/>
</g>
<path d="M183.495 39.7869C174.864 54.1904 168.769 53.9104 154.557 58.4848C140.345 63.0593 146.142 75.7216 158.019 92.2747C169.897 108.828 204.034 121.354 223.606 107.961C239.263 97.2475 244.791 77.7955 245.598 69.4088C245.633 64.0363 243.16 52.727 232.983 50.4697C222.807 48.2125 221.591 43.3074 218.132 37.0396C214.672 30.7719 192.126 25.3834 183.495 39.7869Z" fill="white" fill-opacity="0.08"/>
<path d="M173.96 84.5635V89.8116C173.96 90.0257 174.148 90.199 174.379 90.199H183.464V89.4243H180.544V85.1199H179.708V89.4243H174.797V84.5635C174.797 81.654 176.534 79.0214 179.337 77.6896L189.351 72.7467L195.09 77.8424C195.17 77.9143 195.275 77.9502 195.379 77.9502C195.483 77.9502 195.587 77.9143 195.668 77.8428L201.414 72.7456L211.586 77.6537C214.288 79.0063 215.966 81.6128 215.966 84.4553V89.4243H211.057V85.1199H210.22V89.4243H207.299V90.199H216.384C216.615 90.199 216.802 90.0257 216.802 89.8116V84.4553C216.802 81.3276 214.956 78.4605 211.978 76.9694L202.036 72.1729C202.086 72.1078 202.121 72.0338 202.121 71.9531V68.3906C203.629 66.9379 204.675 65.0717 205.151 62.9637C206.539 62.5185 207.487 61.2532 207.487 59.8019C207.487 58.3996 206.575 57.1591 205.262 56.6877V53.0468C205.262 49.4099 202.068 46.4513 198.142 46.4513H192.623C188.697 46.4513 185.503 49.4099 185.503 53.0468V56.6846C184.172 57.1551 183.275 58.3787 183.275 59.8019C183.275 61.2582 184.223 62.5245 185.611 62.9678C186.075 65.0334 187.146 66.9406 188.643 68.3838V71.9531C188.643 72.035 188.678 72.1101 188.729 72.1755L178.95 77.0031C175.872 78.465 173.96 81.362 173.96 84.5635ZM195.379 77.0265L189.479 71.7878V69.1159C191.187 70.4375 193.25 71.1561 195.379 71.1561C197.509 71.1561 199.574 70.4386 201.284 69.1193V71.7878L195.379 77.0265ZM186.339 53.0468C186.339 49.837 189.158 47.2259 192.623 47.2259H198.142C201.607 47.2259 204.426 49.837 204.426 53.0468V56.1435C198.422 53.9891 192.343 53.9889 186.339 56.1435V53.0468ZM204.229 56.9107C203.148 58.266 202.789 60.1071 201.252 59.7811C197.361 58.9508 193.276 58.9474 189.111 59.7709C188.47 59.8968 187.827 59.5995 187.55 59.0454L186.489 56.9276C192.377 54.7769 198.341 54.7715 204.229 56.9107ZM186.076 62.2889C184.919 62.015 184.112 60.9922 184.112 59.8019C184.112 58.7038 184.796 57.7665 185.808 57.4104L186.791 59.3715C187.234 60.2554 188.259 60.732 189.286 60.5281C193.33 59.7289 197.293 59.7312 201.065 60.5361C201.231 60.5716 201.398 60.5887 201.563 60.5887C203.464 60.5887 203.809 58.7452 204.892 57.393C205.924 57.7313 206.651 58.6972 206.651 59.8019C206.651 60.9877 205.843 62.009 204.686 62.2851C204.529 62.3225 204.41 62.4406 204.38 62.5881C203.404 67.3474 199.514 70.3815 195.379 70.3815C191.591 70.3815 189.402 67.9902 189.357 67.9617L189.358 67.9607C187.855 66.5604 186.798 64.6541 186.383 62.593C186.353 62.4447 186.233 62.3263 186.076 62.2889Z" fill="white"/>
<path d="M185.136 96.6432H205.629C205.86 96.6432 206.047 96.47 206.047 96.2559V83.6058H207.648C207.879 83.6058 208.066 83.4325 208.066 83.2184V80.2496C208.066 80.0355 207.879 79.8622 207.648 79.8622H183.117C182.886 79.8622 182.699 80.0355 182.699 80.2496V83.2184C182.699 83.4325 182.886 83.6058 183.117 83.6058H184.718V96.2559C184.718 96.47 184.905 96.6432 185.136 96.6432ZM205.211 95.8685H185.554V83.6058H205.211V95.8685ZM183.535 80.6369H207.23V82.8311C198.426 82.8311 192.403 82.8311 183.535 82.8311V80.6369Z" fill="white"/>
<path d="M199.633 51.1457C199.633 50.3181 198.906 49.6448 198.013 49.6448H192.749C191.856 49.6448 191.129 50.3181 191.129 51.1457C191.129 51.9733 191.856 52.6466 192.749 52.6466H198.013C198.906 52.6466 199.633 51.9733 199.633 51.1457ZM191.966 51.1457C191.966 50.7451 192.317 50.4195 192.749 50.4195H198.013C198.445 50.4195 198.797 50.7451 198.797 51.1457C198.797 51.5463 198.445 51.8719 198.013 51.8719H192.749C192.317 51.8719 191.966 51.5463 191.966 51.1457Z" fill="white"/>
<path d="M187.169 90.3544H188.082V94.601C188.082 94.8151 188.269 94.9883 188.5 94.9883H190.228C190.459 94.9883 190.646 94.8151 190.646 94.601V90.3544H191.56C191.729 90.3544 191.881 90.2602 191.946 90.1154C192.011 89.9705 191.975 89.8041 191.855 89.6932L189.66 87.659C189.503 87.5138 189.225 87.5138 189.069 87.659L186.873 89.6932C186.753 89.8041 186.718 89.9705 186.782 90.1154C186.847 90.2602 187 90.3544 187.169 90.3544ZM189.364 88.4806L190.55 89.5798H190.228C189.997 89.5798 189.81 89.753 189.81 89.9671V94.2137H188.918V89.9671C188.918 89.753 188.731 89.5798 188.5 89.5798H188.178L189.364 88.4806Z" fill="white"/>
<path d="M194.234 92.744V94.214H193.437V94.9887H195.867V94.214H195.07V92.744C196.038 92.5633 196.77 91.7694 196.77 90.8193V87.9329C196.77 87.7188 196.583 87.5455 196.352 87.5455H192.951C192.72 87.5455 192.533 87.7188 192.533 87.9329V90.8193C192.533 91.7695 193.265 92.5634 194.234 92.744ZM193.369 88.3202H195.934V90.8193C195.934 91.4751 195.359 92.0085 194.653 92.0085C193.945 92.0085 193.369 91.4751 193.369 90.8193V88.3202Z" fill="white"/>
<path d="M107.3 146V143.58H110.88C111.787 143.58 112.58 143.393 113.26 143.02C113.94 142.633 114.467 142.093 114.84 141.4C115.227 140.707 115.42 139.887 115.42 138.94C115.42 138.02 115.227 137.22 114.84 136.54C114.453 135.847 113.92 135.313 113.24 134.94C112.56 134.553 111.773 134.36 110.88 134.36H107.24V131.94H110.92C111.96 131.94 112.92 132.113 113.8 132.46C114.693 132.807 115.467 133.3 116.12 133.94C116.787 134.567 117.3 135.307 117.66 136.16C118.033 137.013 118.22 137.947 118.22 138.96C118.22 139.973 118.033 140.913 117.66 141.78C117.3 142.633 116.793 143.38 116.14 144.02C115.487 144.647 114.713 145.133 113.82 145.48C112.94 145.827 111.987 146 110.96 146H107.3ZM105.44 146V131.94H108.16V146H105.44ZM124.721 146.2C123.708 146.2 122.808 145.987 122.021 145.56C121.235 145.12 120.608 144.52 120.141 143.76C119.688 143 119.461 142.133 119.461 141.16C119.461 140.2 119.681 139.347 120.121 138.6C120.575 137.84 121.188 137.24 121.961 136.8C122.735 136.347 123.595 136.12 124.541 136.12C125.475 136.12 126.295 136.333 127.001 136.76C127.721 137.173 128.281 137.747 128.681 138.48C129.095 139.2 129.301 140.02 129.301 140.94C129.301 141.113 129.288 141.293 129.261 141.48C129.248 141.653 129.215 141.853 129.161 142.08L121.041 142.1V140.14L127.941 140.12L126.881 140.94C126.855 140.367 126.748 139.887 126.561 139.5C126.388 139.113 126.128 138.82 125.781 138.62C125.448 138.407 125.035 138.3 124.541 138.3C124.021 138.3 123.568 138.42 123.181 138.66C122.795 138.887 122.495 139.213 122.281 139.64C122.081 140.053 121.981 140.547 121.981 141.12C121.981 141.707 122.088 142.22 122.301 142.66C122.528 143.087 122.848 143.42 123.261 143.66C123.675 143.887 124.155 144 124.701 144C125.195 144 125.641 143.92 126.041 143.76C126.441 143.587 126.788 143.333 127.081 143L128.621 144.54C128.155 145.087 127.581 145.5 126.901 145.78C126.235 146.06 125.508 146.2 124.721 146.2ZM130.922 146V131.54H133.542V146H130.922ZM135.863 146V136.34H138.503V146H135.863ZM137.183 134.78C136.756 134.78 136.403 134.64 136.123 134.36C135.843 134.067 135.703 133.707 135.703 133.28C135.703 132.867 135.843 132.513 136.123 132.22C136.403 131.927 136.756 131.78 137.183 131.78C137.623 131.78 137.976 131.927 138.243 132.22C138.523 132.513 138.663 132.867 138.663 133.28C138.663 133.707 138.523 134.067 138.243 134.36C137.976 134.64 137.623 134.78 137.183 134.78ZM143.964 146L139.704 136.34H142.584L145.644 144.3H144.224L147.304 136.34H150.084L145.844 146H143.964ZM155.62 146.2C154.607 146.2 153.707 145.987 152.92 145.56C152.133 145.12 151.507 144.52 151.04 143.76C150.587 143 150.36 142.133 150.36 141.16C150.36 140.2 150.58 139.347 151.02 138.6C151.473 137.84 152.087 137.24 152.86 136.8C153.633 136.347 154.493 136.12 155.44 136.12C156.373 136.12 157.193 136.333 157.9 136.76C158.62 137.173 159.18 137.747 159.58 138.48C159.993 139.2 160.2 140.02 160.2 140.94C160.2 141.113 160.187 141.293 160.16 141.48C160.147 141.653 160.113 141.853 160.06 142.08L151.94 142.1V140.14L158.84 140.12L157.78 140.94C157.753 140.367 157.647 139.887 157.46 139.5C157.287 139.113 157.027 138.82 156.68 138.62C156.347 138.407 155.933 138.3 155.44 138.3C154.92 138.3 154.467 138.42 154.08 138.66C153.693 138.887 153.393 139.213 153.18 139.64C152.98 140.053 152.88 140.547 152.88 141.12C152.88 141.707 152.987 142.22 153.2 142.66C153.427 143.087 153.747 143.42 154.16 143.66C154.573 143.887 155.053 144 155.6 144C156.093 144 156.54 143.92 156.94 143.76C157.34 143.587 157.687 143.333 157.98 143L159.52 144.54C159.053 145.087 158.48 145.5 157.8 145.78C157.133 146.06 156.407 146.2 155.62 146.2ZM161.82 146V136.34H164.44V146H161.82ZM164.44 140.66L163.42 139.98C163.54 138.793 163.887 137.86 164.46 137.18C165.033 136.487 165.86 136.14 166.94 136.14C167.407 136.14 167.827 136.22 168.2 136.38C168.573 136.527 168.913 136.773 169.22 137.12L167.58 139C167.433 138.84 167.253 138.72 167.04 138.64C166.84 138.56 166.607 138.52 166.34 138.52C165.78 138.52 165.32 138.7 164.96 139.06C164.613 139.407 164.44 139.94 164.44 140.66ZM173.083 146.08L169.043 136.34H171.883L174.563 143.78H173.603L176.383 136.34H179.243L174.943 146.06L173.083 146.08ZM170.403 150.04L173.343 143.82L174.943 146.06L173.183 150.04H170.403ZM189.016 146.2C188.043 146.2 187.163 145.98 186.376 145.54C185.603 145.087 184.983 144.48 184.516 143.72C184.063 142.947 183.836 142.087 183.836 141.14C183.836 140.193 184.063 139.347 184.516 138.6C184.97 137.84 185.59 137.24 186.376 136.8C187.163 136.347 188.036 136.12 188.996 136.12C189.983 136.12 190.863 136.347 191.636 136.8C192.423 137.24 193.043 137.84 193.496 138.6C193.95 139.347 194.176 140.193 194.176 141.14C194.176 142.087 193.95 142.947 193.496 143.72C193.043 144.48 192.423 145.087 191.636 145.54C190.863 145.98 189.99 146.2 189.016 146.2ZM188.996 143.76C189.49 143.76 189.923 143.653 190.296 143.44C190.683 143.213 190.976 142.907 191.176 142.52C191.39 142.12 191.496 141.667 191.496 141.16C191.496 140.653 191.39 140.207 191.176 139.82C190.963 139.433 190.67 139.133 190.296 138.92C189.923 138.693 189.49 138.58 188.996 138.58C188.516 138.58 188.09 138.693 187.716 138.92C187.343 139.133 187.05 139.433 186.836 139.82C186.623 140.207 186.516 140.653 186.516 141.16C186.516 141.667 186.623 142.12 186.836 142.52C187.05 142.907 187.343 143.213 187.716 143.44C188.09 143.653 188.516 143.76 188.996 143.76ZM202.363 146V140.46C202.363 139.887 202.183 139.42 201.823 139.06C201.463 138.7 200.996 138.52 200.423 138.52C200.05 138.52 199.716 138.6 199.423 138.76C199.13 138.92 198.896 139.147 198.723 139.44C198.563 139.733 198.483 140.073 198.483 140.46L197.463 139.94C197.463 139.18 197.623 138.52 197.943 137.96C198.276 137.387 198.73 136.94 199.303 136.62C199.89 136.3 200.55 136.14 201.283 136.14C201.99 136.14 202.623 136.32 203.183 136.68C203.743 137.027 204.183 137.487 204.503 138.06C204.823 138.62 204.983 139.227 204.983 139.88V146H202.363ZM195.863 146V136.34H198.483V146H195.863ZM212.42 146V132.32H215.04V146H212.42ZM210.16 138.64V136.34H217.3V138.64H210.16ZM225.273 146V140.46C225.273 139.887 225.093 139.42 224.733 139.06C224.373 138.7 223.907 138.52 223.333 138.52C222.96 138.52 222.627 138.6 222.333 138.76C222.04 138.92 221.807 139.147 221.633 139.44C221.473 139.733 221.393 140.073 221.393 140.46L220.373 139.94C220.373 139.18 220.533 138.52 220.853 137.96C221.173 137.387 221.613 136.94 222.173 136.62C222.747 136.3 223.4 136.14 224.133 136.14C224.867 136.14 225.513 136.3 226.073 136.62C226.647 136.94 227.093 137.38 227.413 137.94C227.733 138.5 227.893 139.147 227.893 139.88V146H225.273ZM218.773 146V131.54H221.393V146H218.773ZM234.624 146.2C233.61 146.2 232.71 145.987 231.924 145.56C231.137 145.12 230.51 144.52 230.044 143.76C229.59 143 229.364 142.133 229.364 141.16C229.364 140.2 229.584 139.347 230.024 138.6C230.477 137.84 231.09 137.24 231.864 136.8C232.637 136.347 233.497 136.12 234.444 136.12C235.377 136.12 236.197 136.333 236.904 136.76C237.624 137.173 238.184 137.747 238.584 138.48C238.997 139.2 239.204 140.02 239.204 140.94C239.204 141.113 239.19 141.293 239.164 141.48C239.15 141.653 239.117 141.853 239.064 142.08L230.944 142.1V140.14L237.844 140.12L236.784 140.94C236.757 140.367 236.65 139.887 236.464 139.5C236.29 139.113 236.03 138.82 235.684 138.62C235.35 138.407 234.937 138.3 234.444 138.3C233.924 138.3 233.47 138.42 233.084 138.66C232.697 138.887 232.397 139.213 232.184 139.64C231.984 140.053 231.884 140.547 231.884 141.12C231.884 141.707 231.99 142.22 232.204 142.66C232.43 143.087 232.75 143.42 233.164 143.66C233.577 143.887 234.057 144 234.604 144C235.097 144 235.544 143.92 235.944 143.76C236.344 143.587 236.69 143.333 236.984 143L238.524 144.54C238.057 145.087 237.484 145.5 236.804 145.78C236.137 146.06 235.41 146.2 234.624 146.2ZM247.31 146L243.69 136.34H246.33L248.69 143.36L247.89 143.38L250.31 136.34H252.21L254.63 143.38L253.83 143.36L256.19 136.34H258.83L255.23 146H253.33L250.89 139.32H251.63L249.19 146H247.31ZM263.927 146.2C263.047 146.2 262.253 145.98 261.547 145.54C260.84 145.1 260.287 144.5 259.887 143.74C259.487 142.98 259.287 142.127 259.287 141.18C259.287 140.22 259.487 139.36 259.887 138.6C260.287 137.84 260.84 137.24 261.547 136.8C262.253 136.36 263.047 136.14 263.927 136.14C264.62 136.14 265.24 136.28 265.787 136.56C266.333 136.84 266.767 137.233 267.087 137.74C267.42 138.233 267.6 138.793 267.627 139.42V142.9C267.6 143.54 267.42 144.107 267.087 144.6C266.767 145.093 266.333 145.487 265.787 145.78C265.24 146.06 264.62 146.2 263.927 146.2ZM264.407 143.78C265.14 143.78 265.733 143.54 266.187 143.06C266.64 142.567 266.867 141.933 266.867 141.16C266.867 140.653 266.76 140.207 266.547 139.82C266.347 139.42 266.06 139.113 265.687 138.9C265.327 138.673 264.9 138.56 264.407 138.56C263.927 138.56 263.5 138.673 263.127 138.9C262.767 139.113 262.48 139.42 262.267 139.82C262.067 140.207 261.967 140.653 261.967 141.16C261.967 141.68 262.067 142.14 262.267 142.54C262.48 142.927 262.767 143.233 263.127 143.46C263.5 143.673 263.927 143.78 264.407 143.78ZM266.727 146V143.4L267.147 141.04L266.727 138.72V136.34H269.327V146H266.727ZM274.684 146.08L270.644 136.34H273.484L276.164 143.78H275.204L277.984 136.34H280.844L276.544 146.06L274.684 146.08ZM272.004 150.04L274.944 143.82L276.544 146.06L274.784 150.04H272.004ZM282.605 146.2C282.125 146.2 281.731 146.04 281.425 145.72C281.118 145.4 280.965 145.007 280.965 144.54C280.965 144.073 281.118 143.68 281.425 143.36C281.731 143.04 282.125 142.88 282.605 142.88C283.071 142.88 283.458 143.04 283.765 143.36C284.071 143.68 284.225 144.073 284.225 144.54C284.225 145.007 284.071 145.4 283.765 145.72C283.458 146.04 283.071 146.2 282.605 146.2Z" fill="white"/>
<defs>
<filter id="filter0_d_45_1908" x="-3" y="0" width="396" height="189" filterUnits="userSpaceOnUse" color-interpolation-filters="sRGB">
<feFlood flood-opacity="0" result="BackgroundImageFix"/>
<feColorMatrix in="SourceAlpha" type="matrix" values="0 0 0 0 0 0 0 0 0 0 0 0 0 0 0 0 0 0 127 0" result="hardAlpha"/>
<feOffset dy="1"/>
<feGaussianBlur stdDeviation="1.5"/>
<feColorMatrix type="matrix" values="0 0 0 0 0 0 0 0 0 0 0 0 0 0 0 0 0 0 0.1 0"/>
<feBlend mode="normal" in2="BackgroundImageFix" result="effect1_dropShadow_45_1908"/>
<feBlend mode="normal" in="SourceGraphic" in2="effect1_dropShadow_45_1908" result="shape"/>
</filter>
<linearGradient id="paint0_linear_45_1908" x1="195" y1="2" x2="195" y2="185" gradientUnits="userSpaceOnUse">
<stop stop-color="#450E8B"/>
<stop offset="1" stop-color="#EC8C34"/>
</linearGradient>
</defs>
</svg>
