<svg width="237" height="226" viewBox="0 0 237 226" fill="none" xmlns="http://www.w3.org/2000/svg">
<path d="M201.665 109.169C155.432 82.4793 80.722 82.4793 34.79 109.169C-11.142 135.859 -10.8966 179.141 35.3309 205.831C81.5584 232.521 156.279 232.526 202.211 205.831C248.143 179.136 247.897 135.864 201.665 109.169Z" fill="#F5F5F5"/>
<path d="M172.721 25.689L174.284 24.7825L190.791 34.2784V36.0864L172.721 25.689Z" fill="#F5F5F5"/>
<path d="M172.721 25.6891L190.791 36.0865V38.145L172.716 27.7626L172.721 25.6891Z" fill="#E0E0E0"/>
<path d="M192.504 37.0581L194.067 36.1516L210.575 45.6475V47.4506L192.504 37.0581Z" fill="#F5F5F5"/>
<path d="M192.504 37.0581L210.575 47.4505V49.514L192.499 39.1316L192.504 37.0581Z" fill="#E0E0E0"/>
<path d="M172.811 8.33999L174.369 7.43347L174.279 68.9015L172.716 69.808L172.811 8.33999Z" fill="#F0F0F0"/>
<path d="M172.716 69.808L174.279 68.9015L192.259 79.2238L190.696 80.1303L172.716 69.808Z" fill="#F5F5F5"/>
<path d="M171.018 5.23975L192.594 17.6355L192.489 83.2455L170.913 70.8497L171.018 5.23975ZM190.696 80.1303L190.791 18.6622L172.811 8.33994L172.716 69.808L190.696 80.1303Z" fill="#E0E0E0"/>
<path d="M171.018 5.23977L172.581 4.33325L194.157 16.729L192.594 17.6356L171.018 5.23977Z" fill="#F5F5F5"/>
<path d="M192.595 17.6355L194.157 16.729L194.052 82.324L192.489 83.2305L192.595 17.6355Z" fill="#F0F0F0"/>
<path d="M192.594 19.709L194.157 18.8025L194.062 80.2705L192.499 81.177L192.594 19.709Z" fill="#F0F0F0"/>
<path d="M192.499 81.177L194.062 80.2705L212.042 90.5928L210.479 91.4993L192.499 81.177Z" fill="#F5F5F5"/>
<path d="M190.801 16.6089L212.378 29.0047L212.272 94.6146L190.696 82.2189L190.801 16.6089ZM210.479 91.4994L210.575 30.0314L192.594 19.7091L192.499 81.1771L210.479 91.4994Z" fill="#E0E0E0"/>
<path d="M190.802 16.6088L192.364 15.7023L213.94 28.098L212.378 29.0046L190.802 16.6088Z" fill="#F5F5F5"/>
<path d="M212.378 29.0047L213.94 28.0981L213.835 93.6931L212.272 94.5996L212.378 29.0047Z" fill="#F0F0F0"/>
<path d="M220.476 166.64C217.055 164.667 211.531 164.667 208.136 166.64C204.74 168.614 204.755 171.819 208.176 173.792C211.596 175.766 217.121 175.766 220.516 173.792C223.912 171.819 223.897 168.614 220.476 166.64Z" fill="#EBEBEB"/>
<path d="M188.618 151.961C173.593 143.276 149.257 143.276 134.307 151.961C121.1 159.639 119.632 171.523 129.844 180.183C121.601 179.682 113.061 181.245 106.766 184.901C95.7172 191.322 95.7773 201.729 106.896 208.15C118.015 214.571 135.985 214.571 147.033 208.15C155.823 203.041 157.551 195.409 152.327 189.268C164.993 191.101 178.932 189.153 188.798 183.423C203.743 174.734 203.668 160.65 188.618 151.961Z" fill="#EBEBEB"/>
<path d="M108.013 155.447L47.8319 190.19C47.5274 190.366 47.1819 190.458 46.8302 190.458C46.4786 190.458 46.1331 190.366 45.8285 190.19L41.5263 187.686C41.4202 187.625 41.3321 187.537 41.2708 187.431C41.2095 187.325 41.1772 187.204 41.1772 187.082C41.1772 186.96 41.2095 186.839 41.2708 186.733C41.3321 186.627 41.4202 186.54 41.5263 186.479L101.772 151.75C102.077 151.574 102.422 151.482 102.774 151.482C103.126 151.482 103.471 151.574 103.776 151.75L108.013 154.214C108.125 154.274 108.219 154.362 108.284 154.471C108.35 154.579 108.385 154.704 108.385 154.831C108.385 154.957 108.35 155.082 108.284 155.19C108.219 155.299 108.125 155.387 108.013 155.447Z" fill="#EBEBEB"/>
<path d="M102.764 147.528L29.2807 189.639C28.9664 189.821 28.6097 189.917 28.2465 189.917C27.8833 189.917 27.5265 189.821 27.2123 189.639L22.7748 187.08C22.6668 187.016 22.5773 186.925 22.5152 186.816C22.453 186.707 22.4203 186.584 22.4203 186.459C22.4203 186.333 22.453 186.21 22.5152 186.101C22.5773 185.992 22.6668 185.901 22.7748 185.837L96.3231 143.767C96.6387 143.584 96.9973 143.487 97.3624 143.487C97.7274 143.487 98.086 143.584 98.4016 143.767L102.764 146.306C102.869 146.37 102.955 146.46 103.015 146.567C103.075 146.674 103.106 146.795 103.106 146.917C103.106 147.04 103.075 147.161 103.015 147.267C102.955 147.374 102.869 147.464 102.764 147.528Z" fill="#EBEBEB"/>
<path d="M165.579 51.7177C165.342 51.2993 164.996 50.953 164.578 50.716L148.551 41.3604C147.369 40.6842 144.544 41.6058 144.544 43.509V60.8931C144.544 61.3589 144.668 61.8164 144.902 62.2192C145.136 62.6219 145.472 62.9558 145.876 63.1869L156.304 69.1469L154.501 68.1152L155.367 70.5693C155.381 70.6038 155.407 70.6319 155.44 70.6477C155.474 70.6635 155.512 70.666 155.547 70.6545C155.703 70.5793 156.379 70.2137 156.769 69.9583H156.794C156.807 69.9479 156.819 69.9361 156.83 69.9232L157.04 69.5827L161.893 72.5226C162.283 72.7719 162.732 72.9128 163.195 72.9307C163.657 72.9487 164.116 72.8431 164.524 72.6247C164.933 72.4064 165.275 72.0832 165.517 71.6885C165.759 71.2938 165.891 70.8418 165.9 70.379V53.0099C165.904 52.559 165.793 52.1145 165.579 51.7177Z" fill="#450E8B"/>
<path opacity="0.2" d="M156.89 69.9133C156.879 69.9262 156.867 69.9379 156.855 69.9483H156.83C156.439 70.2037 155.763 70.5694 155.607 70.6445C155.642 70.6379 155.672 70.6181 155.693 70.5894L156.529 69.2321L156.364 69.137L157.1 69.5577L156.89 69.9133Z" fill="white"/>
<path opacity="0.4" d="M162.975 53.2102C162.805 52.8681 162.564 52.5659 162.269 52.3237C162.168 52.2418 162.061 52.1681 161.948 52.1034L145.921 42.7477C145.787 42.6714 145.635 42.6317 145.481 42.6325C145.327 42.6332 145.176 42.6744 145.042 42.752C144.909 42.8296 144.798 42.9408 144.721 43.0745C144.645 43.2082 144.604 43.3597 144.604 43.514C144.604 41.6108 147.409 40.6892 148.611 41.3654L164.638 50.721C165.056 50.958 165.402 51.3043 165.639 51.7227L162.975 53.2102Z" fill="white"/>
<path opacity="0.2" d="M163.27 71.7512V54.3921C163.278 54.2888 163.278 54.185 163.27 54.0816C163.227 53.7779 163.134 53.4834 162.995 53.2102L165.619 51.7076C165.84 52.1026 165.957 52.5472 165.96 52.9998V70.3589C165.951 70.8217 165.819 71.2737 165.577 71.6684C165.335 72.0631 164.993 72.3863 164.585 72.6046C164.176 72.823 163.717 72.9286 163.255 72.9106C162.792 72.8927 162.343 72.7518 161.953 72.5025C162.086 72.5797 162.237 72.6207 162.39 72.6214C162.544 72.622 162.695 72.5823 162.828 72.5063C162.962 72.4302 163.073 72.3204 163.15 72.1879C163.228 72.0554 163.269 71.9048 163.27 71.7512Z" fill="white"/>
<path d="M157.481 59.7561C157.89 59.1422 158.095 58.4149 158.067 57.6777C158.061 57.4329 158.041 57.1888 158.007 56.9464C157.959 56.6079 157.887 56.2731 157.791 55.9448C157.612 55.3155 157.369 54.7063 157.065 54.1267C156.97 53.9414 156.87 53.7611 156.759 53.5808C156.548 53.2296 156.316 52.8918 156.063 52.5691C155.913 52.3788 155.753 52.1935 155.593 52.0182C155.12 51.5027 154.573 51.0604 153.97 50.706C150.835 48.8929 148.861 51.6576 150.424 55.6843L151.716 59.0249L153.93 64.7495L157.481 59.7561ZM155.978 56.5808C155.978 57.848 155.082 58.3588 153.975 57.7227C153.687 57.5506 153.426 57.3381 153.199 57.0917L153.143 57.0266C152.865 56.7132 152.629 56.3647 152.442 55.9898C152.26 55.6389 152.127 55.2648 152.047 54.878C152.006 54.6802 151.984 54.4789 151.981 54.277C151.981 53.0098 152.888 52.504 153.985 53.1401C154.272 53.3122 154.534 53.5247 154.761 53.7711C154.923 53.946 155.07 54.1336 155.202 54.3321C155.303 54.4774 155.393 54.6297 155.472 54.7878C155.664 55.1399 155.804 55.5177 155.888 55.9097C155.94 56.1298 155.969 56.3547 155.973 56.5808H155.978Z" fill="white"/>
<path d="M99.0327 4.67396C98.5719 3.04122 95.2563 -0.0589726 91.9608 0.0061365C91.6443 0.0164588 91.3315 0.0773275 91.0343 0.186438L27.0069 36.6125C26.072 37.1539 25.2944 37.9297 24.7508 38.8633C24.2071 39.7969 23.9162 40.8561 23.9067 41.9364V180.449C23.9067 183.954 27.9786 187.345 31.795 185.722H31.825C31.9093 185.696 31.9914 185.662 32.0704 185.622L96.1078 149.131C97.0462 148.595 97.8262 147.82 98.3689 146.885C98.9115 145.95 99.1975 144.888 99.198 143.807V5.34008C99.1961 5.10812 99.1395 4.87988 99.0327 4.67396Z" fill="#450E8B"/>
<path d="M32.8568 56.5759C32.8564 56.0353 32.9994 55.5043 33.2713 55.0371C33.5432 54.5699 33.9342 54.1832 34.4043 53.9164L93.849 20.1148C94.0817 19.9827 94.3449 19.9139 94.6125 19.9152C94.88 19.9164 95.1426 19.9877 95.3741 20.1219C95.6055 20.2561 95.7978 20.4486 95.9318 20.6802C96.0658 20.9118 96.1368 21.1744 96.1378 21.442V133.129C96.136 133.67 95.9921 134.201 95.7205 134.668C95.4489 135.136 95.0591 135.524 94.5902 135.794L35.1306 169.65C34.8985 169.78 34.6365 169.847 34.3706 169.845C34.1047 169.843 33.8439 169.771 33.6142 169.637C33.3846 169.503 33.1938 169.311 33.061 169.081C32.9281 168.85 32.8577 168.589 32.8568 168.323V56.5759Z" fill="#37474F"/>
<path opacity="0.3" d="M23.9067 41.9363V180.449C23.9067 183.954 27.9786 187.345 31.795 185.722H31.825C31.5947 185.812 31.3457 185.844 31.1003 185.815C30.8548 185.785 30.6203 185.696 30.4177 185.554C30.2151 185.412 30.0506 185.223 29.9387 185.002C29.8269 184.782 29.7712 184.537 29.7766 184.29V45.7627C29.7811 44.5583 30.1418 43.382 30.8133 42.3821L24.5428 39.2518C24.1292 40.0866 23.9117 41.0048 23.9067 41.9363Z" fill="black"/>
<path opacity="0.1" d="M91.9558 0.00100955C91.6394 0.0113319 91.3266 0.0722015 91.0293 0.181312L27.007 36.6124C25.9373 37.2224 25.078 38.1428 24.5428 39.2518L30.8134 42.382C31.3332 41.5835 32.0331 40.9179 32.8568 40.4388L96.9091 4.00773C97.09 3.90176 97.291 3.8348 97.4993 3.81116C97.7076 3.78751 97.9185 3.80771 98.1185 3.87045C98.3185 3.93318 98.5031 4.03707 98.6606 4.17543C98.818 4.31379 98.9448 4.48357 99.0327 4.67384C98.577 3.0361 95.2614 -0.0640996 91.9558 0.00100955Z" fill="white"/>
<path d="M72.383 26.8811C72.8288 26.6206 73.2044 26.826 73.2044 27.3418C73.1874 27.6252 73.1048 27.9007 72.9631 28.1466C72.8214 28.3926 72.6246 28.6023 72.388 28.7592L59.822 36.0114C59.3712 36.2718 59.0106 36.0514 59.0106 35.5356C59.0237 35.2545 59.1038 34.9807 59.244 34.7368C59.3842 34.4928 59.5807 34.2859 59.817 34.1332L72.383 26.8811Z" fill="#263238"/>
<path d="M56.5915 35.9964C57.0423 35.7409 57.4029 35.9463 57.4079 36.4621C57.393 36.7447 57.3117 37.0198 57.1708 37.2652C57.0298 37.5105 56.8331 37.7193 56.5965 37.8745C56.1458 38.1349 55.7751 37.9196 55.7751 37.4037C55.7902 37.1213 55.8721 36.8465 56.014 36.6018C56.1559 36.3571 56.3538 36.1496 56.5915 35.9964Z" fill="#263238"/>
<path d="M64.635 25.8294C65.5315 25.3285 66.2577 25.7192 66.2577 26.7559C66.2294 27.3196 66.0686 27.8686 65.7884 28.3585C65.5082 28.8485 65.1165 29.2654 64.645 29.5756C63.7435 30.0765 63.0023 29.6708 62.9973 28.6391C63.0279 28.0744 63.1924 27.5252 63.4772 27.0366C63.7619 26.5481 64.1588 26.1343 64.635 25.8294Z" fill="#263238"/>
<path d="M64.635 156.223C66.4681 155.166 67.9456 156.008 67.9506 158.111C67.8914 159.26 67.5627 160.378 66.9911 161.376C66.4195 162.374 65.6209 163.224 64.6601 163.856C62.827 164.907 61.3145 164.046 61.3044 161.942C61.3715 160.795 61.708 159.679 62.2866 158.685C62.8652 157.691 63.6698 156.848 64.635 156.223Z" fill="#263238"/>
<path d="M108.664 10.2133C108.238 8.71076 105.233 5.91607 102.238 5.97617C101.952 5.98558 101.67 6.0414 101.402 6.14145L43.2742 39.1969C42.4258 39.6884 41.7204 40.3927 41.2276 41.2404C40.7349 42.088 40.4718 43.0495 40.4645 44.03V169.741C40.4645 172.946 44.1607 176.001 47.6265 174.529C47.7021 174.504 47.7758 174.474 47.8469 174.439L106.004 141.318C106.856 140.831 107.564 140.127 108.057 139.279C108.549 138.43 108.809 137.466 108.809 136.485V10.8193C108.807 10.6089 108.757 10.4018 108.664 10.2133Z" fill="#455A64"/>
<path opacity="0.1" d="M40.4695 44.0349V169.746C40.4695 172.951 44.1657 176.006 47.6315 174.534C47.4227 174.61 47.1984 174.635 46.9778 174.607C46.7572 174.578 46.5468 174.497 46.3644 174.369C46.182 174.242 46.0331 174.072 45.9302 173.875C45.8273 173.678 45.7735 173.459 45.7734 173.236V47.5258C45.7778 46.4319 46.1054 45.3638 46.715 44.4556L41.0204 41.6108C40.6563 42.367 40.468 43.1957 40.4695 44.0349Z" fill="white"/>
<path opacity="0.2" d="M102.243 5.97104C101.957 5.98044 101.675 6.03626 101.407 6.13632L43.2792 39.1917C42.3125 39.7491 41.5346 40.5828 41.0454 41.5857L46.74 44.4305C47.2171 43.7056 47.8567 43.1019 48.6081 42.6676L106.731 9.59712C106.896 9.50343 107.078 9.44459 107.267 9.42423C107.455 9.40387 107.646 9.42243 107.827 9.47876C108.009 9.53509 108.176 9.628 108.32 9.75173C108.464 9.87546 108.581 10.0274 108.664 10.1981C108.243 8.72566 105.238 5.91094 102.243 5.97104Z" fill="white"/>
<path d="M108.664 10.2132C108.582 10.0412 108.466 9.88774 108.323 9.76245C108.18 9.63717 108.012 9.5427 107.831 9.48492C107.65 9.42714 107.459 9.40728 107.269 9.42659C107.08 9.44589 106.897 9.50394 106.731 9.59713L48.6332 42.6525C47.7865 43.1459 47.0824 43.8507 46.5899 44.6979C46.0974 45.5452 45.8333 46.5057 45.8235 47.4856V173.196C45.8236 173.419 45.8774 173.638 45.9803 173.835C46.0832 174.032 46.2321 174.202 46.4145 174.329C46.5969 174.456 46.8073 174.538 47.0279 174.567C47.2485 174.595 47.4728 174.57 47.6816 174.494C47.7572 174.469 47.8309 174.439 47.902 174.403L106.004 141.318C106.856 140.831 107.564 140.127 108.057 139.279C108.549 138.43 108.809 137.466 108.809 136.485V10.8192C108.807 10.6088 108.757 10.4017 108.664 10.2132Z" fill="#455A64"/>
<path d="M48.6732 55.3288C48.6732 54.7931 48.8337 54.2698 49.134 53.8262C49.3598 53.4743 49.6674 53.1822 50.0305 52.9748L105.934 21.1865V134.537C105.934 135.01 105.809 135.475 105.572 135.885C105.334 136.295 104.993 136.635 104.582 136.87L48.6732 168.729V55.3288Z" fill="#455A64"/>
<path opacity="0.3" d="M48.6732 55.3288C48.6732 54.7931 48.8337 54.2698 49.134 53.8262C49.3598 53.4743 49.6674 53.1822 50.0305 52.9748L105.934 21.1865V134.537C105.934 135.01 105.809 135.475 105.572 135.885C105.334 136.295 104.993 136.635 104.582 136.87L48.6732 168.729V55.3288Z" fill="black"/>
<path d="M102.549 16.8693L102.554 18.2916L104.357 17.2499L104.352 15.8275L102.549 16.8693Z" fill="#450E8B"/>
<path d="M106.009 14.3951L102.133 16.6339V19.0079L106.009 16.7691V15.9578L106.285 15.7975V15.0462L106.185 15.1063L106.009 15.2065V14.3951ZM104.357 17.2499L102.554 18.2917V16.8693L104.357 15.8275V17.2499Z" fill="white"/>
<path d="M72.8187 33.5573L72.8237 35.9363L82.3346 30.4421L82.3246 28.0681L72.8187 33.5573Z" fill="white"/>
<path d="M96.864 19.674L96.874 22.048L100.385 20.0196L100.38 17.6406L96.864 19.674Z" fill="white"/>
<path d="M50.0556 47.0399L50.0606 49.0733L50.5414 48.7978L50.5364 46.7644L50.0556 47.0399Z" fill="white"/>
<path d="M57.5981 44.726L59.6666 43.529L59.6616 41.15L58.4646 41.8412L57.5881 42.347L57.5981 44.726Z" fill="white"/>
<path d="M52.6549 47.5757L56.5314 45.342L56.5264 42.963L52.6499 45.2018L52.6549 47.5757Z" fill="white"/>
<path d="M50.8569 48.6176L51.1424 48.4523L51.3377 48.3371L51.3327 45.9631L50.8519 46.2386L50.8569 48.6176Z" fill="white"/>
<path d="M49.2642 49.534L49.6148 49.3337L49.745 49.2586L49.74 47.6559L49.6097 47.731L49.2592 47.9313L49.2642 49.534Z" fill="white"/>
<path d="M48.4729 49.9948L48.9487 49.7193L48.9437 48.5474L48.4679 48.8178L48.4729 49.9948Z" fill="white"/>
<path d="M101.096 93.1272L105.934 90.3676V88.0837L101.041 90.8784L100.776 80.2706L105.934 77.1604V74.8766L100.72 78.0219L100.535 70.6044L105.934 67.0585V64.7646L100.47 68.3507L100.29 60.6828L97.9258 52.1685L105.939 44.8963V40.9297L97.3097 48.7678L95.9625 36.4922L105.929 28.8044V26.4805L95.7271 34.3537L94.9608 27.4271L92.9575 28.564L93.8039 36.2969L84.4933 50.4356L76.9306 37.6893L73.2094 39.8078L75.0875 42.9681L71.1709 47.6109L69.7185 44.8012L61.7051 52.3138L62.4563 60.3272L48.6983 68.2705V70.5544L64.655 61.3439L63.8436 52.7144L68.6717 48.2069L70.2744 51.3071L76.014 44.4907L77.2812 46.6292L58.7501 75.3875L48.6782 84.4026V86.7765L58.7651 77.7614L65.0156 86.1705L59.7217 95.1856L48.7033 106.705V110.767L54.6432 104.576L56.6466 111.999L56.6766 121.705L48.6933 125.557V127.85L56.5815 124.044L55.5247 137.066L52.3293 141.518L51.8786 153.108L48.6933 155.181V158.998L77.0207 140.567L76.56 152.837L78.5633 151.705L79.1794 134.547L89.6519 128.296L90.5885 144.824L93.909 142.931L93.5034 135.744L105.934 127.64V125.346L93.3782 133.53L92.6119 120.092L102.053 114.643L101.367 102.423L105.934 100.219V97.9202L101.271 100.174L101.096 93.1272ZM94.0843 38.8262L95.3615 50.4707L88.3147 56.8764L85.4449 51.9932L94.0843 38.8262ZM74.7219 103.72L71.807 105.403L69.1225 106.95L67.4447 95.7917L74.5566 89.9669L76.4798 102.703L74.7219 103.72ZM76.8004 104.802L77.802 111.513L75.3479 112.695L74.8471 105.914L76.8004 104.802ZM67.1292 93.7382L66.428 89.0904L76.9306 71.2004L77.3713 70.8048L78.1727 75.3123L74.9973 78.6329L75.7586 80.3107L83.3163 72.3874L82.555 70.6996L80.0508 73.334L79.2895 69.0318L85.9457 63.0017L86.7771 77.6162L67.1292 93.7382ZM86.8973 79.875L88.3998 106.419L85.3247 107.922L82.6502 83.3558L86.8973 79.875ZM73.5499 55.404L75.7887 58.5492L68.6968 69.5276L66.458 66.4274L73.5499 55.404ZM60.5281 75.6679L64.9104 68.7864L68.1759 73.2939L78.3329 57.5576L75.0725 52.9899L78.1727 48.1818L85.0692 59.8113L75.5984 68.4158L75.1977 68.7764L66.458 83.6563L60.5281 75.6679ZM56.4863 102.683L61.5899 97.3593L64.7101 92.0504L67.4146 110.216L71.797 107.687L72.8738 107.061L73.3446 113.662L58.6349 120.784V111.703L62.4814 108.758L62.1508 106.69L58.3645 109.595L56.4863 102.683ZM60.7935 147.368L53.8719 151.876L54.2676 141.689L57.4129 137.311L58.5648 123.137L61.9204 121.52L60.7935 147.368ZM77.161 136.72L62.7919 146.071L63.9088 120.533L77.9874 113.737L77.161 136.72ZM76.5199 88.3943L80.732 84.9485L83.3363 108.884L79.8705 110.556L76.5199 88.3943ZM79.2695 132.238L79.9356 112.77L88.525 108.623L89.5267 126.092L79.2695 132.238ZM89.2162 60.0668L96.0426 53.8714L98.3315 62.1553L98.5168 69.6679L90.0626 75.2071L89.2162 60.0668ZM90.2179 77.4359L98.5819 71.9266L98.7672 79.2339L90.5985 84.1571L90.2179 77.4359ZM90.7187 86.3759L98.8173 81.4927L99.0777 92.0354L91.2897 96.4828L90.7187 86.3759ZM91.4149 98.6965L99.1328 94.2891L99.3081 101.181L91.7655 104.822L91.4149 98.6965ZM92.5117 117.929L91.8957 107.051L99.4083 103.429L99.9792 113.627L92.5117 117.929Z" fill="#455A64"/>
<g opacity="0.3">
<path d="M101.096 93.1272L105.934 90.3676V88.0837L101.041 90.8784L100.776 80.2706L105.934 77.1604V74.8766L100.72 78.0219L100.535 70.6044L105.934 67.0585V64.7646L100.47 68.3507L100.29 60.6828L97.9258 52.1685L105.939 44.8963V40.9297L97.3097 48.7678L95.9625 36.4922L105.929 28.8044V26.4805L95.7271 34.3537L94.9608 27.4271L92.9575 28.564L93.8039 36.2969L84.4933 50.4356L76.9306 37.6893L73.2094 39.8078L75.0875 42.9681L71.1709 47.6109L69.7185 44.8012L61.7051 52.3138L62.4563 60.3272L48.6983 68.2705V70.5544L64.655 61.3439L63.8436 52.7144L68.6717 48.2069L70.2744 51.3071L76.014 44.4907L77.2812 46.6292L58.7501 75.3875L48.6782 84.4026V86.7765L58.7651 77.7614L65.0156 86.1705L59.7217 95.1856L48.7033 106.705V110.767L54.6432 104.576L56.6466 111.999L56.6766 121.705L48.6933 125.557V127.85L56.5815 124.044L55.5247 137.066L52.3293 141.518L51.8786 153.108L48.6933 155.181V158.998L77.0207 140.567L76.56 152.837L78.5633 151.705L79.1794 134.547L89.6519 128.296L90.5885 144.824L93.909 142.931L93.5034 135.744L105.934 127.64V125.346L93.3782 133.53L92.6119 120.092L102.053 114.643L101.367 102.423L105.934 100.219V97.9202L101.271 100.174L101.096 93.1272ZM94.0843 38.8262L95.3615 50.4707L88.3147 56.8764L85.4449 51.9932L94.0843 38.8262ZM74.7219 103.72L71.807 105.403L69.1225 106.95L67.4447 95.7917L74.5566 89.9669L76.4798 102.703L74.7219 103.72ZM76.8004 104.802L77.802 111.513L75.3479 112.695L74.8471 105.914L76.8004 104.802ZM67.1292 93.7382L66.428 89.0904L76.9306 71.2004L77.3713 70.8048L78.1727 75.3123L74.9973 78.6329L75.7586 80.3107L83.3163 72.3874L82.555 70.6996L80.0508 73.334L79.2895 69.0318L85.9457 63.0017L86.7771 77.6162L67.1292 93.7382ZM86.8973 79.875L88.3998 106.419L85.3247 107.922L82.6502 83.3558L86.8973 79.875ZM73.5499 55.404L75.7887 58.5492L68.6968 69.5276L66.458 66.4274L73.5499 55.404ZM60.5281 75.6679L64.9104 68.7864L68.1759 73.2939L78.3329 57.5576L75.0725 52.9899L78.1727 48.1818L85.0692 59.8113L75.5984 68.4158L75.1977 68.7764L66.458 83.6563L60.5281 75.6679ZM56.4863 102.683L61.5899 97.3593L64.7101 92.0504L67.4146 110.216L71.797 107.687L72.8738 107.061L73.3446 113.662L58.6349 120.784V111.703L62.4814 108.758L62.1508 106.69L58.3645 109.595L56.4863 102.683ZM60.7935 147.368L53.8719 151.876L54.2676 141.689L57.4129 137.311L58.5648 123.137L61.9204 121.52L60.7935 147.368ZM77.161 136.72L62.7919 146.071L63.9088 120.533L77.9874 113.737L77.161 136.72ZM76.5199 88.3943L80.732 84.9485L83.3363 108.884L79.8705 110.556L76.5199 88.3943ZM79.2695 132.238L79.9356 112.77L88.525 108.623L89.5267 126.092L79.2695 132.238ZM89.2162 60.0668L96.0426 53.8714L98.3315 62.1553L98.5168 69.6679L90.0626 75.2071L89.2162 60.0668ZM90.2179 77.4359L98.5819 71.9266L98.7672 79.2339L90.5985 84.1571L90.2179 77.4359ZM90.7187 86.3759L98.8173 81.4927L99.0777 92.0354L91.2897 96.4828L90.7187 86.3759ZM91.4149 98.6965L99.1328 94.2891L99.3081 101.181L91.7655 104.822L91.4149 98.6965ZM92.5117 117.929L91.8957 107.051L99.4083 103.429L99.9792 113.627L92.5117 117.929Z" fill="white"/>
</g>
<path d="M117.429 97.3191C117.884 97.0587 118.245 97.269 118.25 97.7849L118.28 108.959C118.265 109.241 118.184 109.515 118.043 109.759C117.902 110.004 117.705 110.212 117.469 110.366L91.0243 125.632L90.9893 112.585L117.429 97.3191Z" fill="#450E8B"/>
<g opacity="0.3">
<path d="M117.429 97.3191C117.884 97.0587 118.245 97.269 118.25 97.7849L118.28 108.959C118.265 109.241 118.184 109.515 118.043 109.759C117.902 110.004 117.705 110.212 117.469 110.366L91.0243 125.632L90.9893 112.585L117.429 97.3191Z" fill="white"/>
</g>
<path d="M116.462 106.575L116.467 107.471L96.9892 118.72L96.9842 117.818L116.462 106.575Z" fill="white"/>
<path d="M104.913 115.159L104.918 116.061L96.9943 120.633L96.9893 119.737L104.913 115.159Z" fill="white"/>
<path d="M116.457 104.661L116.462 105.563L96.9843 116.807L96.9792 115.91L116.457 104.661Z" fill="white"/>
<path d="M116.452 102.748V103.645L96.9792 114.894L96.9742 113.992L116.452 102.748Z" fill="white"/>
<path d="M111.243 102.938L111.248 104.736L96.9692 112.975L96.9642 111.182L111.243 102.938Z" fill="white"/>
<path d="M83.9074 108.097C87.0026 106.309 90.1028 105.878 92.4767 107.231C96.8441 109.735 97.2548 117.463 93.4333 125.206L84.0076 144.293L74.5166 136.129C70.6552 132.819 71.0108 124.61 75.3631 117.097C77.717 113.03 80.8122 109.885 83.9074 108.097Z" fill="#450E8B"/>
<path d="M91.2148 126.15C95.2394 119.224 95.2507 111.72 91.24 109.39C87.2292 107.059 80.7153 110.784 76.6907 117.711C72.6661 124.637 72.6548 132.141 76.6656 134.471C80.6763 136.802 87.1902 133.076 91.2148 126.15Z" fill="#455A64"/>
<path d="M83.9925 133.76C86.8823 132.087 89.5017 129.208 91.3548 125.917C90.8487 125.504 90.2552 125.211 89.6191 125.061C88.9831 124.91 88.3212 124.907 87.6837 125.051L86.3063 125.361L81.939 126.293L78.0074 129.248C77.3212 129.765 76.757 130.426 76.3545 131.185C75.9521 131.944 75.7213 132.782 75.6785 133.64V133.7C77.5517 135.563 80.5767 135.729 83.9925 133.76Z" fill="#450E8B"/>
<path opacity="0.2" d="M83.9925 133.76C86.8823 132.087 89.5017 129.208 91.3548 125.917C90.8487 125.504 90.2552 125.211 89.6191 125.061C88.9831 124.91 88.3212 124.907 87.6837 125.051L86.3063 125.361L81.939 126.293L78.0074 129.248C77.3212 129.765 76.757 130.426 76.3545 131.185C75.9521 131.944 75.7213 132.782 75.6785 133.64V133.7C77.5517 135.563 80.5767 135.729 83.9925 133.76Z" fill="black"/>
<path d="M90.0677 121.49C90.7331 121.012 91.1959 120.303 91.3655 119.501C91.535 118.7 91.3991 117.864 90.9842 117.157C91.356 116.99 91.661 116.702 91.8507 116.341C91.9236 116.164 91.9444 115.97 91.9107 115.782C91.8769 115.594 91.7901 115.42 91.6604 115.279C91.5236 115.147 91.352 115.057 91.1658 115.019C90.9795 114.981 90.7863 114.996 90.6086 115.064C90.7058 114.78 90.7058 114.472 90.6088 114.188C90.5118 113.905 90.3232 113.661 90.0727 113.496C89.8164 113.356 89.5196 113.309 89.2323 113.361C88.945 113.414 88.6847 113.565 88.4951 113.787C88.5021 113.602 88.4487 113.42 88.3429 113.268C88.2372 113.116 88.0849 113.003 87.9091 112.945C87.547 112.851 87.1642 112.875 86.8173 113.015C86.4667 113.136 86.1361 113.311 85.7805 113.421C85.1726 113.573 84.5489 113.652 83.9224 113.657C83.2905 113.67 82.6722 113.842 82.1244 114.157C81.8233 114.342 81.5911 114.62 81.4635 114.95C81.336 115.279 81.32 115.641 81.4182 115.98C81.3285 115.866 81.2158 115.771 81.0872 115.703C80.9586 115.635 80.8171 115.595 80.6719 115.585C80.5283 115.581 80.3856 115.608 80.2534 115.664C80.1212 115.72 80.0026 115.804 79.9057 115.91C80.2963 116.151 80.6719 116.411 81.0676 116.657C80.8435 116.593 80.6047 116.605 80.3882 116.691C80.1718 116.777 79.9898 116.932 79.8706 117.132C79.6853 117.526 79.6125 117.962 79.6602 118.394C79.7125 120.037 80.0044 121.664 80.5267 123.223C80.7921 124.029 81.1828 124.88 81.9441 125.251L90.0677 121.49Z" fill="#263238"/>
<path d="M85.9158 125.366L85.7455 127.294C85.7372 127.442 85.7738 127.589 85.8506 127.715C85.9585 127.916 86.0006 128.146 85.971 128.373C85.9413 128.599 85.8414 128.811 85.6854 128.977C85.4351 129.161 85.1342 129.262 84.8239 129.268C84.2372 129.299 83.6505 129.206 83.1024 128.995C82.5542 128.783 82.0571 128.458 81.6436 128.041C81.5592 127.953 81.4935 127.849 81.4505 127.736C81.4074 127.622 81.3879 127.501 81.3932 127.38L81.5184 122.501L85.9158 125.366Z" fill="#FFA8A7"/>
<path opacity="0.3" d="M81.904 122.752L85.9107 125.366L85.7604 127.074C84.8189 126.916 83.9261 126.545 83.1511 125.987C82.6855 125.598 82.3267 125.097 82.1085 124.531C81.8903 123.965 81.8199 123.353 81.904 122.752Z" fill="black"/>
<path d="M90.2881 117.528C90.584 119.76 90.4377 122.029 89.8573 124.204C89.7463 124.683 89.5676 125.143 89.3264 125.571C89.0847 126.005 88.7034 126.344 88.2446 126.533C87.6594 126.693 87.0419 126.693 86.4566 126.533C85.3544 126.408 84.2847 126.08 83.3013 125.566C82.8131 125.303 82.4058 124.912 82.1234 124.434C81.841 123.957 81.6942 123.412 81.6987 122.857C81.4312 123.031 81.1227 123.131 80.8041 123.148C80.4855 123.164 80.1681 123.097 79.8841 122.951C79.6001 122.806 79.3594 122.588 79.1865 122.32C79.0135 122.052 78.9143 121.743 78.899 121.425C78.8412 121.176 78.8654 120.915 78.968 120.682C79.0706 120.448 79.246 120.254 79.4681 120.128C79.6901 120.003 79.9469 119.952 80.2 119.985C80.4531 120.017 80.6889 120.13 80.8723 120.308C81.1578 120.556 81.4058 120.844 81.6085 121.164C81.7005 121.319 81.8253 121.453 81.9741 121.555C82.048 121.605 82.1352 121.632 82.2245 121.632C82.3138 121.632 82.4011 121.605 82.475 121.555C82.5378 121.479 82.5831 121.39 82.6073 121.295C82.6316 121.2 82.6343 121.1 82.6152 121.004L82.5551 119.606C82.5541 119.502 82.5828 119.4 82.6378 119.311C82.6927 119.222 82.7717 119.151 82.8656 119.106C83.1531 118.947 83.3749 118.691 83.4917 118.384C83.5902 118.116 83.6492 117.834 83.667 117.548C83.6711 117.494 83.6877 117.442 83.7157 117.396C83.7436 117.349 83.782 117.31 83.8278 117.282C83.8736 117.253 83.9255 117.235 83.9793 117.23C84.0332 117.225 84.0874 117.233 84.1377 117.253C86.1118 117.969 88.2578 118.065 90.2881 117.528Z" fill="#FFA8A7"/>
<path d="M87.2179 120.914L88.475 123.027L86.9775 123.313L87.2179 120.914Z" fill="#F28F8F"/>
<path d="M85.5301 124.039L86.667 124.595C86.5693 124.723 86.4325 124.817 86.2772 124.861C86.1219 124.905 85.9564 124.898 85.8055 124.84C85.6752 124.758 85.5768 124.634 85.5267 124.488C85.4766 124.342 85.4778 124.184 85.5301 124.039Z" fill="#F28F8F"/>
<path opacity="0.3" d="M85.5301 124.039L86.667 124.595C86.5693 124.723 86.4325 124.817 86.2772 124.861C86.1219 124.905 85.9564 124.898 85.8055 124.84C85.6752 124.758 85.5768 124.634 85.5267 124.488C85.4766 124.342 85.4778 124.184 85.5301 124.039Z" fill="black"/>
<path d="M86.2012 124.875C86.0687 124.902 85.9313 124.89 85.8055 124.84C85.7013 124.781 85.6167 124.693 85.5624 124.586C85.508 124.479 85.4864 124.358 85.5 124.239C85.6762 124.235 85.8473 124.299 85.9779 124.417C86.1084 124.535 86.1884 124.7 86.2012 124.875Z" fill="#F28F8F"/>
<path d="M85.0493 120.999C85.043 121.055 85.0479 121.111 85.0637 121.165C85.0795 121.22 85.1059 121.27 85.1413 121.314C85.1767 121.357 85.2204 121.394 85.27 121.421C85.3195 121.447 85.3739 121.464 85.4299 121.47C85.4869 121.477 85.5448 121.473 85.6002 121.458C85.6556 121.443 85.7074 121.416 85.7526 121.381C85.7977 121.345 85.8353 121.301 85.863 121.25C85.8908 121.2 85.9082 121.145 85.9142 121.088C85.9202 121.03 85.9147 120.973 85.898 120.918C85.8814 120.863 85.8539 120.812 85.8171 120.767C85.7804 120.723 85.7352 120.687 85.6842 120.66C85.6331 120.634 85.5773 120.618 85.52 120.613C85.4637 120.607 85.4067 120.612 85.3523 120.628C85.298 120.644 85.2474 120.671 85.2035 120.707C85.1597 120.743 85.1235 120.787 85.097 120.837C85.0705 120.887 85.0542 120.942 85.0493 120.999Z" fill="#263238"/>
<path d="M88.6553 121.224C88.6468 121.309 88.6636 121.394 88.7037 121.47C88.7437 121.545 88.8052 121.606 88.8803 121.647C88.9554 121.687 89.0408 121.704 89.1256 121.696C89.2104 121.688 89.2909 121.654 89.3568 121.6C89.4227 121.546 89.4712 121.474 89.4959 121.392C89.5207 121.311 89.5208 121.224 89.4961 121.142C89.4714 121.061 89.423 120.988 89.3572 120.934C89.2913 120.88 89.2109 120.847 89.1261 120.839C89.0125 120.827 88.8992 120.862 88.8109 120.934C88.7226 121.006 88.6667 121.111 88.6553 121.224Z" fill="#263238"/>
<path d="M89.2413 119.561L90.1278 120.313C90.1804 120.199 90.1971 120.072 90.1757 119.948C90.1542 119.825 90.0955 119.711 90.0076 119.621C89.8982 119.541 89.7685 119.492 89.633 119.482C89.4976 119.471 89.3618 119.499 89.2413 119.561Z" fill="#263238"/>
<path d="M85.5852 119.141C85.2446 119.326 84.904 119.511 84.5835 119.702C84.5549 119.58 84.5634 119.452 84.6081 119.335C84.6527 119.218 84.7314 119.117 84.8339 119.046C84.9558 118.991 85.0904 118.971 85.2229 118.987C85.3555 119.004 85.4808 119.057 85.5852 119.141Z" fill="#263238"/>
<path d="M87.278 66.5777C87.7337 66.3172 88.0943 66.5276 88.0993 67.0434L88.1294 78.2172C88.1137 78.4989 88.0321 78.773 87.8912 79.0174C87.7503 79.2618 87.5539 79.4698 87.318 79.6245L60.8737 94.8901L60.8386 81.8432L87.278 66.5777Z" fill="#450E8B"/>
<g opacity="0.3">
<path d="M87.278 66.5777C87.7337 66.3172 88.0943 66.5276 88.0993 67.0434L88.1294 78.2172C88.1137 78.4989 88.0321 78.773 87.8912 79.0174C87.7503 79.2618 87.5539 79.4698 87.318 79.6245L60.8737 94.8901L60.8386 81.8432L87.278 66.5777Z" fill="white"/>
</g>
<path d="M86.3113 75.8331L86.3163 76.7296L66.8387 87.9735L66.8337 87.077L86.3113 75.8331Z" fill="white"/>
<path d="M74.762 84.4176L74.767 85.3191L66.8437 89.8918L66.8387 88.9903L74.762 84.4176Z" fill="white"/>
<path d="M86.3063 73.9199L86.3113 74.8214L66.8337 86.0653L66.8287 85.1638L86.3063 73.9199Z" fill="white"/>
<path d="M86.3013 72.0067L86.3063 72.9032L66.8237 84.1471V83.2506L86.3013 72.0067Z" fill="white"/>
<path d="M81.0926 72.197L81.0976 73.99L66.8187 82.2338L66.8137 80.4358L81.0926 72.197Z" fill="white"/>
<path d="M53.7568 76.7097C56.852 74.9217 59.9522 74.491 62.3262 75.8432C66.6935 78.3474 67.1042 86.0754 63.2778 93.8184L53.857 112.92L44.3761 104.757C40.5196 101.446 40.8702 93.2374 45.2275 85.7248C47.5664 81.658 50.6616 78.5127 53.7568 76.7097Z" fill="#450E8B"/>
<path d="M61.0665 94.7772C65.0911 87.8511 65.1024 80.3471 61.0917 78.0165C57.0809 75.686 50.567 79.4114 46.5424 86.3375C42.5178 93.2636 42.5065 100.768 46.5172 103.098C50.528 105.429 57.0419 101.703 61.0665 94.7772Z" fill="#455A64"/>
<path d="M53.8419 102.388C56.847 100.655 59.5315 97.6147 61.4046 94.1689C60.2082 93.5132 58.813 93.319 57.483 93.623L55.1391 94.1539L50.326 95.1856L46.159 98.3209C45.4159 98.8837 44.7536 99.546 44.1907 100.289C45.6682 103.915 49.4345 104.932 53.8419 102.388Z" fill="white"/>
<path d="M47.8068 89.0804C47.9372 88.7725 48.176 88.523 48.4779 88.3792C48.5417 88.3468 48.6089 88.3216 48.6782 88.3041C48.8809 88.2707 49.0887 88.2875 49.2834 88.3529C49.4781 88.4184 49.6538 88.5306 49.7951 88.6797C50.0737 88.9802 50.2613 89.3536 50.336 89.7565C50.411 90.1583 50.4562 90.5651 50.4712 90.9736C50.5301 91.6954 50.6422 92.4119 50.8068 93.1172C50.8931 93.5024 51.0618 93.8643 51.3013 94.1782C51.5408 94.492 51.8453 94.7503 52.1941 94.9352L52.2442 94.9603C53.2557 95.4616 54.3577 95.7546 55.4846 95.8217V97.0487C56.3811 98.2658 56.6316 100.595 54.2726 99.8985C51.9136 99.2024 50.3811 97.6347 50.3811 96.0972C50.3811 95.4461 50.351 94.5946 50.331 93.8634C50.331 92.8617 50.2909 92.0153 50.2909 92.0153C50.0714 92.2695 49.7635 92.4307 49.4295 92.4661C49.279 92.4857 49.1261 92.4772 48.9787 92.441C48.7629 92.3712 48.5632 92.259 48.3912 92.1111C48.2192 91.9632 48.0784 91.7825 47.977 91.5796C47.7776 91.1701 47.6683 90.7227 47.6565 90.2674C47.6131 89.8654 47.6645 89.4589 47.8068 89.0804Z" fill="#FFA8A7"/>
<path opacity="0.3" d="M47.8068 89.0804C47.9372 88.7725 48.176 88.523 48.4779 88.3792C48.5417 88.3468 48.6089 88.3216 48.6782 88.3041C48.8809 88.2707 49.0887 88.2875 49.2834 88.3529C49.4781 88.4184 49.6538 88.5306 49.7951 88.6797C50.0737 88.9802 50.2613 89.3536 50.336 89.7565C50.411 90.1583 50.4562 90.5651 50.4712 90.9736C50.5301 91.6954 50.6422 92.4119 50.8068 93.1172C50.8931 93.5024 51.0618 93.8643 51.3013 94.1782C51.5408 94.492 51.8453 94.7503 52.1941 94.9352L52.2442 94.9603C53.2557 95.4616 54.3577 95.7546 55.4846 95.8217V97.0487C56.3811 98.2658 56.6316 100.595 54.2726 99.8985C51.9136 99.2024 50.3811 97.6347 50.3811 96.0972C50.3811 95.4461 50.351 94.5946 50.331 93.8634C50.331 92.8617 50.2909 92.0153 50.2909 92.0153C50.0714 92.2695 49.7635 92.4307 49.4295 92.4661C49.279 92.4857 49.1261 92.4772 48.9787 92.441C48.7629 92.3712 48.5632 92.259 48.3912 92.1111C48.2192 91.9632 48.0784 91.7825 47.977 91.5796C47.7776 91.1701 47.6683 90.7227 47.6565 90.2674C47.6131 89.8654 47.6645 89.4589 47.8068 89.0804Z" fill="black"/>
<path d="M48.5731 84.8232C49.044 84.2696 49.705 83.9123 50.4262 83.8215L60.1074 84.723C61.2243 87.092 60.3328 88.6546 60.3328 88.6546C60.483 92.2607 60.6082 94.5545 59.0206 95.3158C57.9 95.767 56.6865 95.9389 55.4846 95.8166C54.3577 95.7495 53.2557 95.4566 52.2442 94.9552L52.1941 94.9251C51.8442 94.7405 51.5387 94.4817 51.2991 94.1668C51.0595 93.852 50.8915 93.4886 50.8068 93.1021C50.6422 92.4002 50.5301 91.687 50.4712 90.9685C50.4562 90.5601 50.411 90.1533 50.336 89.7515C50.2613 89.3486 50.0737 88.9751 49.7951 88.6747C49.6538 88.5256 49.4781 88.4134 49.2834 88.3479C49.0887 88.2824 48.8809 88.2656 48.6782 88.299C48.6089 88.3166 48.5417 88.3418 48.4779 88.3742C48.2024 86.7765 48.1223 85.3892 48.5731 84.8232Z" fill="#263238"/>
<path d="M52.119 85.0987C52.286 85.7721 52.2405 86.4806 51.9888 87.1271C51.7384 87.7695 51.5342 88.429 51.3778 89.1004C51.2461 89.7793 51.3393 90.4826 51.6432 91.1038C51.7944 91.4096 52.0109 91.6785 52.2775 91.8914C52.5441 92.1043 52.8541 92.256 53.1858 92.3358C54.2225 92.5562 55.2392 91.9502 56.286 91.7499C57.2847 91.5687 58.3152 91.7461 59.1959 92.2507C59.2702 92.2961 59.3551 92.3213 59.4422 92.3238C59.5292 92.3264 59.6155 92.3062 59.6923 92.2652C59.7692 92.2242 59.8341 92.1639 59.8805 92.0902C59.9269 92.0166 59.9534 91.932 59.9572 91.845C60.0824 89.7715 60.0824 86.5161 59.7718 84.9885L52.119 85.0987Z" fill="#FFA8A7"/>
<path opacity="0.3" d="M52.119 85.0987C52.286 85.7721 52.2405 86.4806 51.9888 87.1271C51.7384 87.7695 51.5342 88.429 51.3778 89.1004C51.2461 89.7793 51.3393 90.4826 51.6432 91.1038C51.7944 91.4096 52.0109 91.6785 52.2775 91.8914C52.5441 92.1043 52.8541 92.256 53.1858 92.3358C54.2225 92.5562 55.2392 91.9502 56.286 91.7499C57.2847 91.5687 58.3152 91.7461 59.1959 92.2507C59.2702 92.2961 59.3551 92.3213 59.4422 92.3238C59.5292 92.3264 59.6155 92.3062 59.6923 92.2652C59.7692 92.2242 59.8341 92.1639 59.8805 92.0902C59.9269 92.0166 59.9534 91.932 59.9572 91.845C60.0824 89.7715 60.0824 86.5161 59.7718 84.9885L52.119 85.0987Z" fill="black"/>
<path d="M59.6116 83.2206L60.8136 82.3842C60.938 82.7864 60.961 83.2132 60.8806 83.6265C60.8002 84.0398 60.6189 84.4268 60.3528 84.7531C59.8022 85.3921 59.0555 85.8306 58.2293 86.0002C57.4061 86.1725 56.5606 86.2114 55.7251 86.1154C54.5062 86.0147 53.3001 85.7949 52.124 85.4593C51.5924 85.3485 51.1028 85.0898 50.7117 84.7131C50.4662 84.4016 50.3266 84.0199 50.3131 83.6235C50.2996 83.2272 50.4129 82.8369 50.6365 82.5094C50.8695 82.1861 51.1686 81.9161 51.5141 81.7175C51.8595 81.5189 52.2433 81.3961 52.6399 81.3575C53.4429 81.2959 54.2507 81.3601 55.0339 81.5478C55.8187 81.7364 56.6293 81.7939 57.4329 81.7181C57.8333 81.6759 58.2176 81.5378 58.5533 81.3154C58.889 81.0931 59.1661 80.7931 59.3612 80.4409C60.0373 81.5378 59.6116 83.2206 59.6116 83.2206Z" fill="#263238"/>
<path d="M56.5715 88.7849L58.3395 90.9235L56.7168 91.4945L56.5715 88.7849Z" fill="#F28F8F"/>
<path opacity="0.3" d="M56.5715 88.7849L58.3395 90.9235L56.7168 91.4945L56.5715 88.7849Z" fill="black"/>
<path d="M55.2342 92.5562L56.6015 92.9719C56.5152 93.1335 56.3785 93.2625 56.2122 93.3393C56.0459 93.4162 55.859 93.4366 55.68 93.3976C55.5211 93.3289 55.3904 93.2081 55.3093 93.0552C55.2283 92.9022 55.2018 92.7262 55.2342 92.5562Z" fill="#F28F8F"/>
<path opacity="0.3" d="M55.2342 92.5562L56.6015 92.9719C56.5152 93.1335 56.3785 93.2625 56.2122 93.3393C56.0459 93.4162 55.859 93.4366 55.68 93.3976C55.5211 93.3289 55.3904 93.2081 55.3093 93.0552C55.2283 92.9022 55.2018 92.7262 55.2342 92.5562Z" fill="black"/>
<path d="M56.1257 93.3676C55.9841 93.4246 55.828 93.4351 55.68 93.3977C55.5542 93.3496 55.4453 93.2655 55.3669 93.156C55.2885 93.0464 55.2441 92.9162 55.2393 92.7816C55.4121 92.7601 55.5872 92.7934 55.7401 92.8768C55.8341 92.9284 55.9167 92.9985 55.983 93.0828C56.0493 93.1672 56.0978 93.2641 56.1257 93.3676Z" fill="#F28F8F"/>
<path d="M54.1725 89.2307C54.1729 89.3315 54.2038 89.43 54.2611 89.513C54.3184 89.5961 54.3994 89.6599 54.4936 89.6961C54.5877 89.7323 54.6906 89.7392 54.7888 89.716C54.887 89.6927 54.9758 89.6403 55.0438 89.5657C55.1117 89.4911 55.1554 89.3977 55.1694 89.2978C55.1833 89.1978 55.1667 89.096 55.1218 89.0057C55.0769 88.9153 55.0058 88.8407 54.9177 88.7914C54.8296 88.7422 54.7287 88.7207 54.6283 88.7298C54.5034 88.7411 54.3873 88.7988 54.3029 88.8915C54.2185 88.9843 54.172 89.1053 54.1725 89.2307Z" fill="#263238"/>
<path d="M58.2293 88.875C58.2134 88.9501 58.215 89.0278 58.2339 89.1022C58.2528 89.1766 58.2886 89.2457 58.3385 89.304C58.3883 89.3624 58.4509 89.4085 58.5214 89.4388C58.592 89.4691 58.6685 89.4828 58.7452 89.4789C58.8218 89.4749 58.8966 89.4534 58.9636 89.4159C59.0306 89.3785 59.0881 89.3261 59.1316 89.2629C59.1752 89.1997 59.2037 89.1273 59.2148 89.0514C59.2259 88.9754 59.2195 88.898 59.1959 88.8249C59.2118 88.7498 59.2102 88.6721 59.1913 88.5977C59.1724 88.5233 59.1366 88.4542 59.0867 88.3959C59.0369 88.3375 58.9742 88.2914 58.9037 88.2611C58.8332 88.2307 58.7567 88.217 58.68 88.221C58.6033 88.225 58.5286 88.2465 58.4616 88.284C58.3946 88.3214 58.3371 88.3738 58.2935 88.437C58.25 88.5002 58.2215 88.5725 58.2104 88.6485C58.1992 88.7244 58.2057 88.8019 58.2293 88.875Z" fill="#263238"/>
<path d="M58.5949 86.9217L59.7068 87.6079C59.7482 87.4729 59.7463 87.3284 59.7014 87.1946C59.6564 87.0607 59.5708 86.9443 59.4564 86.8616C59.3215 86.7901 59.1693 86.7578 59.017 86.7685C58.8648 86.7791 58.7185 86.8322 58.5949 86.9217Z" fill="#263238"/>
<path d="M54.4479 87.087L53.4112 87.8883C53.3573 87.7578 53.3448 87.6138 53.3753 87.476C53.4057 87.3381 53.4777 87.2128 53.5814 87.117C53.7089 87.0323 53.8574 86.9846 54.0104 86.9793C54.1634 86.974 54.3149 87.0112 54.4479 87.087Z" fill="#263238"/>
<path opacity="0.2" d="M51.5932 94.8951C51.3219 94.5482 51.1288 94.1467 51.0272 93.7181C51.2772 94.2374 51.6859 94.6637 52.1942 94.9352L52.2443 94.9602C53.2558 95.4616 54.3577 95.7545 55.4847 95.8217V96.648C54.833 96.5931 54.1905 96.4585 53.5715 96.2474C52.7974 95.9928 52.1114 95.5239 51.5932 94.8951Z" fill="black"/>
<path d="M130.721 20.3051C131.172 20.0446 131.537 20.255 131.537 20.7709L131.567 31.9446C131.553 32.2267 131.472 32.5014 131.331 32.746C131.19 32.9907 130.993 33.1984 130.756 33.3519L104.317 48.6175L104.276 35.5957L130.721 20.3051Z" fill="#450E8B"/>
<g opacity="0.3">
<path d="M130.721 20.3051C131.172 20.0446 131.537 20.255 131.537 20.7709L131.567 31.9446C131.553 32.2267 131.472 32.5014 131.331 32.746C131.19 32.9907 130.993 33.1984 130.756 33.3519L104.317 48.6175L104.276 35.5957L130.721 20.3051Z" fill="white"/>
</g>
<path d="M129.754 29.5605V30.4571L110.277 41.7059V40.8044L129.754 29.5605Z" fill="white"/>
<path d="M118.2 38.145L118.205 39.0465L110.282 43.6192V42.7227L118.2 38.145Z" fill="white"/>
<path d="M129.744 27.6473L129.749 28.5488L110.271 39.7927L110.266 38.8962L129.744 27.6473Z" fill="white"/>
<path d="M129.739 25.7341L129.744 26.6306L110.266 37.8795V36.978L129.739 25.7341Z" fill="white"/>
<path d="M124.53 25.9244L124.535 27.7225L110.261 35.9613L110.256 34.1683L124.53 25.9244Z" fill="white"/>
<path d="M96.4935 32.3653C99.5886 30.5773 102.689 30.1466 105.063 31.4989C109.43 34.0031 109.841 41.731 106.014 49.474L96.5936 68.561L87.0777 60.3973C83.2212 57.0867 83.5718 48.878 87.9291 41.3654C90.3031 37.2986 93.3983 34.1383 96.4935 32.3653Z" fill="#450E8B"/>
<path d="M103.803 50.4216C107.828 43.4955 107.839 35.9915 103.828 33.6609C99.8175 31.3304 93.3036 35.0558 89.279 41.9819C85.2544 48.908 85.2431 56.412 89.2538 58.7425C93.2645 61.0731 99.7785 57.3477 103.803 50.4216Z" fill="#455A64"/>
<path d="M96.5786 58.0283C99.203 56.5257 101.587 54.0215 103.4 51.0866C102.14 50.4666 100.72 50.2498 99.3332 50.4656L97.9659 50.6659L93.5736 51.4973L90.273 53.4556C88.9572 54.2349 87.9399 55.432 87.3832 56.8563C89.1111 59.7161 92.5769 60.3371 96.5786 58.0283Z" fill="#450E8B"/>
<path opacity="0.2" d="M96.5786 58.0283C99.203 56.5257 101.587 54.0215 103.4 51.0866C102.14 50.4666 100.72 50.2498 99.3332 50.4656L97.9659 50.6659L93.5736 51.4973L90.273 53.4556C88.9572 54.2349 87.9399 55.432 87.3832 56.8563C89.1111 59.7161 92.5769 60.3371 96.5786 58.0283Z" fill="white"/>
<path d="M88.8807 42.7226C88.8807 42.978 88.9208 43.2234 88.9358 43.4939C89.001 44.1724 88.9138 44.8568 88.6804 45.4972C88.3749 46.2335 87.7689 46.8295 87.5735 47.6008C87.4837 47.9566 87.4883 48.3298 87.5869 48.6833C87.6855 49.0368 87.8747 49.3585 88.1357 49.6165C88.3968 49.8745 88.7206 50.0599 89.0753 50.1543C89.4299 50.2488 89.8031 50.249 90.1579 50.1551C90.0105 49.6187 89.9446 49.0632 89.9625 48.5073C90.0276 49.2535 90.7689 49.8345 91.4651 50.0849C92.1868 50.2928 92.9419 50.3591 93.6888 50.2803L96.3232 50.1801L99.3933 50.0599C99.9407 50.0712 100.485 49.9759 100.996 49.7794C101.421 49.5487 101.777 49.2092 102.028 48.7956C102.279 48.382 102.415 47.9091 102.423 47.4255C102.408 46.3963 102.169 45.3829 101.722 44.4555C102.38 43.7921 102.789 42.9224 102.88 41.9928C102.971 41.0631 102.739 40.1305 102.223 39.3519C102.5 39.2429 102.733 39.047 102.889 38.7937C103.044 38.5405 103.114 38.2435 103.086 37.9476C103.058 37.6516 102.935 37.3727 102.735 37.1527C102.535 36.9326 102.27 36.7834 101.978 36.7275C101.476 36.6984 100.974 36.7699 100.5 36.9379C99.659 37.0906 98.7971 37.0906 97.9559 36.9379C97.1095 36.8177 96.2731 36.6324 95.4517 36.5723C94.7627 36.5082 94.0678 36.5744 93.4033 36.7676C91.5887 38.4995 90.062 40.5097 88.8807 42.7226Z" fill="#263238"/>
<path d="M97.9659 48.7278V51.5275C97.9659 51.5275 100.255 52.9899 99.2931 53.7662C97.475 55.2287 93.5735 51.5124 93.5735 51.5124V46.8496L97.9659 48.7278Z" fill="#FFA8A7"/>
<path opacity="0.3" d="M93.5836 46.8496C94.2597 48.853 96.7138 50.3805 97.9759 50.681V48.7278L93.5836 46.8496Z" fill="black"/>
<path d="M94.1095 43.6542C94.1686 44.0031 94.1854 44.3579 94.1595 44.7109C94.1221 44.9781 93.9991 45.2258 93.8089 45.4171C93.7157 45.5062 93.6025 45.5717 93.4788 45.6083C93.3551 45.6449 93.2245 45.6515 93.0978 45.6275C93.1593 45.283 93.0873 44.928 92.8965 44.6346C92.7058 44.3412 92.4105 44.1314 92.0706 44.0479C91.7308 43.9644 91.3719 44.0133 91.0668 44.1849C90.7618 44.3564 90.5335 44.6376 90.4283 44.9714C90.3684 45.2165 90.3629 45.4718 90.4122 45.7192C90.4616 45.9667 90.5645 46.2003 90.7138 46.4038C91.0163 46.8096 91.4112 47.1376 91.8657 47.3604C92.1237 47.4469 92.4039 47.4402 92.6574 47.3414C92.9109 47.2425 93.1217 47.0578 93.253 46.8195C94.5903 48.5123 96.9242 49.7894 99.1128 49.6041C99.7118 49.5722 100.289 49.3688 100.776 49.0182C101.602 48.3771 101.662 47.4105 101.777 46.4589C101.932 45.2512 101.923 44.0282 101.752 42.8228C101.528 41.1376 100.714 39.5865 99.4534 38.4454C98.6921 42.0715 95.3766 43.3987 94.1095 43.6542Z" fill="#FFA8A7"/>
<path d="M98.662 43.2535L100.16 45.1016L98.7672 45.5774L98.662 43.2535Z" fill="#F28F8F"/>
<path d="M97.4901 46.4789L98.6571 46.8495C98.5821 46.9869 98.4639 47.0956 98.3209 47.159C98.1778 47.2224 98.0178 47.2368 97.8657 47.2001C97.7294 47.1419 97.6174 47.0382 97.5489 46.9067C97.4804 46.7752 97.4597 46.624 97.4901 46.4789Z" fill="#F28F8F"/>
<path opacity="0.3" d="M97.4901 46.4789L98.6571 46.8495C98.5821 46.9869 98.4639 47.0956 98.3209 47.159C98.1778 47.2224 98.0178 47.2368 97.8657 47.2001C97.7294 47.1419 97.6174 47.0382 97.5489 46.9067C97.4804 46.7752 97.4597 46.624 97.4901 46.4789Z" fill="black"/>
<path d="M98.2464 47.1851C98.1222 47.2224 97.9899 47.2224 97.8657 47.1851C97.7615 47.1467 97.6706 47.079 97.6039 46.9901C97.5373 46.9013 97.4978 46.795 97.4901 46.6842C97.6457 46.6592 97.8051 46.6893 97.9409 46.7694C98.0169 46.8149 98.083 46.8751 98.1355 46.9464C98.188 47.0178 98.2257 47.0989 98.2464 47.1851Z" fill="#F28F8F"/>
<path d="M96.6036 43.6542C96.6055 43.7086 96.6183 43.762 96.641 43.8115C96.6638 43.8609 96.6961 43.9053 96.7362 43.9421C96.7763 43.9789 96.8233 44.0074 96.8745 44.0259C96.9256 44.0444 96.98 44.0525 97.0343 44.0499C97.1167 44.0468 97.1963 44.0193 97.2629 43.9709C97.3296 43.9225 97.3805 43.8554 97.4089 43.7781C97.4374 43.7008 97.4423 43.6167 97.4229 43.5367C97.4035 43.4566 97.3607 43.3841 97.3001 43.3283C97.2394 43.2726 97.1635 43.2361 97.0821 43.2236C97.0006 43.2111 96.9173 43.223 96.8427 43.2579C96.768 43.2929 96.7055 43.3492 96.6629 43.4197C96.6203 43.4903 96.5997 43.5719 96.6036 43.6542Z" fill="#263238"/>
<path d="M100.079 43.3487C100.084 43.4307 100.112 43.5098 100.161 43.5758C100.21 43.6418 100.277 43.6918 100.354 43.7195C100.432 43.7472 100.516 43.7514 100.595 43.7315C100.675 43.7116 100.747 43.6685 100.802 43.6076C100.858 43.5468 100.894 43.4709 100.906 43.3897C100.918 43.3084 100.906 43.2253 100.871 43.151C100.836 43.0767 100.779 43.0144 100.709 42.972C100.639 42.9296 100.557 42.9091 100.475 42.9129C100.365 42.9194 100.262 42.9686 100.188 43.0501C100.114 43.1315 100.075 43.2387 100.079 43.3487Z" fill="#263238"/>
<path d="M100.41 41.6759L101.362 42.2719C101.396 42.1556 101.394 42.0316 101.356 41.9163C101.319 41.801 101.247 41.6998 101.151 41.6259C101.035 41.5651 100.904 41.5376 100.774 41.5464C100.643 41.5553 100.517 41.6001 100.41 41.6759Z" fill="#263238"/>
<path d="M96.854 41.7861L95.9625 42.4622C95.9179 42.3506 95.9083 42.2279 95.9351 42.1107C95.962 41.9935 96.024 41.8872 96.1128 41.8061C96.2219 41.7333 96.3494 41.6928 96.4805 41.6892C96.6117 41.6857 96.7412 41.7193 96.854 41.7861Z" fill="#263238"/>
<path d="M141.574 122.031C136.445 125.592 130.666 128.041 126.379 132.834C118.365 141.759 118.19 156.118 124.475 166.325C130.761 176.532 142.455 182.662 154.36 184.065C166.851 185.537 179.958 182.061 189.755 174.203C199.551 166.345 205.782 154.004 205.782 141.423C205.782 128.842 199.331 116.326 188.798 109.455C179.187 103.184 165.379 101.396 155.743 108.568C150.87 112.194 147.619 117.548 142.756 121.184C142.365 121.475 141.97 121.755 141.574 122.031Z" fill="#450E8B"/>
<path opacity="0.3" d="M141.574 122.031C136.445 125.592 130.666 128.041 126.379 132.834C118.365 141.759 118.19 156.118 124.475 166.325C130.761 176.532 142.455 182.662 154.36 184.065C166.851 185.537 179.958 182.061 189.755 174.203C199.551 166.345 205.782 154.004 205.782 141.423C205.782 128.842 199.331 116.326 188.798 109.455C179.187 103.184 165.379 101.396 155.743 108.568C150.87 112.194 147.619 117.548 142.756 121.184C142.365 121.475 141.97 121.755 141.574 122.031Z" fill="black"/>
<path opacity="0.1" d="M143.668 174.313C143.668 174.228 143.668 174.143 143.703 174.058C144.129 171.277 145.413 168.698 147.374 166.68C149.336 164.663 151.878 163.308 154.646 162.804C159.601 161.857 164.349 160.04 168.669 157.435C171.73 155.582 174.624 153.313 178.065 152.306C181.408 151.347 184.978 151.556 188.187 152.897C185.302 149.862 180.349 148.53 176.392 149.892C179.132 145.7 181.541 141.183 182.483 136.264C183.424 131.346 182.758 125.952 179.793 121.915C178.528 120.196 176.898 118.778 175.019 117.763C173.141 116.749 171.06 116.164 168.929 116.05C166.797 115.936 164.666 116.296 162.69 117.104C160.714 117.912 158.942 119.148 157.501 120.723C154.566 123.939 152.908 128.456 150.99 132.363C149.602 135.163 148.17 138.032 145.886 140.166C142.44 143.391 137.487 144.553 133.911 147.638C129.864 151.144 128.116 156.724 128.096 162.073C128.163 165.682 128.69 169.269 129.664 172.746C133.853 176.742 138.848 179.797 144.314 181.706C143.517 179.327 143.295 176.794 143.668 174.313Z" fill="black"/>
<path d="M199.08 139.7C198.921 131.015 195.687 122.669 189.954 116.143C184.221 109.618 176.36 105.336 167.768 104.06C166.575 104.178 165.392 104.377 164.227 104.656C173.26 105.137 181.776 109.02 188.063 115.524C194.349 122.028 197.94 130.671 198.114 139.715C198.339 151.42 192.605 163.35 182.793 171.629C175.1 178.14 164.878 182.417 153.639 183.969L154.36 184.06C155.362 184.18 156.364 184.265 157.401 184.32C167.382 182.382 176.432 178.265 183.419 172.37C193.461 163.906 199.316 151.695 199.08 139.7Z" fill="white"/>
<path d="M129.914 172.125C130.267 173.977 130.468 175.854 130.515 177.739L131.848 177.238C132.477 177.005 133.16 176.96 133.814 177.11C134.468 177.259 135.064 177.596 135.529 178.079L135.594 178.15C135.832 178.398 136.157 178.546 136.501 178.561C136.845 178.577 137.182 178.46 137.442 178.235C137.582 178.113 137.695 177.964 137.774 177.797C137.853 177.63 137.897 177.448 137.903 177.263L138.083 171.599L129.914 172.125Z" fill="#916160"/>
<path d="M135.053 193.195C132.288 196.15 127.2 198.734 123.504 196.2L123.919 197.137C127.616 199.641 132.704 197.076 135.469 194.132C138.233 191.187 136.44 189.123 138.925 186.504C139.863 185.605 140.597 184.515 141.078 183.308C140.968 183.028 140.863 182.657 140.733 182.237C140.194 183.467 139.443 184.592 138.514 185.562C136.03 188.192 137.818 190.24 135.053 193.195Z" fill="white"/>
<path d="M139.37 179.151C138.945 178.551 138.648 177.869 138.499 177.148C138.474 176.979 138.413 176.818 138.318 176.676C138.224 176.534 138.099 176.415 137.953 176.327L137.923 177.273C137.914 177.537 137.828 177.792 137.675 178.007C137.522 178.223 137.309 178.388 137.062 178.482C136.816 178.577 136.547 178.597 136.29 178.539C136.032 178.482 135.797 178.35 135.614 178.16L135.549 178.09C135.082 177.602 134.483 177.263 133.825 177.113C133.167 176.964 132.479 177.011 131.848 177.248L130.495 177.749C130.292 177.824 130.118 177.962 129.996 178.141C129.875 178.321 129.813 178.534 129.819 178.751C129.904 182.627 128.096 187.766 126.198 190.601C124.245 191.412 122.557 194.071 123.419 196.025L123.504 196.22C127.2 198.724 132.288 196.155 135.053 193.215C137.818 190.275 136.025 188.207 138.514 185.587C139.443 184.617 140.194 183.492 140.733 182.262C140.425 181.167 139.967 180.12 139.37 179.151Z" fill="#450E8B"/>
<path d="M133.961 184.751C134.071 184.795 134.194 184.797 134.305 184.756C134.416 184.715 134.508 184.634 134.563 184.529C134.617 184.423 134.63 184.302 134.6 184.187C134.569 184.072 134.497 183.973 134.397 183.909C133.587 183.452 132.673 183.212 131.742 183.212C130.812 183.212 129.898 183.452 129.088 183.909C129.003 184.215 128.918 184.52 128.823 184.821C129.599 184.365 130.482 184.118 131.383 184.106C132.284 184.093 133.172 184.316 133.961 184.751Z" fill="white"/>
<path d="M134.642 182.652C134.753 182.71 134.883 182.721 135.002 182.684C135.121 182.646 135.221 182.563 135.278 182.452C135.336 182.341 135.348 182.212 135.31 182.092C135.272 181.973 135.189 181.874 135.078 181.816C134.232 181.354 133.282 181.116 132.318 181.124C131.354 181.132 130.408 181.386 129.569 181.861C129.514 182.176 129.449 182.492 129.379 182.808C130.976 181.961 132.599 181.621 134.642 182.652Z" fill="white"/>
<path d="M133.215 186.834C133.326 186.892 133.455 186.903 133.575 186.866C133.694 186.828 133.793 186.745 133.851 186.634C133.909 186.523 133.92 186.394 133.883 186.274C133.845 186.155 133.762 186.056 133.651 185.998C132.859 185.55 131.968 185.311 131.058 185.301C130.149 185.292 129.253 185.512 128.452 185.943C128.337 186.273 128.212 186.594 128.086 186.909C128.862 186.454 129.742 186.208 130.641 186.195C131.54 186.182 132.427 186.402 133.215 186.834Z" fill="white"/>
<path d="M126.198 190.596C124.245 191.407 122.557 194.066 123.419 196.02L123.504 196.215C127.15 198.719 132.138 196.215 134.928 193.325C132.599 188.762 127.736 189.899 126.198 190.596Z" fill="white"/>
<path d="M132.399 188.898C132.51 188.951 132.639 188.959 132.756 188.919C132.873 188.878 132.97 188.793 133.025 188.682C133.081 188.573 133.092 188.446 133.056 188.329C133.019 188.212 132.938 188.114 132.829 188.056C132.037 187.609 131.143 187.371 130.233 187.363C129.323 187.355 128.426 187.578 127.626 188.011C127.46 188.372 127.29 188.717 127.125 189.053C128.727 188.177 130.355 187.836 132.399 188.898Z" fill="white"/>
<path d="M124.105 183.388C123.679 185.225 123.105 187.024 122.387 188.767L123.809 188.843C124.483 188.88 125.131 189.114 125.672 189.517C126.213 189.919 126.625 190.472 126.854 191.106L126.889 191.197C127.006 191.522 127.243 191.789 127.552 191.943C127.861 192.097 128.218 192.126 128.547 192.023C128.723 191.968 128.886 191.877 129.026 191.757C129.166 191.636 129.279 191.488 129.359 191.322L131.808 186.208L124.105 183.388Z" fill="#916160"/>
<path d="M120.303 204.749C116.582 206.337 110.883 206.647 108.519 202.846V203.878C110.883 207.674 116.582 207.384 120.303 205.776C124.025 204.168 123.213 201.589 126.544 200.192C127.766 199.75 128.878 199.05 129.804 198.138C129.804 197.838 129.869 197.457 129.919 197.016C128.93 197.926 127.787 198.653 126.544 199.165C123.213 200.562 124.01 203.157 120.303 204.749Z" fill="white"/>
<path d="M129.919 193.641C129.767 192.917 129.767 192.17 129.919 191.447C129.963 191.282 129.971 191.11 129.942 190.942C129.912 190.775 129.847 190.615 129.749 190.475L129.339 191.332C129.225 191.571 129.043 191.771 128.816 191.907C128.589 192.043 128.327 192.109 128.062 192.095C127.798 192.082 127.543 191.99 127.331 191.832C127.118 191.674 126.958 191.456 126.869 191.207L126.834 191.116C126.605 190.482 126.193 189.929 125.652 189.527C125.111 189.124 124.463 188.89 123.789 188.853L122.347 188.772C122.135 188.765 121.925 188.822 121.746 188.937C121.567 189.051 121.427 189.218 121.345 189.414C119.843 192.995 116.121 196.976 113.242 198.799C111.133 198.749 108.514 200.502 108.514 202.636V202.846C110.878 206.647 116.577 206.352 120.298 204.749C124.02 203.147 123.208 200.562 126.539 199.165C127.782 198.653 128.925 197.926 129.914 197.016C130.073 195.897 130.075 194.761 129.919 193.641Z" fill="#450E8B"/>
<path d="M122.712 196.581C122.796 196.67 122.91 196.725 123.032 196.736C123.153 196.747 123.275 196.713 123.373 196.641C123.469 196.564 123.531 196.453 123.545 196.331C123.559 196.209 123.524 196.086 123.449 195.99C122.892 195.245 122.152 194.656 121.301 194.281C120.45 193.907 119.516 193.758 118.59 193.851C118.39 194.096 118.19 194.352 117.979 194.582C118.874 194.476 119.781 194.604 120.611 194.955C121.44 195.305 122.165 195.865 122.712 196.581Z" fill="white"/>
<path d="M124.18 194.938C124.264 195.027 124.377 195.082 124.499 195.093C124.621 195.104 124.742 195.07 124.841 194.998C124.937 194.921 124.998 194.81 125.012 194.688C125.026 194.566 124.992 194.443 124.916 194.347C124.328 193.58 123.554 192.976 122.667 192.592C121.78 192.208 120.809 192.057 119.848 192.153C119.667 192.424 119.482 192.684 119.287 192.949C121.105 192.819 122.727 193.165 124.18 194.938Z" fill="white"/>
<path d="M121.19 198.183C121.268 198.281 121.382 198.343 121.507 198.357C121.631 198.371 121.756 198.334 121.853 198.256C121.951 198.177 122.014 198.063 122.027 197.939C122.041 197.815 122.004 197.69 121.926 197.592C121.381 196.866 120.661 196.29 119.834 195.915C119.007 195.54 118.099 195.38 117.193 195.449C116.953 195.704 116.692 195.949 116.462 196.185C117.355 196.081 118.261 196.21 119.089 196.561C119.918 196.911 120.642 197.47 121.19 198.183Z" fill="white"/>
<path d="M113.247 198.799C111.138 198.749 108.519 200.502 108.519 202.636V202.846C110.848 206.592 116.412 206.352 120.133 204.814C119.848 199.701 114.939 198.779 113.247 198.799Z" fill="white"/>
<path d="M119.617 199.721C119.701 199.81 119.815 199.865 119.936 199.876C120.058 199.887 120.18 199.853 120.278 199.781C120.374 199.704 120.436 199.593 120.45 199.471C120.464 199.349 120.429 199.226 120.353 199.13C119.809 198.4 119.089 197.82 118.259 197.445C117.429 197.07 116.518 196.912 115.61 196.986C115.315 197.247 115.019 197.487 114.724 197.732C116.542 197.602 118.165 197.948 119.617 199.721Z" fill="white"/>
<path d="M145.966 134.987L127.34 145.365C125.651 146.306 124.301 147.753 123.478 149.502C122.656 151.252 122.404 153.215 122.757 155.116L126.373 174.589L123.409 184.009C125.963 187.44 131.838 187.611 131.838 187.611C135.113 181.04 137.517 178.25 139.38 172.746C141.243 167.241 142.48 163.44 142.48 163.44L157.951 159.213C161.489 158.251 164.657 156.251 167.047 153.471C169.437 150.691 170.939 147.259 171.359 143.617C171.619 141.273 171.634 139.675 171.634 139.675L145.966 134.987Z" fill="#37474F"/>
<path opacity="0.2" d="M146.112 140.221C146.113 142.299 146.852 144.31 148.195 145.896L135.028 154.124C133.105 155.335 131.682 157.199 131.021 159.373L126.368 174.589L130.566 157.64C131.046 155.692 132.273 154.01 133.981 152.957L146.117 145.445C144.885 142.35 146.112 140.221 146.112 140.221Z" fill="black"/>
<path d="M141.865 125.582C140.537 128.086 131.086 126.964 131.482 122.867C133.966 117.683 141.789 121.029 141.865 125.582Z" fill="#450E8B"/>
<path d="M147.985 102.979H147.484C144.269 103.014 140.197 105.202 138.203 110.822L130.521 125.792L139.345 129.708L144.173 115.575L147.985 102.979Z" fill="#916160"/>
<path d="M141.789 112.915C141.173 114.683 141.133 116.591 141.038 118.46C140.943 120.328 140.723 122.592 139.866 124.254C138.923 123.602 137.794 123.272 136.648 123.313C135.501 123.355 134.399 123.766 133.505 124.485C132.867 125.021 132.374 125.71 132.073 126.488L139.32 129.703L144.148 115.57L146.547 107.787C145.453 108.281 144.468 108.99 143.651 109.871C142.833 110.751 142.201 111.787 141.789 112.915Z" fill="#7A4C4A"/>
<path d="M139.4 127.009C139.064 126.173 138.519 125.438 137.818 124.874C137.116 124.309 136.282 123.934 135.394 123.784C133.626 123.498 131.622 124.42 130.48 125.787C129.519 126.954 129.669 128.526 130.275 129.909C130.784 130.982 131.648 131.847 132.722 132.355C133.795 132.864 135.012 132.985 136.165 132.698C138.459 132.072 140.262 129.218 139.4 127.009Z" fill="#916160"/>
<path d="M147.985 102.979C144.138 102.553 139.24 103.48 131.482 122.867C136.055 118.329 141.864 125.582 141.864 125.582C145.185 117.778 151.055 104.722 151.055 104.722L147.985 102.979Z" fill="#450E8B"/>
<path opacity="0.2" d="M147.985 102.979C144.138 102.553 139.24 103.48 131.482 122.867C136.055 118.329 141.864 125.582 141.864 125.582C145.185 117.778 151.055 104.722 151.055 104.722L147.985 102.979Z" fill="white"/>
<path d="M173.543 148.29C166.08 154.49 150.835 139.485 142.656 136.81C145.16 131.096 145.16 125.882 144.659 120.117C144.158 114.353 140.773 104.266 147.208 103.089C155.803 101.411 160.145 102.954 167.162 104.777C177.229 119.281 174.058 137.466 173.543 148.29Z" fill="#450E8B"/>
<path opacity="0.7" d="M173.543 148.29C166.08 154.49 150.835 139.485 142.656 136.81C145.16 131.096 145.16 125.882 144.659 120.117C144.158 114.353 140.773 104.266 147.208 103.089C155.803 101.411 160.145 102.954 167.162 104.777C177.229 119.281 174.058 137.466 173.543 148.29Z" fill="white"/>
<path d="M150.95 100.174L151.285 103.9C151.302 104.189 151.228 104.476 151.075 104.722C150.867 105.11 150.787 105.554 150.846 105.991C150.904 106.428 151.098 106.835 151.4 107.156C151.881 107.519 152.466 107.717 153.068 107.722C154.204 107.782 155.34 107.601 156.402 107.192C157.463 106.783 158.427 106.155 159.229 105.348C159.394 105.179 159.523 104.98 159.609 104.76C159.695 104.541 159.736 104.306 159.729 104.07L159.484 94.6146L150.95 100.174Z" fill="#916160"/>
<path d="M159.469 94.6146L150.955 100.174L151.25 103.479C153.058 103.054 154.876 102.533 156.304 101.371C158.117 99.8935 159.714 98.426 159.469 94.6146Z" fill="#7A4C4A"/>
<path d="M162.073 88.8901C162.925 87.8896 163.35 86.5945 163.255 85.284C163.104 83.9263 162.448 82.675 161.417 81.7781C161.767 81.1332 161.922 80.4011 161.865 79.6699C161.809 78.9386 161.542 78.2394 161.097 77.6562C160.619 77.1067 159.993 76.7077 159.293 76.5077C158.593 76.3076 157.851 76.3151 157.155 76.5293C156.76 75.9797 156.249 75.5239 155.657 75.1941C155.066 74.8643 154.41 74.6687 153.734 74.6211C152.382 74.531 151.035 74.7714 150.118 75.763C149.582 75.4405 148.98 75.2448 148.356 75.191C147.733 75.1372 147.106 75.2266 146.522 75.4525C145.923 75.717 145.388 76.109 144.956 76.6011C144.523 77.0933 144.203 77.6738 144.018 78.3023C143.351 78.1756 142.663 78.2203 142.018 78.4323C141.374 78.6443 140.793 79.0166 140.332 79.5143C139.425 80.516 139.13 82.4292 139.531 83.7214C139.253 84.1337 139.066 84.5998 138.98 85.0893C138.895 85.5788 138.914 86.0808 139.035 86.5626C139.157 87.0445 139.378 87.4954 139.685 87.886C139.992 88.2766 140.378 88.5983 140.818 88.8299C140.692 89.8361 140.913 90.855 141.443 91.7189C141.974 92.5828 142.783 93.2402 143.738 93.5829C144.052 94.3529 144.549 95.0352 145.185 95.5716C145.821 96.1079 146.577 96.4824 147.389 96.6631C149.065 96.9537 150.788 96.8158 152.397 96.2624C156.324 95.0604 159.374 92.0153 162.073 88.8901Z" fill="#263238"/>
<path d="M153.83 84.2222C153.958 84.8504 154.186 85.4541 154.506 86.0102C154.693 86.3408 154.953 86.6245 155.266 86.8397C155.58 87.0549 155.938 87.196 156.314 87.2522C156.399 87.2651 156.478 87.306 156.538 87.3685C156.598 87.4311 156.635 87.5117 156.644 87.5978L157.065 90.7331C157.063 90.9238 157.103 91.1125 157.183 91.2858C157.262 91.459 157.38 91.6124 157.526 91.7348C157.684 91.8087 157.861 91.833 158.034 91.8044C158.206 91.7758 158.366 91.6956 158.492 91.5745C158.74 91.3365 158.936 91.0501 159.068 90.7331C159.347 90.0546 159.724 89.4202 160.185 88.8499C160.417 88.5655 160.708 88.3343 161.037 88.1719C161.366 88.0094 161.726 87.9196 162.093 87.9083C163.29 87.9384 164.202 89.1304 164.327 90.3224C164.386 90.9372 164.29 91.5569 164.049 92.1254C163.807 92.6938 163.428 93.1931 162.945 93.5778C162.446 93.934 161.866 94.1588 161.258 94.2315C160.649 94.3041 160.032 94.2223 159.464 93.9935C160.005 96.067 158.923 98.2907 157.305 99.6981C155.688 101.105 153.629 101.867 151.616 102.598C150.514 102.999 149.347 103.399 148.2 103.189C147.262 102.977 146.422 102.459 145.811 101.716C145.212 100.975 144.719 100.154 144.344 99.2774C142.511 95.3207 141.473 91.0428 141.289 86.6863C142.906 86.481 152.913 84.5828 153.83 84.2222Z" fill="#916160"/>
<path d="M148.26 92.1155L146.567 96.573L149.522 96.608L148.26 92.1155Z" fill="#F28F8F"/>
<path d="M148.26 92.1155L146.567 96.573L149.522 96.608L148.26 92.1155Z" fill="#7A4C4A"/>
<path d="M152.517 97.5145L150.514 98.9519C150.744 99.1649 151.036 99.2976 151.348 99.3301C151.659 99.3627 151.973 99.2932 152.242 99.1322C152.466 98.9351 152.616 98.6668 152.667 98.3722C152.717 98.0777 152.664 97.7748 152.517 97.5145Z" fill="#F28F8F"/>
<path opacity="0.4" d="M152.517 97.5145L150.514 98.9519C150.744 99.1649 151.036 99.2976 151.348 99.3301C151.659 99.3627 151.973 99.2932 152.242 99.1322C152.466 98.9351 152.616 98.6668 152.667 98.3722C152.717 98.0777 152.664 97.7748 152.517 97.5145Z" fill="black"/>
<path d="M151.521 99.3326C151.782 99.3403 152.04 99.2706 152.262 99.1322C152.441 98.985 152.573 98.7881 152.641 98.5662C152.708 98.3443 152.709 98.1074 152.643 97.8851C152.331 97.9383 152.047 98.0954 151.836 98.3309C151.603 98.61 151.489 98.9701 151.521 99.3326Z" fill="#F28F8F"/>
<path d="M152.422 91.5546C152.466 91.7129 152.461 91.8806 152.409 92.0364C152.357 92.1922 152.261 92.3292 152.131 92.4301C152.001 92.5309 151.845 92.5912 151.681 92.6032C151.517 92.6152 151.354 92.5785 151.211 92.4976C151.068 92.4167 150.952 92.2954 150.878 92.1488C150.804 92.0022 150.775 91.837 150.795 91.674C150.815 91.511 150.882 91.3575 150.989 91.2329C151.096 91.1082 151.237 91.018 151.396 90.9736C151.501 90.9439 151.611 90.9355 151.72 90.9487C151.829 90.9618 151.934 90.9964 152.03 91.0504C152.125 91.1044 152.209 91.1768 152.276 91.2633C152.344 91.3498 152.393 91.4488 152.422 91.5546Z" fill="#263238"/>
<path d="M145.616 93.1872C145.659 93.3456 145.655 93.5132 145.603 93.669C145.551 93.8248 145.454 93.9618 145.325 94.0627C145.195 94.1635 145.038 94.2238 144.875 94.2358C144.711 94.2478 144.547 94.2111 144.404 94.1302C144.261 94.0494 144.146 93.928 144.072 93.7814C143.998 93.6349 143.969 93.4697 143.988 93.3067C144.008 93.1437 144.076 92.9901 144.183 92.8655C144.29 92.7408 144.431 92.6506 144.589 92.6062C144.802 92.5477 145.03 92.576 145.222 92.6849C145.415 92.7937 145.556 92.9743 145.616 93.1872Z" fill="#263238"/>
<path d="M143.938 90.2323L142.505 91.9602C142.366 91.7614 142.291 91.5244 142.291 91.2816C142.291 91.0387 142.366 90.8017 142.505 90.6029C142.686 90.4142 142.916 90.2796 143.169 90.2142C143.422 90.1487 143.688 90.155 143.938 90.2323Z" fill="#263238"/>
<path d="M150.779 88.1839L152.903 88.9151C152.919 88.673 152.86 88.4318 152.735 88.224C152.61 88.0163 152.423 87.8519 152.202 87.7532C151.948 87.6857 151.681 87.6902 151.429 87.7663C151.178 87.8424 150.953 87.987 150.779 88.1839Z" fill="#263238"/>
<path opacity="0.15" d="M148.506 140.742C148.506 140.742 148.506 140.742 148.506 140.712V140.687C148.508 140.677 148.508 140.667 148.506 140.657C148.503 140.647 148.503 140.637 148.506 140.627V140.597V140.567L142.656 129.799L141.864 130.705L147.639 141.463C147.676 141.523 147.701 141.589 147.714 141.658C147.719 141.679 147.719 141.701 147.715 141.721C147.711 141.742 147.702 141.762 147.689 141.779L148.481 140.867C148.485 140.854 148.485 140.84 148.481 140.827C148.483 140.815 148.483 140.804 148.481 140.792C148.493 140.778 148.502 140.761 148.506 140.742Z" fill="black"/>
<path opacity="0.2" d="M142.641 129.749V129.719V129.683L142.616 129.653C142.617 129.642 142.617 129.63 142.616 129.618V129.583L142.586 129.548L142.561 129.513L142.536 129.483L142.511 129.453V129.428V129.403L142.43 129.328H142.4H142.37L142.34 129.303H142.305H142.27L142.23 129.278L135.589 125.542H135.549H135.514H135.474H135.439H135.404H135.369H135.334H135.298H135.263H135.138C135.12 125.541 135.101 125.544 135.084 125.551C135.066 125.558 135.051 125.568 135.038 125.582L134.247 126.488C134.282 126.448 134.347 126.438 134.442 126.453C134.571 126.486 134.694 126.539 134.808 126.608L141.449 130.345C141.579 130.42 141.704 130.504 141.824 130.595C141.952 130.692 142.074 130.795 142.19 130.906C142.302 131.011 142.407 131.123 142.506 131.241C142.587 131.34 142.661 131.446 142.726 131.557L143.517 130.65L142.641 129.749Z" fill="black"/>
<path d="M171.409 107.702C170.468 106.084 169.025 104.947 167.157 104.802L166.04 106.51C164.876 108.638 164.279 111.03 164.307 113.456L164.508 131.401L163.19 131.952C159.486 133.551 155.614 134.727 151.646 135.458C149.576 133.819 147.003 132.947 144.364 132.989L145.365 134.812C143.507 135.999 139.315 133.86 139.315 133.86C139.005 136.475 140.703 139.189 142.946 140.567C145.19 141.944 166.651 139.921 171.199 136.976C174.204 135.037 173.483 116.531 173.483 116.531C173.693 113.447 172.97 110.37 171.409 107.702Z" fill="#916160"/>
<path d="M134.763 128.421C134.622 129.13 134.54 129.848 134.517 130.57C134.687 132.285 135.415 133.897 136.591 135.158C136.833 135.433 137.137 135.647 137.477 135.784C137.649 135.85 137.835 135.87 138.017 135.842C138.199 135.814 138.37 135.738 138.514 135.623C138.766 135.321 138.895 134.935 138.875 134.542C138.928 133.961 138.896 133.375 138.779 132.804C138.657 132.229 138.331 131.717 137.863 131.361C137.497 131.149 137.107 130.981 136.701 130.86C136.302 130.693 135.948 130.436 135.664 130.109L134.763 128.421Z" fill="#916160"/>
<path d="M167.157 104.802C175.311 106.56 174.534 114.819 175.321 119.962C175.821 123.012 176.583 129.714 176.583 129.714C172.14 133.82 164.252 131.116 162.289 128.982C163.03 118.655 161.522 106.555 167.157 104.802Z" fill="#450E8B"/>
<path opacity="0.2" d="M167.157 104.802C175.311 106.56 174.534 114.819 175.321 119.962C175.821 123.012 176.583 129.714 176.583 129.714C172.14 133.82 164.252 131.116 162.289 128.982C163.03 118.655 161.522 106.555 167.157 104.802Z" fill="white"/>
<path d="M148.506 140.742C148.506 140.742 148.506 140.742 148.506 140.712V140.687C148.508 140.677 148.508 140.667 148.506 140.657C148.503 140.647 148.503 140.637 148.506 140.627V140.597V140.567L142.656 129.799V129.769V129.739V129.703L142.631 129.673C142.632 129.662 142.632 129.65 142.631 129.638V129.603L142.601 129.568L142.576 129.533L142.551 129.503L142.526 129.473V129.448V129.423L142.445 129.348H142.415H142.385L142.355 129.323H142.32H142.285L142.245 129.298L135.604 125.562H135.564H135.529H135.489H135.454H135.419H135.384H135.349H135.314H135.278H135.153C135.135 125.561 135.116 125.564 135.099 125.571C135.082 125.578 135.066 125.588 135.053 125.602L134.262 126.508H134.287C134.222 126.558 134.217 126.663 134.312 126.839L140.092 137.597C140.413 138.095 140.849 138.509 141.364 138.804L148.005 142.54C148.35 142.73 148.556 142.735 148.581 142.595C148.581 142.595 148.581 142.645 148.581 142.655L149.372 141.744C149.377 141.731 149.377 141.717 149.372 141.704C149.374 141.692 149.374 141.68 149.372 141.669C149.433 141.612 149.482 141.543 149.516 141.467C149.551 141.392 149.57 141.31 149.573 141.227C149.576 141.143 149.562 141.06 149.533 140.982C149.503 140.904 149.459 140.833 149.402 140.772C149.345 140.711 149.277 140.662 149.201 140.628C149.125 140.593 149.043 140.574 148.96 140.571C148.877 140.569 148.794 140.582 148.716 140.611C148.638 140.641 148.566 140.685 148.506 140.742ZM133.526 125.592C133.526 125.592 133.551 125.592 133.571 125.592C133.556 125.591 133.541 125.591 133.526 125.592ZM141.143 129.879C141.203 129.934 141.268 129.979 141.324 130.034C141.274 129.979 141.208 129.934 141.148 129.879H141.143ZM147.704 141.659C147.701 141.582 147.676 141.507 147.634 141.443C147.671 141.503 147.696 141.569 147.709 141.638C147.709 141.638 147.709 141.649 147.709 141.659H147.704Z" fill="#E0E0E0"/>
<path d="M222.605 155.281L214.326 155.522L206.047 155.281C205.691 160.871 206.778 166.57 208.286 169.355C208.644 170.068 209.217 170.652 209.924 171.023C212.368 172.43 216.314 172.43 218.743 171.023C219.463 170.648 220.039 170.045 220.381 169.31C221.879 166.51 222.96 160.851 222.605 155.281Z" fill="white"/>
<path d="M220.171 151.891C223.416 153.764 223.431 156.799 220.211 158.672C216.99 160.545 211.742 160.545 208.501 158.672C205.261 156.799 205.241 153.764 208.461 151.891C211.681 150.017 216.915 150.017 220.171 151.891Z" fill="#EBEBEB"/>
<path d="M218.879 152.637C221.408 154.094 221.423 156.463 218.909 157.926C216.394 159.388 212.302 159.388 209.773 157.926C207.244 156.463 207.229 154.094 209.743 152.637C212.257 151.179 216.349 151.174 218.879 152.637Z" fill="#E0E0E0"/>
<g opacity="0.15">
<path d="M218.879 152.637C221.408 154.094 221.423 156.463 218.909 157.926C216.394 159.388 212.302 159.388 209.773 157.926C207.244 156.463 207.229 154.094 209.743 152.637C212.257 151.179 216.349 151.174 218.879 152.637Z" fill="black"/>
</g>
<path d="M227.939 119.952C209.277 126.062 209.112 138.543 213.319 147.433C214.376 149.231 217.586 150.198 220.381 139.139L215.483 139.77L221.192 136.875L222.695 132.443L217.937 132.794L223.977 130.254C225.084 126.742 226.408 123.301 227.939 119.952Z" fill="#450E8B"/>
<path opacity="0.2" d="M227.939 119.952C209.277 126.062 209.112 138.543 213.319 147.433C214.376 149.231 217.586 150.198 220.381 139.139L215.483 139.77L221.192 136.875L222.695 132.443L217.937 132.794L223.977 130.254C225.084 126.742 226.408 123.301 227.939 119.952Z" fill="black"/>
<path opacity="0.2" d="M227.939 119.952C209.277 126.062 209.112 138.543 213.319 147.433C214.376 149.231 217.586 150.198 220.381 139.139L215.483 139.77L221.192 136.875L222.695 132.443L217.937 132.794L223.977 130.254C225.084 126.742 226.408 123.301 227.939 119.952Z" fill="white"/>
<path d="M222.675 123.072C212.838 130.54 211.947 139.099 214.727 148.039C213.73 140.171 212.658 132.213 222.675 123.072Z" fill="white"/>
<path d="M196.336 132.628C214.727 135.218 216.96 146.817 214.516 155.792C213.83 157.645 211.01 159.078 206.563 149.246L211.231 149.021L205.431 147.273L203.312 143.386L207.82 142.926L201.77 141.563C200.144 138.476 198.329 135.492 196.336 132.628Z" fill="#450E8B"/>
<path opacity="0.2" d="M196.336 132.628C214.727 135.218 216.96 146.817 214.516 155.792C213.83 157.645 211.01 159.078 206.563 149.246L211.231 149.021L205.431 147.273L203.312 143.386L207.82 142.926L201.77 141.563C200.144 138.476 198.329 135.492 196.336 132.628Z" fill="white"/>
<path opacity="0.1" d="M196.336 132.628C214.727 135.218 216.96 146.817 214.516 155.792C213.83 157.645 211.01 159.078 206.563 149.246L211.231 149.021L205.431 147.273L203.312 143.386L207.82 142.926L201.77 141.563C200.144 138.476 198.329 135.492 196.336 132.628Z" fill="black"/>
<path d="M201.77 134.662C212.157 139.981 214.421 147.829 213.319 156.593C212.929 149.101 212.593 141.513 201.77 134.662Z" fill="white"/>
<path d="M233.323 136.976C216.455 137.251 213.144 147.453 214.341 155.817C214.752 157.565 217.146 159.173 222.244 150.809L218.062 150.083L223.486 149.156L225.83 145.891L221.823 144.974L227.428 144.423C229.238 141.822 231.207 139.335 233.323 136.976Z" fill="#450E8B"/>
<path d="M228.184 138.198C218.212 141.829 215.308 148.63 215.323 156.674C216.525 149.962 217.666 143.161 228.184 138.198Z" fill="white"/>
<path opacity="0.2" d="M233.323 136.976C216.455 137.251 213.144 147.453 214.341 155.817C214.752 157.565 217.146 159.173 222.244 150.809L218.062 150.083L223.486 149.156L225.83 145.891L221.823 144.974L227.428 144.423C229.238 141.822 231.207 139.335 233.323 136.976Z" fill="white"/>
</svg>
