<svg width="22" height="23" viewBox="0 0 22 23" fill="none" xmlns="http://www.w3.org/2000/svg">
<rect y="0.90799" width="22" height="22" rx="10" fill="#34A853"/>
<path d="M16.2266 8.65613C16.4866 8.43865 16.5055 8.06195 16.2663 7.8222L16.2661 7.82196C16.0337 7.59005 15.6467 7.57542 15.3949 7.78627L15.3948 7.78637L8.89708 13.2396L7.04719 11.5809L7.04716 11.5808C6.80241 11.3615 6.41514 11.3655 6.17513 11.5896L6.17494 11.5898C5.92761 11.8215 5.93286 12.1982 6.18458 12.4244L6.18468 12.4245L8.45157 14.4575L8.45169 14.4576C8.57344 14.5666 8.72934 14.6195 8.88283 14.6195C9.03008 14.6195 9.17934 14.5708 9.29907 14.4705L9.29916 14.4704L16.2266 8.65613ZM16.2266 8.65613L16.1304 8.54108M16.2266 8.65613L16.2268 8.65598L16.1304 8.54108M16.1304 8.54108L9.20273 14.3555L8.89382 13.4382L15.4912 7.90127C15.6842 7.73968 15.9834 7.75173 16.1601 7.92813C16.3365 8.10493 16.3235 8.3795 16.1304 8.54108Z" fill="white" stroke="white" stroke-width="0.3"/>
</svg>
