<svg width="154" height="151" viewBox="0 0 154 151" fill="none" xmlns="http://www.w3.org/2000/svg">
<rect x="48.4531" y="53.2164" width="52.9201" height="52.3449" rx="26.1725" fill="url(#paint0_linear_443_4509)"/>
<path d="M67.9319 88.5376L67.9327 88.5383C68.3433 88.935 68.8763 89.1327 69.4055 89.1327C69.9132 89.1327 70.4238 88.9508 70.8279 88.5852L70.8285 88.5847L87.105 73.8388C87.1051 73.8387 87.1053 73.8385 87.1054 73.8384C87.973 73.0545 88.0303 71.7196 87.2391 70.8634L87.2375 70.8617C86.4495 70.0127 85.121 69.9558 84.2624 70.7321L84.2616 70.7328L69.4539 84.1472L65.5525 80.3711L65.5523 80.3709C64.7187 79.5644 63.389 79.581 62.574 80.4023L62.5727 80.4035C61.7512 81.2343 61.768 82.5692 62.6049 83.3807L62.6055 83.3812L67.9319 88.5376Z" fill="white" stroke="white" stroke-width="2"/>
<path d="M8.52 146.22C7.49333 146.22 6.53333 146.033 5.64 145.66C4.76 145.287 3.98667 144.773 3.32 144.12C2.66667 143.453 2.15333 142.68 1.78 141.8C1.40667 140.907 1.22 139.953 1.22 138.94C1.22 137.927 1.4 136.987 1.76 136.12C2.13333 135.24 2.64667 134.473 3.3 133.82C3.96667 133.153 4.74 132.64 5.62 132.28C6.5 131.907 7.45333 131.72 8.48 131.72C9.52 131.72 10.48 131.907 11.36 132.28C12.24 132.64 13.0067 133.153 13.66 133.82C14.3267 134.473 14.8467 135.24 15.22 136.12C15.5933 137 15.78 137.947 15.78 138.96C15.78 139.973 15.5933 140.92 15.22 141.8C14.8467 142.68 14.3267 143.453 13.66 144.12C13.0067 144.773 12.24 145.287 11.36 145.66C10.4933 146.033 9.54667 146.22 8.52 146.22ZM8.48 143.68C9.38667 143.68 10.1733 143.48 10.84 143.08C11.5067 142.68 12.0267 142.127 12.4 141.42C12.7867 140.713 12.98 139.887 12.98 138.94C12.98 138.247 12.8733 137.613 12.66 137.04C12.4467 136.467 12.14 135.973 11.74 135.56C11.34 135.133 10.8667 134.807 10.32 134.58C9.77333 134.353 9.16 134.24 8.48 134.24C7.6 134.24 6.82 134.44 6.14 134.84C5.47333 135.227 4.94667 135.773 4.56 136.48C4.18667 137.187 4 138.007 4 138.94C4 139.647 4.10667 140.293 4.32 140.88C4.54667 141.467 4.85333 141.967 5.24 142.38C5.64 142.793 6.11333 143.113 6.66 143.34C7.22 143.567 7.82667 143.68 8.48 143.68ZM17.6561 146V136.34H20.2761V146H17.6561ZM20.2761 140.66L19.2561 139.98C19.3761 138.793 19.7228 137.86 20.2961 137.18C20.8694 136.487 21.6961 136.14 22.7761 136.14C23.2428 136.14 23.6628 136.22 24.0361 136.38C24.4094 136.527 24.7494 136.773 25.0561 137.12L23.4161 139C23.2694 138.84 23.0894 138.72 22.8761 138.64C22.6761 138.56 22.4428 138.52 22.1761 138.52C21.6161 138.52 21.1561 138.7 20.7961 139.06C20.4494 139.407 20.2761 139.94 20.2761 140.66ZM29.783 146.2C28.8896 146.2 28.0896 145.98 27.383 145.54C26.6763 145.1 26.1163 144.5 25.703 143.74C25.303 142.98 25.103 142.127 25.103 141.18C25.103 140.22 25.303 139.36 25.703 138.6C26.1163 137.84 26.6696 137.24 27.363 136.8C28.0696 136.36 28.8763 136.14 29.783 136.14C30.4763 136.14 31.0963 136.28 31.643 136.56C32.203 136.84 32.6496 137.233 32.983 137.74C33.3296 138.233 33.5163 138.793 33.543 139.42V142.86C33.5163 143.487 33.3363 144.053 33.003 144.56C32.6696 145.067 32.223 145.467 31.663 145.76C31.103 146.053 30.4763 146.2 29.783 146.2ZM30.223 143.78C30.7163 143.78 31.143 143.673 31.503 143.46C31.8763 143.233 32.163 142.927 32.363 142.54C32.5763 142.14 32.683 141.68 32.683 141.16C32.683 140.653 32.5763 140.207 32.363 139.82C32.163 139.42 31.8763 139.113 31.503 138.9C31.143 138.673 30.723 138.56 30.243 138.56C29.7496 138.56 29.3163 138.673 28.943 138.9C28.583 139.127 28.2963 139.433 28.083 139.82C27.883 140.207 27.783 140.653 27.783 141.16C27.783 141.68 27.883 142.14 28.083 142.54C28.2963 142.927 28.5896 143.233 28.963 143.46C29.3363 143.673 29.7563 143.78 30.223 143.78ZM35.143 146H32.543V143.4L32.963 141.04L32.523 138.72V131.54H35.143V146ZM42.0808 146.2C41.0674 146.2 40.1674 145.987 39.3808 145.56C38.5941 145.12 37.9674 144.52 37.5008 143.76C37.0474 143 36.8208 142.133 36.8208 141.16C36.8208 140.2 37.0408 139.347 37.4808 138.6C37.9341 137.84 38.5474 137.24 39.3208 136.8C40.0941 136.347 40.9541 136.12 41.9008 136.12C42.8341 136.12 43.6541 136.333 44.3608 136.76C45.0808 137.173 45.6408 137.747 46.0408 138.48C46.4541 139.2 46.6608 140.02 46.6608 140.94C46.6608 141.113 46.6474 141.293 46.6208 141.48C46.6074 141.653 46.5741 141.853 46.5208 142.08L38.4008 142.1V140.14L45.3008 140.12L44.2408 140.94C44.2141 140.367 44.1074 139.887 43.9208 139.5C43.7474 139.113 43.4874 138.82 43.1408 138.62C42.8074 138.407 42.3941 138.3 41.9008 138.3C41.3808 138.3 40.9274 138.42 40.5408 138.66C40.1541 138.887 39.8541 139.213 39.6408 139.64C39.4408 140.053 39.3408 140.547 39.3408 141.12C39.3408 141.707 39.4474 142.22 39.6608 142.66C39.8874 143.087 40.2074 143.42 40.6208 143.66C41.0341 143.887 41.5141 144 42.0608 144C42.5541 144 43.0008 143.92 43.4008 143.76C43.8008 143.587 44.1474 143.333 44.4408 143L45.9808 144.54C45.5141 145.087 44.9408 145.5 44.2608 145.78C43.5941 146.06 42.8674 146.2 42.0808 146.2ZM48.2811 146V136.34H50.9011V146H48.2811ZM50.9011 140.66L49.8811 139.98C50.0011 138.793 50.3478 137.86 50.9211 137.18C51.4944 136.487 52.3211 136.14 53.4011 136.14C53.8678 136.14 54.2878 136.22 54.6611 136.38C55.0344 136.527 55.3744 136.773 55.6811 137.12L54.0411 139C53.8944 138.84 53.7144 138.72 53.5011 138.64C53.3011 138.56 53.0678 138.52 52.8011 138.52C52.2411 138.52 51.7811 138.7 51.4211 139.06C51.0744 139.407 50.9011 139.94 50.9011 140.66ZM67.6592 146.2C66.6326 146.2 65.6792 146.02 64.7992 145.66C63.9192 145.287 63.1459 144.773 62.4792 144.12C61.8259 143.453 61.3192 142.68 60.9592 141.8C60.6126 140.92 60.4392 139.973 60.4392 138.96C60.4392 137.947 60.6126 137 60.9592 136.12C61.3192 135.24 61.8259 134.473 62.4792 133.82C63.1459 133.167 63.9126 132.653 64.7792 132.28C65.6592 131.907 66.6192 131.72 67.6592 131.72C68.7792 131.72 69.7659 131.907 70.6192 132.28C71.4726 132.64 72.2259 133.14 72.8792 133.78L71.0392 135.62C70.6526 135.193 70.1792 134.86 69.6192 134.62C69.0592 134.38 68.4059 134.26 67.6592 134.26C67.0059 134.26 66.4059 134.373 65.8592 134.6C65.3259 134.813 64.8592 135.133 64.4592 135.56C64.0592 135.973 63.7526 136.473 63.5392 137.06C63.3259 137.633 63.2192 138.267 63.2192 138.96C63.2192 139.667 63.3259 140.307 63.5392 140.88C63.7526 141.453 64.0592 141.953 64.4592 142.38C64.8592 142.793 65.3259 143.113 65.8592 143.34C66.4059 143.567 67.0059 143.68 67.6592 143.68C68.4459 143.68 69.1192 143.56 69.6792 143.32C70.2526 143.08 70.7326 142.74 71.1192 142.3L72.9592 144.14C72.3059 144.793 71.5459 145.3 70.6792 145.66C69.8126 146.02 68.8059 146.2 67.6592 146.2ZM78.8563 146.2C77.8829 146.2 77.0029 145.98 76.2163 145.54C75.4429 145.087 74.8229 144.48 74.3563 143.72C73.9029 142.947 73.6763 142.087 73.6763 141.14C73.6763 140.193 73.9029 139.347 74.3563 138.6C74.8096 137.84 75.4296 137.24 76.2163 136.8C77.0029 136.347 77.8763 136.12 78.8363 136.12C79.8229 136.12 80.7029 136.347 81.4763 136.8C82.2629 137.24 82.8829 137.84 83.3363 138.6C83.7896 139.347 84.0163 140.193 84.0163 141.14C84.0163 142.087 83.7896 142.947 83.3363 143.72C82.8829 144.48 82.2629 145.087 81.4763 145.54C80.7029 145.98 79.8296 146.2 78.8563 146.2ZM78.8363 143.76C79.3296 143.76 79.7629 143.653 80.1363 143.44C80.5229 143.213 80.8163 142.907 81.0163 142.52C81.2296 142.12 81.3363 141.667 81.3363 141.16C81.3363 140.653 81.2296 140.207 81.0163 139.82C80.8029 139.433 80.5096 139.133 80.1363 138.92C79.7629 138.693 79.3296 138.58 78.8363 138.58C78.3563 138.58 77.9296 138.693 77.5563 138.92C77.1829 139.133 76.8896 139.433 76.6763 139.82C76.4629 140.207 76.3563 140.653 76.3563 141.16C76.3563 141.667 76.4629 142.12 76.6763 142.52C76.8896 142.907 77.1829 143.213 77.5563 143.44C77.9296 143.653 78.3563 143.76 78.8363 143.76ZM85.703 146V136.34H88.323V146H85.703ZM92.003 146V140.3C92.003 139.74 91.823 139.307 91.463 139C91.1163 138.68 90.683 138.52 90.163 138.52C89.8163 138.52 89.503 138.593 89.223 138.74C88.943 138.873 88.723 139.073 88.563 139.34C88.403 139.607 88.323 139.927 88.323 140.3L87.303 139.8C87.303 139.053 87.463 138.407 87.783 137.86C88.1163 137.313 88.563 136.893 89.123 136.6C89.683 136.293 90.3163 136.14 91.023 136.14C91.6896 136.14 92.2963 136.293 92.843 136.6C93.3896 136.893 93.823 137.313 94.143 137.86C94.463 138.393 94.623 139.04 94.623 139.8V146H92.003ZM98.303 146V140.3C98.303 139.74 98.123 139.307 97.763 139C97.4163 138.68 96.983 138.52 96.463 138.52C96.1296 138.52 95.8163 138.593 95.523 138.74C95.243 138.873 95.023 139.073 94.863 139.34C94.703 139.607 94.623 139.927 94.623 140.3L93.123 139.94C93.1763 139.167 93.383 138.5 93.743 137.94C94.103 137.367 94.5763 136.927 95.163 136.62C95.7496 136.3 96.403 136.14 97.123 136.14C97.843 136.14 98.4896 136.293 99.063 136.6C99.6363 136.893 100.09 137.32 100.423 137.88C100.756 138.44 100.923 139.107 100.923 139.88V146H98.303ZM108.407 146.2C107.713 146.2 107.087 146.06 106.527 145.78C105.967 145.487 105.52 145.093 105.187 144.6C104.853 144.107 104.673 143.54 104.647 142.9V139.48C104.673 138.84 104.853 138.273 105.187 137.78C105.533 137.273 105.98 136.873 106.527 136.58C107.087 136.287 107.713 136.14 108.407 136.14C109.3 136.14 110.1 136.36 110.807 136.8C111.513 137.24 112.067 137.84 112.467 138.6C112.88 139.36 113.087 140.22 113.087 141.18C113.087 142.127 112.88 142.98 112.467 143.74C112.067 144.5 111.513 145.1 110.807 145.54C110.1 145.98 109.3 146.2 108.407 146.2ZM107.947 143.78C108.427 143.78 108.853 143.673 109.227 143.46C109.6 143.233 109.887 142.927 110.087 142.54C110.3 142.14 110.407 141.68 110.407 141.16C110.407 140.653 110.3 140.207 110.087 139.82C109.887 139.42 109.6 139.113 109.227 138.9C108.853 138.673 108.427 138.56 107.947 138.56C107.48 138.56 107.06 138.673 106.687 138.9C106.313 139.113 106.02 139.42 105.807 139.82C105.607 140.207 105.507 140.653 105.507 141.16C105.507 141.68 105.607 142.14 105.807 142.54C106.02 142.927 106.307 143.233 106.667 143.46C107.04 143.673 107.467 143.78 107.947 143.78ZM103.047 150.04V136.34H105.667V138.88L105.227 141.22L105.647 143.56V150.04H103.047ZM114.805 146V131.54H117.425V146H114.805ZM124.366 146.2C123.353 146.2 122.453 145.987 121.666 145.56C120.879 145.12 120.253 144.52 119.786 143.76C119.333 143 119.106 142.133 119.106 141.16C119.106 140.2 119.326 139.347 119.766 138.6C120.219 137.84 120.833 137.24 121.606 136.8C122.379 136.347 123.239 136.12 124.186 136.12C125.119 136.12 125.939 136.333 126.646 136.76C127.366 137.173 127.926 137.747 128.326 138.48C128.739 139.2 128.946 140.02 128.946 140.94C128.946 141.113 128.933 141.293 128.906 141.48C128.893 141.653 128.859 141.853 128.806 142.08L120.686 142.1V140.14L127.586 140.12L126.526 140.94C126.499 140.367 126.393 139.887 126.206 139.5C126.033 139.113 125.773 138.82 125.426 138.62C125.093 138.407 124.679 138.3 124.186 138.3C123.666 138.3 123.213 138.42 122.826 138.66C122.439 138.887 122.139 139.213 121.926 139.64C121.726 140.053 121.626 140.547 121.626 141.12C121.626 141.707 121.733 142.22 121.946 142.66C122.173 143.087 122.493 143.42 122.906 143.66C123.319 143.887 123.799 144 124.346 144C124.839 144 125.286 143.92 125.686 143.76C126.086 143.587 126.433 143.333 126.726 143L128.266 144.54C127.799 145.087 127.226 145.5 126.546 145.78C125.879 146.06 125.153 146.2 124.366 146.2ZM131.752 146V132.32H134.372V146H131.752ZM129.492 138.64V136.34H136.632V138.64H129.492ZM142.491 146.2C141.478 146.2 140.578 145.987 139.791 145.56C139.004 145.12 138.378 144.52 137.911 143.76C137.458 143 137.231 142.133 137.231 141.16C137.231 140.2 137.451 139.347 137.891 138.6C138.344 137.84 138.958 137.24 139.731 136.8C140.504 136.347 141.364 136.12 142.311 136.12C143.244 136.12 144.064 136.333 144.771 136.76C145.491 137.173 146.051 137.747 146.451 138.48C146.864 139.2 147.071 140.02 147.071 140.94C147.071 141.113 147.058 141.293 147.031 141.48C147.018 141.653 146.984 141.853 146.931 142.08L138.811 142.1V140.14L145.711 140.12L144.651 140.94C144.624 140.367 144.518 139.887 144.331 139.5C144.158 139.113 143.898 138.82 143.551 138.62C143.218 138.407 142.804 138.3 142.311 138.3C141.791 138.3 141.338 138.42 140.951 138.66C140.564 138.887 140.264 139.213 140.051 139.64C139.851 140.053 139.751 140.547 139.751 141.12C139.751 141.707 139.858 142.22 140.071 142.66C140.298 143.087 140.618 143.42 141.031 143.66C141.444 143.887 141.924 144 142.471 144C142.964 144 143.411 143.92 143.811 143.76C144.211 143.587 144.558 143.333 144.851 143L146.391 144.54C145.924 145.087 145.351 145.5 144.671 145.78C144.004 146.06 143.278 146.2 142.491 146.2ZM149.211 141.1L148.811 131.54H151.611L151.211 141.1H149.211ZM150.211 146.2C149.731 146.2 149.338 146.04 149.031 145.72C148.725 145.4 148.571 145.007 148.571 144.54C148.571 144.073 148.725 143.68 149.031 143.36C149.338 143.04 149.731 142.88 150.211 142.88C150.691 142.88 151.085 143.04 151.391 143.36C151.698 143.68 151.851 144.073 151.851 144.54C151.851 145.007 151.698 145.4 151.391 145.72C151.085 146.04 150.691 146.2 150.211 146.2Z" fill="#450E8B"/>
<path d="M114.11 9.67572L116.283 16.3615H123.312L117.625 20.4935L119.797 27.1792L114.11 23.0472L108.423 27.1792L110.595 20.4935L104.908 16.3615H111.938L114.11 9.67572Z" fill="#450E8B"/>
<circle cx="26.6834" cy="57.0175" r="5.18341" fill="#C4C4C4" fill-opacity="0.6"/>
<path d="M65.0409 0L67.2133 6.68574H74.2431L68.5558 10.8178L70.7282 17.5035L65.0409 13.3715L59.3537 17.5035L61.526 10.8178L55.8388 6.68574H62.8686L65.0409 0Z" fill="#84A100"/>
<defs>
<linearGradient id="paint0_linear_443_4509" x1="74.9132" y1="53.2164" x2="74.9132" y2="105.561" gradientUnits="userSpaceOnUse">
<stop stop-color="#450E8B"/>
<stop offset="1" stop-color="#EC8C34"/>
</linearGradient>
</defs>
</svg>
