<svg width="148" height="212" viewBox="0 0 148 212" fill="none" xmlns="http://www.w3.org/2000/svg">
<rect x="39" y="77" width="76.5714" height="75.7391" rx="37.8696" fill="white"/>
<path d="M66.4517 128.864L66.4537 128.866C67.2524 129.637 68.2894 130.021 69.3163 130.021C70.3017 130.021 71.2951 129.668 72.0809 128.957L72.0824 128.956L95.6319 107.621C95.6322 107.62 95.6326 107.62 95.6329 107.62C97.324 106.092 97.4353 103.488 95.8937 101.819L95.8897 101.815C94.3569 100.164 91.7761 100.054 90.1068 101.563L90.1049 101.564L69.4102 120.312L64.4737 115.534L64.4733 115.534C62.8518 113.965 60.2682 113.998 58.6841 115.594L58.681 115.597C57.0795 117.217 57.1131 119.821 58.7432 121.401L58.7448 121.403L66.4517 128.864Z" fill="black" stroke="white" stroke-width="5"/>
<path d="M19.02 207.22C17.9933 207.22 17.0333 207.033 16.14 206.66C15.26 206.287 14.4867 205.773 13.82 205.12C13.1667 204.453 12.6533 203.68 12.28 202.8C11.9067 201.907 11.72 200.953 11.72 199.94C11.72 198.927 11.9 197.987 12.26 197.12C12.6333 196.24 13.1467 195.473 13.8 194.82C14.4667 194.153 15.24 193.64 16.12 193.28C17 192.907 17.9533 192.72 18.98 192.72C20.02 192.72 20.98 192.907 21.86 193.28C22.74 193.64 23.5067 194.153 24.16 194.82C24.8267 195.473 25.3467 196.24 25.72 197.12C26.0933 198 26.28 198.947 26.28 199.96C26.28 200.973 26.0933 201.92 25.72 202.8C25.3467 203.68 24.8267 204.453 24.16 205.12C23.5067 205.773 22.74 206.287 21.86 206.66C20.9933 207.033 20.0467 207.22 19.02 207.22ZM18.98 204.68C19.8867 204.68 20.6733 204.48 21.34 204.08C22.0067 203.68 22.5267 203.127 22.9 202.42C23.2867 201.713 23.48 200.887 23.48 199.94C23.48 199.247 23.3733 198.613 23.16 198.04C22.9467 197.467 22.64 196.973 22.24 196.56C21.84 196.133 21.3667 195.807 20.82 195.58C20.2733 195.353 19.66 195.24 18.98 195.24C18.1 195.24 17.32 195.44 16.64 195.84C15.9733 196.227 15.4467 196.773 15.06 197.48C14.6867 198.187 14.5 199.007 14.5 199.94C14.5 200.647 14.6067 201.293 14.82 201.88C15.0467 202.467 15.3533 202.967 15.74 203.38C16.14 203.793 16.6133 204.113 17.16 204.34C17.72 204.567 18.3267 204.68 18.98 204.68ZM28.1561 207V197.34H30.7761V207H28.1561ZM30.7761 201.66L29.7561 200.98C29.8761 199.793 30.2228 198.86 30.7961 198.18C31.3694 197.487 32.1961 197.14 33.2761 197.14C33.7428 197.14 34.1628 197.22 34.5361 197.38C34.9094 197.527 35.2494 197.773 35.5561 198.12L33.9161 200C33.7694 199.84 33.5894 199.72 33.3761 199.64C33.1761 199.56 32.9428 199.52 32.6761 199.52C32.1161 199.52 31.6561 199.7 31.2961 200.06C30.9494 200.407 30.7761 200.94 30.7761 201.66ZM40.283 207.2C39.3896 207.2 38.5896 206.98 37.883 206.54C37.1763 206.1 36.6163 205.5 36.203 204.74C35.803 203.98 35.603 203.127 35.603 202.18C35.603 201.22 35.803 200.36 36.203 199.6C36.6163 198.84 37.1696 198.24 37.863 197.8C38.5696 197.36 39.3763 197.14 40.283 197.14C40.9763 197.14 41.5963 197.28 42.143 197.56C42.703 197.84 43.1496 198.233 43.483 198.74C43.8296 199.233 44.0163 199.793 44.043 200.42V203.86C44.0163 204.487 43.8363 205.053 43.503 205.56C43.1696 206.067 42.723 206.467 42.163 206.76C41.603 207.053 40.9763 207.2 40.283 207.2ZM40.723 204.78C41.2163 204.78 41.643 204.673 42.003 204.46C42.3763 204.233 42.663 203.927 42.863 203.54C43.0763 203.14 43.183 202.68 43.183 202.16C43.183 201.653 43.0763 201.207 42.863 200.82C42.663 200.42 42.3763 200.113 42.003 199.9C41.643 199.673 41.223 199.56 40.743 199.56C40.2496 199.56 39.8163 199.673 39.443 199.9C39.083 200.127 38.7963 200.433 38.583 200.82C38.383 201.207 38.283 201.653 38.283 202.16C38.283 202.68 38.383 203.14 38.583 203.54C38.7963 203.927 39.0896 204.233 39.463 204.46C39.8363 204.673 40.2563 204.78 40.723 204.78ZM45.643 207H43.043V204.4L43.463 202.04L43.023 199.72V192.54H45.643V207ZM52.5808 207.2C51.5674 207.2 50.6674 206.987 49.8808 206.56C49.0941 206.12 48.4674 205.52 48.0008 204.76C47.5474 204 47.3208 203.133 47.3208 202.16C47.3208 201.2 47.5408 200.347 47.9808 199.6C48.4341 198.84 49.0474 198.24 49.8208 197.8C50.5941 197.347 51.4541 197.12 52.4008 197.12C53.3341 197.12 54.1541 197.333 54.8608 197.76C55.5808 198.173 56.1408 198.747 56.5408 199.48C56.9541 200.2 57.1608 201.02 57.1608 201.94C57.1608 202.113 57.1474 202.293 57.1208 202.48C57.1074 202.653 57.0741 202.853 57.0208 203.08L48.9008 203.1V201.14L55.8008 201.12L54.7408 201.94C54.7141 201.367 54.6074 200.887 54.4208 200.5C54.2474 200.113 53.9874 199.82 53.6408 199.62C53.3074 199.407 52.8941 199.3 52.4008 199.3C51.8808 199.3 51.4274 199.42 51.0408 199.66C50.6541 199.887 50.3541 200.213 50.1408 200.64C49.9408 201.053 49.8408 201.547 49.8408 202.12C49.8408 202.707 49.9474 203.22 50.1608 203.66C50.3874 204.087 50.7074 204.42 51.1208 204.66C51.5341 204.887 52.0141 205 52.5608 205C53.0541 205 53.5008 204.92 53.9008 204.76C54.3008 204.587 54.6474 204.333 54.9408 204L56.4808 205.54C56.0141 206.087 55.4408 206.5 54.7608 206.78C54.0941 207.06 53.3674 207.2 52.5808 207.2ZM58.7811 207V197.34H61.4011V207H58.7811ZM61.4011 201.66L60.3811 200.98C60.5011 199.793 60.8478 198.86 61.4211 198.18C61.9944 197.487 62.8211 197.14 63.9011 197.14C64.3678 197.14 64.7878 197.22 65.1611 197.38C65.5344 197.527 65.8744 197.773 66.1811 198.12L64.5411 200C64.3944 199.84 64.2144 199.72 64.0011 199.64C63.8011 199.56 63.5678 199.52 63.3011 199.52C62.7411 199.52 62.2811 199.7 61.9211 200.06C61.5744 200.407 61.4011 200.94 61.4011 201.66ZM73.6392 201.78V199.56H76.8992C77.3259 199.56 77.7126 199.473 78.0592 199.3C78.4059 199.127 78.6792 198.88 78.8792 198.56C79.0792 198.227 79.1792 197.827 79.1792 197.36C79.1792 196.907 79.0792 196.513 78.8792 196.18C78.6792 195.847 78.4059 195.593 78.0592 195.42C77.7126 195.247 77.3259 195.16 76.8992 195.16H73.6392V192.94H77.1792C78.0726 192.94 78.8726 193.12 79.5792 193.48C80.2992 193.84 80.8659 194.353 81.2792 195.02C81.6926 195.673 81.8992 196.453 81.8992 197.36C81.8992 198.267 81.6926 199.053 81.2792 199.72C80.8659 200.373 80.2992 200.88 79.5792 201.24C78.8726 201.6 78.0726 201.78 77.1792 201.78H73.6392ZM71.6392 207V192.94H74.3592V207H71.6392ZM83.6834 207V192.54H86.3034V207H83.6834ZM92.6648 207.2C91.7848 207.2 90.9915 206.98 90.2848 206.54C89.5782 206.1 89.0248 205.5 88.6248 204.74C88.2248 203.98 88.0248 203.127 88.0248 202.18C88.0248 201.22 88.2248 200.36 88.6248 199.6C89.0248 198.84 89.5782 198.24 90.2848 197.8C90.9915 197.36 91.7848 197.14 92.6648 197.14C93.3582 197.14 93.9782 197.28 94.5248 197.56C95.0715 197.84 95.5048 198.233 95.8248 198.74C96.1582 199.233 96.3382 199.793 96.3648 200.42V203.9C96.3382 204.54 96.1582 205.107 95.8248 205.6C95.5048 206.093 95.0715 206.487 94.5248 206.78C93.9782 207.06 93.3582 207.2 92.6648 207.2ZM93.1448 204.78C93.8782 204.78 94.4715 204.54 94.9248 204.06C95.3782 203.567 95.6048 202.933 95.6048 202.16C95.6048 201.653 95.4982 201.207 95.2848 200.82C95.0848 200.42 94.7982 200.113 94.4248 199.9C94.0648 199.673 93.6382 199.56 93.1448 199.56C92.6648 199.56 92.2382 199.673 91.8648 199.9C91.5048 200.113 91.2182 200.42 91.0048 200.82C90.8048 201.207 90.7048 201.653 90.7048 202.16C90.7048 202.68 90.8048 203.14 91.0048 203.54C91.2182 203.927 91.5048 204.233 91.8648 204.46C92.2382 204.673 92.6648 204.78 93.1448 204.78ZM95.4648 207V204.4L95.8848 202.04L95.4648 199.72V197.34H98.0648V207H95.4648ZM104.943 207.2C103.956 207.2 103.069 206.98 102.283 206.54C101.496 206.1 100.876 205.5 100.423 204.74C99.9693 203.98 99.7427 203.127 99.7427 202.18C99.7427 201.22 99.9693 200.36 100.423 199.6C100.876 198.84 101.496 198.24 102.283 197.8C103.083 197.347 103.969 197.12 104.943 197.12C105.703 197.12 106.403 197.26 107.043 197.54C107.683 197.82 108.236 198.22 108.703 198.74L107.023 200.44C106.769 200.16 106.463 199.947 106.103 199.8C105.756 199.653 105.369 199.58 104.943 199.58C104.463 199.58 104.029 199.693 103.643 199.92C103.269 200.133 102.969 200.433 102.743 200.82C102.529 201.193 102.423 201.64 102.423 202.16C102.423 202.667 102.529 203.12 102.743 203.52C102.969 203.907 103.269 204.213 103.643 204.44C104.029 204.653 104.463 204.76 104.943 204.76C105.383 204.76 105.776 204.687 106.123 204.54C106.483 204.38 106.789 204.153 107.043 203.86L108.743 205.56C108.249 206.093 107.683 206.5 107.043 206.78C106.403 207.06 105.703 207.2 104.943 207.2ZM114.632 207.2C113.618 207.2 112.718 206.987 111.932 206.56C111.145 206.12 110.518 205.52 110.052 204.76C109.598 204 109.372 203.133 109.372 202.16C109.372 201.2 109.592 200.347 110.032 199.6C110.485 198.84 111.098 198.24 111.872 197.8C112.645 197.347 113.505 197.12 114.452 197.12C115.385 197.12 116.205 197.333 116.912 197.76C117.632 198.173 118.192 198.747 118.592 199.48C119.005 200.2 119.212 201.02 119.212 201.94C119.212 202.113 119.198 202.293 119.172 202.48C119.158 202.653 119.125 202.853 119.072 203.08L110.952 203.1V201.14L117.852 201.12L116.792 201.94C116.765 201.367 116.658 200.887 116.472 200.5C116.298 200.113 116.038 199.82 115.692 199.62C115.358 199.407 114.945 199.3 114.452 199.3C113.932 199.3 113.478 199.42 113.092 199.66C112.705 199.887 112.405 200.213 112.192 200.64C111.992 201.053 111.892 201.547 111.892 202.12C111.892 202.707 111.998 203.22 112.212 203.66C112.438 204.087 112.758 204.42 113.172 204.66C113.585 204.887 114.065 205 114.612 205C115.105 205 115.552 204.92 115.952 204.76C116.352 204.587 116.698 204.333 116.992 204L118.532 205.54C118.065 206.087 117.492 206.5 116.812 206.78C116.145 207.06 115.418 207.2 114.632 207.2ZM124.912 207.2C124.019 207.2 123.219 206.98 122.512 206.54C121.805 206.1 121.245 205.5 120.832 204.74C120.432 203.98 120.232 203.127 120.232 202.18C120.232 201.22 120.432 200.36 120.832 199.6C121.245 198.84 121.799 198.24 122.492 197.8C123.199 197.36 124.005 197.14 124.912 197.14C125.605 197.14 126.225 197.28 126.772 197.56C127.332 197.84 127.779 198.233 128.112 198.74C128.459 199.233 128.645 199.793 128.672 200.42V203.86C128.645 204.487 128.465 205.053 128.132 205.56C127.799 206.067 127.352 206.467 126.792 206.76C126.232 207.053 125.605 207.2 124.912 207.2ZM125.352 204.78C125.845 204.78 126.272 204.673 126.632 204.46C127.005 204.233 127.292 203.927 127.492 203.54C127.705 203.14 127.812 202.68 127.812 202.16C127.812 201.653 127.705 201.207 127.492 200.82C127.292 200.42 127.005 200.113 126.632 199.9C126.272 199.673 125.852 199.56 125.372 199.56C124.879 199.56 124.445 199.673 124.072 199.9C123.712 200.127 123.425 200.433 123.212 200.82C123.012 201.207 122.912 201.653 122.912 202.16C122.912 202.68 123.012 203.14 123.212 203.54C123.425 203.927 123.719 204.233 124.092 204.46C124.465 204.673 124.885 204.78 125.352 204.78ZM130.272 207H127.672V204.4L128.092 202.04L127.652 199.72V192.54H130.272V207ZM133.11 202.1L132.71 192.54H135.51L135.11 202.1H133.11ZM134.11 207.2C133.63 207.2 133.236 207.04 132.93 206.72C132.623 206.4 132.47 206.007 132.47 205.54C132.47 205.073 132.623 204.68 132.93 204.36C133.236 204.04 133.63 203.88 134.11 203.88C134.59 203.88 134.983 204.04 135.29 204.36C135.596 204.68 135.75 205.073 135.75 205.54C135.75 206.007 135.596 206.4 135.29 206.72C134.983 207.04 134.59 207.2 134.11 207.2Z" fill="white"/>
<path d="M134 14L137.143 23.6738H147.315L139.086 29.6525L142.229 39.3262L134 33.3475L125.771 39.3262L128.914 29.6525L120.685 23.6738H130.857L134 14Z" fill="white" fill-opacity="0.72"/>
<circle cx="7.5" cy="82.5" r="7.5" fill="#C4C4C4" fill-opacity="0.6"/>
<path d="M63 0L66.1432 9.67376H76.3148L68.0858 15.6525L71.229 25.3262L63 19.3475L54.771 25.3262L57.9142 15.6525L49.6852 9.67376H59.8568L63 0Z" fill="#84A100"/>
</svg>
