<svg width="25" height="27" viewBox="0 0 25 27" fill="none" xmlns="http://www.w3.org/2000/svg">
<path d="M23.0509 4.44528C22.7303 3.53895 22.0451 2.82546 21.1713 2.49122C15.6145 0.331467 9.71821 0.35075 3.57676 2.55549C2.65272 2.88331 1.93611 3.60966 1.60295 4.54169C-0.540584 10.5774 -0.534298 16.446 1.62181 22.4882C1.94868 23.4074 2.65272 24.1273 3.55162 24.4615C6.47462 25.5607 9.43534 26.1135 12.3458 26.1135C15.2562 26.1135 18.2169 25.5543 21.1462 24.4615C22.0451 24.1273 22.7491 23.4074 23.076 22.4882C25.2384 16.4139 25.2321 10.5131 23.0509 4.44528ZM21.8879 22.0447C21.6868 22.6103 21.2593 23.0474 20.7125 23.2531C15.1368 25.3421 9.55477 25.3421 3.98535 23.2531C3.43218 23.0474 3.00473 22.6103 2.80358 22.0511C0.748051 16.3046 0.741765 10.7253 2.78472 4.98521C2.98588 4.41314 3.4259 3.97604 3.99164 3.77035C6.95864 2.70333 9.88164 2.16983 12.6789 2.16983C15.4071 2.16983 18.1163 2.68405 20.725 3.69965C21.2531 3.90534 21.6742 4.34243 21.8691 4.89522C23.9435 10.661 23.9498 16.2725 21.8879 22.0447Z" fill="#C4C4C4"/>
<path d="M19.883 13.6499H12.346V5.77582C12.346 5.42229 12.0632 5.13304 11.7174 5.13304C6.86462 5.13304 2.91699 9.16972 2.91699 14.132C2.91699 19.0943 6.86462 23.131 11.7174 23.131C16.4759 23.131 20.4236 19.1714 20.5116 14.3056C20.5116 14.132 20.4487 13.9649 20.3293 13.8428C20.2161 13.7206 20.0527 13.6499 19.883 13.6499ZM11.7174 21.8454C7.55608 21.8454 4.1742 18.3872 4.1742 14.132C4.1742 10.0953 7.22292 6.77214 11.0888 6.44432V14.2927C11.0888 14.6462 11.3717 14.9355 11.7174 14.9355H19.2167C18.8206 18.7986 15.5833 21.8454 11.7174 21.8454Z" fill="#C4C4C4"/>
<path d="M13.6032 3.2047C13.2575 3.2047 12.9746 3.49395 12.9746 3.84748V12.3644C12.9746 12.7179 13.2575 13.0072 13.6032 13.0072H21.7688C22.0893 13.0072 22.3534 12.7629 22.3911 12.4415C22.4036 12.3644 22.4036 12.2808 22.4036 12.2037C22.4036 7.24138 18.456 3.2047 13.6032 3.2047ZM14.2318 11.7216V4.51598C17.9406 4.83094 20.9013 7.90345 21.1339 11.7216H14.2318Z" fill="#C4C4C4"/>
</svg>
