<svg width="24" height="24" viewBox="0 0 24 24" fill="none" xmlns="http://www.w3.org/2000/svg">
<path d="M17.754 14C18.333 14.0002 18.8896 14.2235 19.3081 14.6236C19.7266 15.0236 19.9748 15.5696 20.001 16.148V16.25H12.004V17.249L19.979 17.25C19.9182 17.7809 19.7446 18.2926 19.47 18.751L12.004 18.749V19.749L18.642 19.751C17.082 21.257 14.852 22.001 12 22.001C8.854 22.001 6.468 21.096 4.902 19.261C4.32261 18.5824 4.00421 17.7193 4.004 16.827V16.249C4.00387 15.9536 4.06194 15.661 4.17491 15.388C4.28787 15.1151 4.45351 14.867 4.66236 14.6581C4.87121 14.4491 5.11919 14.2834 5.39211 14.1703C5.66504 14.0572 5.95757 13.999 6.253 13.999H17.754V14ZM12 2C12.7764 1.99922 13.5422 2.17961 14.2366 2.52681C14.931 2.87401 15.5348 3.37845 16 4H12.003V4.999L16.584 5C16.788 5.468 16.923 5.972 16.976 6.5H12.003V7.5L16.976 7.502C16.9246 8.01943 16.7923 8.52559 16.584 9.002L12.003 9V10L16 10.001C15.4885 10.6826 14.8113 11.2222 14.0326 11.5685C13.254 11.9148 12.3997 12.0564 11.551 11.9797C10.7022 11.9031 9.88716 11.6108 9.18316 11.1305C8.47915 10.6503 7.90958 9.9981 7.5285 9.23585C7.14742 8.4736 6.9675 7.6266 7.0058 6.77526C7.04411 5.92392 7.29937 5.09651 7.74736 4.37156C8.19535 3.64661 8.8212 3.0482 9.56549 2.63314C10.3098 2.21807 11.1478 2.00013 12 2Z" fill="#A3A3A4"/>
</svg>
