<svg width="14" height="15" viewBox="0 0 14 15" fill="none" xmlns="http://www.w3.org/2000/svg">
<path fill-rule="evenodd" clip-rule="evenodd" d="M9.41301 3.25801L10.4805 4.32551C12.0485 5.89468 12.8331 6.67868 12.8331 7.65284C12.8331 8.62759 12.0485 9.41159 10.4799 10.9802C8.91134 12.5499 8.12734 13.3333 7.15259 13.3333C6.17843 13.3333 5.39384 12.5488 3.82526 10.9802L2.75776 9.91268C1.85651 9.01143 1.40559 8.56109 1.23818 7.97601C1.07018 7.39093 1.21368 6.76968 1.50068 5.52776L1.66576 4.81143C1.90668 3.76609 2.02743 3.24343 2.38501 2.88526C2.74318 2.52768 3.26584 2.40693 4.31118 2.16601L5.02751 2.00034C6.27001 1.71393 6.89068 1.57043 7.47576 1.73784C8.06084 1.90584 8.51176 2.35676 9.41301 3.25801ZM6.50218 8.85801C6.10959 8.46601 6.11251 7.90251 6.34759 7.45626C6.28939 7.3722 6.26247 7.27041 6.27151 7.16857C6.28054 7.06672 6.32496 6.97126 6.39705 6.89876C6.46914 6.82625 6.56434 6.78129 6.66613 6.77167C6.76792 6.76205 6.86986 6.78838 6.95426 6.84609C7.15259 6.74109 7.37018 6.68509 7.58718 6.68743C7.70321 6.68851 7.81406 6.73564 7.89534 6.81846C7.97662 6.90127 8.02168 7.01298 8.02059 7.12901C8.01951 7.24504 7.97238 7.35589 7.88956 7.43717C7.80675 7.51846 7.69504 7.56351 7.57901 7.56243C7.44394 7.56742 7.31628 7.62548 7.22376 7.72401C6.99801 7.94976 7.05693 8.17609 7.12051 8.23968C7.18468 8.30326 7.41043 8.36218 7.63618 8.13643C8.09351 7.67909 8.88334 7.52743 9.38909 8.03318C9.78168 8.42576 9.77876 8.98926 9.54368 9.43551C9.60151 9.51959 9.62813 9.62124 9.61893 9.72287C9.60973 9.82451 9.5653 9.91973 9.49331 9.99206C9.42132 10.0644 9.32632 10.1093 9.22473 10.119C9.12314 10.1287 9.02137 10.1025 8.93701 10.0451C8.67523 10.1887 8.37159 10.2365 8.07834 10.1804C7.96463 10.1571 7.86486 10.0895 7.80097 9.99257C7.73708 9.89564 7.71431 9.77731 7.73768 9.66359C7.76104 9.54988 7.82861 9.45011 7.92554 9.38622C8.02246 9.32233 8.1408 9.29957 8.25451 9.32293C8.35776 9.34451 8.52459 9.31068 8.66751 9.16776C8.89326 8.94143 8.83434 8.71568 8.77076 8.65209C8.70659 8.58851 8.48084 8.52959 8.25509 8.75534C7.79776 9.21268 7.00793 9.36434 6.50218 8.85801ZM5.84534 6.50426C5.95366 6.3959 6.03958 6.26727 6.09818 6.12571C6.15679 5.98415 6.18694 5.83243 6.18691 5.67922C6.18689 5.52601 6.15668 5.3743 6.09803 5.23276C6.03937 5.09122 5.95341 4.96262 5.84505 4.8543C5.73669 4.74598 5.60806 4.66007 5.4665 4.60146C5.32494 4.54285 5.17322 4.5127 5.02001 4.51273C4.8668 4.51276 4.71509 4.54296 4.57355 4.60162C4.43201 4.66028 4.30341 4.74624 4.19509 4.85459C3.97633 5.07343 3.85347 5.37021 3.85352 5.67963C3.85358 5.98906 3.97655 6.28579 4.19538 6.50455C4.41422 6.72331 4.711 6.84618 5.02042 6.84612C5.32985 6.84607 5.62658 6.7231 5.84534 6.50426Z" fill="#A3A3A4"/>
</svg>
