<svg width="78" height="78" viewBox="0 0 78 78" fill="none" xmlns="http://www.w3.org/2000/svg">
<g filter="url(#filter0_d_25_3058)">
<circle cx="39" cy="39" r="35" fill="#F5F5F5"/>
</g>
<path d="M23.375 25.4584H54.625V28.5834H23.375V25.4584Z" fill="#424242"/>
<path d="M18.1666 40.0417H59.8333V32.75C59.8333 30.4584 57.9583 28.5834 55.6666 28.5834H22.3333C20.0416 28.5834 18.1666 30.4584 18.1666 32.75V40.0417Z" fill="#616161"/>
<path d="M22.3333 51.5H55.6666C57.9583 51.5 59.8333 49.625 59.8333 47.3333V39H18.1666V47.3333C18.1666 49.625 20.0416 51.5 22.3333 51.5Z" fill="#424242"/>
<path d="M55.6667 33.7917C56.242 33.7917 56.7083 33.3253 56.7083 32.75C56.7083 32.1747 56.242 31.7084 55.6667 31.7084C55.0914 31.7084 54.625 32.1747 54.625 32.75C54.625 33.3253 55.0914 33.7917 55.6667 33.7917Z" fill="#00E676"/>
<path d="M25.4584 18.1666H52.5417V28.5833H25.4584V18.1666Z" fill="#90CAF9"/>
<path d="M53.0625 46.2916H24.9375C24.1042 46.2916 23.375 45.5625 23.375 44.7291C23.375 43.8958 24.1042 43.1666 24.9375 43.1666H53.0625C53.8958 43.1666 54.625 43.8958 54.625 44.7291C54.625 45.5625 53.8958 46.2916 53.0625 46.2916Z" fill="#242424"/>
<path d="M25.4584 46.2916H52.5417V57.75H25.4584V46.2916Z" fill="#90CAF9"/>
<path d="M25.4584 44.2084H52.5417V46.2917H25.4584V44.2084Z" fill="#42A5F5"/>
<path d="M30.6666 48.375H48.375V50.4583H30.6666V48.375ZM30.6666 52.5417H44.2083V54.625H30.6666V52.5417Z" fill="#1976D2"/>
<defs>
<filter id="filter0_d_25_3058" x="0" y="0" width="78" height="78" filterUnits="userSpaceOnUse" color-interpolation-filters="sRGB">
<feFlood flood-opacity="0" result="BackgroundImageFix"/>
<feColorMatrix in="SourceAlpha" type="matrix" values="0 0 0 0 0 0 0 0 0 0 0 0 0 0 0 0 0 0 127 0" result="hardAlpha"/>
<feOffset/>
<feGaussianBlur stdDeviation="2"/>
<feComposite in2="hardAlpha" operator="out"/>
<feColorMatrix type="matrix" values="0 0 0 0 0 0 0 0 0 0 0 0 0 0 0 0 0 0 0.14 0"/>
<feBlend mode="normal" in2="BackgroundImageFix" result="effect1_dropShadow_25_3058"/>
<feBlend mode="normal" in="SourceGraphic" in2="effect1_dropShadow_25_3058" result="shape"/>
</filter>
</defs>
</svg>
