<svg width="50" height="50" viewBox="0 0 50 50" fill="none" xmlns="http://www.w3.org/2000/svg">
<path d="M9.375 11.4584H40.625V14.5834H9.375V11.4584Z" fill="#424242"/>
<path d="M4.16663 26.0417H45.8333V18.75C45.8333 16.4584 43.9583 14.5834 41.6666 14.5834H8.33329C6.04163 14.5834 4.16663 16.4584 4.16663 18.75V26.0417Z" fill="#616161"/>
<path d="M8.33329 37.5H41.6666C43.9583 37.5 45.8333 35.625 45.8333 33.3333V25H4.16663V33.3333C4.16663 35.625 6.04163 37.5 8.33329 37.5Z" fill="#424242"/>
<path d="M41.6667 19.7917C42.242 19.7917 42.7083 19.3253 42.7083 18.75C42.7083 18.1747 42.242 17.7084 41.6667 17.7084C41.0914 17.7084 40.625 18.1747 40.625 18.75C40.625 19.3253 41.0914 19.7917 41.6667 19.7917Z" fill="#00E676"/>
<path d="M11.4584 4.16663H38.5417V14.5833H11.4584V4.16663Z" fill="#90CAF9"/>
<path d="M39.0625 32.2916H10.9375C10.1042 32.2916 9.375 31.5625 9.375 30.7291C9.375 29.8958 10.1042 29.1666 10.9375 29.1666H39.0625C39.8958 29.1666 40.625 29.8958 40.625 30.7291C40.625 31.5625 39.8958 32.2916 39.0625 32.2916Z" fill="#242424"/>
<path d="M11.4584 32.2916H38.5417V43.75H11.4584V32.2916Z" fill="#90CAF9"/>
<path d="M11.4584 30.2084H38.5417V32.2917H11.4584V30.2084Z" fill="#42A5F5"/>
<path d="M16.6666 34.375H34.375V36.4583H16.6666V34.375ZM16.6666 38.5417H30.2083V40.625H16.6666V38.5417Z" fill="#1976D2"/>
</svg>
