<svg width="32" height="32" viewBox="0 0 32 32" fill="none" xmlns="http://www.w3.org/2000/svg">
<circle cx="16" cy="16" r="16" fill="#FB4B40"/>
<path d="M17.5909 16L22.0441 11.5469C22.2554 11.3359 22.3743 11.0496 22.3745 10.751C22.3748 10.4524 22.2564 10.1659 22.0455 9.95453C21.8345 9.74319 21.5482 9.62431 21.2496 9.62404C20.951 9.62378 20.6645 9.74215 20.4531 9.95313L16 14.4063L11.5469 9.95313C11.3355 9.74178 11.0489 9.62305 10.75 9.62305C10.4511 9.62305 10.1645 9.74178 9.95312 9.95313C9.74178 10.1645 9.62305 10.4511 9.62305 10.75C9.62305 11.0489 9.74178 11.3355 9.95312 11.5469L14.4062 16L9.95312 20.4531C9.74178 20.6645 9.62305 20.9511 9.62305 21.25C9.62305 21.5489 9.74178 21.8355 9.95312 22.0469C10.1645 22.2582 10.4511 22.377 10.75 22.377C11.0489 22.377 11.3355 22.2582 11.5469 22.0469L16 17.5938L20.4531 22.0469C20.6645 22.2582 20.9511 22.377 21.25 22.377C21.5489 22.377 21.8355 22.2582 22.0469 22.0469C22.2582 21.8355 22.3769 21.5489 22.3769 21.25C22.3769 20.9511 22.2582 20.6645 22.0469 20.4531L17.5909 16Z" fill="white"/>
</svg>
