<svg width="78" height="78" viewBox="0 0 78 78" fill="none" xmlns="http://www.w3.org/2000/svg">
<g filter="url(#filter0_d_428_2161)">
<circle cx="39" cy="39" r="35" fill="#F5F5F5"/>
</g>
<path d="M21.4844 33.1172V25.1641L20.8438 25.2031V20.3047L27.0234 20.2656V25.0898H26.3828V29.7617L21.4844 33.1172Z" fill="#AB5832"/>
<path d="M39.043 23.1133L21.293 40.9492L21.4297 57.4375L56.4883 57.1055L56.5391 39.5273L39.043 23.1133Z" fill="#FFF3E1"/>
<path d="M20.6289 54.543L21.8555 53.8672V40.5547L20.7148 41.3164C20.7109 41.3164 20.8398 54.543 20.6289 54.543ZM55.875 41.2734V53.7852L57.1016 54.4609V41.7383L55.875 41.2734Z" fill="#5F4E47"/>
<path d="M39.1641 25.0195L20.7109 42.2891V37.9336L39.1836 20.4375L57.1016 38.9922V42.668L39.1641 25.0195Z" fill="#BCAA93"/>
<path d="M18.9023 37.1875L17.8203 39.1836L20.7227 39.1406C20.7227 39.1406 38.8281 21.5312 39.2187 21.5156C39.6914 21.4961 57.0937 39.4492 57.0937 39.4492L59.668 39.4102L40.3555 18.6055L37.5195 18.418L18.9023 37.1875Z" fill="#AB5832"/>
<path d="M15.5625 38.6835C15.2578 39.0546 15.5586 39.2499 15.8047 39.2499C16.0508 39.2499 18.8867 39.1679 18.8867 39.1679L38.4336 20.1483C38.4336 20.1483 38.8828 19.6874 39.2032 19.703C39.5508 19.7186 40 20.16 40 20.16L59.6407 39.4139C59.6407 39.4139 61.8789 39.4218 62.2344 39.3319C62.6211 39.2382 62.4258 38.871 61.9492 38.3593C61.5977 37.9804 41.7422 18.3397 41.4141 17.9999C40.4375 16.9921 39.961 16.4061 39.0391 16.4452C38.1133 16.4843 37.5664 17.1679 36.6407 18.0194C36.3672 18.2772 15.6914 38.5272 15.5625 38.6835Z" fill="#ED6C31"/>
<path d="M50.5234 45.5742H54.5273V42.2422C54.5273 42.095 54.4983 41.9492 54.442 41.8132C54.3857 41.6771 54.3031 41.5536 54.199 41.4495C54.0949 41.3454 53.9713 41.2628 53.8353 41.2064C53.6993 41.1501 53.5535 41.1211 53.4062 41.1211H50.5234V45.5742ZM49.3203 45.5742V41.1211H46.1953C46.0481 41.1211 45.9023 41.1501 45.7663 41.2064C45.6303 41.2628 45.5067 41.3454 45.4026 41.4495C45.2985 41.5536 45.2159 41.6771 45.1596 41.8132C45.1032 41.9492 45.0742 42.095 45.0742 42.2422V45.5781H49.3203V45.5742ZM49.3203 46.8398H45.0742V49.9648C45.0742 50.2622 45.1923 50.5473 45.4026 50.7576C45.6128 50.9678 45.898 51.0859 46.1953 51.0859H49.3203V46.8398ZM50.5234 46.8398V51.0859H53.4062C53.7036 51.0859 53.9887 50.9678 54.199 50.7576C54.4092 50.5473 54.5273 50.2622 54.5273 49.9648V46.8398H50.5234ZM28.3555 45.5742H32.3594V42.2422C32.3594 42.095 32.3304 41.9492 32.274 41.8132C32.2177 41.6771 32.1351 41.5536 32.031 41.4495C31.9269 41.3454 31.8033 41.2628 31.6673 41.2064C31.5313 41.1501 31.3855 41.1211 31.2383 41.1211H28.3555V45.5742ZM27.1484 45.5742V41.1211H24.0234C23.8762 41.1211 23.7304 41.1501 23.5944 41.2064C23.4584 41.2628 23.3348 41.3454 23.2307 41.4495C23.1266 41.5536 23.044 41.6771 22.9877 41.8132C22.9313 41.9492 22.9023 42.095 22.9023 42.2422V45.5781H27.1484V45.5742ZM27.1484 46.8398H22.9062V49.9648C22.9062 50.2622 23.0244 50.5473 23.2346 50.7576C23.4449 50.9678 23.73 51.0859 24.0273 51.0859H27.1523V46.8398H27.1484ZM28.3555 46.8398V51.0859H31.2383C31.5356 51.0859 31.8208 50.9678 32.031 50.7576C32.2413 50.5473 32.3594 50.2622 32.3594 49.9648V46.8398H28.3555Z" fill="#A6CFD5"/>
<path d="M33.6641 55.6915C33.6641 55.6915 33.6055 46.0274 33.6641 43.586C33.7227 41.1485 36.0118 39.0391 38.6641 39.129C41.9454 39.2423 43.6329 41.086 43.7539 43.4649C43.875 45.8438 43.875 55.8399 43.875 55.8399L33.6641 55.6915Z" fill="#D27857"/>
<path d="M34.8867 56.2149C34.8867 56.2149 34.8398 45.918 34.8867 44.0117C34.9453 41.6485 36.7265 40.4063 38.7968 40.5235C41.207 40.6602 42.3984 41.9414 42.4921 43.8047C42.5859 45.6641 42.5859 56.2227 42.5859 56.2227L34.8867 56.2149Z" fill="#AB5932"/>
<path d="M41.3398 47.8203C41.332 46.125 41.3164 44.6289 41.2929 44.1719C41.2304 42.9414 40.3554 41.9844 38.6562 41.9258C37.2851 41.8789 36.1562 42.9492 36.1249 44.211C36.1132 44.6758 36.1171 46.1367 36.1249 47.8008L41.3398 47.8203ZM36.1367 49.7227C36.1523 51.9922 36.1718 54.0821 36.1718 54.0821L41.3554 54.0977C41.3554 54.0977 41.3554 52.0156 41.3476 49.7461L36.1367 49.7227Z" fill="#D27857"/>
<path d="M41.3554 48.6915C41.3359 49.2423 41.5585 49.6876 42.2109 49.6876C42.8632 49.6876 43.1015 49.3829 43.1484 48.7931C43.1875 48.2657 42.8242 47.797 42.2109 47.836C41.6015 47.879 41.371 48.3048 41.3554 48.6915Z" fill="#FFBA02"/>
<path d="M45.0977 59.4335C45.0977 59.4335 49.3476 59.4764 52.418 59.3866C55.4883 59.2968 57.7109 59.4335 58.168 58.9725C58.625 58.5155 58.6172 54.621 56.4883 53.5663C54.5312 52.5975 53.2656 53.5819 52.5937 53.6483C51.707 53.7382 50.6094 53.1874 49.8047 53.1718C46.4805 53.1014 45.3164 55.7147 45.3164 55.7147L45.0977 59.4335ZM19.6758 59.1132C20.0312 59.4452 22.7461 59.4569 26.0234 59.4335C29.3008 59.41 31.9375 59.4413 31.9375 59.4413L32.4844 56.1327L31.8203 55.5819C31.8203 55.5819 31.8945 53.9257 29.8047 53.3593C28.3594 52.9686 27.1016 53.6132 25.8867 53.6327C24.6719 53.6561 23.5508 53.1054 22.1992 53.4257C20.9414 53.7225 19.9609 54.5429 19.5625 56.1991C19.2852 57.3475 19.3555 58.8124 19.6758 59.1132Z" fill="#728037"/>
<path d="M31.5469 62.8945L31.5742 59.4375H31.8281L31.8242 55.5859H45.3906L45.3438 59.4375H45.6406V62.8047C45.6367 62.8008 31.5469 62.9141 31.5469 62.8945Z" fill="#B0B0B0"/>
<path d="M45.6367 61.3828V62.8008L31.543 62.8945L31.5547 61.3711L45.6367 61.3828ZM31.8203 57.9375L45.3555 57.9414V59.4336H31.8203V57.9375Z" fill="#9B9B9B"/>
<defs>
<filter id="filter0_d_428_2161" x="0" y="0" width="78" height="78" filterUnits="userSpaceOnUse" color-interpolation-filters="sRGB">
<feFlood flood-opacity="0" result="BackgroundImageFix"/>
<feColorMatrix in="SourceAlpha" type="matrix" values="0 0 0 0 0 0 0 0 0 0 0 0 0 0 0 0 0 0 127 0" result="hardAlpha"/>
<feOffset/>
<feGaussianBlur stdDeviation="2"/>
<feComposite in2="hardAlpha" operator="out"/>
<feColorMatrix type="matrix" values="0 0 0 0 0 0 0 0 0 0 0 0 0 0 0 0 0 0 0.14 0"/>
<feBlend mode="normal" in2="BackgroundImageFix" result="effect1_dropShadow_428_2161"/>
<feBlend mode="normal" in="SourceGraphic" in2="effect1_dropShadow_428_2161" result="shape"/>
</filter>
</defs>
</svg>
