<svg width="221" height="247" viewBox="0 0 221 247" fill="none" xmlns="http://www.w3.org/2000/svg">
<path d="M76.6456 217.3C75.706 219.404 74.1353 220.78 71.9334 221.429C69.7315 222.078 67.4525 221.991 65.0963 221.167C63.5105 220.612 62.3678 219.77 61.6682 218.638C61.0011 217.493 60.7332 216.626 60.8646 216.039C61.4368 215.403 62.3313 214.778 63.5482 214.165C64.765 213.552 65.746 213.261 66.4911 213.294C67.3235 214.421 67.6803 216.408 67.5613 219.255C69.0535 219.726 70.1372 219.205 70.8125 217.693C71.1845 216.86 71.2884 215.719 71.1244 214.268C70.9929 212.803 70.7542 211.402 70.4084 210.065C70.0724 208.706 69.8469 207.246 69.7318 205.686C69.6492 204.112 69.8379 202.81 70.2979 201.78C71.0417 200.114 72.3199 199.041 74.1325 198.56C75.9678 198.087 77.7576 198.155 79.5021 198.765C81.2465 199.375 82.433 200.208 83.0615 201.264C83.7127 202.328 83.8328 203.32 83.4217 204.24C83.0106 205.161 82.2273 205.976 81.0717 206.687C79.9161 207.398 78.8486 207.911 77.8691 208.227L76.4 208.702C76.5152 209.147 76.6431 209.711 76.7836 210.394C76.924 211.076 77.0291 212.19 77.0989 213.735C77.1686 215.279 77.0175 216.468 76.6456 217.3ZM78.8443 205.604C79.2887 205.43 79.7236 205.189 80.149 204.882C80.5842 204.553 80.8996 204.169 81.0954 203.731C81.3009 203.271 81.2003 202.792 80.7936 202.295C80.3869 201.798 79.7984 201.415 79.0282 201.146C78.2806 200.884 77.5679 200.838 76.8903 201.006C76.245 201.161 75.8148 201.479 75.5994 201.961C75.3939 202.421 75.3078 203.025 75.3411 203.771C75.4069 204.503 75.5054 205.133 75.6366 205.661L75.8674 206.463C76.1429 206.433 76.5968 206.326 77.2292 206.141C77.8842 205.965 78.4226 205.786 78.8443 205.604Z" fill="white"/>
<path d="M83.6742 220.798C84.4037 217.888 85.8617 215.768 88.0482 214.439C90.2641 213.091 92.5024 212.639 94.7633 213.082C96.1528 213.355 97.2104 213.917 97.9361 214.767C98.6617 215.618 98.8816 216.614 98.5956 217.755C98.3155 218.872 97.7848 219.757 97.0034 220.41C96.2456 221.067 95.402 221.524 94.4727 221.782C92.5963 222.268 90.9372 222.48 89.4951 222.417L88.6211 222.355C88.2373 224.576 88.8697 225.848 90.5183 226.171C91.0835 226.282 91.7191 226.261 92.425 226.106C93.1309 225.951 93.6955 225.769 94.1187 225.559L94.7537 225.244L95.3214 226.528C95.0688 226.747 94.6073 227.011 93.9371 227.319C93.2668 227.627 92.6494 227.872 92.0848 228.054C90.5321 228.531 88.9432 228.61 87.3182 228.291C85.6932 227.972 84.5527 227.15 83.8966 225.824C83.2406 224.499 83.1664 222.823 83.6742 220.798ZM89.0147 220.637C90.2683 220.663 91.3476 220.35 92.2525 219.697C93.1575 219.044 93.7675 218.089 94.0827 216.832C94.3978 215.575 94.1786 214.873 93.4249 214.725C92.53 214.549 91.6456 215.169 90.7717 216.585C89.9272 217.983 89.3415 219.334 89.0147 220.637Z" fill="white"/>
<path d="M108.558 232.21C107.743 232.164 107.08 231.85 106.569 231.268C106.081 230.687 105.873 229.907 105.944 228.925C106.017 227.92 106.834 224.781 108.394 219.51C109.981 214.216 110.86 210.384 111.031 208.014L110.93 206.422C112.846 205.882 114.618 205.658 116.248 205.75C116.463 206.099 116.541 206.692 116.48 207.53C116.341 209.445 115.462 213.12 113.841 218.557C112.246 223.97 111.415 227.132 111.35 228.042C111.285 228.927 111.361 229.376 111.577 229.389L114.158 228.634L114.714 229.927C113.852 230.527 112.815 231.069 111.601 231.553C110.411 232.039 109.396 232.257 108.558 232.21Z" fill="white"/>
<path d="M129.134 232.503C128.324 232.598 127.604 232.405 126.974 231.923C126.368 231.439 125.992 230.71 125.846 229.737C125.697 228.74 125.81 225.527 126.185 220.097C126.581 214.64 126.603 210.737 126.251 208.387L125.802 206.846C127.565 205.987 129.257 205.463 130.878 205.273C131.166 205.577 131.373 206.145 131.497 206.975C131.781 208.874 131.724 212.624 131.326 218.226C130.948 223.801 130.827 227.04 130.962 227.942C131.093 228.82 131.266 229.246 131.481 229.221L133.85 228.038L134.681 229.208C133.966 229.944 133.066 230.654 131.98 231.337C130.917 232.017 129.969 232.405 129.134 232.503Z" fill="white"/>
<path d="M143.347 235.702C143.201 235.424 143.082 234.795 142.992 233.815C142.901 232.835 143.125 230.173 143.664 225.827C144.2 221.458 144.362 218.115 144.147 215.796C144.106 215.342 143.954 214.872 143.692 214.386C143.428 213.876 143.163 213.486 142.897 213.216L142.538 212.845L142.53 212.377C143.622 211.937 145.593 211.614 148.441 211.408C148.751 211.891 148.984 212.584 149.139 213.487C150.843 211.848 152.306 210.984 153.527 210.896C154.771 210.806 155.812 211.248 156.649 212.222C157.51 213.194 158.032 214.672 158.215 216.656C158.535 220.121 158.139 222.748 157.027 224.537C155.913 226.301 154.387 227.254 152.448 227.394C151.442 227.466 150.591 227.384 149.894 227.145L149.522 227.028L149.644 225.612C149.864 225.644 150.118 225.65 150.405 225.629C151.027 225.584 151.539 225.258 151.941 224.652C152.367 224.043 152.659 223.289 152.817 222.387C153.132 220.584 153.22 218.93 153.081 217.424C152.883 215.273 152.34 214.23 151.455 214.294C150.761 214.344 150.044 214.672 149.305 215.279C149.363 216.959 149.143 219.922 148.644 224.168C148.144 228.414 148.012 231.816 148.248 234.373C147.004 234.993 145.371 235.435 143.347 235.702Z" fill="white"/>
<path d="M174.308 210.229C174.338 210.171 174.36 209.842 174.374 209.241C175.46 208.937 177.03 208.846 179.082 208.967C179.175 211.005 179.415 213.1 179.804 215.254C180.185 217.385 180.532 218.891 180.848 219.772C181.155 220.631 181.401 221.034 181.585 220.983C181.724 220.944 182.156 220.587 182.881 219.912L183.224 219.592L184.272 220.604C184.129 220.843 183.932 221.146 183.682 221.514C183.456 221.876 182.965 222.424 182.21 223.157C181.448 223.868 180.696 224.327 179.957 224.534C178.524 224.935 177.466 224.535 176.782 223.334C175.755 225.014 174.641 226.022 173.439 226.358C172.261 226.688 171.094 226.518 169.938 225.847C168.806 225.169 167.893 223.859 167.198 221.915C166.115 218.887 165.898 216.325 166.547 214.229C167.188 212.11 168.41 210.799 170.212 210.294C171.507 209.932 172.872 209.91 174.308 210.229ZM174.489 222.895C175.044 222.739 175.591 222.35 176.131 221.727C175.153 218.495 174.569 215.19 174.378 211.813C173.58 211.713 172.938 211.731 172.453 211.867C171.621 212.1 171.191 213.103 171.164 214.876C171.152 216.619 171.489 218.451 172.176 220.372C172.863 222.293 173.634 223.134 174.489 222.895Z" fill="white"/>
<path d="M206.732 209.021C206.065 211.464 205.065 213.092 203.733 213.903C202.421 214.702 201.191 214.557 200.043 213.47C199.87 214.412 199.529 215.276 199.021 216.059C198.513 216.843 197.972 217.41 197.398 217.759C196.414 218.358 195.264 218.472 193.949 218.101C192.633 217.729 191.327 216.71 190.03 215.043C188.086 212.542 187.135 210.231 187.178 208.112C187.206 205.973 187.938 204.467 189.373 203.593C190.828 202.707 192.284 202.268 193.739 202.275C191.988 198.819 190.428 196.21 189.057 194.448L187.976 193.348C189.13 191.919 190.445 190.756 191.921 189.857C192.336 190.079 192.705 190.399 193.029 190.816C194.105 192.199 195.841 195.287 198.239 200.08C200.623 204.854 202.404 207.999 203.582 209.515C203.936 209.969 204.225 210.128 204.451 209.991C204.574 209.916 204.823 209.499 205.2 208.739L205.374 208.382L206.732 209.021ZM192.183 204.353C191.466 204.789 191.349 205.824 191.832 207.455C192.337 209.075 193.089 210.528 194.091 211.817C195.078 213.086 195.804 213.845 196.268 214.092C196.753 214.328 197.191 214.327 197.58 214.09C198.257 213.678 198.724 213.016 198.982 212.105C198.454 211.31 196.956 208.51 194.488 203.704C193.526 203.787 192.757 204.003 192.183 204.353Z" fill="white"/>
<path d="M89.489 118.059C89.0883 116.663 88.8141 114.921 88.6666 112.833C88.519 110.745 88.5057 108.604 88.6267 106.409C88.8175 104.155 89.0645 102.003 89.3677 99.9529C89.7354 97.9085 90.2018 96.2291 90.7671 94.9149C91.8302 94.6157 92.8829 94.0562 93.9252 93.2364C94.973 92.3522 95.9061 90.9069 96.7245 88.9006C97.5484 86.83 98.1211 83.8949 98.4428 80.0953C98.7916 75.9737 98.6669 72.8498 98.0686 70.7236C97.5401 68.5385 96.7906 67.0481 95.8202 66.2525C94.9196 65.3979 94.0829 64.9379 93.3101 64.8725C92.8286 63.6643 92.5436 62.0511 92.455 60.0329C92.3664 58.0147 92.4175 55.8786 92.6083 53.6246C92.8689 51.3117 93.2502 49.1063 93.7521 47.0083C94.2594 44.846 94.9005 43.0193 95.6753 41.5282C96.7003 41.6799 98.3665 41.9182 100.674 42.2432C103.051 42.5093 105.78 42.8376 108.86 43.2281C112.01 43.5596 115.289 43.902 118.697 44.2553C122.105 44.6086 125.448 44.9565 128.727 45.2989C132.076 45.5824 135.07 45.8359 137.711 46.0594C144.473 46.6317 151.983 47.1702 160.243 47.6748C168.567 48.1848 176.832 48.625 185.038 48.9953C185.256 50.2461 185.396 52.0416 185.457 54.3818C185.519 56.722 185.494 59.3143 185.383 62.1588C185.272 65.0033 185.094 67.8745 184.848 70.7725C184.603 73.6705 184.28 76.3349 183.88 78.7657C183.485 81.1321 183.037 82.9752 182.536 84.2949C179.477 84.4251 176.106 84.3992 172.424 84.2173C168.743 84.0353 165.008 83.7192 161.219 83.2687C157.495 82.8238 153.975 82.2664 150.658 81.5965C150.142 78.5043 150.395 75.5097 151.419 72.6128L140.213 71.6642L139.87 75.7214L148.854 76.4819L147.717 89.9091L138.637 89.1405L138.285 93.2943L149.587 94.251C149.071 91.1588 149.327 88.132 150.356 85.1707C155.793 85.3066 161.345 85.6144 167.012 86.0941C172.679 86.5738 177.946 87.1818 182.813 87.9181C182.908 89.0936 182.911 90.9749 182.822 93.5617C182.738 96.0842 182.56 98.9555 182.287 102.175C182.02 105.331 181.686 108.513 181.285 111.722C180.948 114.937 180.576 117.792 180.171 120.287C179.765 122.782 179.355 124.564 178.94 125.631C172.189 124.93 164.872 124.019 156.989 122.897C149.1 121.841 141.357 120.99 133.757 120.347C129.636 119.998 125.286 119.663 120.708 119.34C116.19 119.087 111.799 118.845 107.538 118.614C103.336 118.453 99.6193 118.301 96.3884 118.157C93.2165 118.083 90.9167 118.05 89.489 118.059Z" fill="white"/>
<path d="M127.641 7.00102C115.444 14.8138 109.608 38.3281 107.38 49.5118C114.169 29.869 124.127 16.676 127.003 14.5286C140.685 4.31442 152.774 12.9193 157.546 17.114C165.817 25.3957 171.506 43.9888 172.282 55.0057C174.746 25.8988 162.535 13.1673 158.183 9.58637C149.624 2.54392 135.159 2.18503 127.641 7.00102Z" fill="white"/>
<circle cx="109.017" cy="48.1302" r="3.02952" transform="rotate(4.83842 109.017 48.1302)" fill="white"/>
<circle cx="170.901" cy="53.3686" r="3.02952" transform="rotate(4.83842 170.901 53.3686)" fill="white"/>
<path d="M66.823 65.2963C50.6725 51.4672 14.7888 57.3242 2.7016 63.1631C2.15867 63.4253 1.80352 63.9356 1.70083 64.5298C1.44088 66.0339 2.93385 67.25 4.37559 66.7486C34.2599 56.3563 62.5886 65.5838 63.9195 72.9358L71.6522 130.137C71.6818 130.356 71.6919 130.559 71.692 130.78C71.6953 138.313 79.2889 167.918 109.27 167.241C111.114 167.2 112.928 166.768 114.656 166.122L199.908 134.269C199.992 134.237 200.072 134.197 200.148 134.149C201.364 133.373 200.564 131.492 199.162 131.83L112.499 152.719C93.8718 156.696 84.0494 137.318 80.6371 126.811L70.9911 73.5246C70.4271 70.409 69.228 67.3557 66.823 65.2963Z" fill="white"/>
<circle cx="132.104" cy="181.137" r="14.0416" fill="white"/>
<circle cx="182.654" cy="162.883" r="14.0416" fill="white"/>
</svg>
