<svg width="47" height="30" viewBox="0 0 47 30" fill="none" xmlns="http://www.w3.org/2000/svg">
<path d="M27.8334 9.75H30.9054C31.0912 9.75018 31.2703 9.81933 31.408 9.94403C31.5457 10.0687 31.6323 10.2401 31.6509 10.425L32.1084 15H30.5994L30.2244 11.25H27.8334V13.5C27.8334 13.6989 27.7544 13.8897 27.6137 14.0303C27.473 14.171 27.2823 14.25 27.0834 14.25C26.8845 14.25 26.6937 14.171 26.553 14.0303C26.4124 13.8897 26.3334 13.6989 26.3334 13.5V11.25H20.3334V13.5C20.3334 13.6989 20.2544 13.8897 20.1137 14.0303C19.973 14.171 19.7823 14.25 19.5834 14.25C19.3845 14.25 19.1937 14.171 19.053 14.0303C18.9124 13.8897 18.8334 13.6989 18.8334 13.5V11.25H16.4409L15.2409 23.25H23.3334V24.75H14.4114C14.3066 24.7499 14.203 24.7278 14.1073 24.6853C14.0116 24.6427 13.9259 24.5806 13.8556 24.5028C13.7854 24.4251 13.7322 24.3335 13.6996 24.234C13.6669 24.1345 13.6554 24.0292 13.6659 23.925L15.0159 10.425C15.0344 10.2401 15.121 10.0687 15.2587 9.94403C15.3965 9.81933 15.5756 9.75018 15.7614 9.75H18.8334V9.2265C18.8334 6.6255 20.8374 4.5 23.3334 4.5C25.8294 4.5 27.8334 6.6255 27.8334 9.2265V9.7515V9.75ZM26.3334 9.75V9.2265C26.3334 7.4355 24.9804 6 23.3334 6C21.6864 6 20.3334 7.4355 20.3334 9.2265V9.7515H26.3334V9.75ZM31.0539 21.09L29.3334 19.371V24.75C29.3334 24.9489 29.2544 25.1397 29.1137 25.2803C28.973 25.421 28.7823 25.5 28.5834 25.5C28.3845 25.5 28.1937 25.421 28.053 25.2803C27.9124 25.1397 27.8334 24.9489 27.8334 24.75V19.371L26.1144 21.09C26.0452 21.1616 25.9624 21.2188 25.8709 21.2581C25.7794 21.2974 25.681 21.3181 25.5814 21.3189C25.4818 21.3198 25.3831 21.3008 25.2909 21.2631C25.1987 21.2254 25.115 21.1697 25.0446 21.0993C24.9742 21.0289 24.9185 20.9451 24.8808 20.853C24.843 20.7608 24.8241 20.662 24.8249 20.5625C24.8258 20.4629 24.8465 20.3644 24.8858 20.2729C24.9251 20.1814 24.9822 20.0987 25.0539 20.0295L28.0539 17.0295C28.1945 16.8889 28.3852 16.8099 28.5841 16.8099C28.783 16.8099 28.9737 16.8889 29.1144 17.0295L32.1144 20.0295C32.186 20.0987 32.2431 20.1814 32.2824 20.2729C32.3218 20.3644 32.3424 20.4629 32.3433 20.5625C32.3442 20.662 32.3252 20.7608 32.2875 20.853C32.2498 20.9451 32.1941 21.0289 32.1237 21.0993C32.0532 21.1697 31.9695 21.2254 31.8773 21.2631C31.7852 21.3008 31.6864 21.3198 31.5868 21.3189C31.4872 21.3181 31.3888 21.2974 31.2973 21.2581C31.2058 21.2188 31.1231 21.1616 31.0539 21.09Z" fill="#A3A3A4"/>
</svg>
