<svg width="28" height="28" viewBox="0 0 28 28" fill="none" xmlns="http://www.w3.org/2000/svg">
<rect width="28" height="28" rx="6" fill="url(#paint0_linear_89_1846)"/>
<path fill-rule="evenodd" clip-rule="evenodd" d="M5.95437 5.87083C6.07876 5.76278 6.23239 5.69402 6.39585 5.67326C6.5593 5.65249 6.72525 5.68065 6.8727 5.75417L21.8727 13.2542C22.0114 13.3233 22.128 13.4297 22.2096 13.5614C22.2911 13.6932 22.3343 13.8451 22.3343 14C22.3343 14.1549 22.2911 14.3068 22.2096 14.4386C22.128 14.5703 22.0114 14.6767 21.8727 14.7458L6.8727 22.2458C6.72526 22.3196 6.55924 22.348 6.39566 22.3274C6.23208 22.3068 6.07828 22.2381 5.95374 22.1301C5.8292 22.022 5.7395 21.8795 5.696 21.7204C5.6525 21.5614 5.65715 21.3931 5.70937 21.2367L7.84437 14.8333H12.3335C12.5545 14.8333 12.7665 14.7455 12.9228 14.5893C13.0791 14.433 13.1669 14.221 13.1669 14C13.1669 13.779 13.0791 13.567 12.9228 13.4107C12.7665 13.2545 12.5545 13.1667 12.3335 13.1667H7.84437L5.70854 6.76333C5.65659 6.60701 5.65214 6.4388 5.69574 6.27994C5.73935 6.12109 5.82989 5.97873 5.95437 5.87083Z" fill="white"/>
<defs>
<linearGradient id="paint0_linear_89_1846" x1="14" y1="0" x2="14" y2="28" gradientUnits="userSpaceOnUse">
<stop stop-color="#450E8B"/>
<stop offset="1" stop-color="#EC8C34"/>
</linearGradient>
</defs>
</svg>
