<svg width="32" height="32" viewBox="0 0 32 32" fill="none" xmlns="http://www.w3.org/2000/svg">
<path d="M7 25H9V19H7V25ZM16.46 26L13.53 25.36L10.6 24.67C10.4304 24.6369 10.278 24.5448 10.17 24.41C10.0582 24.2791 9.99783 24.1121 10 23.94V19.94C10.0028 19.7688 10.0626 19.6034 10.17 19.47C10.2817 19.3394 10.4325 19.2482 10.6 19.21L15.38 18.62L20.17 18.02L20.32 18.58L20.47 19.13C20.4727 19.3144 20.4204 19.4954 20.32 19.65C20.2281 19.8117 20.0884 19.941 19.92 20.02L17.92 20.52L15.92 21.02L17.54 21.68L19.17 22.33L21.44 21.69L23.65 21C23.8464 20.9503 24.0544 20.979 24.23 21.08C24.3184 21.1278 24.3961 21.1933 24.458 21.2724C24.52 21.3516 24.5649 21.4427 24.59 21.54L24.78 22.31L24.98 23.07C25.0254 23.2601 24.9968 23.4602 24.9 23.63C24.7971 23.8013 24.6325 23.9265 24.44 23.98L20.81 24.98L17.18 25.98C17.0605 25.9953 16.9395 25.9953 16.82 25.98C16.7019 26.0064 16.5803 26.0132 16.46 26ZM13 8L11 10L9 12L11 14L13 16L13.7 15.3L14.4 14.6L13.1 13.3L11.8 12L13.1 10.7L14.4 9.4L13.7 8.7L13 8ZM19 8L18.3 8.7L17.6 9.4L18.9 10.7L20.2 12L18.9 13.3L17.6 14.6L18.3 15.3L19 16L21 14L23 12L21 10L19 8Z" fill="url(#paint0_linear_39_2884)"/>
<defs>
<linearGradient id="paint0_linear_39_2884" x1="16.0005" y1="8" x2="16.0005" y2="26.0065" gradientUnits="userSpaceOnUse">
<stop stop-color="#450E8B"/>
<stop offset="1" stop-color="#EC8C34"/>
</linearGradient>
</defs>
</svg>
