<svg width="193" height="341" viewBox="0 0 193 341" fill="none" xmlns="http://www.w3.org/2000/svg">
<path d="M17.8503 121.878C17.9665 121.382 18.0827 120.885 18.1159 120.802C18.1657 120.67 38.8489 120.62 87.0543 120.62C146.78 120.62 156.009 120.653 156.474 120.852C156.773 120.984 157.188 121.249 157.387 121.431C157.719 121.729 157.736 121.829 157.586 122.16C157.47 122.358 156.756 123.6 155.976 124.925C155.196 126.249 153.735 128.634 152.739 130.223C151.727 131.813 150.033 134.445 148.954 136.068C147.859 137.674 146.946 138.999 146.896 138.999C146.846 138.999 146.614 138.85 145.9 138.32L15.1777 138.336L15.2773 137.558C15.3437 137.111 15.4599 136.432 15.5429 136.018C15.6259 135.604 15.8085 134.495 15.9247 133.535C16.0575 132.574 16.2401 131.581 16.3231 131.299C16.4061 131.035 16.5223 130.323 16.5555 129.727C16.6053 129.13 16.8045 128.021 16.9871 127.243C17.1697 126.465 17.3191 125.571 17.3191 125.256C17.3191 124.941 17.4021 124.246 17.5017 123.733C17.5847 123.203 17.7507 122.375 17.8503 121.878L17.8503 121.878Z" fill="#F6883D"/>
<path d="M15.0116 139.495C15.0946 139.495 15.1776 139.231 15.1776 138.916V138.336H145.983L146.863 139.082L146.315 139.909L146.249 140.003C145.855 140.561 144.717 142.176 143.593 143.718C142.414 145.357 140.322 148.155 138.945 149.927C137.567 151.698 135.691 154.083 134.762 155.225C133.832 156.368 132.919 157.444 132.72 157.626C132.438 157.891 132.321 157.924 132.155 157.742C132.006 157.576 128.703 157.543 116.187 157.543C101.479 157.543 100.4 157.576 100.118 157.841C99.9521 158.007 99.8193 158.355 99.8359 158.653C99.8359 158.951 99.8027 159.199 99.7529 159.199C99.7031 159.199 98.8233 158.669 97.7942 158.023C96.7816 157.361 95.4038 156.517 94.773 156.136C94.1422 155.755 93.3621 155.308 93.0633 155.159C92.7811 155.01 92.2499 154.894 91.9013 154.894C91.5693 154.894 91.1211 155.01 90.9053 155.142C90.6065 155.358 90.5401 155.54 90.5401 157.212L89.0959 157.311C88.2825 157.361 70.6537 157.444 12.1897 157.543L12.2727 157.013C12.3059 156.715 12.4221 155.805 12.5217 154.977C12.6213 154.149 12.8205 152.775 12.9533 151.914C13.0861 151.053 13.3185 149.745 13.4679 149.016C13.6173 148.288 13.7833 147.211 13.8497 146.615C13.9161 146.019 14.0821 144.943 14.2315 144.214C14.3643 143.486 14.5634 142.343 14.663 141.698C14.7626 141.035 14.8456 140.274 14.8456 139.992C14.8456 139.711 14.9286 139.495 15.0116 139.495Z" fill="#F47C3A"/>
<path d="M4.50403 203.408C4.53723 202.994 4.60363 202.563 4.63683 202.464V202.447C4.70323 202.298 12.8039 202.249 84.2322 202.249L85.3112 203.226L84.8962 203.623C84.6638 203.855 83.0204 205.13 81.2443 206.487C79.4681 207.829 76.5466 209.981 74.7704 211.272C72.9942 212.564 70.2553 214.501 68.7115 215.561C67.1678 216.637 64.1798 218.657 62.0717 220.048C59.9635 221.422 56.9424 223.376 55.3488 224.386C53.7552 225.379 51.0329 227.068 49.2899 228.111C47.547 229.155 44.9076 230.711 43.397 231.589C41.8865 232.45 39.3135 233.907 37.6702 234.817C36.0268 235.728 33.6696 237.019 32.4413 237.665C31.2129 238.327 27.9262 240 25.1374 241.374C22.3487 242.765 18.7631 244.487 17.1696 245.199C15.576 245.927 14.165 246.59 14.0322 246.689C13.8662 246.822 13.833 247.12 14.0156 248.775L13.4015 248.676C13.0529 248.626 12.3225 248.394 11.7747 248.163C11.2269 247.931 10.2475 247.401 9.61673 246.987C8.98594 246.573 7.74097 245.53 6.87778 244.652C6.0146 243.775 4.96882 242.583 4.57043 241.987C4.15544 241.391 3.49145 240.314 3.05986 239.586C2.64487 238.857 1.99748 237.549 1.61569 236.688C1.2505 235.827 0.868707 234.884 0.752509 234.619C0.652912 234.337 0.420516 233.526 0.23792 232.797C-0.0276746 231.671 -0.0608739 231.291 0.0885231 230.314C0.171521 229.668 0.320918 228.625 0.420516 227.996C0.520114 227.35 0.702711 226.24 0.852107 225.512C0.984905 224.783 1.1675 223.707 1.2339 223.111C1.3169 222.515 1.4663 221.621 1.56589 221.124C1.66549 220.627 1.81489 219.733 1.89789 219.137C1.98088 218.541 2.13028 217.614 2.22988 217.068C2.32948 216.521 2.51207 215.296 2.64487 214.336C2.77767 213.375 2.96026 212.431 3.05986 212.216C3.14286 212.018 3.22586 211.604 3.22586 211.306C3.22586 211.024 3.37526 209.882 3.57445 208.789C3.75705 207.696 4.02264 206.206 4.17204 205.477C4.32144 204.749 4.47083 203.822 4.50403 203.408Z" fill="#EF5731"/>
<path d="M58.3367 230.198C59.6481 229.353 61.8227 227.929 63.1506 227.052C64.4786 226.174 65.624 225.446 65.6904 225.446C65.7734 225.429 65.8398 225.595 65.8896 226.174L99.0889 226.34L99.2051 227.25C99.2881 227.747 99.4541 228.939 99.5869 229.9C99.7201 230.756 99.9458 232.271 100.123 233.458L100.184 233.873C100.367 235.099 100.633 236.738 100.765 237.516C100.898 238.294 101.131 239.602 101.28 240.414C101.429 241.225 101.728 242.616 101.944 243.477C102.21 244.536 102.475 245.232 102.807 245.629C103.056 245.944 103.521 246.374 103.836 246.59C104.235 246.854 104.633 246.954 105.978 246.954L112.003 240.861C115.307 237.516 118.842 233.94 121.664 231.059H124.154L125.018 232.516C125.482 233.31 126.412 234.85 127.059 235.943C127.723 237.036 128.404 238.195 128.586 238.509C128.786 238.824 129.101 239.354 129.317 239.669C129.533 239.983 129.715 240.314 129.715 240.414C129.715 240.513 129.898 240.844 130.097 241.159C130.313 241.473 130.595 242.152 130.711 242.649C130.861 243.245 130.894 244.04 130.811 244.967C130.744 245.911 130.578 246.639 130.329 247.202C130.114 247.649 129.616 248.345 129.25 248.725C128.869 249.123 128.155 249.62 127.69 249.835C127.209 250.067 126.512 250.315 126.146 250.398C125.781 250.497 124.287 250.646 122.826 250.746C121.366 250.845 117.216 251.01 113.614 251.11C108.966 251.259 99.5039 251.275 81.0783 251.193C66.7859 251.143 53.4896 251.06 51.5309 251.027C49.5721 250.994 45.6878 250.878 42.899 250.779C40.1103 250.696 36.4584 250.563 34.7652 250.514C33.072 250.464 29.6359 250.348 27.1294 250.249C24.6228 250.166 21.8673 250.017 21.0207 249.934C20.1907 249.835 19.3607 249.769 19.2113 249.769C18.9623 249.769 18.9623 249.736 19.1615 249.537C19.2943 249.404 20.0081 249.173 20.7385 249.024C21.4689 248.875 23.1454 248.361 24.4734 247.865C25.8014 247.384 28.2913 246.374 30.0343 245.629C31.7773 244.868 35.0972 243.295 37.4211 242.136C39.7451 240.96 42.6998 239.42 43.978 238.708C45.2562 237.996 47.4639 236.738 48.8749 235.91C50.2859 235.082 52.4604 233.807 53.6888 233.079C54.9172 232.35 57.0087 231.042 58.3367 230.198Z" fill="#8C00B2"/>
<path d="M154.98 229.105C154.133 227.813 153.486 226.671 153.552 226.588C153.602 226.472 160.259 226.439 192.877 226.505L192.977 227.664C193.026 228.293 192.993 229.154 192.91 229.568C192.827 229.982 192.611 230.727 192.445 231.224C192.296 231.721 191.898 232.814 191.582 233.625C191.25 234.436 190.736 235.628 190.42 236.274C190.105 236.903 189.54 237.947 189.142 238.592C188.76 239.221 188.03 240.265 187.515 240.91C187.001 241.54 186.254 242.384 185.839 242.781C185.424 243.179 184.627 243.824 184.079 244.222C183.531 244.619 182.519 245.199 181.838 245.513C181.158 245.844 180.112 246.225 179.514 246.374C178.834 246.556 177.605 246.672 176.194 246.705C174.667 246.755 173.555 246.689 172.708 246.523C172.028 246.391 170.866 246.093 170.135 245.861C169.405 245.629 168.177 245.149 167.397 244.785C166.616 244.421 165.587 243.891 165.089 243.593C164.243 243.096 163.977 242.748 160.342 237.268C158.234 234.072 155.81 230.413 154.98 229.105Z" fill="#8C00B2"/>
<path d="M49.7879 157.527C70.4213 157.527 87.4525 157.46 87.6351 157.378C87.8177 157.295 88.5481 157.229 89.2453 157.229C90.4405 157.212 90.5401 157.245 90.5401 157.543C90.5401 157.725 90.5899 157.908 90.6562 157.941C90.7393 157.974 90.8554 158.735 90.9218 159.629C90.9882 160.54 91.1376 161.6 91.2206 162.014C91.3202 162.428 91.453 163.504 91.536 164.415C91.6024 165.325 91.785 166.898 91.9178 167.892C92.0672 168.885 92.3328 171.054 92.532 172.693C92.7146 174.333 92.947 176.237 93.03 176.916C93.1296 177.594 93.196 178.29 93.196 178.439C93.196 178.72 91.0712 178.737 8.53772 178.737L8.63732 178.19C8.68712 177.909 8.80331 177.479 8.86971 177.247C8.95271 177.015 9.13531 175.823 9.2847 174.598C9.4341 173.372 9.6333 172.23 9.7163 172.064C9.79929 171.915 9.86569 171.435 9.86569 170.988C9.88229 170.557 9.99849 169.73 10.1313 169.134C10.2807 168.537 10.4467 167.527 10.5297 166.898C10.5961 166.269 10.7787 165.243 10.9281 164.613C11.0775 164.001 11.1937 163.256 11.1937 162.958C11.1937 162.676 11.3431 161.832 11.5257 161.103C11.7083 160.375 11.8577 159.464 11.8577 159.067C11.8577 158.686 11.9573 158.189 12.2726 157.527H49.7879Z" fill="#F36F37"/>
<path d="M99.8027 158.719C99.7861 158.355 99.8857 158.04 100.085 157.841C100.367 157.56 101.097 157.543 116.17 157.543C130.213 157.527 131.973 157.56 132.155 157.792C132.272 157.924 132.321 158.139 132.255 158.239C132.189 158.355 130.977 159.795 129.566 161.434C128.155 163.073 125.532 166.021 123.739 167.974C121.947 169.928 120.453 171.634 120.403 171.75C120.353 171.899 119.739 171.601 118.51 170.822C117.515 170.193 116.319 169.465 115.888 169.2C115.44 168.935 114.908 168.604 114.693 168.471C114.493 168.339 113.879 167.958 113.365 167.643C112.85 167.329 112.236 166.948 112.037 166.815C111.821 166.683 111.041 166.186 110.294 165.739C109.547 165.276 108.766 164.795 108.551 164.663C108.351 164.531 107.737 164.15 107.223 163.835C106.692 163.521 106.028 163.107 105.729 162.924C105.43 162.742 103.986 161.848 102.508 160.938C99.9521 159.348 99.8359 159.265 99.8027 158.719Z" fill="#F36F37"/>
<path d="M88.7972 56.7409C119.756 56.6912 125.034 56.6416 125.233 56.4429C125.416 56.2607 126.246 56.2111 129.583 56.2111C132.222 56.2111 133.699 56.2773 133.699 56.3766C133.699 56.4925 138.082 56.5588 159.18 56.6416L160.342 57.1052C160.973 57.3535 161.803 57.7178 162.168 57.8999C162.533 58.0821 163.28 58.5457 163.828 58.9431C164.375 59.3239 165.156 60.0027 165.554 60.4498C165.936 60.8968 166.434 61.5591 166.616 61.9234C166.816 62.2877 167.098 62.95 167.264 63.4136C167.413 63.8606 167.546 64.7051 167.563 66.3112H166.982C166.5 66.3112 166.135 66.5264 164.873 67.6026C164.027 68.3146 162.798 69.3081 162.168 69.8379C161.537 70.3512 160.956 70.7651 160.89 70.7817C160.807 70.7817 160.558 70.6327 159.844 70.1028L25.3865 70.1194L25.4363 69.2418C25.4529 68.7782 25.5525 67.9669 25.6521 67.4702C25.7351 66.9735 25.9177 66.0794 26.0671 65.4833C26.1999 64.8872 26.5153 63.96 26.7642 63.4136C27.0298 62.8672 27.5444 61.9731 27.9096 61.4267C28.2748 60.8803 28.9388 60.0855 29.387 59.6716C29.8352 59.2576 30.6154 58.645 31.1134 58.3139C31.6113 57.9827 32.6239 57.4694 34.6823 56.625L43.6461 56.7078C48.5762 56.7575 68.8942 56.774 88.7972 56.7409Z" fill="#C91470"/>
<path d="M8.20578 181.303C8.30538 181.072 8.42157 180.409 8.47137 179.813L8.58757 178.737L93.2791 178.82L93.3123 179.399C93.3455 179.714 93.4617 180.906 93.6111 182.048C93.7439 183.191 93.9928 185.343 94.1754 186.85L94.2061 187.103C94.3867 188.593 94.6309 190.608 94.7564 191.735C94.8892 192.927 95.0386 194.351 95.105 194.914C95.188 195.907 95.1714 195.957 94.8228 195.957C94.607 195.94 94.109 196.238 93.694 196.586C93.2791 196.934 91.5693 198.341 89.8761 199.699L89.8759 199.699C88.1828 201.057 86.4898 202.414 85.3942 203.242L84.2322 202.249H4.71985L4.80285 201.785C4.85265 201.537 4.96884 200.775 5.06844 200.096C5.16804 199.417 5.35064 198.374 5.48343 197.778C5.59963 197.182 5.83203 195.742 5.98142 194.549C6.11422 193.357 6.31342 192.264 6.39641 192.099C6.47941 191.95 6.54581 191.536 6.54581 191.205C6.54581 190.857 6.69521 189.797 6.86121 188.837C7.0438 187.877 7.3094 186.42 7.45879 185.608C7.62479 184.797 7.80739 183.572 7.89038 182.926C7.97338 182.264 8.12278 181.535 8.20578 181.303Z" fill="#F16233"/>
<path d="M175.315 199.252C180.958 199.252 185.723 199.185 185.905 199.103C186.088 199.02 186.884 198.954 187.681 198.954C188.959 198.937 189.142 198.97 189.142 199.235C189.159 199.384 189.192 199.931 189.242 200.427C189.291 200.924 189.374 201.454 189.424 201.586C189.474 201.719 189.607 202.398 189.723 203.076C189.856 203.755 189.906 204.418 189.872 204.534C189.839 204.633 189.872 204.765 189.972 204.815C190.072 204.865 190.138 205.146 190.138 205.444C190.138 205.726 190.254 206.653 190.387 207.464C190.503 208.276 190.736 209.815 190.885 210.859C191.034 211.902 191.3 213.69 191.466 214.832C191.649 215.975 191.898 217.862 192.047 219.055C192.196 220.247 192.379 221.687 192.462 222.283C192.545 222.879 192.645 224.055 192.794 226.423H173.289C162.566 226.423 153.669 226.456 153.536 226.505C153.353 226.572 152.54 225.462 150.697 222.664C149.27 220.495 147.61 217.978 147.012 217.068C146.215 215.826 145.966 215.313 146.049 215.048C146.099 214.832 146.315 214.634 146.514 214.601C146.73 214.567 147.195 214.418 147.56 214.269C147.925 214.137 148.755 213.839 149.386 213.591C150.017 213.359 151.179 212.928 151.959 212.663C152.739 212.382 154.532 211.753 155.943 211.256C157.354 210.759 159.263 210.097 160.176 209.799C161.089 209.501 162.466 209.054 163.247 208.805C164.027 208.557 164.99 208.276 165.405 208.176C165.82 208.093 166.6 207.944 167.147 207.829C167.911 207.679 168.293 207.497 168.758 207.05C169.339 206.52 169.372 206.405 169.388 205.527C169.388 204.964 169.272 204.285 169.106 203.888C168.841 203.292 168.542 203.043 166.649 201.868C165.454 201.139 164.425 200.494 164.359 200.444C164.292 200.394 164.409 200.096 165.073 199.268L175.315 199.252Z" fill="#9500BD"/>
<path d="M93.528 204.55C94.026 204.12 94.7729 203.507 95.1879 203.159C95.8519 202.613 95.9349 202.58 96.0345 202.861C96.1009 203.027 96.1673 203.606 96.2005 204.153C96.2171 204.699 96.3001 205.328 96.3665 205.56C96.4329 205.792 96.5823 206.785 96.6819 207.795C96.7815 208.805 96.8977 210.031 96.9475 210.527C96.9807 211.024 97.1301 212.067 97.2629 212.845C97.3957 213.624 97.6613 215.478 97.8605 216.985C98.0431 218.492 98.2589 220.247 98.3419 220.876C98.4249 221.505 98.5577 222.482 98.6407 223.028C98.7403 223.575 98.8565 224.518 99.0059 226.257L65.8895 226.174L65.8397 225.76C65.7899 225.413 65.9559 225.23 66.7527 224.684C67.2839 224.32 67.8649 223.956 68.0475 223.889C68.2301 223.807 69.6079 222.879 71.1184 221.82C72.629 220.76 75.1355 218.972 76.6793 217.846C78.2231 216.703 80.8458 214.766 82.4726 213.524C84.116 212.282 86.8051 210.196 88.4485 208.888C90.1084 207.58 91.7186 206.239 92.034 205.908C92.366 205.577 93.03 204.964 93.528 204.55Z" fill="#9500BD"/>
<path d="M113.945 102.639C115.456 101.976 117.249 101.181 117.929 100.85C118.61 100.536 119.224 100.271 119.307 100.271C119.374 100.254 119.423 100.536 119.423 100.883C119.423 101.215 119.54 101.662 119.921 102.241H143.825C156.972 102.241 167.728 102.291 167.728 102.374C167.728 102.44 167.446 103.119 167.081 103.897C166.732 104.675 165.803 106.612 165.039 108.202C164.276 109.791 162.914 112.474 162.018 114.163C161.122 115.851 159.827 118.219 159.163 119.428C158.482 120.62 157.835 121.613 157.735 121.613C157.619 121.63 157.403 121.498 157.271 121.349C157.138 121.2 156.773 120.968 156.49 120.835C156.026 120.653 144.406 120.62 18.4974 120.62V119.627L20.4396 119.759C21.5186 119.825 26.6147 119.875 31.7772 119.875C37.7862 119.875 42.235 119.792 44.1439 119.66C45.7873 119.544 48.3602 119.345 49.8708 119.196C51.3814 119.064 53.8879 118.815 55.4317 118.617C56.9755 118.434 59.482 118.103 60.9926 117.888C62.5031 117.673 64.8437 117.292 66.2215 117.06C67.5826 116.828 69.8236 116.414 71.2014 116.133C72.5625 115.868 75.3015 115.272 77.2602 114.825C79.219 114.378 82.2069 113.633 83.9001 113.186C85.5933 112.739 88.5812 111.878 90.54 111.282C92.4987 110.685 95.4535 109.742 97.0968 109.179C98.7402 108.632 101.247 107.738 102.658 107.208C104.069 106.679 106.575 105.718 108.219 105.056C109.862 104.394 112.435 103.317 113.945 102.639Z" fill="#F79240"/>
<path d="M145.419 149.182C146.498 147.642 147.676 145.953 148.025 145.456L148.639 144.546H180.477L180.676 145.87C180.776 146.599 180.958 147.791 181.091 148.519C181.207 149.248 181.44 150.622 181.589 151.583C181.739 152.543 181.971 153.95 182.087 154.728C182.22 155.507 182.486 157.096 182.668 158.288C182.867 159.48 183.133 161.07 183.249 161.848C183.365 162.626 183.598 164.034 183.747 164.994C183.897 165.954 184.129 167.329 184.262 168.057C184.395 168.786 184.494 169.481 184.494 169.581C184.494 169.746 178.884 169.796 157.022 169.796C138.878 169.796 129.516 169.746 129.466 169.63C129.417 169.547 129.599 169.216 129.865 168.935C130.13 168.637 130.529 168.173 130.761 167.892C130.993 167.61 131.807 166.65 132.57 165.739C133.334 164.829 134.396 163.52 134.944 162.842C135.492 162.163 135.99 161.567 136.04 161.517C136.09 161.467 137.086 160.209 138.248 158.702C139.41 157.196 140.638 155.639 140.97 155.225C141.302 154.811 141.999 153.917 142.514 153.238C143.012 152.559 144.323 150.722 145.419 149.182Z" fill="#B100E1"/>
<path d="M127.325 171.865C127.425 171.766 127.889 171.253 128.354 170.706L129.201 169.713L156.723 169.746C171.862 169.779 184.345 169.829 184.461 169.879C184.561 169.928 184.66 170.16 184.66 170.425C184.66 170.673 184.76 171.468 184.893 172.197C185.025 172.925 185.258 174.266 185.391 175.177C185.523 176.088 185.806 177.793 185.988 178.985C186.187 180.177 186.436 181.767 186.569 182.545C186.685 183.323 186.918 184.764 187.067 185.774C187.217 186.784 187.449 188.191 187.582 188.92C187.715 189.648 187.814 190.526 187.814 190.874C187.814 191.205 187.93 191.917 188.063 192.43C188.196 192.96 188.362 193.92 188.412 194.549C188.462 195.178 188.578 195.924 188.661 196.205C188.744 196.487 188.86 197.198 188.976 198.937L187.449 199.036C186.602 199.086 181.224 199.152 165.073 199.268L164.658 199.765C164.425 200.046 164.209 200.262 164.16 200.262C164.11 200.262 163.379 199.815 162.549 199.268C161.703 198.722 160.441 197.944 159.761 197.53C159.08 197.116 158.084 196.487 157.57 196.155C157.052 195.833 155.763 195.008 154.669 194.307L154.582 194.251C153.453 193.539 152.39 192.86 152.208 192.761C152.025 192.645 151.527 192.314 151.096 192.033C150.647 191.735 150.266 191.486 150.216 191.486C150.166 191.486 149.934 191.354 149.685 191.172C149.419 191.006 148.805 190.609 148.307 190.277C147.809 189.963 146.531 189.168 145.485 188.506C144.439 187.843 143.144 187.016 142.63 186.668C142.099 186.304 141.634 186.022 141.584 186.022C141.534 186.022 141.302 185.89 141.053 185.708C140.787 185.542 140.173 185.145 139.675 184.813C139.177 184.499 137.484 183.439 135.94 182.462C134.396 181.485 132.703 180.409 132.205 180.078C131.707 179.747 131.159 179.416 130.993 179.316C130.844 179.217 129.832 178.588 128.753 177.909C127.69 177.23 126.462 176.435 126.03 176.137C125.582 175.839 125.15 175.591 125.067 175.591C124.984 175.591 124.868 175.392 124.835 175.144C124.785 174.763 124.984 174.448 125.964 173.356C126.611 172.627 127.225 171.965 127.325 171.865Z" fill="#A500D1"/>
<path d="M93.8599 0.412173C95.0883 0.23004 96.4329 0.064465 96.8479 0.0313499C97.2629 -0.0183227 98.0098 -0.00176519 98.5078 0.0313499C99.0058 0.0810225 99.5536 0.180368 99.703 0.263155C99.869 0.345943 100.218 0.412173 100.5 0.412173C100.782 0.412173 101.429 0.528076 101.944 0.660536C102.475 0.792997 103.621 1.15726 104.484 1.4553C105.347 1.76989 106.691 2.33285 107.472 2.69711C108.252 3.07794 109.298 3.62434 109.796 3.90581C110.294 4.18729 111.157 4.73369 111.705 5.09796C112.252 5.46222 113.232 6.1742 113.863 6.68748C114.493 7.18421 115.854 8.40946 116.85 9.41947C117.863 10.4295 119.058 11.7375 119.506 12.3336C119.955 12.9297 120.436 13.5257 120.569 13.6582C120.702 13.7907 121.415 14.8338 122.179 15.9763C122.943 17.1187 123.557 18.0956 123.573 18.1619C123.573 18.2446 123.889 18.8407 124.287 19.4865C124.685 20.1488 125.399 21.5065 125.881 22.5165C126.379 23.5099 127.026 24.967 127.341 25.7452C127.657 26.5234 128.138 27.7487 128.404 28.4772C128.686 29.2057 129.084 30.3648 129.317 31.0436C129.533 31.7225 129.748 32.5007 129.782 32.7822C129.815 33.0636 129.964 33.5769 130.114 33.9412C130.28 34.3055 130.545 35.1664 130.744 35.8453C130.927 36.5242 131.242 37.7991 131.458 38.6601C131.674 39.5211 131.89 40.5642 131.973 40.9781C132.039 41.3921 132.089 41.8226 132.072 41.9219C132.056 42.0378 132.122 42.1703 132.205 42.22C132.288 42.2696 132.371 42.5014 132.371 42.7498C132.371 43.0147 132.471 43.7433 132.604 44.3724C132.736 45.0016 133.002 46.6905 133.185 48.0979C133.384 49.5053 133.6 51.3266 133.666 52.1545C133.732 52.9658 133.766 54.2242 133.699 56.2111H125.482L125.366 55.3501C125.283 54.8699 125.15 53.6447 125.067 52.6512C124.968 51.6412 124.818 50.5318 124.719 50.1676C124.619 49.8033 124.47 48.9754 124.403 48.3462C124.337 47.7171 124.188 46.7402 124.088 46.1938C123.972 45.6474 123.773 44.7201 123.623 44.1241C123.474 43.528 123.258 42.6008 123.125 42.0544C122.992 41.508 122.843 40.7298 122.793 40.3158C122.743 39.9019 122.644 39.488 122.561 39.4052C122.494 39.3058 122.279 38.6766 122.096 37.9978C121.913 37.3189 121.432 35.746 121.017 34.5207C120.619 33.2954 120.054 31.7225 119.772 31.0436C119.49 30.3648 119.257 29.7521 119.257 29.6693C119.257 29.6031 118.776 28.5269 118.178 27.2685C117.581 26.0267 117.099 24.9836 117.099 24.9504C117.099 24.9339 116.601 24.0729 116.004 23.0463C115.406 22.0363 114.294 20.3309 113.547 19.2878C112.817 18.2446 111.422 16.5889 110.46 15.6286C109.497 14.6682 108.418 13.6582 108.053 13.3767C107.687 13.1118 107.023 12.6151 106.559 12.3005C106.11 11.9859 105.015 11.3733 104.152 10.9593C103.289 10.5454 102.093 10.0487 101.496 9.84997C100.898 9.66784 100.251 9.51882 100.052 9.51882C99.8358 9.51882 99.6366 9.46915 99.6034 9.38636C99.5702 9.32013 98.7568 9.22078 97.8272 9.138C96.7981 9.07177 95.2875 9.08832 94.1089 9.18767C92.1834 9.3698 92.0838 9.38636 90.872 10.1149C90.1914 10.5288 88.963 11.3567 88.133 11.9693C87.3197 12.582 85.9253 13.7907 85.0455 14.6517C84.1657 15.5126 83.0369 16.7048 82.539 17.3009C82.0576 17.8969 81.1778 19.0228 80.6134 19.8176C80.049 20.6289 79.5842 21.3078 79.5842 21.3575C79.5842 21.4071 79.3684 21.7548 79.1028 22.1357C78.8372 22.533 78.1068 23.808 77.4761 25.0001C76.8619 26.1923 76.0485 27.8149 75.6999 28.6428C75.3347 29.4707 74.8699 30.58 74.6541 31.1264C74.4383 31.6728 73.8573 33.312 73.3759 34.7691C72.8945 36.2261 72.297 38.0475 72.0646 38.8257C71.8156 39.6039 71.6164 40.3324 71.6164 40.4317C71.6164 40.5476 71.5168 40.9947 71.384 41.4252C71.2512 41.8722 71.052 42.7829 70.9524 43.4618C70.8362 44.1406 70.637 45.1175 70.5042 45.6143C70.3714 46.111 70.0892 47.568 69.8734 48.843C69.6742 50.1179 69.3754 52.2042 69.226 53.4791C69.0766 54.754 68.9604 56.0455 68.9604 56.8734H60.2456L60.3784 54.605C60.4448 53.3466 60.5776 51.9061 60.6772 51.4094C60.7602 50.9127 60.9096 49.8695 60.9926 49.0913C61.0756 48.3131 61.2582 47.3031 61.391 46.8561C61.5404 46.3925 61.6566 45.8129 61.6566 45.5315C61.6566 45.25 61.806 44.4387 61.9886 43.7101C62.1546 42.9816 62.4036 41.9385 62.5032 41.3921C62.6194 40.8457 62.8518 39.8357 63.0177 39.1568C63.1837 38.478 63.4327 37.5342 63.5655 37.0871C63.6983 36.6235 64.0469 35.481 64.3291 34.5207C64.6113 33.5604 65.0263 32.2192 65.2587 31.5403C65.4911 30.8615 65.7401 30.1495 65.8065 29.9674C65.8729 29.7852 66.0555 29.3382 66.1883 28.9739C66.3377 28.6097 66.7195 27.5997 67.0515 26.7387C67.4001 25.8777 68.3296 23.8245 69.143 22.1853C69.9564 20.5461 70.8528 18.791 71.135 18.2943C71.4172 17.7976 71.8654 17.0691 72.131 16.6717C72.3966 16.2909 72.6124 15.9431 72.6124 15.8935C72.6124 15.8438 72.9941 15.2643 73.4589 14.602C73.9403 13.9562 74.7869 12.8138 75.3513 12.0852C75.9157 11.3567 76.6461 10.5619 76.9781 10.297C77.3267 10.0487 77.5923 9.75062 77.5923 9.63472C77.5757 9.53538 78.2064 8.83996 78.9534 8.11143C79.717 7.3829 80.9288 6.32321 81.6592 5.77682C82.3896 5.23042 83.4021 4.51844 83.9001 4.20385C84.3981 3.8727 84.9293 3.55811 85.0621 3.49188C85.1949 3.4422 85.6431 3.19384 86.0581 2.96203C86.4731 2.73023 87.4027 2.29973 88.133 2.0017C88.8634 1.70366 89.9424 1.28972 90.54 1.09103C91.1376 0.908899 92.6315 0.594306 93.8599 0.412173Z" fill="#ED1383"/>
<path d="M24.9713 72.189C25.0543 71.742 25.1705 71.0797 25.2203 70.7485L25.3199 70.1193L159.844 70.1028L160.292 70.4505C160.69 70.732 160.723 70.8313 160.557 71.0466C160.441 71.2121 159.263 72.1559 157.935 73.1659C156.607 74.1759 154.598 75.6827 153.453 76.5106C152.307 77.3384 150.432 78.663 149.27 79.4578C148.091 80.236 147.112 80.8817 147.062 80.8817C147.012 80.8817 146.763 80.6996 145.983 80.0539H23.8093L23.8923 79.6068C23.9255 79.3419 24.0749 78.4809 24.2077 77.653C24.3405 76.8417 24.5397 75.4509 24.6393 74.5899C24.7389 73.7289 24.8883 72.6526 24.9713 72.189Z" fill="#BB136A"/>
<path d="M23.4775 83.0342C23.6601 81.8089 23.8095 80.6334 23.8095 80.4347V80.0538H145.983L146.431 80.4347C146.747 80.6996 146.83 80.8652 146.713 81.0473C146.63 81.1798 145.634 81.8917 144.489 82.6368C143.344 83.3819 141.186 84.7231 139.675 85.6337C138.165 86.5444 136.139 87.7531 135.16 88.2995C134.164 88.8625 133.301 89.3261 133.201 89.3261C133.102 89.3261 133.035 89.2102 133.035 89.0777C133.035 88.9452 132.819 88.6472 132.039 88.0015H22.8135V87.5544C22.8135 87.2895 22.8799 86.6769 22.9795 86.1801C23.0625 85.6834 23.2783 84.2595 23.4775 83.0342Z" fill="#AE1265"/>
<path d="M20.8381 101.33C21.0207 99.9727 21.253 98.3501 21.336 97.7374L21.5186 96.6115H114.112L114.693 97.1083C115.008 97.3897 115.274 97.754 115.274 97.9361C115.274 98.1183 115.108 98.3832 114.908 98.5156C114.693 98.6481 113.713 99.0952 112.701 99.5091C111.705 99.9396 109.912 100.668 108.717 101.165C107.521 101.645 105.098 102.572 103.322 103.235C101.546 103.897 98.1095 105.106 95.6859 105.933C91.3202 107.407 91.2704 107.424 89.4279 107.473C87.8509 107.523 87.5521 107.506 87.5521 107.291C87.5521 107.159 87.3861 106.927 87.1869 106.794C86.8549 106.579 82.9042 106.546 20.1575 106.546V106.182C20.1575 105.967 20.2405 105.354 20.3235 104.808C20.4065 104.261 20.6389 102.705 20.8381 101.33Z" fill="#931159"/>
<path d="M22.4815 89.7401C22.5811 89.1109 22.6972 88.4486 22.747 88.2996C22.83 88.0181 25.569 88.0016 132.039 88.0016L132.554 88.4652C132.869 88.7467 133.035 89.0281 133.002 89.2434C132.969 89.4752 132.321 89.9222 130.877 90.7005C129.732 91.3296 126.943 92.7701 124.652 93.9126C122.378 95.0551 119.457 96.4625 118.179 97.0585C116.9 97.6381 115.722 98.1017 115.572 98.1017C115.406 98.1017 115.274 97.9858 115.274 97.8533C115.274 97.7208 115.008 97.3897 114.112 96.6115H21.4855L21.5685 96.1644C21.6183 95.8995 21.8009 94.6246 21.9835 93.3C22.1661 91.9754 22.3985 90.3693 22.4815 89.7401Z" fill="#A1125F"/>
<path d="M166.948 70.55C167.612 70.136 167.928 69.8214 167.994 69.5068C168.044 69.2253 168.144 69.1094 168.227 69.2088C168.31 69.2916 168.525 70.1195 168.725 71.0301C168.907 71.9408 169.156 73.1329 169.239 73.6793C169.339 74.2257 169.438 74.7059 169.472 74.7556C169.505 74.8052 169.621 75.4013 169.721 76.0802C169.82 76.759 169.953 77.7359 170.003 78.2327C170.053 78.7294 170.152 79.2427 170.235 79.3586C170.318 79.4579 170.351 79.6566 170.318 79.7725C170.285 79.8718 170.318 80.2692 170.401 80.6335C170.501 80.9978 170.6 81.7097 170.634 82.2065C170.683 82.7032 170.833 83.7132 170.966 84.4417C171.115 85.1703 171.248 86.3293 171.298 87.0081C171.331 87.687 171.414 89.4421 171.596 93.5484L170.733 95.6181C170.252 96.7605 169.422 98.7143 167.895 102.241H119.922L119.673 101.877C119.54 101.662 119.424 101.198 119.424 100.171L123.374 98.2342C125.532 97.1579 128.769 95.5022 130.545 94.5253C132.322 93.5649 134.944 92.0913 136.355 91.28C137.766 90.4521 140.306 88.9123 141.999 87.8691C143.692 86.826 146.713 84.8557 148.722 83.5145C150.731 82.1733 153.718 80.1202 155.362 78.9446C157.005 77.769 160.076 75.5503 162.168 73.9939C164.276 72.4375 166.417 70.8811 166.948 70.55Z" fill="#F99C43"/>
<path d="M132.504 157.957C132.803 157.593 133.766 156.417 134.645 155.341C136.056 153.619 136.272 153.42 136.505 153.619C136.687 153.785 137.384 153.9 138.513 153.967C139.559 154.016 140.356 154.149 140.489 154.265C140.605 154.381 140.771 154.629 140.837 154.811C140.937 155.043 140.837 155.308 140.538 155.722C140.306 156.036 139.21 157.46 138.115 158.868C137.019 160.275 136.09 161.467 136.04 161.517C135.973 161.567 135.492 162.163 134.944 162.842C134.396 163.52 133.334 164.828 132.57 165.739C131.807 166.65 130.861 167.759 130.479 168.223C130.081 168.67 129.217 169.68 128.553 170.458C127.889 171.236 127.292 171.899 127.242 171.948C127.176 171.998 126.644 172.577 126.063 173.256C125.466 173.919 124.818 174.531 124.619 174.614C124.304 174.73 124.171 174.68 123.905 174.349C123.723 174.117 123.457 173.935 123.324 173.935C123.192 173.935 123.075 173.885 123.075 173.803C123.092 173.736 122.627 173.389 122.046 173.024C121.482 172.66 120.868 172.312 120.718 172.23C120.552 172.163 120.42 171.998 120.42 171.865C120.42 171.733 121.897 169.994 123.706 168.007C125.516 166.037 128.105 163.106 129.466 161.517C130.844 159.927 132.205 158.321 132.504 157.957Z" fill="#C6281C"/>
<path d="M88.8802 200.493C90.3907 199.285 92.2499 197.778 93.0301 197.132C93.8601 196.437 94.5904 195.957 94.8228 195.957C95.105 195.957 95.2212 196.089 95.3374 196.569C95.4204 196.917 95.603 198.357 96.0512 202.331L95.3374 202.994C94.939 203.358 94.1755 204.02 93.6277 204.484C93.0965 204.931 92.5321 205.394 92.3827 205.51C92.2333 205.626 92.0175 205.726 91.9179 205.726C91.8017 205.726 89.5939 207.265 87.021 209.153C84.4315 211.024 81.5431 213.143 80.5803 213.839C79.6176 214.534 78.3228 215.478 77.6754 215.942C77.0446 216.405 75.4012 217.548 74.0235 218.508C72.6623 219.452 70.2055 221.124 68.5622 222.217C66.9354 223.293 64.5119 224.883 63.1673 225.727C61.8393 226.571 60.1627 227.615 59.449 228.045C58.7352 228.476 57.9218 228.956 57.623 229.138C57.3242 229.303 56.3448 229.9 55.4318 230.446C54.5189 230.992 53.6225 231.572 53.4399 231.721C53.2573 231.886 51.7135 232.847 50.0038 233.857C48.2774 234.867 46.8498 235.695 46.8 235.695C46.7502 235.695 45.5384 236.357 44.1109 237.168C42.6667 237.98 40.1104 239.387 38.4172 240.298C36.724 241.192 34.2341 242.5 32.8563 243.195C31.4951 243.874 28.7562 245.182 26.7974 246.093C24.8387 247.004 22.6309 247.997 21.9005 248.295C21.1701 248.593 20.5394 248.891 20.4896 248.941C20.4398 248.99 19.7924 249.239 17.6676 249.934L16.8044 249.437C16.1072 249.057 15.7255 248.941 14.0157 248.941L13.9161 247.98C13.8497 247.467 13.8663 246.937 13.9493 246.821C14.0323 246.689 15.2607 246.076 16.6716 245.447C18.0826 244.801 21.7179 243.063 24.7225 241.573C27.7436 240.082 31.2129 238.327 32.4413 237.665C33.6697 237.019 36.0268 235.728 37.6702 234.817C39.3136 233.906 41.8865 232.449 43.3971 231.588C44.9077 230.711 47.5636 229.154 49.29 228.111C51.0329 227.068 53.7221 225.412 55.2659 224.436C56.8262 223.459 59.5486 221.704 61.3247 220.545C63.1009 219.369 65.7568 217.597 67.2176 216.587C68.6784 215.594 71.1849 213.839 72.7785 212.713C74.3721 211.57 77.3268 209.418 79.3354 207.911C81.3439 206.404 83.7011 204.616 84.5643 203.921C85.4274 203.242 87.3696 201.702 88.8802 200.493Z" fill="#C6281C"/>
<path d="M171.132 101.33C171.364 100.701 171.679 99.923 171.812 99.6249C172.028 99.1448 172.127 99.0785 172.592 99.1282C173.057 99.1779 173.14 99.2441 173.24 99.8402C173.306 100.204 173.489 101.214 173.621 102.075C173.754 102.936 173.87 103.897 173.87 104.178C173.87 104.476 173.937 104.758 174.036 104.807C174.136 104.857 174.202 105.105 174.202 105.387C174.202 105.668 174.285 106.43 174.368 107.076C174.468 107.738 174.7 109.063 174.883 110.023C175.049 110.983 175.198 112.043 175.198 112.374C175.198 112.722 175.265 113.169 175.348 113.368C175.431 113.583 175.63 114.576 175.779 115.57C175.929 116.563 176.111 117.921 176.178 118.55C176.244 119.179 176.344 119.792 176.394 119.875C176.46 119.958 176.56 120.57 176.609 121.199C176.676 121.829 176.825 122.772 176.958 123.269C177.091 123.766 177.19 124.461 177.19 124.792C177.19 125.14 177.257 125.554 177.34 125.703C177.423 125.869 177.589 126.63 177.705 127.408C177.821 128.187 177.937 129.031 177.954 129.313C177.971 129.594 178.103 130.405 178.236 131.134C178.386 131.862 178.651 133.386 178.834 134.528C179.033 135.671 179.232 136.929 179.282 137.343C179.332 137.757 179.431 138.568 179.498 139.164C179.564 139.76 179.664 140.323 179.73 140.406C179.78 140.489 179.863 141.052 179.929 141.648C179.979 142.244 180.095 143.022 180.195 143.387C180.311 143.751 180.344 144.181 180.278 144.33C180.178 144.612 179.282 144.628 164.575 144.628C154.333 144.628 148.938 144.579 148.888 144.463C148.838 144.38 149.452 143.304 150.233 142.095C151.029 140.903 152.44 138.684 153.37 137.177C154.299 135.671 155.578 133.551 156.225 132.459C156.872 131.366 158.167 129.097 159.097 127.408C160.043 125.72 161.836 122.292 163.081 119.792C164.342 117.292 165.936 113.997 166.633 112.457C167.33 110.934 167.944 109.493 168.027 109.261C168.094 109.013 168.193 108.798 168.276 108.765C168.343 108.732 168.393 108.549 168.393 108.367C168.393 108.185 168.459 107.904 168.542 107.738C168.625 107.589 168.957 106.827 169.272 106.049C169.604 105.271 170.053 104.162 170.268 103.566C170.501 102.97 170.883 101.96 171.132 101.33Z" fill="#BF00F2"/>
<path d="M162.018 69.9372C163.097 69.0597 164.525 67.8841 165.156 67.3377C166.118 66.4933 166.417 66.3277 166.932 66.3277C167.513 66.3111 167.596 66.3608 167.895 67.0066C168.077 67.4039 168.226 67.9835 168.226 68.298C168.226 68.6126 168.143 69.1259 168.027 69.4405C167.878 69.8379 167.546 70.1856 166.899 70.583C166.401 70.8976 164.276 72.4374 162.168 73.9938C160.059 75.5503 157.005 77.769 155.362 78.9445C153.718 80.1201 150.847 82.107 148.971 83.3654C147.095 84.6072 144.257 86.4617 142.663 87.4551C141.069 88.4486 138.679 89.9056 137.351 90.6838C136.023 91.462 133.6 92.8529 131.956 93.747C130.313 94.6576 127.358 96.2141 125.399 97.2241C123.441 98.2175 120.785 99.5256 119.506 100.122C118.228 100.734 115.838 101.811 114.195 102.539C112.551 103.268 109.862 104.393 108.219 105.056C106.575 105.718 104.069 106.678 102.658 107.208C101.247 107.738 98.7403 108.632 97.0969 109.179C95.4536 109.742 92.4988 110.685 90.5401 111.281C88.5813 111.877 85.5934 112.738 83.9002 113.186C82.207 113.633 79.2191 114.378 77.2603 114.825C75.3016 115.272 72.5626 115.868 71.2015 116.133C69.8237 116.414 67.5827 116.828 66.2216 117.06C64.8438 117.292 62.5032 117.673 60.9927 117.888C59.4821 118.103 56.9755 118.434 55.4318 118.616C53.888 118.815 51.3815 119.063 49.8709 119.196C48.3603 119.345 45.7874 119.544 44.144 119.66C42.2018 119.792 37.7199 119.875 31.3623 119.875C25.9674 119.875 20.8215 119.809 18.2485 119.593L18.3813 118.914C18.4477 118.534 18.5473 117.805 18.5805 117.308C18.6303 116.812 18.7133 115.984 18.9125 114.576L19.6595 114.527C20.0745 114.494 21.2365 114.593 22.2325 114.725C23.2284 114.874 24.8054 115.073 25.7184 115.156C26.6314 115.255 29.0549 115.437 31.1133 115.57C33.1716 115.702 36.9398 115.818 39.4961 115.818C42.0525 115.818 45.721 115.702 47.6299 115.57C49.5389 115.437 51.896 115.239 52.8588 115.156C53.8216 115.057 55.5646 114.874 56.7598 114.742L56.9307 114.721C58.1392 114.57 60.0226 114.335 61.2417 114.146C62.5198 113.964 64.462 113.666 65.5576 113.484C66.6532 113.301 68.6617 112.937 70.0395 112.672C71.4007 112.407 73.7246 111.927 75.1854 111.613C76.6461 111.298 79.4847 110.603 81.4932 110.089C83.5018 109.576 85.4772 109.063 85.8756 108.963C86.3569 108.847 86.7719 108.583 87.6351 107.589L89.4611 107.506C91.2206 107.424 91.4364 107.374 95.686 105.933C98.1095 105.105 101.546 103.897 103.322 103.234C105.098 102.572 107.389 101.695 108.385 101.297C109.381 100.883 111.256 100.122 112.535 99.5918C113.813 99.062 114.975 98.499 115.108 98.35C115.24 98.201 115.473 98.0851 115.606 98.1016C115.738 98.1016 116.9 97.638 118.179 97.0585C119.457 96.4624 122.179 95.1544 124.237 94.1278C126.296 93.1178 129.051 91.6773 130.379 90.9488C131.707 90.2368 132.902 89.5745 133.035 89.4917C133.168 89.4089 134.098 88.8791 135.11 88.3161C136.123 87.7532 138.164 86.5445 139.675 85.6338C141.186 84.7231 143.377 83.3489 144.555 82.5541C145.734 81.7759 146.83 81.0474 146.962 80.9646L149.303 79.4082C150.448 78.6465 152.307 77.3385 153.453 76.5106C154.598 75.6827 156.54 74.2256 157.785 73.2653C159.03 72.305 160.939 70.8148 162.018 69.9372Z" fill="#650E43"/>
<path d="M19.0121 113.964C19.0785 113.666 19.3275 111.877 19.5931 109.99L20.0579 106.546H53.4232C82.9042 106.546 86.8549 106.579 87.1869 106.794C87.3861 106.927 87.5521 107.208 87.5521 107.423C87.5521 107.622 87.3197 108.02 87.0209 108.301C86.5395 108.748 86.0249 108.93 83.2362 109.659C81.46 110.122 79.2191 110.685 78.2563 110.917C77.2935 111.132 75.6501 111.513 74.6043 111.745C73.5586 111.977 71.5334 112.391 70.1224 112.656C68.7115 112.921 66.6531 113.301 65.5575 113.484C64.462 113.666 62.5198 113.964 61.2416 114.146C60.0226 114.335 58.1393 114.57 56.9307 114.721L56.7597 114.742C55.5811 114.874 53.8216 115.057 52.8588 115.156C51.896 115.239 49.5555 115.437 47.6299 115.57C45.7209 115.702 42.0524 115.818 39.4961 115.818C36.9397 115.818 33.1716 115.702 31.1132 115.57C29.0549 115.437 26.5981 115.239 25.6353 115.156C24.6726 115.057 23.162 114.874 22.2822 114.742C21.3858 114.609 20.257 114.494 18.9125 114.494L19.0121 113.964Z" fill="#871054"/>
<path d="M170.086 97.1082C170.766 95.5187 171.38 94.0451 171.447 93.8464C171.513 93.6311 171.646 93.4655 171.729 93.4655C171.812 93.4655 171.928 93.8629 171.995 94.3431C172.044 94.8067 172.078 95.8002 172.078 96.5287C172.078 97.5221 171.995 98.052 171.729 98.6481C171.53 99.0786 171.38 99.6084 171.38 99.8402C171.38 100.072 171.264 100.502 171.131 100.801C170.999 101.082 170.617 102.042 170.301 102.903C169.969 103.764 169.438 105.105 169.106 105.884C168.774 106.662 168.409 107.539 168.293 107.837C168.16 108.119 167.961 108.417 167.845 108.5C167.712 108.566 167.264 109.394 166.815 110.354C166.384 111.315 165.587 113.02 165.039 114.162C164.475 115.305 162.998 118.352 161.719 120.951C160.458 123.551 158.698 126.978 157.818 128.568C156.939 130.157 156.076 131.68 155.876 131.962C155.694 132.243 155.495 132.641 155.445 132.872C155.395 133.104 154.681 134.396 153.868 135.737C153.054 137.078 152.291 138.303 152.208 138.469C152.108 138.618 151.627 139.38 151.129 140.158C150.631 140.919 149.319 142.906 148.224 144.546C147.112 146.185 145.95 147.907 145.634 148.354C145.302 148.817 144.223 150.308 143.244 151.665C142.248 153.04 141.302 154.364 141.136 154.646C140.97 154.927 140.837 155.026 140.837 154.894C140.854 154.762 140.721 154.513 140.555 154.348C140.322 154.116 139.874 154.033 138.513 153.95C137.55 153.901 136.671 153.768 136.554 153.669C136.438 153.569 136.372 153.387 136.422 153.288C136.471 153.172 137.633 151.632 138.978 149.894C140.339 148.139 142.431 145.34 143.626 143.685C144.838 142.012 146.962 138.966 148.373 136.896C149.768 134.81 151.743 131.813 152.739 130.223C153.735 128.634 155.046 126.514 155.644 125.504C156.225 124.511 157.503 122.309 158.466 120.62C159.429 118.931 161.022 116.033 162.002 114.162C162.998 112.291 164.442 109.46 165.205 107.871C165.969 106.281 167.114 103.864 167.728 102.489C168.343 101.132 169.405 98.6977 170.086 97.1082Z" fill="#BA2A24"/>
<path d="M121.664 231.059L122.411 230.314C122.81 229.9 123.191 229.568 123.241 229.568C123.291 229.568 123.474 229.85 123.656 230.181C123.839 230.529 124.005 230.86 124.021 230.926C124.055 231.009 123.523 231.059 121.664 231.059Z" fill="#8F00B5" fill-opacity="0.9"/>
<path d="M172.26 98.2673C172.393 97.9527 172.559 97.5387 172.642 97.3731C172.725 97.191 172.841 97.1248 172.891 97.2076C172.957 97.2904 173.04 97.7705 173.14 99.1779L172.592 99.1448C172.293 99.1117 172.044 99.0455 172.044 98.9792C172.044 98.8964 172.144 98.5818 172.26 98.2673Z" fill="#B300E3" fill-opacity="0.8"/>
<path d="M164.608 115.172C164.641 115.09 165.322 113.55 166.152 111.778C166.965 109.99 167.712 108.533 167.795 108.533C167.878 108.533 167.961 108.698 167.994 108.914C168.027 109.112 167.712 110.023 167.314 110.934C166.915 111.844 166.251 113.301 165.836 114.162C165.438 115.023 165.089 115.636 165.089 115.537C165.073 115.421 164.956 115.321 164.824 115.321C164.691 115.321 164.591 115.255 164.608 115.172Z" fill="#B400E4" fill-opacity="0.2"/>
<path d="M68.9606 56.8734L68.9938 56.0124L69.027 55.1348L69.1266 56.7078L93.4451 56.7906L68.9606 56.8734Z" fill="#ED1383" fill-opacity="0.2"/>
<path d="M161.122 122.209C162.151 120.107 163.33 117.706 163.711 116.861C164.259 115.686 164.492 115.338 164.741 115.338C164.923 115.338 165.073 115.437 165.073 115.586C165.073 115.719 164.11 117.739 162.931 120.09C161.753 122.441 160.026 125.736 159.097 127.425C158.167 129.097 156.872 131.382 156.225 132.475C155.578 133.551 154.266 135.72 153.32 137.277C152.357 138.817 150.664 141.466 149.552 143.155C148.44 144.827 146.597 147.509 145.485 149.115C144.356 150.705 142.912 152.692 142.298 153.536C141.667 154.381 141.136 155.076 141.086 155.076C141.036 155.076 141.003 155.01 140.987 154.944C140.987 154.877 141.899 153.553 143.012 152.013C144.124 150.457 145.302 148.817 145.618 148.37C145.95 147.907 147.112 146.185 148.207 144.546C149.32 142.906 150.614 140.936 151.129 140.158C151.627 139.396 152.108 138.634 152.208 138.469C152.291 138.32 153.038 137.095 153.868 135.737C154.681 134.396 155.395 133.104 155.445 132.889C155.495 132.657 155.694 132.243 155.876 131.978C156.059 131.697 156.889 130.24 157.719 128.75C158.549 127.243 160.076 124.296 161.122 122.209Z" fill="#ED1383" fill-opacity="0.2"/>
<path d="M175.945 246.937C175.497 246.937 174.933 246.855 174.7 246.788C174.451 246.706 174.767 246.689 175.447 246.739C176.078 246.788 176.642 246.871 176.692 246.904C176.742 246.937 176.41 246.954 175.945 246.937Z" fill="#9000B7" fill-opacity="0.2"/>
<path d="M33.1051 250.547C32.6072 250.58 31.827 250.58 31.3622 250.547C30.8974 250.514 31.3124 250.497 32.2752 250.497C33.2379 250.497 33.6031 250.514 33.1051 250.547Z" fill="#9000B7" fill-opacity="0.2"/>
<path d="M118.178 251.044C117.813 251.077 117.249 251.077 116.933 251.044C116.618 251.011 116.917 250.978 117.597 250.978C118.278 250.978 118.544 251.011 118.178 251.044Z" fill="#9000B7" fill-opacity="0.2"/>
<path d="M65.7235 251.209C63.9805 251.242 61.1918 251.242 59.4986 251.209C57.8054 251.193 59.233 251.176 62.6525 251.176C66.0721 251.176 67.4664 251.193 65.7235 251.209Z" fill="#9000B7" fill-opacity="0.2"/>
<path d="M114.029 251.209C113.58 251.242 112.75 251.242 112.203 251.209C111.655 251.176 112.037 251.16 113.033 251.16C114.029 251.16 114.493 251.176 114.029 251.209Z" fill="#9000B7" fill-opacity="0.2"/>
<path d="M84.7799 210.941C84.7799 210.842 86.3237 209.65 88.1994 208.259C90.0918 206.868 91.7684 205.742 91.951 205.726C92.2498 205.726 92.2498 205.759 91.868 206.123C91.6356 206.338 90.0918 207.597 88.4152 208.938C86.0249 210.859 85.3277 211.322 85.0787 211.223C84.8961 211.157 84.7633 211.041 84.7799 210.941Z" fill="#8F00B5" fill-opacity="0.5"/>
<path d="M37.5041 250.729C35.9603 250.729 34.5493 250.696 34.3999 250.63C34.2505 250.564 35.3627 250.53 36.8899 250.564C38.417 250.597 39.8114 250.63 39.994 250.663C40.1766 250.696 39.0478 250.729 37.5041 250.729Z" fill="#8F00B5" fill-opacity="0.5"/>
<path d="M45.2229 250.878C44.8079 250.911 44.0609 250.911 43.5629 250.878C43.0649 250.845 43.3969 250.828 44.3099 250.828C45.2229 250.828 45.6379 250.845 45.2229 250.878Z" fill="#8F00B5" fill-opacity="0.5"/>
<path d="M133.816 55.8799C133.782 56.2939 133.749 55.9959 133.749 55.2176C133.749 54.4394 133.782 54.1083 133.816 54.4726C133.849 54.8368 133.849 55.466 133.816 55.8799Z" fill="#D21376" fill-opacity="0.3"/>
<path d="M58.4199 56.8237C57.3243 56.8568 55.5647 56.8568 54.5189 56.8237C53.4732 56.8072 54.3695 56.7741 56.5109 56.7741C58.6523 56.7741 59.5154 56.8072 58.4199 56.8237Z" fill="#D21376" fill-opacity="0.3"/>
<path d="M90.5899 156.715C90.5235 155.606 90.5567 155.44 90.8887 155.192C91.0879 155.027 91.4862 154.911 91.7684 154.911C92.2 154.944 92.2166 154.944 91.868 155.01C91.6356 155.043 91.2871 155.159 91.0713 155.275C90.7393 155.457 90.6895 155.606 90.6397 157.957L90.5899 156.715Z" fill="#F06033" fill-opacity="0.2"/>
<path d="M78.5884 215.279C79.7338 214.451 81.5266 213.16 82.5724 212.398C83.9833 211.372 84.5477 211.057 84.8133 211.123L84.8134 211.123C84.9959 211.19 85.1785 211.256 85.2283 211.306C85.2781 211.339 85.2283 211.421 85.1287 211.488C85.0457 211.554 83.7343 212.547 82.2238 213.69C80.7298 214.832 78.2233 216.703 76.6795 217.846C75.1357 218.972 72.5794 220.793 68.2137 223.84L67.3007 223.79C66.8027 223.773 66.3711 223.74 66.3545 223.724C66.3213 223.707 67.4501 222.945 68.8444 222.018C70.2222 221.091 72.5296 219.535 73.9405 218.558C75.3515 217.564 77.4431 216.091 78.5884 215.279Z" fill="#8E00B4" fill-opacity="0.1"/>
<path d="M129.848 240.53C129.948 240.612 130.064 240.579 130.081 240.48C130.114 240.347 130.186 240.342 130.296 240.463C130.379 240.546 130.512 240.877 130.579 241.175C130.628 241.49 130.728 241.871 130.778 242.02C130.828 242.185 130.794 242.318 130.711 242.318C130.628 242.318 130.545 242.202 130.545 242.069C130.545 241.937 130.413 241.622 130.247 241.357C130.081 241.109 129.865 240.794 129.782 240.662C129.682 240.48 129.699 240.447 129.848 240.53Z" fill="#8E00B4" fill-opacity="0.1"/>
<path d="M20.4896 248.974C20.5062 248.908 21.4856 248.428 22.6974 247.914C23.9092 247.401 24.9051 246.97 24.9217 246.97C24.9383 246.954 24.9383 247.136 24.9217 247.368C24.8885 247.732 24.7059 247.831 23.1456 248.345C22.1828 248.643 21.2034 248.957 20.9378 249.007C20.6888 249.057 20.4896 249.057 20.4896 248.974Z" fill="#8E00B4" fill-opacity="0.1"/>
<path d="M171.38 99.8733C171.38 99.6746 171.48 99.2606 171.596 98.9626C171.696 98.648 171.812 98.4824 171.829 98.5818C171.862 98.6811 171.795 98.9129 171.712 99.095C171.613 99.2772 171.546 99.6414 171.546 99.9229C171.546 100.204 171.43 100.668 171.297 100.949C171.165 101.248 170.783 102.208 170.467 103.069C170.135 103.93 169.604 105.271 169.272 106.049C168.957 106.827 168.625 107.606 168.542 107.788C168.459 107.97 168.309 108.334 168.21 108.616C168.088 108.947 168 109.03 167.944 108.864C167.894 108.732 168.011 108.318 168.193 107.953C168.376 107.589 168.791 106.662 169.106 105.884C169.438 105.105 169.969 103.764 170.301 102.903C170.617 102.042 170.999 101.082 171.131 100.784C171.264 100.502 171.38 100.089 171.38 99.8733Z" fill="#C72A1E" fill-opacity="0.3"/>
<path d="M53.4896 231.688C53.556 231.622 54.5021 231.009 55.5977 230.33C56.6933 229.651 57.6395 229.088 57.6893 229.088C57.7557 229.072 57.7723 229.122 57.7557 229.204C57.7225 229.271 57.6727 229.635 57.6395 230.032C57.5897 230.695 57.5233 230.794 56.7597 231.257C56.0459 231.688 55.7637 231.754 54.6515 231.787C53.9543 231.787 53.4232 231.754 53.4896 231.688Z" fill="#B42132" fill-opacity="0.1"/>
<path d="M39.164 239.884C41.3552 238.692 43.9282 237.268 44.8909 236.721C45.8537 236.158 46.6837 235.711 46.7501 235.711C46.8331 235.695 46.7999 235.976 46.7003 236.324C46.6173 236.655 46.5177 237.036 46.5011 237.135C46.4845 237.251 45.5715 237.847 44.4759 238.46C43.3804 239.073 40.3924 240.629 37.8361 241.904C35.2797 243.195 31.7938 244.868 30.084 245.613C28.3577 246.341 26.8139 246.954 26.6313 246.954C26.4487 246.954 26.2993 247.004 26.2993 247.086C26.2993 247.153 26.0669 247.302 25.7681 247.401C25.4693 247.517 25.1207 247.616 25.0211 247.616C24.8717 247.616 24.8385 247.5 24.9215 247.252C25.0211 246.987 25.6187 246.639 27.0463 245.977C28.1419 245.464 30.416 244.371 32.1092 243.543C33.8024 242.715 36.9729 241.06 39.164 239.884Z" fill="#B42132" fill-opacity="0.1"/>
<path d="M17.9165 120.951C17.9663 120.719 18.0493 120.123 18.1157 119.627L18.2319 118.716L18.4145 119.577C18.5473 120.322 18.5473 120.488 18.3149 120.653C18.1655 120.769 17.9829 120.984 17.9331 121.117C17.8833 121.249 17.8667 121.183 17.9165 120.951Z" fill="#F6873D" fill-opacity="0.8"/>
<path fill-rule="evenodd" clip-rule="evenodd" d="M15.5096 268.479L34.6823 268.562L34.7653 270.962L34.1345 271.045C33.8025 271.078 33.1053 271.161 32.6073 271.211C32.1093 271.277 31.2959 271.509 30.8145 271.724C30.1505 272.022 29.8684 272.27 29.6194 272.784C29.4368 273.165 29.2044 274.108 29.1048 274.986C28.9886 275.979 28.9554 279.903 29.0052 286.444C29.055 294.358 29.1214 296.676 29.3206 297.868C29.47 298.68 29.6692 299.69 29.7688 300.104C29.885 300.518 30.1505 301.329 30.3829 301.925C30.5987 302.521 31.0303 303.432 31.3291 303.962C31.6113 304.491 32.1923 305.319 32.6073 305.799C33.0223 306.28 33.8025 306.975 34.3503 307.339C34.8981 307.704 35.811 308.151 36.392 308.349C36.9564 308.548 37.969 308.796 38.6164 308.896C39.297 309.012 40.4423 309.045 41.2391 308.979C42.0193 308.929 43.0651 308.763 43.5631 308.631C44.0611 308.498 44.9574 308.151 45.555 307.869C46.2688 307.521 47.0324 306.925 47.8126 306.164C48.46 305.518 49.2568 304.508 49.5722 303.912C49.9041 303.316 50.4021 302.206 50.6677 301.428C50.9499 300.65 51.3483 299.127 51.5475 298.034C51.9459 296.08 51.9459 295.848 51.9459 286.692C51.9293 278.562 51.8961 277.105 51.6471 275.599C51.4811 274.638 51.2321 273.612 51.0661 273.297C50.9167 272.982 50.5681 272.552 50.2859 272.337C50.0037 272.138 49.3398 271.823 48.792 271.641C48.2442 271.476 47.3478 271.277 46.8 271.211C46.2522 271.161 45.6048 271.078 45.3392 271.029C44.891 270.962 44.891 270.946 44.891 268.479H61.8227V269.721C61.8227 270.399 61.7729 270.962 61.7065 270.962C61.6235 270.962 60.9429 271.062 60.1627 271.194C59.3826 271.31 58.453 271.558 58.0878 271.741C57.7226 271.923 57.1748 272.37 56.8926 272.717C56.5938 273.065 56.2784 273.694 56.1788 274.108C56.0958 274.522 55.9464 275.665 55.8468 276.675C55.7472 277.685 55.631 282.106 55.5978 286.526C55.548 290.947 55.4318 295.418 55.3322 296.461C55.2326 297.504 55.0002 299.11 54.8176 300.021C54.635 300.932 54.3031 302.206 54.0707 302.836C53.8383 303.465 53.3237 304.624 52.9253 305.402C52.5269 306.18 51.7965 307.306 51.2819 307.919C50.7839 308.548 49.8709 309.459 49.2568 309.955C48.626 310.469 47.6466 311.131 47.049 311.446C46.4514 311.744 45.4886 312.191 44.891 312.406C44.2935 312.638 43.0153 312.985 42.0193 313.168C40.8241 313.399 39.5958 313.515 38.218 313.515C36.9232 313.515 35.4956 313.399 34.3503 313.201C33.3543 313.019 32.0429 312.721 31.4453 312.522C30.8477 312.323 29.885 311.909 29.2874 311.611C28.6898 311.313 27.6772 310.667 27.0464 310.171C26.4156 309.674 25.6188 308.929 25.2868 308.531C24.9549 308.134 24.4237 307.389 24.0917 306.892C23.7763 306.396 23.2617 305.386 22.9795 304.657C22.6807 303.928 22.2989 302.736 22.1163 302.008C21.9337 301.279 21.6847 299.822 21.5519 298.779C21.3693 297.322 21.3195 294.458 21.3195 286.526C21.3195 280.599 21.2531 275.582 21.1535 274.771C21.0373 273.877 20.8547 273.131 20.6057 272.717C20.4065 272.353 19.975 271.923 19.6596 271.757C19.3442 271.592 18.5142 271.376 17.8336 271.277C17.153 271.178 16.3396 271.078 15.5096 270.962V268.479ZM65.6406 280.897C66.3544 280.897 66.5038 280.963 66.7528 281.344C66.9188 281.592 67.3172 281.907 67.6326 282.039C68.1306 282.271 69.4419 282.321 86.4732 282.404L87.0542 283.381L83.0869 289.97C80.9123 293.58 77.443 299.441 75.368 302.968C73.3097 306.495 71.6165 309.409 71.6165 309.459C71.6165 309.508 73.2765 309.541 75.3016 309.541C77.9908 309.541 79.2855 309.475 80.0325 309.293C80.6135 309.161 81.3605 308.912 81.6925 308.73C82.0411 308.565 82.6221 308.184 82.9873 307.886C83.3525 307.588 84.0164 306.892 84.4812 306.313C84.9294 305.733 85.6266 304.674 86.0084 303.928C86.4068 303.2 86.8052 302.587 86.9214 302.587C87.0376 302.587 87.519 302.769 88.0004 303.001C88.4818 303.233 88.8801 303.515 88.8801 303.63C88.8801 303.746 88.4652 305.054 87.9672 306.561C87.4526 308.068 86.772 310.022 85.8922 312.522H62.4867L62.1381 312.075C61.9555 311.826 61.8061 311.545 61.8061 311.446C61.8227 311.363 62.0717 310.916 62.3705 310.452C62.6859 310.005 63.9475 308.018 65.1758 306.064C66.4042 304.111 68.7946 300.203 70.4877 297.372C72.1809 294.557 74.455 290.716 77.526 285.45L74.538 285.401C72.8283 285.384 71.0687 285.434 70.4545 285.533C69.8569 285.649 69.0104 285.93 68.5622 286.162C68.114 286.411 67.45 286.99 67.0848 287.437C66.7196 287.901 65.9892 289.143 64.4786 292.156L63.4329 291.759C62.4867 291.394 62.4037 291.312 62.4203 290.898C62.4203 290.633 62.8851 288.629 63.4495 286.444C63.9973 284.258 64.5118 282.172 64.5782 281.808C64.628 281.443 64.711 281.096 64.7608 281.029C64.794 280.963 65.1924 280.897 65.6406 280.897ZM106.476 281.659C107.322 281.708 108.335 281.907 109.049 282.155C109.68 282.371 110.576 282.801 111.024 283.099C111.472 283.397 112.203 284.043 112.667 284.54C113.116 285.036 113.697 285.864 113.946 286.361C114.195 286.858 114.543 287.801 114.709 288.431C114.958 289.441 115.008 290.649 115.091 297.868C115.191 306.048 115.191 306.164 115.556 306.859C115.772 307.24 116.104 307.67 116.303 307.803C116.519 307.952 116.95 308.051 117.266 308.051C117.581 308.068 118.179 307.952 118.594 307.803C119.009 307.67 119.407 307.555 119.507 307.555C119.59 307.555 119.805 308.018 119.971 308.581C120.22 309.442 120.237 309.657 120.054 309.823C119.938 309.922 118.461 310.75 116.768 311.677C114.427 312.952 113.547 313.35 113.066 313.35C112.734 313.35 112.02 313.184 111.489 312.985C110.974 312.787 110.244 312.356 109.879 312.025C109.514 311.677 108.966 310.949 108.136 309.376L105.928 310.816C104.716 311.611 103.172 312.522 102.492 312.836C101.297 313.383 101.181 313.399 99.8359 313.317C98.84 313.25 98.0764 313.101 97.263 312.77C96.6156 312.522 95.6694 311.959 95.1382 311.545C94.607 311.131 93.86 310.369 93.4949 309.873C93.1297 309.376 92.6317 308.515 92.3993 307.968C91.9843 307.058 91.9511 306.793 91.9511 304.74C91.9511 302.604 91.9677 302.471 92.4159 301.594C92.6815 301.097 93.2459 300.352 93.6775 299.938C94.109 299.524 94.9722 298.928 95.6196 298.597C96.2504 298.266 97.2796 297.835 97.927 297.62C98.5578 297.421 100.284 296.809 101.745 296.262C103.206 295.716 104.998 294.971 105.729 294.607C106.459 294.242 107.256 293.795 107.505 293.63C107.92 293.348 107.97 293.232 107.97 292.289C107.97 291.709 107.887 290.749 107.804 290.136C107.704 289.523 107.472 288.58 107.273 288.066C107.073 287.536 106.609 286.775 106.243 286.377C105.862 285.98 105.264 285.516 104.899 285.351C104.484 285.169 103.836 285.053 103.189 285.036C102.625 285.036 101.944 285.136 101.695 285.268C101.446 285.401 100.965 285.798 100.616 286.179C100.284 286.56 99.8027 287.288 99.5703 287.818C99.3379 288.331 98.9727 289.374 98.7403 290.136C98.5246 290.881 98.1594 291.726 97.927 291.99C97.678 292.289 97.2464 292.553 96.848 292.653C96.4828 292.752 95.9018 292.769 95.5532 292.719C95.2212 292.669 94.607 292.438 94.192 292.206C93.7771 291.99 93.2625 291.56 93.0301 291.278C92.7977 290.98 92.5155 290.467 92.3993 290.136C92.2665 289.689 92.2499 289.325 92.3495 288.894C92.4601 288.475 92.8087 287.984 93.3953 287.421C93.8767 286.957 94.7896 286.245 95.437 285.831C96.0678 285.417 97.4954 284.622 98.591 284.076C99.6865 283.513 101.214 282.834 101.994 282.553C102.774 282.271 103.77 281.923 104.235 281.791C104.799 281.642 105.496 281.592 106.476 281.659ZM100.815 300.269C100.052 301.031 99.8525 301.345 99.6699 302.091C99.5537 302.604 99.4873 303.448 99.5371 303.995C99.5869 304.541 99.7695 305.319 99.9521 305.733C100.118 306.147 100.533 306.76 100.849 307.108C101.197 307.505 101.745 307.869 102.276 308.068C102.757 308.233 103.471 308.382 103.853 308.382C104.251 308.382 104.899 308.283 105.314 308.167C105.729 308.051 106.492 307.67 107.007 307.339L107.97 306.727C107.97 298.647 107.903 296.295 107.837 296.295C107.771 296.312 106.376 296.991 104.733 297.835C102.359 299.044 101.546 299.541 100.815 300.269ZM137.434 281.642C138.165 281.692 139.177 281.841 139.675 281.99C140.173 282.139 140.887 282.42 141.252 282.619C141.617 282.801 142.248 283.232 142.663 283.546C143.078 283.861 143.642 284.391 143.925 284.705C144.207 285.02 144.572 285.516 144.755 285.781C144.937 286.063 145.253 286.725 145.452 287.272C145.651 287.818 145.883 288.745 145.983 289.341C146.066 289.954 146.149 293.613 146.149 297.67C146.149 302.339 146.215 305.22 146.332 305.783C146.431 306.263 146.647 306.876 146.813 307.141C146.979 307.422 147.311 307.737 147.543 307.853C147.776 307.968 148.174 308.051 148.423 308.051C148.672 308.051 149.22 307.952 149.635 307.803C150.05 307.67 150.465 307.555 150.581 307.555C150.697 307.555 150.946 308.018 151.129 308.598C151.311 309.161 151.394 309.674 151.328 309.74C151.262 309.806 149.751 310.651 147.975 311.611C144.904 313.283 144.688 313.366 143.908 313.317C143.41 313.283 142.663 313.052 142.099 312.77C141.534 312.489 140.887 311.992 140.588 311.611C140.289 311.247 139.891 310.634 139.692 310.253C139.493 309.856 139.26 309.541 139.177 309.541C139.078 309.541 138.165 310.088 137.135 310.767C136.106 311.429 134.712 312.273 134.031 312.621C133.052 313.134 132.587 313.283 131.707 313.333C131.06 313.366 130.164 313.283 129.466 313.118C128.819 312.969 127.856 312.588 127.308 312.257C126.761 311.942 125.947 311.33 125.516 310.899C125.067 310.469 124.503 309.79 124.237 309.376C123.972 308.962 123.573 308.051 123.341 307.356C123.026 306.429 122.909 305.717 122.909 304.789C122.893 303.945 123.026 303.117 123.241 302.422C123.424 301.826 123.806 301.047 124.088 300.683C124.37 300.319 124.984 299.739 125.449 299.392C125.931 299.044 126.761 298.547 127.308 298.299C127.856 298.051 129.051 297.587 129.964 297.289C130.877 296.991 132.67 296.345 133.948 295.848C135.226 295.335 136.637 294.756 137.102 294.524C137.55 294.292 138.165 293.928 138.463 293.712C138.995 293.332 139.011 293.299 139.011 292.04C139.011 291.328 138.928 290.285 138.845 289.722C138.746 289.143 138.497 288.298 138.281 287.818C138.082 287.338 137.683 286.692 137.418 286.377C137.152 286.079 136.554 285.632 136.106 285.417C135.392 285.069 135.094 285.003 134.081 285.053C133.019 285.119 132.836 285.169 132.338 285.649C132.023 285.947 131.508 286.543 131.193 286.974C130.877 287.421 130.413 288.431 130.164 289.258C129.898 290.086 129.549 291.063 129.367 291.461C129.168 291.908 128.852 292.255 128.504 292.438C128.205 292.587 127.624 292.719 127.225 292.719C126.81 292.736 126.13 292.587 125.731 292.421C125.316 292.239 124.769 291.908 124.503 291.676C124.254 291.444 123.889 290.964 123.723 290.633C123.54 290.285 123.407 289.722 123.407 289.391C123.391 288.96 123.54 288.546 123.872 288.099C124.138 287.735 124.669 287.172 125.084 286.841C125.482 286.526 126.445 285.881 127.225 285.417C128.006 284.954 129.151 284.324 129.798 283.993C130.429 283.679 131.608 283.149 132.404 282.818C133.201 282.486 134.363 282.073 134.977 281.89C135.841 281.642 136.405 281.576 137.434 281.642ZM132.62 299.607C132.255 299.855 131.757 300.319 131.525 300.617C131.276 300.932 130.944 301.594 130.778 302.091C130.562 302.769 130.512 303.25 130.595 303.962C130.661 304.475 130.877 305.286 131.076 305.766C131.309 306.263 131.774 306.892 132.205 307.29C132.62 307.67 133.301 308.068 133.699 308.2C134.114 308.316 134.861 308.399 135.359 308.349C135.957 308.316 136.654 308.101 137.351 307.753C137.949 307.472 138.546 307.124 138.696 307.025C138.928 306.843 138.978 306.18 139.028 301.561C139.061 298.663 139.061 296.295 139.011 296.295C138.961 296.312 137.65 296.941 136.106 297.736C134.546 298.514 132.985 299.359 132.62 299.607ZM165.106 281.576C165.172 281.559 165.255 283.165 165.322 288.696L166.334 287.156C166.899 286.311 167.911 285.036 168.575 284.308C169.256 283.579 170.219 282.735 170.716 282.42C171.214 282.106 171.995 281.774 172.459 281.675C173.057 281.543 173.522 281.559 174.153 281.692C174.634 281.808 175.398 282.139 175.862 282.437C176.477 282.834 176.792 283.198 177.124 283.877C177.522 284.672 177.572 284.937 177.506 285.947C177.439 286.791 177.307 287.321 176.991 287.851C176.759 288.265 176.277 288.861 175.929 289.159C175.564 289.474 175.032 289.838 174.734 289.954C174.435 290.07 174.036 290.169 173.821 290.169C173.621 290.186 173.123 289.937 172.708 289.623C172.293 289.308 171.646 288.894 171.248 288.712C170.849 288.513 170.235 288.348 169.837 288.348C169.455 288.364 168.841 288.497 168.476 288.662C168.11 288.828 167.48 289.325 167.081 289.772C166.683 290.219 166.102 291.096 165.239 292.818L165.322 307.968L165.737 308.68C165.969 309.061 166.334 309.459 166.567 309.541C166.799 309.624 167.314 309.773 167.729 309.873C168.144 309.972 168.99 310.104 170.799 310.287L170.882 312.522H153.453L153.536 310.287L154.366 310.187C154.814 310.121 155.495 310.005 155.86 309.906C156.225 309.806 156.706 309.591 156.922 309.426C157.155 309.26 157.47 308.829 157.636 308.465C157.902 307.853 157.918 307.058 157.935 298.365C157.935 293.183 157.885 288.679 157.802 288.364C157.736 288.05 157.503 287.586 157.271 287.338C157.022 287.089 156.474 286.791 155.943 286.642C155.445 286.51 154.814 286.344 154.565 286.295C154.133 286.195 154.117 286.162 154.117 284.126L155.146 283.993C155.727 283.91 157.088 283.679 158.184 283.463C159.279 283.248 161.072 282.801 162.168 282.486C163.263 282.172 164.342 281.841 164.575 281.741C164.807 281.659 165.039 281.576 165.106 281.576ZM40.4091 323.947C40.8905 323.947 41.1561 324.046 41.4051 324.327C41.5877 324.526 41.7371 324.923 41.7371 325.188C41.7371 325.47 41.5877 325.9 41.4051 326.149C41.1395 326.496 40.9403 326.596 40.4423 326.596C40.0329 326.596 39.7009 326.469 39.4464 326.215C39.1808 325.967 39.0646 325.668 39.0812 325.238C39.0812 324.841 39.1974 324.493 39.4132 324.278C39.6345 324.057 39.9665 323.947 40.4091 323.947ZM94.4576 323.947C95.0552 323.947 95.2378 324.029 95.52 324.41C95.7026 324.658 95.852 325.072 95.852 325.321C95.852 325.569 95.6694 325.95 95.437 326.182C95.188 326.447 94.856 326.596 94.524 326.596C94.2584 326.596 93.8932 326.546 93.7439 326.48C93.5945 326.414 93.3621 326.132 93.2293 325.851C93.0965 325.553 93.0467 325.188 93.1131 324.94C93.1629 324.708 93.3289 324.394 93.4783 324.245C93.6443 324.046 93.9929 323.947 94.4576 323.947ZM143.161 323.947C143.604 323.947 143.936 324.057 144.157 324.278C144.34 324.476 144.489 324.841 144.489 325.155C144.489 325.453 144.34 325.9 144.157 326.149C143.891 326.513 143.692 326.596 143.161 326.596C142.63 326.596 142.431 326.513 142.148 326.149C141.966 325.9 141.816 325.453 141.816 325.188C141.816 324.89 141.966 324.526 142.165 324.311C142.397 324.062 142.696 323.947 143.161 323.947ZM54.8508 324.278V327.092C54.8508 328.649 54.9006 329.94 54.967 329.99C55.0334 330.023 55.3156 329.841 55.5978 329.56C55.8634 329.295 56.4776 328.93 56.959 328.748C57.5234 328.533 58.2538 328.417 59.034 328.417C60.0299 328.417 60.4117 328.5 61.2417 328.897C61.9057 329.212 62.4203 329.626 62.7855 330.106C63.0843 330.503 63.4329 331.199 63.5657 331.646C63.7649 332.275 63.8147 333.451 63.8147 340.835H61.8227L61.7729 336.663C61.7397 332.54 61.7231 332.457 61.3247 331.745C61.0259 331.199 60.6773 330.901 60.0797 330.586C59.5154 330.305 58.9842 330.172 58.4198 330.172C57.8886 330.189 57.291 330.321 56.7598 330.586C56.2452 330.834 55.797 331.232 55.5148 331.629C55.0998 332.275 55.0998 332.341 55.0002 336.514C54.9338 338.848 54.884 340.769 54.8674 340.802C54.8508 340.819 54.4027 340.835 52.8589 340.835L52.8257 332.672C52.8091 328.169 52.8589 324.443 52.9419 324.394C53.0083 324.327 53.4731 324.278 54.8508 324.278ZM171.546 324.278H173.538V340.835H172.576C171.646 340.852 171.629 340.835 171.497 340.305C171.43 340.007 171.38 339.56 171.38 338.848L170.833 339.444C170.534 339.776 169.887 340.239 169.389 340.471C168.774 340.769 168.094 340.935 167.314 340.984C166.484 341.034 165.886 340.968 165.239 340.769C164.741 340.603 164.027 340.272 163.662 340.024C163.296 339.776 162.749 339.229 162.45 338.832C162.151 338.434 161.753 337.689 161.553 337.193C161.288 336.514 161.205 335.885 161.188 334.709C161.172 333.417 161.255 332.954 161.587 332.076C161.836 331.414 162.284 330.685 162.749 330.189C163.164 329.742 163.911 329.179 164.409 328.947C165.189 328.566 165.537 328.5 166.899 328.5C168.144 328.5 168.625 328.583 169.223 328.848C169.638 329.03 170.268 329.46 171.297 330.387L171.414 329.858C171.497 329.576 171.546 328.202 171.546 326.811V324.278ZM164.608 331.282C164.292 331.563 163.894 332.109 163.695 332.474C163.413 333.003 163.346 333.434 163.33 334.626C163.33 335.885 163.396 336.249 163.745 336.944C163.96 337.391 164.292 337.905 164.492 338.07C164.674 338.236 165.189 338.55 165.654 338.766C166.235 339.047 166.766 339.163 167.397 339.163C167.911 339.163 168.592 339.03 168.974 338.865C169.339 338.699 169.953 338.203 170.351 337.756C170.75 337.308 171.131 336.679 171.214 336.365C171.314 336.034 171.38 335.288 171.38 334.709C171.38 334.113 171.297 333.335 171.198 332.97C171.098 332.606 170.799 332.043 170.55 331.729C170.301 331.397 169.687 330.934 169.206 330.685C168.509 330.338 168.077 330.238 167.314 330.238C166.766 330.238 166.052 330.354 165.737 330.503C165.421 330.636 164.907 330.983 164.608 331.282ZM45.223 325.602H47.381V328.583H50.5349V330.238H47.381L47.4142 334.361C47.4474 337.474 47.5138 338.55 47.6798 338.716C47.796 338.832 48.46 338.964 50.4519 339.097L50.5349 340.835H49.2402C48.543 340.835 47.6632 340.752 47.298 340.653C46.9328 340.554 46.4514 340.305 46.2522 340.107C46.0364 339.908 45.7376 339.527 45.5882 339.262C45.3558 338.848 45.306 338.07 45.223 330.238H43.7291V328.583H45.223V325.602ZM104.982 328.417C106.077 328.4 106.36 328.467 107.289 328.947C107.887 329.245 108.567 329.742 108.816 330.073C109.082 330.387 109.397 331.017 109.547 331.48C109.746 332.143 109.796 333.169 109.796 340.835H107.804V336.895C107.804 334.328 107.737 332.772 107.621 332.391C107.505 332.06 107.289 331.596 107.107 331.348C106.941 331.099 106.559 330.768 106.26 330.619C105.978 330.47 105.43 330.288 105.065 330.222C104.7 330.156 104.036 330.172 103.571 330.271C102.957 330.404 102.558 330.619 102.06 331.116C101.645 331.53 101.297 332.076 101.18 332.474C101.081 332.871 100.998 334.659 100.998 340.835H98.84V328.583H100.998V330.156L101.529 329.626C101.828 329.344 102.259 329.013 102.492 328.897C102.724 328.781 103.089 328.632 103.322 328.566C103.554 328.5 104.301 328.434 104.982 328.417ZM125.101 328.417C125.914 328.417 126.495 328.516 127.159 328.781C127.74 329.013 128.338 329.411 128.719 329.824C129.051 330.189 129.367 330.586 129.433 330.735C129.533 330.95 129.566 330.95 129.666 330.735C129.732 330.586 130.081 330.156 130.446 329.775C130.877 329.311 131.442 328.93 131.989 328.732C132.521 328.533 133.284 328.417 133.948 328.417C134.629 328.417 135.343 328.533 135.89 328.748C136.372 328.93 137.019 329.295 137.301 329.576C137.6 329.841 138.048 330.454 138.762 331.811L138.845 340.835H136.853L136.803 336.729C136.77 333.003 136.737 332.573 136.422 331.894C136.222 331.447 135.857 331 135.509 330.785C135.193 330.586 134.612 330.338 134.197 330.255C133.683 330.139 133.201 330.139 132.62 330.271C132.056 330.387 131.574 330.652 131.159 331.05C130.728 331.447 130.446 331.911 130.28 332.474C130.114 333.086 130.047 334.278 130.047 340.835H128.055L128.006 336.729C127.972 333.401 127.906 332.523 127.69 332.06C127.557 331.729 127.209 331.265 126.96 331.017C126.678 330.752 126.097 330.454 125.565 330.321C124.835 330.122 124.486 330.122 123.822 330.271C123.258 330.387 122.777 330.652 122.362 331.05C121.996 331.397 121.631 331.96 121.482 332.391C121.299 332.954 121.249 334.047 121.249 340.835H119.092V328.583H121.249V330.073L121.947 329.477C122.345 329.162 122.959 328.798 123.324 328.665C123.69 328.55 124.486 328.434 125.101 328.417ZM153.536 328.417C154.167 328.417 155.03 328.516 155.445 328.649C155.86 328.781 156.524 329.179 156.939 329.543C157.387 329.924 157.852 330.536 158.101 331.066C158.499 331.944 158.516 332.076 158.599 340.835H156.607V337.308C156.607 335.189 156.524 333.401 156.408 332.805C156.242 332.01 156.076 331.662 155.528 331.116C155.013 330.603 154.665 330.387 153.984 330.255C153.519 330.156 152.872 330.122 152.573 330.172C152.291 330.238 151.809 330.387 151.544 330.52C151.262 330.652 150.913 330.884 150.73 331.033C150.564 331.182 150.266 331.613 150.066 331.977C149.735 332.59 149.718 332.904 149.635 340.835H147.643V328.583H149.635V330.073L150.332 329.493C150.73 329.179 151.345 328.814 151.71 328.682C152.075 328.55 152.888 328.434 153.536 328.417ZM20.6555 328.583C21.6349 328.583 21.6515 328.583 21.8009 329.112C21.8839 329.411 22.1495 330.404 22.3985 331.315C22.6475 332.225 22.9463 333.302 23.0625 333.715C23.1787 334.113 23.5273 335.338 23.8427 336.398C24.1415 337.474 24.4237 338.352 24.4735 338.352C24.5233 338.352 24.6727 337.954 24.8221 337.474C24.9715 336.994 25.4528 335.421 25.8678 333.964C26.2994 332.507 26.8306 330.702 27.4614 328.583H28.5404C29.138 328.583 29.6194 328.616 29.6194 328.665C29.6194 328.699 30.2169 330.851 30.9639 333.417C31.7109 336 32.3749 338.203 32.4413 338.352C32.5243 338.517 32.6405 338.318 32.8231 337.689C32.9725 337.176 33.4871 335.239 33.9851 333.384C34.4997 331.513 34.981 329.675 35.2632 328.583H36.2592C36.807 328.583 37.2552 328.649 37.2552 328.748C37.2552 328.831 36.9564 329.824 36.6078 330.934C36.2426 332.06 35.5786 334.163 35.1304 335.62C34.6657 337.077 34.1179 338.815 33.5203 340.752L32.4745 340.786C31.5449 340.819 31.4287 340.802 31.2959 340.454C31.2129 340.256 30.8809 339.229 30.5489 338.186C30.2335 337.126 29.6526 335.206 29.2542 333.914C28.8558 332.623 28.5072 331.546 28.4574 331.546C28.4076 331.546 28.0092 332.722 27.561 334.163C27.1128 335.603 26.482 337.673 25.5358 340.752L23.3945 340.852L22.9463 339.395C22.6973 338.583 21.8507 335.918 21.0705 333.467C20.2903 331 19.6596 328.897 19.6596 328.781C19.6596 328.649 19.975 328.583 20.6555 328.583ZM39.4132 328.583H41.4051V340.835H39.4132V328.583ZM73.0939 328.583H75.1024V332.556C75.1024 335.769 75.1522 336.646 75.3514 337.143C75.5008 337.491 75.8162 337.971 76.0652 338.236C76.3142 338.501 76.779 338.815 77.0944 338.948C77.4098 339.08 78.0406 339.179 78.5054 339.179C78.9536 339.163 79.6341 339.03 79.9993 338.865C80.3645 338.699 80.8293 338.385 81.0285 338.153C81.2277 337.938 81.5099 337.424 81.6593 337.027C81.8585 336.431 81.9083 335.504 81.9083 328.583H84.0663V340.835H81.9083V339.345L81.3605 339.776C81.0783 340.007 80.5305 340.372 80.1653 340.554C79.6341 340.835 79.1859 340.901 78.0074 340.901C76.696 340.918 76.4138 340.852 75.6834 340.471C75.2186 340.223 74.6542 339.825 74.4052 339.56C74.1728 339.295 73.7911 338.749 73.5753 338.352C73.2101 337.623 73.1935 337.441 73.1437 333.086L73.0939 328.583ZM93.3621 328.583H95.52V340.835H93.3621V328.583ZM142.165 328.583H144.157V340.835H142.165V328.583Z" fill="black"/>
</svg>
