<svg width="223" height="249" viewBox="0 0 223 249" fill="none" xmlns="http://www.w3.org/2000/svg">
<path d="M70.2817 204.354C68.8929 203.805 67.7204 202.883 66.7642 201.588C66.2862 200.94 65.9799 200.177 65.8455 199.298C65.731 198.427 65.858 197.525 66.2265 196.592C66.9243 194.827 68.078 193.619 69.6876 192.971C71.2973 192.323 72.9608 192.234 74.6781 192.707C73.6846 191.97 72.9957 191.101 72.6112 190.101C72.2466 189.108 72.2877 188.046 72.7346 186.915C73.4089 185.209 74.6067 184.122 76.328 183.656C78.077 183.177 79.8146 183.279 81.5407 183.961C83.2668 184.643 84.5602 185.578 85.4208 186.767C86.2815 187.956 86.4648 189.175 85.9708 190.425C85.7984 190.862 85.5504 191.257 85.227 191.611C84.9235 191.973 84.6571 192.211 84.4278 192.327L84.1019 192.543C83.467 192.292 82.8058 191.904 82.1183 191.38C81.4506 190.864 81.0048 190.367 80.781 189.888L82.3495 186.964C82.1695 186.549 81.7223 186.2 81.0081 185.918C80.3137 185.643 79.6131 185.791 78.9064 186.36C78.2273 186.918 77.7035 187.663 77.335 188.595C76.9665 189.528 76.7973 190.275 76.8274 190.838C76.8574 191.4 77.0199 191.889 77.3148 192.303C77.773 192.943 78.3874 193.507 79.158 193.995L78.2731 195.538C76.8446 194.973 75.436 194.91 74.0473 195.348C72.6665 195.765 71.7016 196.669 71.1528 198.057C70.8078 198.93 70.7994 199.764 71.1276 200.559C71.4834 201.342 72.1077 201.91 73.0005 202.263C74.6274 202.906 76.6194 202.741 78.9764 201.769L79.7317 203.34C76.3482 205.169 73.1982 205.507 70.2817 204.354Z" fill="white"/>
<path d="M98.1686 213.813C97.4605 213.656 96.92 213.285 96.5472 212.699C96.1953 212.119 96.114 211.401 96.3034 210.547C96.4975 209.673 97.6199 207.026 99.6706 202.608C101.747 198.174 103.014 194.926 103.471 192.864L103.588 191.448C105.338 191.246 106.92 191.302 108.337 191.616C108.48 191.954 108.471 192.487 108.309 193.216C107.94 194.882 106.693 197.993 104.568 202.547C102.469 207.086 101.331 209.751 101.156 210.542C100.985 211.313 100.993 211.719 101.181 211.76L103.541 211.464L103.86 212.683C103.028 213.088 102.048 213.417 100.921 213.669C99.815 213.927 98.8975 213.974 98.1686 213.813Z" fill="white"/>
<path d="M115.624 211.694C115.795 209.033 116.727 206.987 118.422 205.556C120.14 204.106 122.021 203.446 124.064 203.577C125.32 203.658 126.333 204.032 127.103 204.702C127.872 205.371 128.223 206.227 128.157 207.27C128.091 208.292 127.77 209.137 127.193 209.806C126.637 210.476 125.974 210.978 125.204 211.314C123.645 211.962 122.231 212.342 120.963 212.453L120.19 212.5C120.211 214.51 120.966 215.563 122.457 215.659C122.968 215.692 123.519 215.599 124.11 215.38C124.701 215.161 125.164 214.935 125.5 214.7L126.004 214.347L126.705 215.418C126.519 215.641 126.159 215.928 125.624 216.279C125.088 216.629 124.589 216.918 124.125 217.145C122.847 217.747 121.473 218.001 120.004 217.907C118.535 217.813 117.408 217.217 116.623 216.119C115.839 215.021 115.506 213.546 115.624 211.694ZM120.258 210.933C121.356 210.811 122.248 210.408 122.933 209.725C123.618 209.042 123.997 208.126 124.071 206.976C124.145 205.827 123.841 205.23 123.16 205.186C122.351 205.135 121.678 205.786 121.143 207.142C120.629 208.477 120.335 209.741 120.258 210.933Z" fill="white"/>
<path d="M151.816 221.735C151.175 222.25 150.88 222.709 150.934 223.111C150.987 223.513 151.235 223.684 151.68 223.625C152.145 223.564 152.634 223.273 153.146 222.753C153.661 222.255 154.044 221.494 154.296 220.47C153.306 220.795 152.479 221.217 151.816 221.735ZM158.952 203.229C159.048 203.303 159.115 203.488 159.154 203.784C159.191 204.059 159.21 204.368 159.213 204.712C159.212 205.035 159.235 205.774 159.281 206.93C159.326 208.086 159.352 209.094 159.359 209.954C159.541 219.614 157.274 224.756 152.558 225.381C151.796 225.482 151.072 225.374 150.384 225.056C149.718 224.735 149.342 224.258 149.258 223.623C149.146 222.777 149.562 221.937 150.506 221.102C151.45 220.266 152.774 219.542 154.479 218.929C154.476 218.908 154.5 218.603 154.552 218.015C154.603 217.428 154.626 216.951 154.62 216.586C153.475 217.685 152.342 218.308 151.221 218.457C150.121 218.602 149.154 218.289 148.32 217.518C147.507 216.743 146.975 215.404 146.723 213.501C146.392 211.005 146.678 208.858 147.58 207.06C148.48 205.241 149.85 204.209 151.69 203.966C152.726 203.828 153.785 203.946 154.868 204.319C155.896 203.796 157.034 203.451 158.281 203.286L158.952 203.229ZM153.365 205.648C152.456 205.769 151.835 206.604 151.502 208.155C151.167 209.684 151.118 211.347 151.356 213.145C151.592 214.921 152.111 215.756 152.915 215.65C153.443 215.58 154.041 215.296 154.707 214.799C154.828 211.168 154.863 208.183 154.811 205.844C154.185 205.669 153.703 205.603 153.365 205.648Z" fill="white"/>
<path d="M185.194 199.436C185.447 200.296 185.607 201.861 185.675 204.131C185.736 206.381 185.863 207.834 186.055 208.489C186.242 209.123 186.427 209.413 186.612 209.359C186.734 209.323 187.148 208.99 187.852 208.361L188.167 208.068L189.004 208.989C188.868 209.207 188.683 209.484 188.448 209.82C188.213 210.156 187.74 210.662 187.027 211.338C186.308 211.995 185.591 212.428 184.874 212.639C184.158 212.849 183.532 212.8 182.996 212.49C182.454 212.161 182.075 211.627 181.859 210.89C181.636 210.133 181.5 208.728 181.452 206.674C181.398 204.599 181.287 203.276 181.118 202.703C180.866 201.843 180.362 201.113 179.607 200.512L179.222 200.225L179.136 199.817C180.13 199.191 181.845 198.52 184.281 197.803C184.637 198.032 184.942 198.576 185.194 199.436ZM180.196 195.369C179.666 195.08 179.302 194.598 179.103 193.922C178.905 193.247 179.006 192.572 179.409 191.898C179.831 191.218 180.411 190.769 181.148 190.553C181.884 190.336 182.518 190.372 183.047 190.661C183.577 190.95 183.941 191.432 184.14 192.108C184.333 192.763 184.207 193.433 183.764 194.119C183.342 194.8 182.772 195.245 182.056 195.456C181.34 195.666 180.719 195.637 180.196 195.369Z" fill="white"/>
<path d="M202.957 191.131C203.128 191.637 203.206 192.277 203.191 193.051C202.412 193.293 201.69 193.557 201.024 193.844L200.495 194.072C201.474 198.829 202.196 201.747 202.66 202.825C202.904 203.393 203.144 203.627 203.379 203.525C203.634 203.416 204.185 202.888 205.032 201.943L205.979 202.685C204.859 204.886 203.554 206.307 202.065 206.948C201.379 207.243 200.718 207.272 200.082 207.035C199.465 206.789 199.005 206.314 198.702 205.608C198.39 204.883 198.118 204.036 197.887 203.068C197.675 202.09 197.438 200.892 197.175 199.472C196.904 198.033 196.664 196.882 196.456 196.019C195.756 196.39 195.242 196.681 194.915 196.891C194.774 196.673 194.62 196.368 194.451 195.976C194.274 195.565 194.16 195.219 194.109 194.939L195.961 194.142C195.662 193.016 195.311 191.983 194.906 191.042L194.484 190.144L194.446 190.056C195.747 188.869 197.073 187.984 198.425 187.402C198.672 187.761 198.923 188.234 199.176 188.821C199.429 189.409 199.739 190.588 200.105 192.358L202.957 191.131Z" fill="white"/>
<path d="M89.489 118.059C89.0883 116.663 88.8141 114.921 88.6666 112.833C88.519 110.745 88.5057 108.604 88.6266 106.409C88.8174 104.155 89.0645 102.003 89.3677 99.9529C89.7353 97.9085 90.2018 96.2291 90.7671 94.9149C91.8302 94.6157 92.8829 94.0562 93.9252 93.2364C94.9729 92.3522 95.906 90.9069 96.7245 88.9006C97.5484 86.83 98.1211 83.8949 98.4427 80.0953C98.7916 75.9737 98.6669 72.8498 98.0685 70.7236C97.54 68.5385 96.7906 67.0481 95.8201 66.2525C94.9196 65.3979 94.0829 64.9379 93.3101 64.8725C92.8286 63.6643 92.5436 62.0511 92.455 60.0329C92.3663 58.0147 92.4174 55.8786 92.6082 53.6246C92.8689 51.3117 93.2501 49.1063 93.752 47.0083C94.2594 44.846 94.9005 43.0193 95.6753 41.5282C96.7002 41.6799 98.3664 41.9182 100.674 42.2432C103.051 42.5093 105.78 42.8376 108.86 43.2281C112.01 43.5596 115.289 43.902 118.697 44.2553C122.105 44.6086 125.448 44.9565 128.727 45.2989C132.076 45.5824 135.07 45.8359 137.711 46.0594C144.473 46.6317 151.983 47.1702 160.243 47.6748C168.567 48.1848 176.832 48.625 185.038 48.9953C185.256 50.2461 185.396 52.0416 185.457 54.3818C185.519 56.722 185.494 59.3143 185.383 62.1588C185.272 65.0033 185.094 67.8745 184.848 70.7725C184.603 73.6705 184.28 76.3349 183.88 78.7657C183.485 81.1321 183.037 82.9752 182.536 84.2949C179.477 84.4251 176.106 84.3992 172.424 84.2173C168.743 84.0353 165.008 83.7192 161.219 83.2687C157.495 82.8238 153.974 82.2664 150.658 81.5965C150.142 78.5043 150.395 75.5097 151.419 72.6128L140.213 71.6642L139.87 75.7214L148.854 76.4819L147.717 89.9091L138.637 89.1405L138.285 93.2943L149.587 94.251C149.071 91.1588 149.327 88.132 150.356 85.1707C155.793 85.3066 161.345 85.6144 167.012 86.0941C172.679 86.5738 177.946 87.1818 182.813 87.9181C182.908 89.0936 182.911 90.9749 182.822 93.5617C182.738 96.0842 182.56 98.9555 182.287 102.175C182.02 105.331 181.686 108.513 181.285 111.722C180.948 114.937 180.576 117.792 180.171 120.287C179.765 122.782 179.355 124.564 178.94 125.631C172.189 124.93 164.872 124.019 156.989 122.897C149.1 121.841 141.357 120.99 133.757 120.347C129.636 119.998 125.286 119.663 120.708 119.34C116.19 119.087 111.799 118.845 107.538 118.614C103.336 118.453 99.6193 118.301 96.3884 118.157C93.2165 118.083 90.9167 118.05 89.489 118.059Z" fill="white"/>
<path d="M127.641 7.00102C115.444 14.8138 109.608 38.3281 107.38 49.5118C114.169 29.869 124.127 16.676 127.003 14.5286C140.685 4.31442 152.774 12.9193 157.546 17.114C165.817 25.3957 171.506 43.9888 172.282 55.0057C174.746 25.8988 162.535 13.1673 158.183 9.58637C149.624 2.54392 135.159 2.18503 127.641 7.00102Z" fill="white"/>
<circle cx="109.017" cy="48.1302" r="3.02952" transform="rotate(4.83842 109.017 48.1302)" fill="white"/>
<circle cx="170.901" cy="53.3686" r="3.02952" transform="rotate(4.83842 170.901 53.3686)" fill="white"/>
<path d="M66.823 65.2963C50.6725 51.4672 14.7888 57.3242 2.7016 63.163C2.15867 63.4253 1.80352 63.9356 1.70083 64.5298C1.44088 66.0339 2.93385 67.25 4.37559 66.7486C34.2599 56.3563 62.5886 65.5837 63.9195 72.9358L71.6522 130.137C71.6818 130.356 71.6919 130.559 71.692 130.78C71.6953 138.313 79.2889 167.918 109.27 167.241C111.114 167.2 112.928 166.768 114.656 166.122L199.908 134.268C199.992 134.237 200.072 134.197 200.148 134.149C201.364 133.373 200.564 131.492 199.162 131.83L112.499 152.719C93.8718 156.696 84.0494 137.318 80.6371 126.811L70.9911 73.5245C70.4271 70.409 69.228 67.3556 66.823 65.2963Z" fill="white"/>
<circle cx="132.104" cy="181.137" r="14.0416" fill="white"/>
<circle cx="182.654" cy="162.883" r="14.0416" fill="white"/>
</svg>
