<svg width="198" height="78" viewBox="0 0 198 78" fill="none" xmlns="http://www.w3.org/2000/svg">
<g filter="url(#filter0_d_10_49)">
<rect x="4.5" y="4" width="189" height="70" rx="35" fill="white"/>
<path d="M35.556 45.68C34.692 45.68 33.876 45.512 33.108 45.176C32.34 44.84 31.668 44.378 31.092 43.79C30.516 43.19 30.06 42.5 29.724 41.72C29.4 40.928 29.238 40.082 29.238 39.182C29.238 38.282 29.4 37.442 29.724 36.662C30.06 35.882 30.516 35.198 31.092 34.61C31.68 34.01 32.364 33.548 33.144 33.224C33.936 32.888 34.788 32.72 35.7 32.72C36.696 32.72 37.62 32.912 38.472 33.296C39.324 33.68 40.038 34.226 40.614 34.934L39.21 36.338C38.838 35.81 38.34 35.408 37.716 35.132C37.092 34.844 36.42 34.7 35.7 34.7C34.836 34.7 34.074 34.892 33.414 35.276C32.766 35.648 32.262 36.17 31.902 36.842C31.542 37.514 31.362 38.294 31.362 39.182C31.362 40.07 31.542 40.856 31.902 41.54C32.274 42.212 32.772 42.74 33.396 43.124C34.02 43.508 34.728 43.7 35.52 43.7C36.36 43.7 37.08 43.55 37.68 43.25C38.292 42.938 38.76 42.482 39.084 41.882C39.408 41.27 39.57 40.52 39.57 39.632L40.866 40.568H35.484V38.678H41.712V38.966C41.712 40.466 41.442 41.714 40.902 42.71C40.374 43.706 39.648 44.45 38.724 44.942C37.8 45.434 36.744 45.68 35.556 45.68ZM47.5163 45.68C46.6523 45.68 45.8723 45.488 45.1763 45.104C44.4923 44.708 43.9463 44.168 43.5383 43.484C43.1423 42.8 42.9443 42.032 42.9443 41.18C42.9443 40.328 43.1423 39.566 43.5383 38.894C43.9343 38.21 44.4683 37.67 45.1403 37.274C45.8243 36.878 46.5803 36.68 47.4083 36.68C48.2123 36.68 48.9203 36.866 49.5323 37.238C50.1563 37.61 50.6423 38.12 50.9903 38.768C51.3503 39.416 51.5303 40.154 51.5303 40.982C51.5303 41.126 51.5183 41.276 51.4943 41.432C51.4823 41.576 51.4583 41.738 51.4223 41.918H44.3303V40.298H50.3963L49.6583 40.946C49.6343 40.418 49.5323 39.974 49.3523 39.614C49.1723 39.254 48.9143 38.978 48.5783 38.786C48.2543 38.594 47.8523 38.498 47.3723 38.498C46.8683 38.498 46.4303 38.606 46.0583 38.822C45.6863 39.038 45.3983 39.344 45.1943 39.74C44.9903 40.124 44.8883 40.586 44.8883 41.126C44.8883 41.666 44.9963 42.14 45.2123 42.548C45.4283 42.956 45.7343 43.274 46.1303 43.502C46.5263 43.718 46.9823 43.826 47.4983 43.826C47.9423 43.826 48.3503 43.748 48.7223 43.592C49.1063 43.436 49.4303 43.208 49.6943 42.908L50.9543 44.186C50.5343 44.678 50.0243 45.05 49.4243 45.302C48.8243 45.554 48.1883 45.68 47.5163 45.68ZM54.203 45.5V33.26H56.183V45.5H54.203ZM52.133 38.66V36.86H58.253V38.66H52.133ZM67.0753 45.68C66.0793 45.68 65.2333 45.5 64.5373 45.14C63.8413 44.78 63.2173 44.252 62.6653 43.556L64.0693 42.152C64.4173 42.656 64.8313 43.052 65.3113 43.34C65.7913 43.616 66.4033 43.754 67.1473 43.754C67.8433 43.754 68.3953 43.61 68.8033 43.322C69.2233 43.034 69.4333 42.638 69.4333 42.134C69.4333 41.714 69.3253 41.372 69.1093 41.108C68.8933 40.844 68.6053 40.628 68.2453 40.46C67.8973 40.28 67.5073 40.124 67.0753 39.992C66.6553 39.848 66.2293 39.692 65.7973 39.524C65.3773 39.344 64.9873 39.122 64.6273 38.858C64.2793 38.594 63.9973 38.252 63.7813 37.832C63.5653 37.412 63.4573 36.878 63.4573 36.23C63.4573 35.486 63.6373 34.856 63.9973 34.34C64.3693 33.812 64.8673 33.41 65.4913 33.134C66.1153 32.858 66.8113 32.72 67.5793 32.72C68.4073 32.72 69.1453 32.882 69.7933 33.206C70.4533 33.53 70.9873 33.944 71.3953 34.448L69.9913 35.852C69.6313 35.444 69.2533 35.144 68.8573 34.952C68.4733 34.748 68.0293 34.646 67.5253 34.646C66.9013 34.646 66.4093 34.772 66.0493 35.024C65.7013 35.276 65.5273 35.63 65.5273 36.086C65.5273 36.47 65.6353 36.782 65.8513 37.022C66.0673 37.25 66.3493 37.448 66.6973 37.616C67.0573 37.772 67.4473 37.922 67.8673 38.066C68.2993 38.21 68.7253 38.372 69.1453 38.552C69.5773 38.732 69.9673 38.966 70.3153 39.254C70.6753 39.53 70.9633 39.89 71.1793 40.334C71.3953 40.778 71.5033 41.336 71.5033 42.008C71.5033 43.136 71.1013 44.03 70.2973 44.69C69.5053 45.35 68.4313 45.68 67.0753 45.68ZM74.6112 45.5V33.26H76.5912V45.5H74.6112ZM72.5412 38.66V36.86H78.6612V38.66H72.5412ZM83.4719 45.68C82.6919 45.68 81.9839 45.482 81.3479 45.086C80.7239 44.69 80.2259 44.156 79.8539 43.484C79.4939 42.8 79.3139 42.038 79.3139 41.198C79.3139 40.346 79.4939 39.584 79.8539 38.912C80.2259 38.228 80.7239 37.688 81.3479 37.292C81.9839 36.884 82.6919 36.68 83.4719 36.68C84.1319 36.68 84.7139 36.824 85.2179 37.112C85.7339 37.388 86.1419 37.772 86.4419 38.264C86.7419 38.756 86.8919 39.314 86.8919 39.938V42.422C86.8919 43.046 86.7419 43.604 86.4419 44.096C86.1539 44.588 85.7519 44.978 85.2359 45.266C84.7199 45.542 84.1319 45.68 83.4719 45.68ZM83.7959 43.808C84.5279 43.808 85.1159 43.562 85.5599 43.07C86.0159 42.578 86.2439 41.948 86.2439 41.18C86.2439 40.664 86.1419 40.208 85.9379 39.812C85.7339 39.416 85.4459 39.11 85.0739 38.894C84.7139 38.666 84.2879 38.552 83.7959 38.552C83.3159 38.552 82.8899 38.666 82.5179 38.894C82.1579 39.11 81.8699 39.416 81.6539 39.812C81.4499 40.208 81.3479 40.664 81.3479 41.18C81.3479 41.696 81.4499 42.152 81.6539 42.548C81.8699 42.944 82.1579 43.256 82.5179 43.484C82.8899 43.7 83.3159 43.808 83.7959 43.808ZM86.1179 45.5V43.178L86.4599 41.072L86.1179 38.984V36.86H88.0979V45.5H86.1179ZM90.2953 45.5V36.86H92.2753V45.5H90.2953ZM92.2753 40.694L91.5913 40.352C91.5913 39.26 91.8313 38.378 92.3113 37.706C92.8033 37.022 93.5413 36.68 94.5253 36.68C94.9573 36.68 95.3473 36.758 95.6953 36.914C96.0433 37.07 96.3673 37.322 96.6673 37.67L95.3713 39.002C95.2153 38.834 95.0413 38.714 94.8493 38.642C94.6573 38.57 94.4353 38.534 94.1833 38.534C93.6313 38.534 93.1753 38.708 92.8153 39.056C92.4553 39.404 92.2753 39.95 92.2753 40.694ZM98.9569 45.5V33.26H100.937V45.5H98.9569ZM96.8869 38.66V36.86H103.007V38.66H96.8869ZM108.214 45.68C107.35 45.68 106.57 45.488 105.874 45.104C105.19 44.708 104.644 44.168 104.236 43.484C103.84 42.8 103.642 42.032 103.642 41.18C103.642 40.328 103.84 39.566 104.236 38.894C104.632 38.21 105.166 37.67 105.838 37.274C106.522 36.878 107.278 36.68 108.106 36.68C108.91 36.68 109.618 36.866 110.23 37.238C110.854 37.61 111.34 38.12 111.688 38.768C112.048 39.416 112.228 40.154 112.228 40.982C112.228 41.126 112.216 41.276 112.192 41.432C112.18 41.576 112.156 41.738 112.12 41.918H105.028V40.298H111.094L110.356 40.946C110.332 40.418 110.23 39.974 110.05 39.614C109.87 39.254 109.612 38.978 109.276 38.786C108.952 38.594 108.55 38.498 108.07 38.498C107.566 38.498 107.128 38.606 106.756 38.822C106.384 39.038 106.096 39.344 105.892 39.74C105.688 40.124 105.586 40.586 105.586 41.126C105.586 41.666 105.694 42.14 105.91 42.548C106.126 42.956 106.432 43.274 106.828 43.502C107.224 43.718 107.68 43.826 108.196 43.826C108.64 43.826 109.048 43.748 109.42 43.592C109.804 43.436 110.128 43.208 110.392 42.908L111.652 44.186C111.232 44.678 110.722 45.05 110.122 45.302C109.522 45.554 108.886 45.68 108.214 45.68ZM117.433 45.68C116.653 45.68 115.945 45.482 115.309 45.086C114.685 44.69 114.187 44.156 113.815 43.484C113.455 42.8 113.275 42.038 113.275 41.198C113.275 40.346 113.455 39.584 113.815 38.912C114.187 38.228 114.685 37.688 115.309 37.292C115.945 36.884 116.653 36.68 117.433 36.68C118.093 36.68 118.675 36.824 119.179 37.112C119.695 37.388 120.103 37.772 120.403 38.264C120.703 38.756 120.853 39.314 120.853 39.938V42.422C120.853 43.046 120.703 43.604 120.403 44.096C120.115 44.588 119.713 44.978 119.197 45.266C118.681 45.542 118.093 45.68 117.433 45.68ZM117.757 43.808C118.249 43.808 118.675 43.7 119.035 43.484C119.407 43.256 119.695 42.944 119.899 42.548C120.103 42.152 120.205 41.696 120.205 41.18C120.205 40.664 120.103 40.208 119.899 39.812C119.695 39.416 119.407 39.11 119.035 38.894C118.675 38.666 118.249 38.552 117.757 38.552C117.277 38.552 116.851 38.666 116.479 38.894C116.119 39.11 115.831 39.416 115.615 39.812C115.411 40.208 115.309 40.664 115.309 41.18C115.309 41.696 115.411 42.152 115.615 42.548C115.831 42.944 116.119 43.256 116.479 43.484C116.851 43.7 117.277 43.808 117.757 43.808ZM122.059 45.5H120.079V43.178L120.421 41.072L120.079 38.984V32.54H122.059V45.5Z" fill="#242222"/>
<circle cx="158.5" cy="39" r="25" fill="url(#paint0_linear_10_49)"/>
<path d="M167.22 39.2071C167.611 38.8166 167.611 38.1834 167.22 37.7929L160.856 31.4289C160.466 31.0384 159.833 31.0384 159.442 31.4289C159.052 31.8195 159.052 32.4526 159.442 32.8431L165.099 38.5L159.442 44.1569C159.052 44.5474 159.052 45.1805 159.442 45.5711C159.833 45.9616 160.466 45.9616 160.856 45.5711L167.22 39.2071ZM147.487 39.5H166.513V37.5H147.487V39.5Z" fill="white"/>
</g>
<defs>
<filter id="filter0_d_10_49" x="0.5" y="0" width="197" height="78" filterUnits="userSpaceOnUse" color-interpolation-filters="sRGB">
<feFlood flood-opacity="0" result="BackgroundImageFix"/>
<feColorMatrix in="SourceAlpha" type="matrix" values="0 0 0 0 0 0 0 0 0 0 0 0 0 0 0 0 0 0 127 0" result="hardAlpha"/>
<feOffset/>
<feGaussianBlur stdDeviation="2"/>
<feComposite in2="hardAlpha" operator="out"/>
<feColorMatrix type="matrix" values="0 0 0 0 0 0 0 0 0 0 0 0 0 0 0 0 0 0 0.14 0"/>
<feBlend mode="normal" in2="BackgroundImageFix" result="effect1_dropShadow_10_49"/>
<feBlend mode="normal" in="SourceGraphic" in2="effect1_dropShadow_10_49" result="shape"/>
</filter>
<linearGradient id="paint0_linear_10_49" x1="158.5" y1="14" x2="158.5" y2="64" gradientUnits="userSpaceOnUse">
<stop stop-color="#450E8B"/>
<stop offset="1" stop-color="#EC8C34"/>
</linearGradient>
</defs>
</svg>
