<svg width="78" height="78" viewBox="0 0 78 78" fill="none" xmlns="http://www.w3.org/2000/svg">
<g filter="url(#filter0_d_25_2657)">
<circle cx="39" cy="39" r="35" fill="#F5F5F5"/>
</g>
<path d="M43.1667 28.5833C46.0432 28.5833 48.375 26.2514 48.375 23.375C48.375 20.4985 46.0432 18.1666 43.1667 18.1666C40.2902 18.1666 37.9584 20.4985 37.9584 23.375C37.9584 26.2514 40.2902 28.5833 43.1667 28.5833Z" fill="#FF9800"/>
<path d="M44.2083 42.4375L34.625 38.1667C33.5833 37.6459 33.0625 39.2084 32.5416 40.25C32.0208 41.2917 28.2708 47.75 28.5833 48.8959C28.8958 49.8334 29.7291 50.3542 30.5625 50.3542C30.7708 50.3542 30.9791 50.3542 31.1875 50.25L44 46.2917C44.8333 46.0834 45.4583 45.25 45.4583 44.4167C45.4583 43.5834 44.9375 42.75 44.2083 42.4375Z" fill="#00796B"/>
<path d="M41.9167 29.8334L39.625 28.7917C38.2709 28.1667 36.6042 28.7917 35.9792 30.1459L23.5834 56.8125C23.0625 57.8542 23.5834 59.1042 24.625 59.625C24.9375 59.7292 25.25 59.8334 25.5625 59.8334C26.3959 59.8334 27.125 59.4167 27.4375 58.6875C27.4375 58.6875 37.4375 44.8334 38.2709 43.1667C39.1042 41.5 43.375 33.4792 43.375 33.4792C43.8959 32.125 43.375 30.4584 41.9167 29.8334Z" fill="#009688"/>
<path d="M56.1875 30.3542C55.4583 29.5209 54.1042 29.3125 53.2708 30.0417L48.0625 34.4167L41.3958 30.7709C40.25 30.1459 38.6875 30.3542 37.9583 31.7084C37.125 33.0625 37.5417 34.7292 38.7917 35.25L47.4375 38.7917C47.75 38.8959 48.0625 39 48.375 39C48.8958 39 49.3125 38.7917 49.7292 38.4792L55.9792 33.2709C56.8125 32.5417 56.9167 31.2917 56.1875 30.3542ZM26.1875 38.0625L29.7292 32.75L34.5208 33.375L36.0833 30.1459C36.5 29.2084 37.3333 28.6875 38.2708 28.5834H28.6875C27.9583 28.5834 27.3333 28.8959 26.9167 29.5209L22.75 35.7709C22.125 36.7084 22.3333 38.0625 23.375 38.6875C23.5833 38.8959 24 39 24.4167 39C25.0417 39 25.7708 38.6875 26.1875 38.0625Z" fill="#FF9800"/>
<defs>
<filter id="filter0_d_25_2657" x="0" y="0" width="78" height="78" filterUnits="userSpaceOnUse" color-interpolation-filters="sRGB">
<feFlood flood-opacity="0" result="BackgroundImageFix"/>
<feColorMatrix in="SourceAlpha" type="matrix" values="0 0 0 0 0 0 0 0 0 0 0 0 0 0 0 0 0 0 127 0" result="hardAlpha"/>
<feOffset/>
<feGaussianBlur stdDeviation="2"/>
<feComposite in2="hardAlpha" operator="out"/>
<feColorMatrix type="matrix" values="0 0 0 0 0 0 0 0 0 0 0 0 0 0 0 0 0 0 0.14 0"/>
<feBlend mode="normal" in2="BackgroundImageFix" result="effect1_dropShadow_25_2657"/>
<feBlend mode="normal" in="SourceGraphic" in2="effect1_dropShadow_25_2657" result="shape"/>
</filter>
</defs>
</svg>
