<svg width="24" height="24" viewBox="0 0 24 24" fill="none" xmlns="http://www.w3.org/2000/svg">
<path fill-rule="evenodd" clip-rule="evenodd" d="M16.1371 4.728L17.9671 6.558C20.6551 9.248 22.0001 10.592 22.0001 12.262C22.0001 13.933 20.6551 15.277 17.9661 17.966C15.2771 20.657 13.9331 22 12.2621 22C10.5921 22 9.24711 20.655 6.55811 17.966L4.72811 16.136C3.18311 14.591 2.41011 13.819 2.12311 12.816C1.83511 11.813 2.08111 10.748 2.57311 8.619L2.85611 7.391C3.26911 5.599 3.47611 4.703 4.08911 4.089C4.70311 3.476 5.59911 3.269 7.39111 2.856L8.61911 2.572C10.7491 2.081 11.8131 1.835 12.8161 2.122C13.8191 2.41 14.5921 3.183 16.1371 4.728ZM11.1471 14.328C10.4741 13.656 10.4791 12.69 10.8821 11.925C10.7823 11.7809 10.7362 11.6064 10.7517 11.4318C10.7672 11.2572 10.8433 11.0936 10.9669 10.9693C11.0905 10.845 11.2537 10.7679 11.4282 10.7514C11.6027 10.7349 11.7774 10.7801 11.9221 10.879C12.2621 10.699 12.6351 10.603 13.0071 10.607C13.206 10.6089 13.3961 10.6897 13.5354 10.8316C13.6747 10.9736 13.752 11.1651 13.7501 11.364C13.7483 11.5629 13.6675 11.7529 13.5255 11.8923C13.3835 12.0316 13.192 12.1089 12.9931 12.107C12.7616 12.1156 12.5427 12.2151 12.3841 12.384C11.9971 12.771 12.0981 13.159 12.2071 13.268C12.3171 13.377 12.7041 13.478 13.0911 13.091C13.8751 12.307 15.2291 12.047 16.0961 12.914C16.7691 13.587 16.7641 14.553 16.3611 15.318C16.4602 15.4621 16.5059 15.6364 16.4901 15.8106C16.4743 15.9849 16.3982 16.1481 16.2748 16.2721C16.1514 16.3961 15.9885 16.473 15.8143 16.4896C15.6402 16.5062 15.4657 16.4614 15.3211 16.363C14.8723 16.6091 14.3518 16.6912 13.8491 16.595C13.6542 16.555 13.4831 16.4391 13.3736 16.273C13.2641 16.1068 13.2251 15.9039 13.2651 15.709C13.3052 15.5141 13.421 15.343 13.5872 15.2335C13.7533 15.124 13.9562 15.085 14.1511 15.125C14.3281 15.162 14.6141 15.104 14.8591 14.859C15.2461 14.471 15.1451 14.084 15.0361 13.975C14.9261 13.866 14.5391 13.765 14.1521 14.152C13.3681 14.936 12.0141 15.196 11.1471 14.328ZM10.0211 10.293C10.2068 10.1072 10.3541 9.88674 10.4546 9.64406C10.555 9.40139 10.6067 9.1413 10.6067 8.87865C10.6066 8.616 10.5548 8.35593 10.4543 8.11329C10.3537 7.87065 10.2064 7.65019 10.0206 7.4645C9.83486 7.27881 9.61435 7.13153 9.37167 7.03106C9.129 6.93059 8.86891 6.8789 8.60626 6.87895C8.34361 6.879 8.08354 6.93078 7.8409 7.03133C7.59826 7.13189 7.3778 7.27925 7.19211 7.465C6.81709 7.84015 6.60647 8.34891 6.60656 8.87935C6.60665 9.4098 6.81746 9.91848 7.19261 10.2935C7.56776 10.6685 8.07652 10.8791 8.60696 10.8791C9.13741 10.879 9.64609 10.6681 10.0211 10.293Z" fill="#A3A3A4"/>
</svg>
