<svg width="78" height="78" viewBox="0 0 78 78" fill="none" xmlns="http://www.w3.org/2000/svg">
<g filter="url(#filter0_d_25_2999)">
<circle cx="39" cy="39" r="35" fill="#F5F5F5"/>
</g>
<path d="M60.875 48.375H17.125C16.2617 48.375 15.5625 47.6758 15.5625 46.8125V18.6875C15.5625 17.8242 16.2617 17.125 17.125 17.125H60.875C61.7383 17.125 62.4375 17.8242 62.4375 18.6875V46.8125C62.4375 47.6758 61.7383 48.375 60.875 48.375Z" fill="url(#paint0_linear_25_2999)"/>
<path opacity="0.3" d="M60.875 48.375H17.125C16.2617 48.375 15.5625 47.6758 15.5625 46.8125V18.6875C15.5625 17.8242 16.2617 17.125 17.125 17.125H60.875C61.7383 17.125 62.4375 17.8242 62.4375 18.6875V46.8125C62.4375 47.6758 61.7383 48.375 60.875 48.375Z" fill="url(#paint1_linear_25_2999)"/>
<path opacity="0.3" d="M60.8086 48.375H17.0586C16.1953 48.375 15.4961 47.6758 15.4961 46.8125V18.6875C15.4961 17.8242 16.1953 17.125 17.0586 17.125H60.8086C61.6719 17.125 62.3711 17.8242 62.3711 18.6875V46.8125C62.3711 47.6758 61.6719 48.375 60.8086 48.375Z" fill="url(#paint2_linear_25_2999)"/>
<path d="M18.6875 20.25H28.0625V21.8125H18.6875V20.25ZM47.5938 20.25H53.8438V21.8125H47.5938V20.25ZM56.1875 20.25H59.3125V21.8125H56.1875V20.25ZM21.8125 24.9375H24.9375V26.5H21.8125V24.9375ZM18.6875 29.625H24.9375V31.1875H18.6875V29.625ZM18.6875 34.3125H21.8125V35.875H18.6875V34.3125ZM52.2812 34.3125H56.9688V35.875H52.2812V34.3125ZM54.625 29.625H59.3125V31.1875H54.625V29.625ZM18.6875 39H24.9375V40.5625H18.6875V39ZM51.5 39H59.3125V40.5625H51.5V39ZM53.0625 24.9375H57.75V26.5H53.0625V24.9375Z" fill="#76FF03"/>
<path d="M52.6328 45.1563C52.1445 44.2695 52.7656 43.3672 53.8281 42.25C55.5117 40.4766 57.3438 36.3633 55.6406 32.1875C55.6524 32.1641 55.3047 31.4609 55.3164 31.4375L54.6172 31.4023C54.3946 31.3711 46.7031 31.3555 39.0039 31.3555C31.3047 31.3555 23.6133 31.3711 23.3906 31.4023C23.3906 31.4023 22.3555 32.1641 22.3633 32.1875C20.6641 36.3633 22.4922 40.4766 24.1758 42.25C25.2344 43.3672 25.8555 44.2695 25.3711 45.1563C24.8985 46.0195 23.4922 46.1445 23.4922 46.1445C23.4922 46.1445 23.8164 47.0273 24.5977 47.5039C25.3203 47.9453 26.211 48.0469 26.8242 48.0625C26.8242 48.0625 29.2266 51.3867 35.5078 51.3867H42.5C48.7813 51.3867 51.1836 48.0625 51.1836 48.0625C51.7969 48.0469 52.6875 47.9453 53.4102 47.5039C54.1914 47.0273 54.5156 46.1445 54.5156 46.1445C54.5156 46.1445 53.1055 46.0156 52.6328 45.1563Z" fill="#312D2D"/>
<path d="M38.9961 51.3828V47.6953L50.1562 46.8125L51.1719 48.0625C51.1719 48.0625 48.7695 51.3867 42.4883 51.3867L38.9961 51.3828Z" fill="url(#paint3_radial_25_2999)"/>
<path d="M51.1485 46.4492C49.4766 43.9102 53.1836 42.9609 53.1836 42.9609L53.1875 42.9648C52.543 43.7656 52.25 44.4648 52.629 45.1563C53.1016 46.0195 54.5079 46.1445 54.5079 46.1445C54.5079 46.1445 52.5899 47.8477 51.1485 46.4492Z" fill="url(#paint4_radial_25_2999)"/>
<path d="M55.6484 32.1875C57.3086 36.2305 55.5625 40.3945 53.9258 42.1523C53.7031 42.3945 52.75 43.3281 52.5312 44.0742C52.5312 44.0742 48.8047 38.875 47.6914 35.8203C47.4688 35.2031 47.2617 34.5703 47.2344 33.9141C47.2148 33.4219 47.2891 32.8359 47.5742 32.418C47.9219 31.9063 55.4492 31.7539 55.4492 31.7539C55.4492 31.7578 55.6484 32.1875 55.6484 32.1875Z" fill="url(#paint5_radial_25_2999)"/>
<path d="M22.3594 32.1875C20.6992 36.2305 22.4453 40.3945 24.0821 42.1523C24.3086 42.3945 25.2578 43.3281 25.4766 44.0742C25.4766 44.0742 29.2032 38.875 30.3164 35.8203C30.543 35.2031 30.7461 34.5703 30.7735 33.9141C30.793 33.4219 30.7188 32.8359 30.4336 32.418C30.086 31.9063 29.6797 32.043 29.0899 32.043C27.9649 32.043 23.0391 31.7539 22.6563 31.7539C22.6602 31.7578 22.3594 32.1875 22.3594 32.1875Z" fill="url(#paint6_radial_25_2999)"/>
<path d="M39.0117 51.3828V47.6953L27.8516 46.8125L26.8359 48.0625C26.8359 48.0625 29.2383 51.3867 35.5195 51.3867L39.0117 51.3828Z" fill="url(#paint7_radial_25_2999)"/>
<path d="M26.8594 46.4492C28.5312 43.9102 24.8242 42.9609 24.8242 42.9609L24.8203 42.9648C25.4648 43.7656 25.7578 44.4648 25.3789 45.1563C24.9062 46.0195 23.5 46.1445 23.5 46.1445C23.5 46.1445 25.418 47.8477 26.8594 46.4492Z" fill="url(#paint8_radial_25_2999)"/>
<path d="M49.6758 33.6641H28.3242C26.0234 33.6641 24.1406 35.668 24.1406 38.1211C24.1406 40.5742 26.0234 42.5781 28.3242 42.5781H49.6719C51.9727 42.5781 53.8555 40.5703 53.8555 38.1211C53.8594 35.6719 51.9766 33.6641 49.6758 33.6641Z" fill="#EDC391"/>
<path d="M39 18.2891C32.2031 18.2891 25.9062 25.5586 25.9062 36.0234C25.9062 46.4297 32.3945 51.5742 39 51.5742C45.6055 51.5742 52.0937 46.4297 52.0937 36.0234C52.0937 25.5586 45.7969 18.2891 39 18.2891Z" fill="#F9DDBD"/>
<path d="M35.4062 33.4219C35.0429 32.9414 34.207 32.2461 32.582 32.2461C30.957 32.2461 30.1172 32.9453 29.7578 33.4219C29.5976 33.6328 29.6367 33.8789 29.75 34.0273C29.8515 34.1641 30.1562 34.293 30.4922 34.1797C30.8281 34.0664 31.4843 33.7266 32.582 33.7188C33.6797 33.7266 34.3359 34.0664 34.6718 34.1797C35.0078 34.293 35.3125 34.168 35.414 34.0273C35.5234 33.8828 35.5664 33.6367 35.4062 33.4219ZM48.2461 33.4219C47.8828 32.9414 47.0468 32.2461 45.4218 32.2461C43.7968 32.2461 42.957 32.9453 42.5976 33.4219C42.4375 33.6328 42.4765 33.8789 42.5898 34.0273C42.6914 34.1641 42.9961 34.293 43.332 34.1797C43.6679 34.0664 44.3242 33.7266 45.4218 33.7188C46.5195 33.7266 47.1757 34.0664 47.5117 34.1797C47.8476 34.293 48.1523 34.168 48.2539 34.0273C48.3632 33.8828 48.4062 33.6367 48.2461 33.4219Z" fill="#454140"/>
<path d="M32.5781 38.9297C33.6417 38.9297 34.5039 38.0378 34.5039 36.9375C34.5039 35.8372 33.6417 34.9453 32.5781 34.9453C31.5145 34.9453 30.6523 35.8372 30.6523 36.9375C30.6523 38.0378 31.5145 38.9297 32.5781 38.9297Z" fill="#312D2D"/>
<path d="M45.4219 38.9297C46.4855 38.9297 47.3477 38.0378 47.3477 36.9375C47.3477 35.8372 46.4855 34.9453 45.4219 34.9453C44.3583 34.9453 43.4961 35.8372 43.4961 36.9375C43.4961 38.0378 44.3583 38.9297 45.4219 38.9297Z" fill="#312D2D"/>
<path d="M42.2891 43.7071C41.0469 44.4453 36.9649 44.4453 35.7227 43.7071C35.0078 43.2813 34.2774 43.9336 34.5742 44.5821C34.8672 45.2188 37.0899 46.6992 39.0157 46.6992C40.9414 46.6992 43.1367 45.2188 43.4297 44.5821C43.7227 43.9336 43.0039 43.2813 42.2891 43.7071Z" fill="#444444"/>
<path d="M40.5078 40.5469C40.4648 40.5313 40.4258 40.5195 40.3828 40.5156H37.6172C37.5742 40.5195 37.5313 40.5313 37.4922 40.5469C37.2422 40.6484 37.1055 40.9062 37.2227 41.1836C37.3398 41.4609 37.8906 42.2344 39 42.2344C40.1094 42.2344 40.6602 41.457 40.7773 41.1836C40.8945 40.9102 40.7578 40.6484 40.5078 40.5469Z" fill="#DBA689"/>
<path d="M54.6524 23.7734C53.6993 22.332 51.5625 20.3984 49.6446 20.2695C49.336 18.4258 47.3633 16.8633 45.4532 16.2578C40.2852 14.6211 36.9219 16.457 35.1172 17.4414C34.7422 17.6445 32.3164 18.9922 30.6211 18.0273C29.5586 17.4219 29.5782 15.7852 29.5782 15.7852C29.5782 15.7852 26.25 17.0547 27.3868 20.5898C26.2422 20.6367 24.7422 21.1211 23.9493 22.7266C23.0039 24.6406 23.3399 26.2383 23.6133 27.0039C22.6289 27.8398 21.3907 29.6172 22.2383 31.9258C22.8789 33.6641 25.4297 34.4648 25.4297 34.4648C25.1875 38.6602 26.3203 40.6953 26.3203 40.6953C26.3203 40.6953 28.1524 33.4883 28 32.3867C28 32.3867 31.0313 31.7852 34.4727 29.8164C36.7969 28.4844 38.3868 26.9258 41 26.3359C44.9766 25.4414 45.8633 28.3203 45.8633 28.3203C45.8633 28.3203 49.543 27.6133 50.6524 32.7227C51.1094 34.8242 51.4063 38.3086 51.6563 40.4453C51.6328 40.2578 52.9219 37.9727 53.1641 35.6289C53.2266 35.0234 54.8594 34.2227 55.5625 31.6211C56.4961 28.1523 55.3438 24.8164 54.6524 23.7734Z" fill="#312D2D"/>
<path d="M53.1484 35.6445C53.2109 35.0391 54.8438 34.2383 55.5469 31.6367C55.6211 31.3594 55.6836 31.0781 55.7422 30.7969C56.3125 27.6367 55.2891 24.7344 54.6523 23.7734C53.7695 22.4414 51.8789 20.6914 50.0859 20.332C49.9297 20.3125 49.7773 20.293 49.6328 20.2852C49.6328 20.2852 49.7617 21.125 49.4219 21.793C48.9844 22.6602 48.0898 22.8672 48.0898 22.8672C52.7656 27.543 52.4336 31.4609 53.1484 35.6445Z" fill="url(#paint9_radial_25_2999)"/>
<path d="M36.2461 16.8516C35.8164 17.0586 35.4414 17.2656 35.1133 17.4414C34.7383 17.6445 32.3125 18.9922 30.6172 18.0273C29.5742 17.4336 29.5742 15.8477 29.5742 15.793C29.0937 16.4062 27.6406 20.7852 31.8906 21.0781C33.7226 21.2031 34.8515 19.6055 35.5234 18.2539C35.7656 17.7578 36.1445 17.043 36.2461 16.8516Z" fill="url(#paint10_radial_25_2999)"/>
<path d="M44.9218 16.1016C47.7812 16.875 49.3086 18.3945 49.6406 20.2734C49.7421 20.8516 49.9414 26.1641 39.7851 20.1172C36.0078 17.8672 37.039 16.4609 37.4804 16.3008C39.207 15.6758 41.7187 15.2344 44.9218 16.1016Z" fill="url(#paint11_radial_25_2999)"/>
<path d="M29.5625 15.793C29.5586 15.7969 29.5508 15.7969 29.5391 15.8047H29.5352C29.1719 15.957 26.3164 17.2812 27.3829 20.5937L30.4219 21.082C27.7305 18.3555 29.5743 15.7891 29.5743 15.7891C29.5743 15.7891 29.5664 15.7891 29.5625 15.793Z" fill="url(#paint12_radial_25_2999)"/>
<path d="M29.2617 20.8906L27.3828 20.5898C27.3086 20.5898 27.0586 20.6133 26.9219 20.6328C25.8633 20.7812 24.6172 21.3281 23.9414 22.7266C23.2148 24.2344 23.2344 25.5273 23.4336 26.3906C23.4922 26.6797 23.6094 27.0078 23.6094 27.0078C23.6094 27.0078 24.5391 26.125 26.7539 26.0664L29.2617 20.8906Z" fill="url(#paint13_radial_25_2999)"/>
<path d="M23.5196 27.082C22.5938 27.9023 21.3477 29.7344 22.2657 32.0078C22.9571 33.7227 25.4258 34.4648 25.4258 34.4648C25.4258 34.4727 25.918 34.6211 26.1719 34.6211L26.75 26.0664C25.5664 26.0664 24.4297 26.4219 23.6953 26.9336C23.7071 26.9453 23.5157 27.0703 23.5196 27.082Z" fill="url(#paint14_radial_25_2999)"/>
<path d="M16.9805 62.4297H21.9922C22.4297 62.3945 22.7774 61.9687 22.7774 61.4453V61.1914C22.7774 59.793 22.1485 58.5703 21.2071 57.8906C21.2071 57.9492 21.211 58.0078 21.211 58.0664C21.211 59.668 20.4375 60.9648 19.4883 60.9648C18.5391 60.9648 17.7657 59.668 17.7657 58.0664C17.7657 58.0078 17.7696 57.9492 17.7696 57.8906C16.8282 58.5742 16.1993 59.793 16.1993 61.1914V61.4453C16.1953 61.9727 16.543 62.3945 16.9805 62.4297Z" fill="url(#paint15_linear_25_2999)"/>
<path d="M19.4882 60.9687C23.0039 60.9687 21.2109 59.6719 21.2109 58.0703C21.2109 58.0117 21.207 57.9531 21.207 57.8945C20.707 57.5313 20.1171 57.3164 19.4882 57.3164C18.8593 57.3164 18.2695 57.5313 17.7695 57.8945C17.7656 57.9531 17.7656 58.0117 17.7656 58.0703C17.7617 59.6719 15.9531 60.9687 19.4882 60.9687Z" fill="#E14301"/>
<path d="M24.9297 55.7188C24.8867 54.6094 24.0586 52.3203 22.9765 52.1289C22.9445 52.1247 22.9137 52.1139 22.8861 52.0971C22.8585 52.0802 22.8348 52.0578 22.8164 52.0313C22.6445 51.7696 22.0937 51.0664 21.0859 51.6211C20.7109 51.8281 20.5781 52.0117 20.6406 52.2774C20.5937 52.332 20.5078 52.3985 20.3828 52.3477C19.9765 51.8945 19.4765 51.8008 18.8945 52.2539C18.2344 52.7695 18.2344 53.1367 18.3515 53.5L18.3476 53.5039C18.3476 53.5039 18.3203 53.7578 18.1289 53.7383C17.9297 53.5664 17.6914 53.5664 17.3125 53.8399C16.2969 54.5742 16.7148 55.2695 16.8867 55.6797C16.8633 55.7188 16.8242 55.7461 16.7617 55.7422C16.6289 55.6719 16.4609 55.6719 16.2344 55.8008C15.6953 56.1094 15.7734 57.125 15.9258 57.457C16.0937 57.8203 17.0195 59.0938 17.3359 59.4531C17.4101 59.5352 17.5 59.5938 17.5976 59.6328C17.587 59.6296 17.5766 59.6257 17.5664 59.6211C17.8437 59.793 18.3281 60 18.8008 59.7071C18.8008 59.7071 19.1015 59.4883 19.1289 59.2578C19.6406 59.543 20.3476 59.0117 20.3476 59.0117C20.6797 58.7578 20.7656 58.4727 20.7539 58.2266C20.9219 58.3281 21.1055 58.3672 21.2812 58.3711C21.8125 58.3867 22.3008 58.0742 22.3008 58.0742C23.0625 57.6406 23.2148 57.1875 23.2109 56.8867C23.6055 57.1328 24.0937 56.9492 24.0937 56.9492C24.957 56.5586 24.9297 55.7188 24.9297 55.7188Z" fill="url(#paint16_linear_25_2999)"/>
<path d="M56.1718 62.4297H61.1875C61.1875 62.4297 61.4062 58.6055 55.2656 58.4219C49.1211 58.2422 56.1718 62.4297 56.1718 62.4297Z" fill="url(#paint17_linear_25_2999)"/>
<path d="M52.8515 57.6094C52.8945 56.5 53.7226 54.211 54.8047 54.0195C54.8711 54.0078 54.9297 53.9766 54.9648 53.9219C55.1367 53.6602 55.6875 52.957 56.6953 53.5117C57.0703 53.7188 57.2031 53.9024 57.1406 54.168C57.1875 54.2227 57.2734 54.2891 57.3984 54.2383C57.8047 53.7852 58.3047 53.6914 58.8867 54.1445C59.5469 54.6602 59.5469 55.0274 59.4297 55.3906L59.4336 55.3945C59.4336 55.3945 59.4609 55.6485 59.6523 55.6289C59.8515 55.457 60.0898 55.457 60.4687 55.7305C61.4844 56.4649 61.0664 57.1602 60.8945 57.5703C60.9179 57.6094 60.9531 57.6367 61.0195 57.6328C61.1523 57.5625 61.3203 57.5625 61.5469 57.6914C62.0859 58 62.0078 59.0156 61.8554 59.3477C61.6875 59.711 60.7656 60.9844 60.4453 61.3438C60.3711 61.4258 60.2812 61.4844 60.1836 61.5235C60.1953 61.5196 60.207 61.5156 60.2148 61.5117C59.9375 61.6836 59.4531 61.8906 58.9804 61.5977C58.9804 61.5977 58.6797 61.3789 58.6523 61.1485C58.1406 61.4336 57.4336 60.9024 57.4336 60.9024C57.1015 60.6485 57.0156 60.3633 57.0273 60.1172C56.8594 60.2188 56.6758 60.2578 56.5 60.2617C55.9687 60.2774 55.4804 59.9649 55.4804 59.9649C54.7187 59.5313 54.5664 59.0781 54.5703 58.7774C54.1758 59.0235 53.6875 58.8399 53.6875 58.8399C52.8242 58.4492 52.8515 57.6094 52.8515 57.6094Z" fill="url(#paint18_linear_25_2999)"/>
<path d="M59.4062 61.4844C59.3398 61.4492 59.2773 61.4102 59.2188 61.3594C59.2109 61.3516 59.1992 61.3438 59.1914 61.332C59.082 61.2109 59.0508 61.0156 59.3359 60.625C60.1172 59.5898 60.4258 58.8164 60.4258 58.8164C60.6406 58.2734 60.5625 58.1836 60.5625 58.1836C60.4883 58.0625 60.3359 58.4141 60.3359 58.4141C59.5625 59.8086 59.0312 60.418 58.8008 60.6445C58.7891 60.6524 58.7773 60.6602 58.7656 60.6641C58.7227 60.6914 58.6758 60.7188 58.625 60.7383C58.6055 60.7461 58.582 60.7539 58.5625 60.7617C58.5195 60.7773 58.4727 60.7852 58.4258 60.793C58.4023 60.7969 58.3789 60.8008 58.3516 60.8008C58.3008 60.8008 58.25 60.7969 58.1953 60.7852C58.1719 60.7813 58.1484 60.7813 58.125 60.7734C57.9971 60.7394 57.8774 60.6796 57.7734 60.5977C57.7578 60.582 57.7383 60.5664 57.7227 60.5508C57.707 60.5352 57.6875 60.5195 57.6719 60.5039C57.6523 60.4805 57.6328 60.4531 57.6133 60.4297C57.6055 60.418 57.5938 60.4063 57.5859 60.3906C57.5664 60.3594 57.5508 60.3281 57.5352 60.293C57.5312 60.2813 57.5234 60.2695 57.5195 60.2578C57.5039 60.2227 57.4961 60.1836 57.4883 60.1445L57.4766 60.1094C57.4688 60.0703 57.4687 60.0274 57.4648 59.9883C57.4648 59.9727 57.4609 59.9609 57.4609 59.9492C57.4609 59.9063 57.4688 59.8633 57.4766 59.8203C57.4805 59.8047 57.4805 59.7891 57.4844 59.7695C57.4922 59.7266 57.5117 59.6836 57.5273 59.6367C57.5352 59.6172 57.5391 59.5977 57.5469 59.582C58.4375 58.3242 58.8984 57.2266 58.8984 57.2266C59.0469 56.9219 59.1016 56.6016 59.1016 56.6016C59.0039 56.4219 58.8477 56.6836 58.8477 56.6836C57.832 58.5742 57.2305 59.332 57.2305 59.332C57.2305 59.332 56.7578 60.1563 55.7227 59.5391C55.7227 59.5391 55.2109 59.2109 55.125 58.9805C55.0508 58.7891 55.0039 58.4492 55.2656 57.9648C55.2656 57.9648 55.8867 56.6953 56.9102 55.0977C56.9102 55.0977 56.9766 54.8477 56.7461 54.9883C56.5664 55.0977 56.4375 55.3242 56.375 55.3945C56.375 55.3945 55.7695 56.2031 54.8906 57.8164C54.8906 57.8164 54.6953 58.1875 54.4688 58.3711C54.2461 58.4648 53.9648 58.4297 53.6562 58.1992C52.9883 57.6992 53.2383 57 53.6094 56.2813C53.8125 55.8906 54.2773 55.0117 54.7187 54.3086C54.7617 54.293 54.8047 54.2773 54.8477 54.2695C54.9883 54.2461 55.1016 54.1719 55.1719 54.0625C55.5234 53.5273 55.2461 53.043 54.7539 53.7891C53.5195 54 52.6445 56.4141 52.6016 57.6055C52.6016 57.6484 52.582 58.6172 53.582 59.0625C53.6133 59.0742 53.9766 59.207 54.3672 59.1172C54.4648 59.4414 54.7305 59.8203 55.3516 60.1758C55.3633 60.1836 55.9062 60.5156 56.5 60.5078C56.6094 60.5039 56.7188 60.4922 56.8203 60.4648C56.8828 60.668 57.0156 60.8906 57.2812 61.0938C57.3125 61.1172 57.9219 61.5742 58.5078 61.457C58.6211 61.6367 58.7852 61.7617 58.8281 61.793C59.0078 61.9063 59.1992 61.9648 59.3945 61.9805H59.5703C59.8203 61.9648 60.082 61.8789 60.3398 61.7188C60.3437 61.7188 60.3438 61.7148 60.3477 61.7148C60.9531 61.3008 61.8242 59.5703 61.8242 59.3945C61.8242 59.3906 60.5117 61.6719 59.4062 61.4844ZM25.1055 55.5C25.0586 54.3086 24.1836 51.8945 22.9531 51.6836C22.4648 50.9375 22.1836 51.4219 22.5352 51.957C22.6055 52.0664 22.7227 52.1367 22.8594 52.1641C22.9023 52.1719 22.9453 52.1875 22.9883 52.2031C23.4297 52.9063 23.8945 53.7891 24.0977 54.1758C24.4688 54.8906 24.7148 55.5898 24.0508 56.0938C23.7422 56.3242 23.4648 56.3594 23.2383 56.2656C23.0156 56.082 22.8164 55.7109 22.8164 55.7109C21.9375 54.0977 21.332 53.2891 21.332 53.2891C21.2695 53.2188 21.1445 52.9961 20.9609 52.8828C20.7305 52.7422 20.7969 52.9922 20.7969 52.9922C21.8203 54.5859 22.4414 55.8594 22.4414 55.8594C22.707 56.3438 22.6602 56.6836 22.582 56.875C22.4961 57.1055 21.9844 57.4336 21.9844 57.4336C20.9531 58.0508 20.4766 57.2266 20.4766 57.2266C20.4766 57.2266 19.8711 56.4688 18.8594 54.5781C18.8594 54.5781 18.6992 54.3164 18.6055 54.4961C18.6055 54.4961 18.6602 54.8164 18.8086 55.1211C18.8086 55.1211 19.2695 56.2148 20.1602 57.4766C20.168 57.4961 20.1719 57.5156 20.1797 57.5313C20.1953 57.5742 20.2109 57.6211 20.2227 57.6641C20.2266 57.6797 20.2266 57.6953 20.2305 57.7149C20.2383 57.7578 20.2461 57.8008 20.2461 57.8438C20.2461 57.8594 20.2422 57.8711 20.2422 57.8828C20.2422 57.9258 20.2383 57.9648 20.2305 58.0039C20.2266 58.0156 20.2227 58.0273 20.2227 58.0391C20.2148 58.0781 20.2031 58.1172 20.1875 58.1523C20.1836 58.1641 20.1758 58.1758 20.1719 58.1875C20.1562 58.2188 20.1406 58.2539 20.1211 58.2852C20.1133 58.2969 20.1016 58.3086 20.0938 58.3242C20.0742 58.3516 20.0547 58.375 20.0352 58.3984C20.0195 58.4141 20 58.4297 19.9844 58.4453C19.9688 58.4609 19.9531 58.4766 19.9336 58.4922C19.8984 58.5195 19.8594 58.5469 19.8242 58.5664C19.7383 58.6133 19.6562 58.6484 19.582 58.668C19.5586 58.6758 19.5352 58.6758 19.5078 58.6797C19.4531 58.6875 19.4023 58.6953 19.3516 58.6953C19.3281 58.6953 19.3008 58.6914 19.2773 58.6875C19.2305 58.6797 19.1836 58.6719 19.1406 58.6563C19.1211 58.6484 19.0977 58.6406 19.0781 58.6328C19.0312 58.6133 18.9844 58.5859 18.9375 58.5586C18.9258 58.5508 18.9141 58.5469 18.9023 58.5391C18.6719 58.3125 18.1406 57.7031 17.3672 56.3086C17.3672 56.3086 17.2148 55.957 17.1406 56.0781C17.1406 56.0781 17.0625 56.1719 17.2773 56.7109C17.2773 56.7109 17.5859 57.4844 18.3672 58.5195C18.6523 58.9102 18.6211 59.1055 18.5117 59.2266C18.5039 59.2344 18.4922 59.2422 18.4844 59.2539C18.4297 59.3047 18.3633 59.3438 18.2969 59.3789C17.1914 59.5703 15.875 57.2852 15.875 57.2852C15.875 57.4648 16.7461 59.1953 17.3516 59.6055C17.3555 59.6055 17.3555 59.6094 17.3594 59.6094C17.6172 59.7695 17.875 59.8555 18.1289 59.8711H18.3047C18.5039 59.8555 18.6953 59.7969 18.8711 59.6836C18.9141 59.6523 19.0781 59.5234 19.1914 59.3477C19.7773 59.4648 20.3906 59.0078 20.418 58.9844C20.6836 58.7813 20.8164 58.5586 20.8789 58.3555C20.9805 58.3828 21.0859 58.3984 21.1992 58.3984C21.793 58.4102 22.3359 58.0742 22.3477 58.0664C22.9688 57.7148 23.2344 57.332 23.332 57.0078C23.7227 57.0938 24.0859 56.9648 24.1172 56.9531C25.1289 56.5117 25.1094 55.543 25.1055 55.5Z" fill="#EDBD82"/>
<path d="M56.9688 62.4297V45.707C56.9688 44.3086 55.8281 43.168 54.4297 43.168H23.5703C22.1719 43.168 21.0312 44.3086 21.0312 45.707V62.4336H56.9688V62.4297Z" fill="url(#paint19_linear_25_2999)"/>
<path d="M44.8555 62.4297C44.6172 61.6758 44.3047 60.8242 44.0391 59.918C43.5039 58.0977 43.2812 55.0586 43.1875 52.9375C43.1289 51.5977 42.0195 50.5391 40.668 50.5391H37.3281C35.9766 50.5391 34.8672 51.5937 34.8086 52.9375C34.7148 55.0586 34.4922 58.0977 33.957 59.918C33.6914 60.8242 33.3828 61.6758 33.1406 62.4297H44.8555Z" fill="url(#paint20_linear_25_2999)"/>
<defs>
<filter id="filter0_d_25_2999" x="0" y="0" width="78" height="78" filterUnits="userSpaceOnUse" color-interpolation-filters="sRGB">
<feFlood flood-opacity="0" result="BackgroundImageFix"/>
<feColorMatrix in="SourceAlpha" type="matrix" values="0 0 0 0 0 0 0 0 0 0 0 0 0 0 0 0 0 0 127 0" result="hardAlpha"/>
<feOffset/>
<feGaussianBlur stdDeviation="2"/>
<feComposite in2="hardAlpha" operator="out"/>
<feColorMatrix type="matrix" values="0 0 0 0 0 0 0 0 0 0 0 0 0 0 0 0 0 0 0.14 0"/>
<feBlend mode="normal" in2="BackgroundImageFix" result="effect1_dropShadow_25_2999"/>
<feBlend mode="normal" in="SourceGraphic" in2="effect1_dropShadow_25_2999" result="shape"/>
</filter>
<linearGradient id="paint0_linear_25_2999" x1="39" y1="17.3242" x2="39" y2="48.4035" gradientUnits="userSpaceOnUse">
<stop offset="0.003" stop-color="#424242"/>
<stop offset="0.271" stop-color="#353535"/>
<stop offset="0.764" stop-color="#131313"/>
<stop offset="1"/>
</linearGradient>
<linearGradient id="paint1_linear_25_2999" x1="39" y1="17.3242" x2="39" y2="48.4035" gradientUnits="userSpaceOnUse">
<stop offset="0.001" stop-color="#BFBEBE"/>
<stop offset="0.15" stop-color="#212121" stop-opacity="0"/>
<stop offset="0.776" stop-color="#212121" stop-opacity="0"/>
<stop offset="1" stop-color="#BFBEBE"/>
</linearGradient>
<linearGradient id="paint2_linear_25_2999" x1="15.7937" y1="32.75" x2="62.4125" y2="32.75" gradientUnits="userSpaceOnUse">
<stop offset="0.001" stop-color="#BFBEBE"/>
<stop offset="0.1" stop-color="#212121" stop-opacity="0"/>
<stop offset="0.9" stop-color="#212121" stop-opacity="0"/>
<stop offset="1" stop-color="#BFBEBE"/>
</linearGradient>
<radialGradient id="paint3_radial_25_2999" cx="0" cy="0" r="1" gradientUnits="userSpaceOnUse" gradientTransform="translate(44.6965 46.054) scale(9.14805 4.49352)">
<stop offset="0.728" stop-color="#454140" stop-opacity="0"/>
<stop offset="1" stop-color="#454140"/>
</radialGradient>
<radialGradient id="paint4_radial_25_2999" cx="0" cy="0" r="1" gradientUnits="userSpaceOnUse" gradientTransform="translate(53.7076 44.6931) rotate(154.924) scale(2.70338 2.00552)">
<stop offset="0.663" stop-color="#454140"/>
<stop offset="1" stop-color="#454140" stop-opacity="0"/>
</radialGradient>
<radialGradient id="paint5_radial_25_2999" cx="0" cy="0" r="1" gradientUnits="userSpaceOnUse" gradientTransform="translate(46.7012 37.0468) rotate(-94.2783) scale(11.8744 9.89659)">
<stop offset="0.725" stop-color="#454140" stop-opacity="0"/>
<stop offset="1" stop-color="#454140"/>
</radialGradient>
<radialGradient id="paint6_radial_25_2999" cx="0" cy="0" r="1" gradientUnits="userSpaceOnUse" gradientTransform="translate(31.3078 37.0465) rotate(-85.7217) scale(11.8744 9.89659)">
<stop offset="0.725" stop-color="#454140" stop-opacity="0"/>
<stop offset="1" stop-color="#454140"/>
</radialGradient>
<radialGradient id="paint7_radial_25_2999" cx="0" cy="0" r="1" gradientUnits="userSpaceOnUse" gradientTransform="translate(33.3121 46.054) rotate(180) scale(9.14805 4.49352)">
<stop offset="0.728" stop-color="#454140" stop-opacity="0"/>
<stop offset="1" stop-color="#454140"/>
</radialGradient>
<radialGradient id="paint8_radial_25_2999" cx="0" cy="0" r="1" gradientUnits="userSpaceOnUse" gradientTransform="translate(24.3022 44.6934) rotate(25.0761) scale(2.70338 2.00552)">
<stop offset="0.663" stop-color="#454140"/>
<stop offset="1" stop-color="#454140" stop-opacity="0"/>
</radialGradient>
<radialGradient id="paint9_radial_25_2999" cx="0" cy="0" r="1" gradientUnits="userSpaceOnUse" gradientTransform="translate(46.038 30.7815) rotate(72.0851) scale(13.9189 10.3275)">
<stop offset="0.699" stop-color="#454140" stop-opacity="0"/>
<stop offset="1" stop-color="#454140"/>
</radialGradient>
<radialGradient id="paint10_radial_25_2999" cx="0" cy="0" r="1" gradientUnits="userSpaceOnUse" gradientTransform="translate(32.4691 15.6056) rotate(28.2026) scale(3.64968 4.32746)">
<stop offset="0.58" stop-color="#454140"/>
<stop offset="1" stop-color="#454140" stop-opacity="0"/>
</radialGradient>
<radialGradient id="paint11_radial_25_2999" cx="0" cy="0" r="1" gradientUnits="userSpaceOnUse" gradientTransform="translate(40.6202 22.2322) rotate(-157.19) scale(11.404 6.40907)">
<stop offset="0.699" stop-color="#454140" stop-opacity="0"/>
<stop offset="1" stop-color="#454140"/>
</radialGradient>
<radialGradient id="paint12_radial_25_2999" cx="0" cy="0" r="1" gradientUnits="userSpaceOnUse" gradientTransform="translate(31.0036 18.935) scale(3.34961 4.09758)">
<stop offset="0.702" stop-color="#454140" stop-opacity="0"/>
<stop offset="1" stop-color="#454140"/>
</radialGradient>
<radialGradient id="paint13_radial_25_2999" cx="0" cy="0" r="1" gradientUnits="userSpaceOnUse" gradientTransform="translate(30.542 24.8479) rotate(-164.942) scale(6.28265 5.87942)">
<stop offset="0.66" stop-color="#454140" stop-opacity="0"/>
<stop offset="1" stop-color="#454140"/>
</radialGradient>
<radialGradient id="paint14_radial_25_2999" cx="0" cy="0" r="1" gradientUnits="userSpaceOnUse" gradientTransform="translate(29.053 30.9137) rotate(7.83355) scale(6.59631 9.2689)">
<stop offset="0.598" stop-color="#454140" stop-opacity="0"/>
<stop offset="1" stop-color="#454140"/>
</radialGradient>
<linearGradient id="paint15_linear_25_2999" x1="16.1973" y1="60.1621" x2="22.7762" y2="60.1621" gradientUnits="userSpaceOnUse">
<stop stop-color="#FB8C00"/>
<stop offset="0.482" stop-color="#F67F00"/>
<stop offset="1" stop-color="#EF6C00"/>
</linearGradient>
<linearGradient id="paint16_linear_25_2999" x1="21.9797" y1="58.1082" x2="18.198" y2="52.7266" gradientUnits="userSpaceOnUse">
<stop stop-color="#FFD29C"/>
<stop offset="0.5" stop-color="#F9DDBD"/>
</linearGradient>
<linearGradient id="paint17_linear_25_2999" x1="52.7511" y1="60.425" x2="61.1871" y2="60.425" gradientUnits="userSpaceOnUse">
<stop stop-color="#FB8C00"/>
<stop offset="0.482" stop-color="#F67F00"/>
<stop offset="1" stop-color="#EF6C00"/>
</linearGradient>
<linearGradient id="paint18_linear_25_2999" x1="55.8039" y1="60" x2="59.5851" y2="54.6184" gradientUnits="userSpaceOnUse">
<stop stop-color="#FFD29C"/>
<stop offset="0.5" stop-color="#F9DDBD"/>
</linearGradient>
<linearGradient id="paint19_linear_25_2999" x1="39" y1="43.1117" x2="39" y2="69.8355" gradientUnits="userSpaceOnUse">
<stop stop-color="#4DD0E1"/>
<stop offset="1" stop-color="#00BCD4"/>
</linearGradient>
<linearGradient id="paint20_linear_25_2999" x1="38.9996" y1="50.1703" x2="38.9996" y2="65.5133" gradientUnits="userSpaceOnUse">
<stop stop-color="#00BCD4"/>
<stop offset="1" stop-color="#0097A7"/>
</linearGradient>
</defs>
</svg>
