<svg width="120" height="120" viewBox="0 0 120 120" fill="none" xmlns="http://www.w3.org/2000/svg">
<g opacity="0.1">
<path opacity="0.5" d="M95 10H25C21.0254 10.0119 17.217 11.596 14.4065 14.4065C11.596 17.217 10.0119 21.0254 10 25V69.3L29.4 49.9C32.2585 47.1793 36.0537 45.6619 40 45.6619C43.9463 45.6619 47.7415 47.1793 50.6 49.9L64.955 64.335L69.395 59.895C72.2131 57.0927 76.0258 55.5197 80 55.5197C83.9742 55.5197 87.7869 57.0927 90.605 59.895L110 79.3V25C109.988 21.0254 108.404 17.217 105.593 14.4065C102.783 11.596 98.9746 10.0119 95 10Z" fill="black"/>
<path d="M50.6 49.9C47.7415 47.1793 43.9463 45.6619 40 45.6619C36.0537 45.6619 32.2585 47.1793 29.4 49.9L10 69.3V95C10.0119 98.9746 11.596 102.783 14.4065 105.593C17.217 108.404 21.0254 109.988 25 110H95C97.017 109.999 99.013 109.591 100.869 108.8C102.724 108.01 104.402 106.853 105.8 105.4L50.6 49.9Z" fill="black"/>
<path opacity="0.25" d="M110 79.2901L90.6051 59.8951C87.787 57.0928 83.9743 55.5198 80.0001 55.5198C76.0258 55.5198 72.2132 57.0928 69.3951 59.8951L64.9551 64.3351L105.78 105.38C108.49 102.605 110.005 98.8801 110 95.0001V79.2901Z" fill="black"/>
</g>
<path fill-rule="evenodd" clip-rule="evenodd" d="M60 65.0001C60.2652 65.0001 60.5196 64.8947 60.7071 64.7072C60.8946 64.5197 61 64.2653 61 64.0001V49.3694L63.24 51.9841C63.4126 52.1857 63.6581 52.3104 63.9227 52.3309C64.1872 52.3514 64.4491 52.266 64.6507 52.0934C64.8522 51.9209 64.977 51.6753 64.9975 51.4107C65.018 51.1462 64.9326 50.8843 64.76 50.6828L60.76 46.0161C60.6661 45.9063 60.5496 45.8182 60.4184 45.7577C60.2872 45.6973 60.1444 45.666 60 45.666C59.8555 45.666 59.7128 45.6973 59.5816 45.7577C59.4504 45.8182 59.3339 45.9063 59.24 46.0161L55.24 50.6828C55.1545 50.7826 55.0896 50.8982 55.0488 51.0231C55.0081 51.148 54.9924 51.2797 55.0025 51.4107C55.0127 51.5417 55.0485 51.6694 55.108 51.7866C55.1675 51.9037 55.2495 52.008 55.3493 52.0934C55.4491 52.1789 55.5648 52.2438 55.6897 52.2846C55.8146 52.3253 55.9463 52.3411 56.0773 52.3309C56.2083 52.3208 56.336 52.2849 56.4531 52.2254C56.5703 52.1659 56.6745 52.0839 56.76 51.9841L59 49.3708V64.0001C59 64.5521 59.448 65.0001 60 65.0001Z" fill="#450E8B"/>
<path d="M65.3334 56C64.3974 56 63.9294 56 63.5921 56.2253C63.447 56.3224 63.3225 56.447 63.2254 56.592C63.0001 56.9293 63.0001 57.3973 63.0001 58.3333V64C63.0001 64.7956 62.684 65.5587 62.1214 66.1213C61.5588 66.6839 60.7957 67 60.0001 67C59.2044 67 58.4414 66.6839 57.8788 66.1213C57.3162 65.5587 57.0001 64.7956 57.0001 64V58.3333C57.0001 57.3973 57.0001 56.9293 56.7747 56.592C56.6777 56.447 56.5531 56.3224 56.4081 56.2253C56.0707 56 55.6027 56 54.6667 56C50.8961 56 49.0094 56 47.8387 57.172C46.6667 58.3427 46.6667 60.2267 46.6667 63.9987V65.332C46.6667 69.1053 46.6667 70.9893 47.8387 72.1613C49.0094 73.3333 50.8961 73.3333 54.6667 73.3333H65.3334C69.1041 73.3333 70.9907 73.3333 72.1614 72.1613C73.3334 70.9893 73.3334 69.104 73.3334 65.3333V64C73.3334 60.228 73.3334 58.3427 72.1614 57.172C70.9907 56 69.1041 56 65.3334 56Z" fill="#450E8B"/>
</svg>
