<svg width="78" height="78" viewBox="0 0 78 78" fill="none" xmlns="http://www.w3.org/2000/svg">
<g filter="url(#filter0_d_211_222)">
<circle cx="39" cy="39" r="35" fill="#F5F5F5"/>
</g>
<path d="M61.9165 36.9167V46.6458C61.9165 48.3125 61.0832 49.7708 59.8332 50.6458V51.5C59.8332 53.7917 57.9582 55.6667 55.6665 55.6667H52.4165C50.6248 55.6667 49.0415 54.5208 48.4582 52.8125L48.0207 51.5H38.3123L37.8748 52.8125C37.2915 54.5208 35.7082 55.6667 33.9165 55.6667H30.6665C28.3748 55.6667 26.4998 53.7917 26.4998 51.5V50.6458C25.2498 49.7708 24.4165 48.3125 24.4165 46.6458V36.9167H26.4998L32.2498 30.4375C33.3123 29.25 34.7498 28.5833 36.229 28.5833H50.104C51.5832 28.5833 53.0207 29.25 54.0832 30.4375L59.8332 36.9167H61.9165Z" fill="#D3D3D3"/>
<path d="M28.5832 41.0833H26.4998C25.3484 41.0833 24.4165 42.0162 24.4165 43.1667C24.4165 44.3171 25.3484 45.25 26.4998 45.25H28.5832C29.7346 45.25 30.6665 44.3171 30.6665 43.1667C30.6665 42.0162 29.7346 41.0833 28.5832 41.0833ZM51.4998 41.0833H49.4165C48.265 41.0833 47.3332 42.0162 47.3332 43.1667C47.3332 44.3171 48.265 45.25 49.4165 45.25H51.4998C52.6513 45.25 53.5832 44.3171 53.5832 43.1667C53.5832 42.0162 52.6513 41.0833 51.4998 41.0833Z" fill="#1976D2"/>
<path d="M56.0415 33.2478L56.2653 33.5H56.6024H57.7499H59.8333C60.5703 33.5 61.1666 34.0969 61.1666 34.8333C61.1666 35.5698 60.5703 36.1667 59.8333 36.1667H59.0833V36.9167V44.5623C59.0833 46.241 58.4026 47.8362 57.2223 48.9956L57.0033 49.2107L56.998 49.5176C56.9461 52.5024 54.4981 54.9167 51.4999 54.9167H48.251C45.9298 54.9167 43.8521 53.4479 43.0607 51.2463L42.8823 50.75H42.3549H35.6451H35.1193L34.9401 51.2443C34.1385 53.4546 32.0654 54.9167 29.7491 54.9167H26.4999C23.5017 54.9167 21.0537 52.5024 21.0019 49.5176L20.9966 49.2107L20.7776 48.9956C19.5972 47.836 18.9166 46.2409 18.9166 44.5623V36.9167V36.1667H18.1666C17.4296 36.1667 16.8333 35.5698 16.8333 34.8333C16.8333 34.0969 17.4296 33.5 18.1666 33.5H20.2499H21.3974H21.7346L21.9584 33.2478L27.0837 27.4717C27.0839 27.4714 27.0842 27.4711 27.0844 27.4708C28.403 25.9948 30.2211 25.1667 32.0622 25.1667H45.9376C47.7793 25.1667 49.5973 25.9952 50.9093 27.4647C50.9094 27.4649 50.9096 27.4651 50.9098 27.4653L56.0415 33.2478ZM29.0759 29.2431L29.0741 29.2451L25.2916 33.5081L24.3907 34.5234L25.7298 34.7457L30.7146 35.5732L30.7756 35.5833H30.8374H47.1624H47.2243L47.2852 35.5732L52.2698 34.7457L53.609 34.5234L52.708 33.508L48.9196 29.2391L48.9181 29.2373C48.1405 28.3665 47.0596 27.8333 45.9376 27.8333H32.0622C30.9394 27.8333 29.8588 28.3672 29.0759 29.2431ZM54.9028 47.4694L54.9032 47.4691C55.8491 46.8054 56.4166 45.7192 56.4166 44.5623V37.6448V36.76L55.5438 36.9049L47.5523 38.2316L47.5494 38.2321C47.4786 38.2441 47.4068 38.25 47.3333 38.25H30.6666C30.5931 38.25 30.5212 38.2441 30.4504 38.2321L30.4475 38.2316L22.4561 36.9049L21.5833 36.76V37.6448V44.5623C21.5833 45.7192 22.1507 46.8054 23.0966 47.4691L23.097 47.4694C23.4546 47.72 23.6666 48.1276 23.6666 48.5621V49.4167C23.6666 50.9792 24.9359 52.25 26.4999 52.25H29.7491C30.9722 52.25 32.0509 51.4563 32.4466 50.2978L32.4482 50.2929L32.8815 48.995L32.8818 48.9941C33.0625 48.4505 33.571 48.0833 34.1455 48.0833H43.8543C44.4286 48.0833 44.9373 48.4505 45.118 48.9941L45.1182 48.9947L45.5557 50.307L45.5557 50.307L45.5577 50.3127C45.9502 51.4593 47.0306 52.25 48.2508 52.25H51.4999C53.064 52.25 54.3333 50.9792 54.3333 49.4167V48.5621C54.3333 48.1278 54.5452 47.72 54.9028 47.4694Z" stroke="#1976D2" stroke-width="1.5"/>
<defs>
<filter id="filter0_d_211_222" x="0" y="0" width="78" height="78" filterUnits="userSpaceOnUse" color-interpolation-filters="sRGB">
<feFlood flood-opacity="0" result="BackgroundImageFix"/>
<feColorMatrix in="SourceAlpha" type="matrix" values="0 0 0 0 0 0 0 0 0 0 0 0 0 0 0 0 0 0 127 0" result="hardAlpha"/>
<feOffset/>
<feGaussianBlur stdDeviation="2"/>
<feComposite in2="hardAlpha" operator="out"/>
<feColorMatrix type="matrix" values="0 0 0 0 0 0 0 0 0 0 0 0 0 0 0 0 0 0 0.14 0"/>
<feBlend mode="normal" in2="BackgroundImageFix" result="effect1_dropShadow_211_222"/>
<feBlend mode="normal" in="SourceGraphic" in2="effect1_dropShadow_211_222" result="shape"/>
</filter>
</defs>
</svg>
