<svg width="40" height="37" viewBox="0 0 40 37" fill="none" xmlns="http://www.w3.org/2000/svg">
<g clip-path="url(#clip0_106_2294)">
<path d="M14.3332 37.5L11.1665 32.1667L5.1665 30.8333L5.74984 24.6667L1.6665 20L5.74984 15.3333L5.1665 9.16667L11.1665 7.83333L14.3332 2.5L19.9998 4.91667L25.6665 2.5L28.8332 7.83333L34.8332 9.16667L34.2498 15.3333L38.3332 20L34.2498 24.6667L34.8332 30.8333L28.8332 32.1667L25.6665 37.5L19.9998 35.0833L14.3332 37.5ZM18.2498 25.9167L27.6665 16.5L25.3332 14.0833L18.2498 21.1667L14.6665 17.6667L12.3332 20L18.2498 25.9167Z" fill="#00D796"/>
</g>
<defs>
<clipPath id="clip0_106_2294">
<rect width="40" height="37" fill="white"/>
</clipPath>
</defs>
</svg>
