<svg width="40" height="37" viewBox="0 0 40 37" fill="none" xmlns="http://www.w3.org/2000/svg">
<g clip-path="url(#clip0_433_7043)">
<path d="M14.3337 37.5L11.167 32.1667L5.16699 30.8333L5.75033 24.6667L1.66699 20L5.75033 15.3333L5.16699 9.16667L11.167 7.83333L14.3337 2.5L20.0003 4.91667L25.667 2.5L28.8337 7.83333L34.8337 9.16667L34.2503 15.3333L38.3337 20L34.2503 24.6667L34.8337 30.8333L28.8337 32.1667L25.667 37.5L20.0003 35.0833L14.3337 37.5ZM18.2503 25.9167L27.667 16.5L25.3337 14.0833L18.2503 21.1667L14.667 17.6667L12.3337 20L18.2503 25.9167Z" fill="#00D796"/>
</g>
<defs>
<clipPath id="clip0_433_7043">
<rect width="40" height="37" fill="white"/>
</clipPath>
</defs>
</svg>
